<?xml version="1.0" standalone="no"?>
<!DOCTYPE svg PUBLIC "-//W3C//DTD SVG 20010904//EN"
 "http://www.w3.org/TR/2001/REC-SVG-20010904/DTD/svg10.dtd">
<svg version="1.0" xmlns="http://www.w3.org/2000/svg"
 width="260.000000pt" height="260.000000pt" viewBox="0 0 260.000000 260.000000"
 preserveAspectRatio="xMidYMid meet">
<metadata>
Created by potrace 1.11, written by Peter Selinger 2001-2013
</metadata>
<g transform="translate(0.000000,260.000000) scale(0.100000,-0.100000)"
fill="#000000" stroke="none">
<path d="M725 2330 l-270 -270 -1 -988 c-1 -543 -2 -990 -3 -993 0 -4 -40 -7
-88 -7 -171 -1 -163 1 -163 -27 l0 -25 480 0 480 0 0 25 c0 27 3 26 -102 27
l-58 0 -2 1264 -3 1264 -270 -270z"/>
<path d="M1089 1402 c-1 -4 -2 -125 -3 -270 -2 -261 -2 -263 19 -257 133 41
211 -17 277 -205 11 -30 21 -62 23 -70 51 -230 117 -411 181 -497 28 -37 110
-80 174 -90 74 -13 563 -8 638 7 1 0 2 11 2 25 0 20 -5 25 -27 26 -16 1 -35 2
-43 3 -8 2 -25 3 -37 4 -29 3 -74 49 -110 114 -17 29 -67 145 -113 257 -91
226 -127 296 -195 389 -77 103 -197 183 -298 199 -94 15 -213 5 -304 -26 -65
-22 -81 -41 165 205 100 100 182 185 182 188 0 7 -530 5 -531 -2z"/>
</g>
</svg>
