<?xml version="1.0" standalone="no"?>
<!DOCTYPE svg PUBLIC "-//W3C//DTD SVG 20010904//EN"
 "http://www.w3.org/TR/2001/REC-SVG-20010904/DTD/svg10.dtd">
<svg version="1.0" xmlns="http://www.w3.org/2000/svg"
 width="718.000000pt" height="718.000000pt" viewBox="0 0 718.000000 718.000000"
 preserveAspectRatio="xMidYMid meet">
<metadata>
Created by potrace 1.11, written by Peter Selinger 2001-2013
</metadata>
<g transform="translate(0.000000,718.000000) scale(0.100000,-0.100000)"
fill="#000000" stroke="none">
<path d="M5565 7169 c-117 -16 -143 -21 -200 -35 -283 -72 -516 -223 -680
-443 -70 -92 -150 -245 -185 -351 -32 -99 -69 -281 -77 -378 -9 -112 -9 -2305
0 -2397 23 -237 75 -407 189 -615 93 -171 295 -360 483 -452 101 -50 235 -93
365 -118 184 -35 488 -32 650 6 14 3 35 8 48 10 12 3 59 16 104 30 353 112
615 356 751 699 53 134 82 255 105 434 9 76 9 2339 -1 2421 -8 75 -21 156 -33
205 -57 249 -160 447 -321 615 -187 196 -445 322 -748 364 -105 14 -365 18
-450 5z m355 -869 c104 -31 210 -108 269 -195 16 -23 41 -73 57 -111 l29 -69
1 -1130 c2 -954 0 -1139 -12 -1190 -54 -224 -240 -379 -466 -390 -258 -12
-492 177 -526 425 -8 61 -7 2214 1 2268 3 23 11 51 17 62 6 11 8 20 5 20 -12
0 46 100 89 152 127 156 335 218 536 158z"/>
<path d="M52 3455 l0 -3455 544 0 c428 0 544 3 545 13 1 16 1 6857 0 6880 -1
16 -34 17 -545 17 l-544 0 0 -3455z"/>
<path d="M2306 5361 c-2 -3 -4 -325 -3 -716 l0 -709 -397 -391 -396 -390 110
-290 c61 -159 115 -299 120 -310 6 -11 32 -81 60 -155 28 -74 55 -144 60 -155
5 -11 16 -38 23 -60 8 -22 139 -364 292 -760 153 -396 288 -747 300 -780 25
-68 196 -513 228 -592 l21 -53 558 0 c307 0 558 3 558 7 0 7 -323 838 -341
878 -5 11 -63 160 -129 330 -66 171 -125 319 -130 330 -5 11 -41 103 -80 205
-39 102 -75 194 -80 205 -8 16 -172 436 -240 615 -35 89 -311 793 -329 839
-11 25 -47 118 -81 206 -34 88 -65 169 -70 180 -5 11 -19 46 -30 77 -24 66
-27 58 56 154 49 56 137 159 230 270 45 53 823 973 858 1014 54 64 110 59
-559 58 -333 0 -607 -3 -609 -7z"/>
<path d="M4715 1980 c-2 -3 -3 -127 -4 -277 0 -204 3 -272 12 -275 7 -2 482
-4 1057 -4 l1045 1 2 278 1 277 -31 1 c-144 4 -2080 3 -2082 -1z"/>
</g>
</svg>
