<?xml version="1.0" standalone="no"?>
<!DOCTYPE svg PUBLIC "-//W3C//DTD SVG 20010904//EN"
 "http://www.w3.org/TR/2001/REC-SVG-20010904/DTD/svg10.dtd">
<svg version="1.0" xmlns="http://www.w3.org/2000/svg"
 width="254.000000pt" height="254.000000pt" viewBox="0 0 254.000000 254.000000"
 preserveAspectRatio="xMidYMid meet">
<metadata>
Created by potrace 1.11, written by Peter Selinger 2001-2013
</metadata>
<g transform="translate(0.000000,254.000000) scale(0.100000,-0.100000)"
fill="#000000" stroke="none">
<path d="M1947 2524 c-194 -31 -321 -145 -371 -334 -22 -82 -22 -917 0 -1009
42 -182 172 -305 355 -336 163 -28 318 7 430 97 24 20 87 105 103 141 46 99
48 127 48 596 0 484 -3 515 -58 622 -65 129 -194 212 -348 225 -33 3 -65 7
-71 8 -5 1 -45 -3 -88 -10z m166 -310 c36 -19 62 -46 85 -89 14 -26 16 -84 17
-420 1 -214 -3 -408 -8 -430 -35 -166 -261 -191 -330 -36 -19 43 -20 65 -19
446 0 426 2 437 50 489 52 55 141 73 205 40z"/>
<path d="M29 2391 c0 -25 -1 -571 -2 -1214 -2 -1031 0 -1167 13 -1168 8 0 94
-1 190 -2 l175 -1 3 1216 2 1215 -190 0 -190 0 -1 -46z"/>
<path d="M819 1890 c0 -3 -1 -116 -1 -252 l-1 -247 -110 -108 c-61 -59 -124
-122 -139 -139 l-28 -32 211 -548 c116 -302 212 -551 214 -552 4 -4 395 -9
395 -5 0 4 -121 317 -135 348 -10 24 -118 300 -386 987 l-18 47 209 248 c115
136 207 250 204 253 -7 6 -414 7 -415 0z"/>
<path d="M1667 695 c-2 -5 -3 -48 -3 -95 l1 -85 371 -3 371 -2 1 95 c1 52 -1
96 -6 96 -4 1 -170 2 -369 3 -235 1 -364 -2 -366 -9z"/>
</g>
</svg>
