<svg id="Layer_1" data-name="Layer 1" xmlns="http://www.w3.org/2000/svg" viewBox="0 0 256 100"><defs><style>.cls-1{fill:#231f20;}.cls-2{fill:none;stroke:#010101;stroke-miterlimit:10;stroke-width:3.81px;}.cls-3{fill:#010101;}</style></defs><title>absolute-splash-icon</title><path id="Path_150" data-name="Path 150" class="cls-1" d="M255.45,48.89l-17-17a1.89,1.89,0,0,0-2.66,0h0l-17,17a1.89,1.89,0,0,0,0,2.66h0l17,17a1.89,1.89,0,0,0,2.66,0h0l17-17a1.89,1.89,0,0,0,0-2.66ZM240.87,55V50.23h-7.56V55.9h-3.78V48.34a1.89,1.89,0,0,1,1.89-1.89h9.45V41.72l6.62,6.62Z"/><g id="Group_404" data-name="Group 404"><line id="Line_11" data-name="Line 11" class="cls-2" x1="160.88" y1="31.19" x2="160.88" y2="69.25"/><path id="Path_344" data-name="Path 344" class="cls-3" d="M147.56,37.09v15a2.41,2.41,0,0,0,2.66,2.1H170.4a3.16,3.16,0,0,0,2.28-1l7.24-8.56-7.24-8.76A3.19,3.19,0,0,0,170.4,35H150.22A2.41,2.41,0,0,0,147.56,37.09Z"/></g><path id="Path_489" data-name="Path 489" class="cls-1" d="M107.39,33.21l-34,14.23v1.85l12.93,5,5,12.93h1.86Z"/><path id="Path_370" data-name="Path 370" class="cls-1" d="M0,60.14v7.09H7.09L28,46.33l-7.09-7.09Zm33.48-19.3a1.89,1.89,0,0,0,0-2.66l-4.42-4.43a1.9,1.9,0,0,0-2.67,0l-3.46,3.46L30,44.3Z"/></svg>