<svg xmlns="http://www.w3.org/2000/svg" id="Layer_1" viewBox="0 0 256 100" width="256" height="100"><defs><style>.cls-1{fill:#231f20}.cls-2{fill:none;stroke:#010101;stroke-miterlimit:10;stroke-width:3.81px}.cls-3{fill:#010101}</style></defs><path id="Path_150" d="M255.45 48.89l-17-17a1.89 1.89 0 0 0-2.66 0l-17 17a1.89 1.89 0 0 0 0 2.66l17 17a1.89 1.89 0 0 0 2.66 0l17-17a1.89 1.89 0 0 0 0-2.66zM240.87 55v-4.77h-7.56v5.67h-3.78v-7.56a1.89 1.89 0 0 1 1.89-1.89h9.45v-4.73l6.62 6.62z" class="cls-1"/><g id="Group_404"><path id="Line_11" d="M160.88 31.19v38.06" class="cls-2"/><path id="Path_344" d="M147.56 37.09v15a2.41 2.41 0 0 0 2.66 2.1h20.18a3.16 3.16 0 0 0 2.28-1l7.24-8.56-7.24-8.76a3.19 3.19 0 0 0-2.28-.87h-20.18a2.41 2.41 0 0 0-2.66 2.09z" class="cls-3"/></g><path id="Path_489" d="M107.39 33.21l-34 14.23v1.85l12.93 5 5 12.93h1.86z" class="cls-1"/><path id="Path_370" d="M0 60.14v7.09h7.09L28 46.33l-7.09-7.09zm33.48-19.3a1.89 1.89 0 0 0 0-2.66l-4.42-4.43a1.9 1.9 0 0 0-2.67 0l-3.46 3.46L30 44.3z" class="cls-1"/></svg>