<?xml version="1.0" encoding="utf-8"?>
<!-- Generator: Adobe Illustrator 22.0.1, SVG Export Plug-In . SVG Version: 6.00 Build 0)  -->
<svg version="1.1" id="Layer_1" xmlns="http://www.w3.org/2000/svg" xmlns:xlink="http://www.w3.org/1999/xlink" x="0px" y="0px"
	 viewBox="0 0 792 214" style="enable-background:new 0 0 792 214;" xml:space="preserve">
<style type="text/css">
	.st0{fill:#FAA41A;}
	.st1{fill:#FAA41A;stroke:#FAA41A;stroke-width:1.88;stroke-miterlimit:10;}
	.st2{fill:none;stroke:#2C0E1D;stroke-width:4.45;stroke-linecap:round;stroke-miterlimit:10;}
	.st3{fill:none;stroke:#FAA41A;stroke-width:4.45;stroke-linecap:round;stroke-miterlimit:10;stroke-dasharray:8.9,13.35;}
	.st4{fill:#2C0E1D;}
	.st5{fill:#FAA41A;stroke:#2C0E1D;stroke-width:9.4;stroke-miterlimit:10;}
</style>
<title>bees-closet-icons</title>
<path class="st0" d="M392.3,98.9h29.6V69.3h16.4v29.6h29.6v15.7h-29.6v29.6h-16.4v-29.6h-29.6V98.9z"/>
<path class="st1" d="M699.2,107c0-10.6-7.4-19.8-17.8-22.1c0.7-2,1.2-4,1.7-6.1c6-29.2,4.6-48.5-4.2-57.3c-3.2-3.2-9.2-6.7-19.1-4.7
	c-19.7,3.9-32.9,17.4-35.2,36c-1.1,9.1,0.2,18.2,3.8,26.6c-4.7-1.9-9.5-3.5-14.4-4.8c-23-6-50.4,12.3-63.3,24.2
	c-4.5,4.2-4.8,11.2-0.7,15.8c0.2,0.2,0.4,0.5,0.7,0.7c12.9,11.9,40.3,30.2,63.3,24.2c4.9-1.3,9.7-2.9,14.4-4.8
	c-3.6,8.4-4.9,17.6-3.8,26.6c2.4,18.6,15.5,32.1,35.2,36c1.8,0.4,3.7,0.6,5.6,0.6c5,0.2,9.9-1.8,13.5-5.3
	c8.8-8.8,10.2-28.1,4.2-57.3c-0.4-2.1-1-4.1-1.7-6.1C691.8,126.8,699.2,117.6,699.2,107z"/>
<path class="st2" d="M250.3,40.4c0.3-13.4-10.4-24.5-23.8-24.8C213,15.4,201.9,26,201.6,39.5c0,0.3,0,0.7,0,1c0,11.1,3.5,23,40,34.6
	c50.5,18.1,118.3,47,117.6,88.2c0,0,1.6,22.7-23.3,25.3h-23.4"/>
<path class="st3" d="M201.6,78.2c-49.2,18.2-109.5,46.1-108.8,85c0,0-1.7,22.7,23.3,25.3l190.8,0"/>
<path class="st4" d="M569.3,127.2c2.8,1.5,5.6,2.9,8.5,4.2V74.8c-2.9,1.2-5.8,2.7-8.5,4.2V127.2z"/>
<path class="st4" d="M551.4,91.1c-1.6,1.3-3,2.6-4.3,3.8c-4.5,4.2-4.8,11.2-0.7,15.8c0.2,0.2,0.4,0.5,0.7,0.7
	c1.3,1.2,2.8,2.5,4.3,3.8V91.1z"/>
<path class="st4" d="M622.1,74.4v57.4c28.9-10.8,40.8-28.7,40.8-28.7S651,85.2,622.1,74.4z"/>
<path class="st4" d="M604.2,69.6c-2.8-0.2-5.7-0.2-8.5,0.2v66.5c2.8,0.3,5.7,0.4,8.5,0.2V69.6z"/>
<path class="st5" d="M657.2,103.1c9.1,7.4,15.4,17.7,17.8,29.2c4.9,23.9,8.8,61.8-17.8,56.5C612.4,179.7,617.1,122.5,657.2,103.1z"
	/>
<path class="st5" d="M657.2,103.1c9.1-7.4,15.4-17.7,17.8-29.2c4.9-23.9,8.8-61.8-17.8-56.5C612.4,26.4,617.1,83.6,657.2,103.1z"/>
<path class="st4" d="M650.3,103.1c0,1.2,0.1,2.5,0.3,3.7c2.1-1.4,4.3-2.6,6.5-3.7c-2.3-1.1-4.4-2.3-6.5-3.7
	C650.4,100.6,650.3,101.8,650.3,103.1z"/>
<path class="st4" d="M673.1,80.4c-3.1,8.9-8.6,16.7-15.9,22.7c7.3,5.9,12.8,13.8,15.9,22.7c12.5,0,22.7-10.1,22.7-22.7
	S685.6,80.4,673.1,80.4z"/>
</svg>
