<?xml version="1.0" encoding="utf-8"?>
<!-- Generator: Adobe Illustrator 22.0.1, SVG Export Plug-In . SVG Version: 6.00 Build 0)  -->
<svg version="1.1" id="Layer_1" xmlns="http://www.w3.org/2000/svg" xmlns:xlink="http://www.w3.org/1999/xlink" x="0px" y="0px"
	 viewBox="0 0 272.7 305.1" style="enable-background:new 0 0 272.7 305.1;" xml:space="preserve">
<style type="text/css">
	.st0{fill:#FAA41A;stroke:#FAA41A;stroke-width:0.89;stroke-miterlimit:10;}
	.st1{fill:none;stroke:#FAA41A;stroke-width:4.45;stroke-linecap:round;stroke-miterlimit:10;}
	.st2{fill:none;stroke:#2C0E1D;stroke-width:4.45;stroke-linecap:round;stroke-miterlimit:10;}
	.st3{fill:none;stroke:#FAA41A;stroke-width:4.45;stroke-linecap:round;stroke-miterlimit:10;stroke-dasharray:8.9,13.35;}
	.st4{fill:#2C0E1D;}
	.st5{fill:#FAA41A;stroke:#2C0E1D;stroke-width:4.45;stroke-miterlimit:10;}
	.st6{enable-background:new    ;}
	.st7{fill:#FAA41A;}
</style>
<title>bees-closet-logo</title>
<path class="st0" d="M227.6,176.4c0-5-3.5-9.4-8.4-10.5c0.3-1,0.6-1.9,0.8-2.9c2.9-13.8,2.2-23-2-27.1c-1.5-1.5-4.3-3.2-9-2.2
	c-9.3,1.9-15.6,8.2-16.7,17c-0.5,4.3,0.1,8.6,1.8,12.6c-2.2-0.9-4.5-1.6-6.8-2.2c-10.9-2.8-23.9,5.8-30,11.4c-2.1,2-2.3,5.3-0.3,7.5
	c0.1,0.1,0.2,0.2,0.3,0.3c6.1,5.6,19.1,14.3,30,11.4c2.3-0.6,4.6-1.4,6.8-2.2c-1.7,4-2.3,8.3-1.8,12.6c1.1,8.8,7.4,15.2,16.7,17
	c0.9,0.2,1.8,0.3,2.6,0.3c2.4,0.1,4.7-0.8,6.4-2.5c4.1-4.2,4.8-13.3,2-27.1c-0.2-1-0.5-1.9-0.8-2.9
	C224.1,185.7,227.6,181.4,227.6,176.4z"/>
<path class="st1" d="M161.4,28.3c0-13.4-10.9-24.3-24.3-24.3c-13.4,0-24.3,10.9-24.3,24.3c0,11.1,3.5,23,40,34.6
	c50.5,18.1,118.3,47,117.6,88.2c0,0,1.6,22.7-23.3,25.3H234"/>
<path class="st2" d="M159.7,26.5c0-13.4-10.9-24.3-24.3-24.3c-13.4,0-24.3,10.9-24.3,24.3c0,11.1,3.5,23,40,34.6
	c50.5,18.1,118.3,47,117.6,88.2c0,0,1.6,22.7-23.3,25.3h-13.1"/>
<path class="st3" d="M111.1,64.3C61.8,82.6,1.6,110.4,2.2,149.3c0,0-1.6,22.7,23.3,25.3h118.8"/>
<path class="st4" d="M166.2,186c1.3,0.7,2.7,1.4,4,2v-26.9c-1.4,0.6-2.7,1.3-4,2V186z"/>
<path class="st4" d="M157.7,168.9c-0.7,0.6-1.4,1.2-2,1.8c-2.1,2-2.3,5.3-0.3,7.5c0.1,0.1,0.2,0.2,0.3,0.3c0.6,0.6,1.3,1.2,2,1.8
	V168.9z"/>
<path class="st4" d="M191.2,161v27.2c13.7-5.1,19.3-13.6,19.3-13.6S204.9,166.1,191.2,161z"/>
<path class="st4" d="M182.7,158.7c-1.3-0.1-2.7-0.1-4.1,0.1v31.5c1.3,0.2,2.7,0.2,4.1,0.1V158.7z"/>
<path class="st5" d="M207.8,174.5c4.3,3.5,7.3,8.4,8.4,13.8c2.3,11.3,4.2,29.2-8.4,26.7C186.6,210.8,188.8,183.7,207.8,174.5z"/>
<path class="st5" d="M207.8,174.5c4.3-3.5,7.3-8.4,8.4-13.8c2.3-11.3,4.2-29.3-8.4-26.7C186.6,138.2,188.8,165.3,207.8,174.5z"/>
<g class="st6">
	<path class="st7" d="M88.2,243.1c-1.5,0-2.8-0.4-4-1.2c-2.1,2.6-4.9,4.4-8.4,4.4c-7.4,0-10.9-5.4-10.9-15.6
		c0-24,5.9-34.7,11.8-34.7c2.6,0,4.8,1.9,4.8,5.9c0,13.7-11.2,32.5-11.2,32.5s0.2,8,6.8,8c2,0,3.7-1,4.9-2.6
		c-2.6-3.2-3.8-8-3.8-12.1c0-4.4,2.4-8.7,5.5-8.7c3.4,0,5.7,3.1,5.7,8c0,3.4-1,8.3-3.2,12.3c0.6,0.3,1.4,0.5,2.3,0.5
		c2,0,2.9-1.2,4.4-3.3c0.5-0.8,0.9-1.3,1.6-1.3c0.7,0,1.6,0.9,1.6,1.6c0,0.6-0.2,1-0.8,1.8C94,240.1,91.6,243.1,88.2,243.1z
		 M69.4,228.6c0,0,8.2-16.2,8.2-26.9c0-0.9-0.4-1.6-1.2-1.6C73.7,200.1,69.4,209.7,69.4,228.6z M83.7,236.6c1.3-3.3,1.9-7.1,1.9-9.5
		c0-3.1-0.7-4.1-1.6-4.1c-1.2,0-2,2.1-2,4.7C82,231,82.5,234.3,83.7,236.6z"/>
</g>
<g class="st6">
	<path class="st7" d="M93.6,234.4c0-8.7,5.9-16.2,10.9-16.2c3.6,0,4.9,1.7,4.9,4.8c0,6.5-6.9,13-9.8,15.1c0.5,2.7,2.5,4.3,6.2,4.3
		c4.6,0,7.6-3.7,9.1-5.8c0.5-0.8,0.9-1.3,1.6-1.3c0.7,0,1.6,0.9,1.6,1.6c0,0.6-0.2,1-0.8,1.8c-2,2.7-5.7,7.2-12.3,7.2
		C98.4,245.7,93.6,241.5,93.6,234.4z M105.2,223c0-0.9-0.4-1.3-1.1-1.3c-1.8,0-5.3,6.4-5.3,12C101.2,232.2,105.2,227.8,105.2,223z"
		/>
</g>
<g class="st6">
	<path class="st7" d="M115.1,234.4c0-8.7,5.9-16.2,10.9-16.2c3.6,0,4.9,1.7,4.9,4.8c0,6.5-6.9,13-9.8,15.1c0.5,2.7,2.5,4.3,6.2,4.3
		c4.6,0,7.6-3.7,9.1-5.8c0.5-0.8,0.9-1.3,1.6-1.3c0.7,0,1.6,0.9,1.6,1.6c0,0.6-0.2,1-0.8,1.8c-2,2.7-5.7,7.2-12.3,7.2
		C119.9,245.7,115.1,241.5,115.1,234.4z M126.7,223c0-0.9-0.4-1.3-1.1-1.3c-1.8,0-5.3,6.4-5.3,12C122.6,232.2,126.7,227.8,126.7,223
		z"/>
</g>
<g class="st6">
	<path class="st7" d="M145.3,200.9c0,3.2-3.9,8.7-6.4,8.7c-1.2,0-1.3-0.8-1.3-1.6s2.3-2,2.3-4.4c0-1.5-1.2-2.3-1.2-3.6
		s0.9-3.7,3.4-3.7C144.2,196.4,145.3,197.7,145.3,200.9z"/>
</g>
<g class="st6">
	<path class="st7" d="M150.6,225.8c-2.1-1.6-3.7-3.5-3.7-6.9c0-3.7,2.7-6.5,6.1-6.5c2.8,0,5.1,2.1,5.1,5.3c0,1.2-0.2,2-1.2,3.8
		l-1.3,2.4c4,2.6,9.1,5.7,9.1,12.3c0,0.9-0.2,1.6-0.3,2.4h0.2c2.3,0,3.2-0.2,4.7-2.3c0.5-0.8,0.9-1.3,1.6-1.3c0.7,0,1.6,0.9,1.6,1.6
		c0,0.6-0.2,1-0.8,1.8c-2,2.7-4.7,3.3-7.5,3.3h-0.9c-1.5,2.3-4,3.7-6.8,3.7c-3.7,0-6-1.6-6-4.3c0-2.5,2.3-3.8,4.8-3.8
		c1.2,0,2.9,0.5,4.7,0.9c0.1-0.3,0.1-0.6,0.1-0.9c0-5.4-3.3-7.6-6.6-9.6c-1.9,3-4,5.9-5.5,8.1c-1.1,1.6-2,3-2.8,3
		c-0.7,0-1.3-0.5-1.3-1.4c0-1,0.5-1.7,1.6-3.4C146.8,231.8,148.9,228.7,150.6,225.8z M152.9,216.4c-0.9,0-1.7,0.9-1.7,2.3
		c0,1.2,0.6,2.2,1.7,3.1c0.8-1.6,1.3-2.9,1.3-3.7C154.2,217,153.8,216.4,152.9,216.4z M159,241.1c-1.6-0.4-2.8-0.9-3.5-0.9
		c-0.9,0-1.4,0.5-1.4,1.1c0,0.7,0.9,1.2,2,1.2C157,242.5,158.2,242.1,159,241.1z"/>
</g>
<g class="st6">
	<path class="st7" d="M107,290c0.5-0.8,0.9-1.3,1.6-1.3c0.7,0,1.6,0.9,1.6,1.6c0,0.6-0.2,1-0.8,1.8c-2,2.7-5.6,7.6-12.4,7.6
		c-5.5,0-11.4-4.2-11.4-11.8c0-9.8,4.8-16.2,10.8-16.2c4.9,0,6.5,3.9,6.5,6.9c0,2.2-1.1,3.5-2.7,3.5c-1.3,0-2.5-1-2.5-2.1
		s0.8-1.6,0.8-2.5s-0.6-2.3-2.1-2.3c-2.3,0-6.1,4.7-6.1,12.6c0,5.6,3,8.3,7.6,8.3C102.7,296,105.5,292,107,290z"/>
</g>
<g class="st6">
	<path class="st7" d="M107.6,282.8c0-23.4,4.9-31.8,8.8-31.8c3.1,0,4.7,2.3,4.7,7.2c0,11.9-8.3,28.8-8.3,28.8c0,3.1,2.3,8.1,6.9,8.1
		c3.2,0,5.4-3.1,6.9-5.2c0.5-0.8,0.9-1.3,1.6-1.3c0.7,0,1.6,0.9,1.6,1.6c0,0.6-0.2,1-0.8,1.8c-2,2.7-4.8,6.9-9.4,6.9
		C113.6,298.9,107.6,293.9,107.6,282.8z M112,281.2c0,0,5.2-13,5.2-23.5c0-1.1-0.3-2-0.9-2C114.6,255.8,112,265.9,112,281.2z"/>
	<path class="st7" d="M144.2,295.6c-1.9,2.1-4.4,3.4-7.3,3.4c-5.5,0-10.2-3.8-10.2-10.8c0-6,2.7-9.6,4.2-11.2c1-2.9,3.7-5.3,7.6-5.3
		c6.4,0,9.8,6,9.8,12.9c0,2.7-0.8,5.5-2,8h0.9c1.9,0,3.3-0.7,4.8-2.7c0.5-0.8,0.9-1.3,1.6-1.3c0.7,0,1.6,0.9,1.6,1.6
		c0,0.6-0.2,1-0.8,1.8c-2,2.7-4.3,3.8-7.8,3.8C145.7,295.8,144.9,295.7,144.2,295.6z M140.1,294.4c-4-1.9-7.3-5.2-8.8-9.4
		c-0.2,1.1-0.4,2.2-0.4,3.6c0,4.1,2.5,6.9,5.9,6.9C138,295.4,139.1,295,140.1,294.4z M142.4,291.7c1-1.8,1.6-4.1,1.6-6.7
		c0-6.1-2.3-9.8-5.5-9.8c-2.5,0-4.3,1.8-4.3,4.8C134.2,285.1,137.8,289.8,142.4,291.7z"/>
</g>
<g class="st6">
	<path class="st7" d="M158.9,279.3c-2.1-1.6-3.7-3.5-3.7-6.9c0-3.7,2.7-6.5,6.1-6.5c2.8,0,5.1,2.1,5.1,5.3c0,1.2-0.2,2-1.2,3.8
		l-1.3,2.4c4,2.6,9.1,5.7,9.1,12.3c0,0.9-0.2,1.6-0.3,2.4h0.2c2.3,0,3.2-0.2,4.7-2.3c0.5-0.8,0.9-1.3,1.6-1.3c0.7,0,1.6,0.9,1.6,1.6
		c0,0.6-0.2,1-0.8,1.8c-2,2.7-4.7,3.3-7.5,3.3h-0.9c-1.5,2.3-4,3.7-6.8,3.7c-3.7,0-6-1.6-6-4.3c0-2.5,2.3-3.8,4.8-3.8
		c1.2,0,2.9,0.5,4.7,0.9c0.1-0.3,0.1-0.6,0.1-0.9c0-5.4-3.3-7.6-6.6-9.6c-1.9,3-4,5.9-5.5,8.1c-1.1,1.6-2,3-2.8,3
		c-0.7,0-1.3-0.5-1.3-1.4c0-1,0.5-1.7,1.6-3.4C155.1,285.3,157.2,282.2,158.9,279.3z M161.2,269.9c-0.9,0-1.7,0.9-1.7,2.3
		c0,1.2,0.6,2.2,1.7,3.1c0.8-1.6,1.3-2.9,1.3-3.7C162.5,270.4,162,269.9,161.2,269.9z M167.3,294.6c-1.6-0.4-2.8-0.9-3.5-0.9
		c-0.9,0-1.4,0.5-1.4,1.1c0,0.7,0.9,1.2,2,1.2C165.3,296,166.5,295.6,167.3,294.6z"/>
</g>
<g class="st6">
	<path class="st7" d="M176.9,287.8c0-8.7,5.9-16.2,10.9-16.2c3.6,0,4.9,1.7,4.9,4.8c0,6.5-6.9,13-9.8,15.1c0.5,2.7,2.5,4.3,6.2,4.3
		c4.6,0,7.6-3.7,9.1-5.8c0.5-0.8,0.9-1.3,1.6-1.3c0.7,0,1.6,0.9,1.6,1.6c0,0.6-0.2,1-0.8,1.8c-2,2.7-5.7,7.2-12.3,7.2
		C181.7,299.2,176.9,295,176.9,287.8z M188.5,276.5c0-0.9-0.4-1.3-1.1-1.3c-1.8,0-5.3,6.4-5.3,12
		C184.4,285.7,188.5,281.3,188.5,276.5z"/>
</g>
<g class="st6">
	<path class="st7" d="M199.2,286.6c0-3.9,0.5-10.1,1.2-15.7h-2.8c-1.2,0-1.4-0.5-1.4-1.2c0-0.7,0.9-2.7,2-2.7c0.6,0,1.6,0,2.7,0.1
		c0.4-2.7,0.8-5.2,1.2-7.1c0.5-2.2,0.9-3,1.8-3c1.5,0,4.1,1.6,4.1,3.4c0,0.6-1,2.1-1.6,4.2l-0.7,2.5h2.7c4.1,0,3.9-0.8,4.8-0.8
		s2.2,1.6,2.2,2.6s-3.1,1.8-6.9,1.8H205c-0.5,3.7-0.9,8.7-0.9,15.3c0,8.4,2,9.6,4.6,9.6c2.6,0,5.2-3.7,6.7-5.8
		c0.5-0.8,0.9-1.3,1.6-1.3c0.7,0,1.6,0.9,1.6,1.6c0,0.6-0.2,1-0.8,1.8c-2,2.7-5.2,7.3-10.3,7.3C202.7,299.2,199.2,296.4,199.2,286.6
		z"/>
</g>
<path class="st4" d="M204.5,174.5c0,0.6,0.1,1.2,0.2,1.8c1-0.7,2-1.2,3.1-1.8c-1.1-0.5-2.1-1.1-3.1-1.8
	C204.6,173.4,204.5,173.9,204.5,174.5z"/>
<path class="st4" d="M215.3,163.8c-1.5,4.2-4.1,7.9-7.5,10.7c3.5,2.8,6.1,6.5,7.5,10.7c5.9,0,10.7-4.8,10.7-10.7
	S221.2,163.8,215.3,163.8z"/>
</svg>
