<svg id="Layer_1" data-name="Layer 1" xmlns="http://www.w3.org/2000/svg" viewBox="0 0 256 181"><defs><style>.cls-1,.cls-10,.cls-11,.cls-14,.cls-2,.cls-3,.cls-4,.cls-8{fill:none;}.cls-1{stroke:#ea4e5c;}.cls-1,.cls-10,.cls-11,.cls-13,.cls-14,.cls-2,.cls-3{stroke-miterlimit:10;}.cls-2{stroke:#21abb3;}.cls-3{stroke:#f9b218;}.cls-11,.cls-13,.cls-4,.cls-5,.cls-8{stroke:#454646;}.cls-10,.cls-4,.cls-5,.cls-8{stroke-linecap:round;}.cls-4,.cls-5,.cls-8{stroke-linejoin:round;}.cls-4{stroke-width:2px;}.cls-13,.cls-5{fill:#fff;}.cls-6{fill:#f9b218;}.cls-7{fill:#454646;}.cls-9{fill:#ea4e5c;}.cls-10,.cls-14{stroke:#fff;}.cls-10{stroke-width:0.95px;}.cls-12{fill:#22abb1;}.cls-14{stroke-width:0.88px;}</style></defs><title>cheo-icons</title><line class="cls-1" x1="27.32" y1="38.24" x2="40.25" y2="51.17"/><line class="cls-2" x1="30.07" y1="33.31" x2="45.53" y2="48.77"/><line class="cls-3" x1="33" y1="28.56" x2="49.98" y2="45.54"/><line class="cls-1" x1="16.57" y1="48.99" x2="29.49" y2="61.92"/><line class="cls-2" x1="11.64" y1="51.74" x2="27.1" y2="67.2"/><line class="cls-3" x1="6.89" y1="54.67" x2="23.87" y2="71.65"/><path class="cls-4" d="M37.69,23.45C9.6,51.54,47.84,48.1,19.4,76.54"/><path class="cls-4" d="M55.09,40.85C27,68.94,30.44,30.69,2,59.14"/><path class="cls-4" d="M103,53.46c0-15.28,11.22-27.68,25.08-27.68s25.07,12.4,25.07,27.68"/><path class="cls-5" d="M108.41,72l-4.23,0a3.2,3.2,0,0,1-3.2-3.2V54.1a3.2,3.2,0,0,1,3.2-3.2h4.28Z"/><path class="cls-6" d="M104.17,70.38a1.57,1.57,0,0,1-1.56-1.57V54.1a1.57,1.57,0,0,1,1.57-1.57h2.65l0,17.83Z"/><rect class="cls-7" x="108.41" y="47.88" width="4.47" height="26.33" rx="2.24" ry="2.24"/><path class="cls-8" d="M100.81,55.63h0a0,0,0,0,1,0,0V67.28a0,0,0,0,1,0,0h0a3,3,0,0,1-3-3V58.59a3,3,0,0,1,3-3Z"/><path class="cls-5" d="M147.59,72l4.23,0a3.2,3.2,0,0,0,3.2-3.2V54.1a3.2,3.2,0,0,0-3.2-3.2h-4.28Z"/><path class="cls-6" d="M149.21,70.36l0-17.83h2.65a1.57,1.57,0,0,1,1.57,1.57V68.81a1.57,1.57,0,0,1-1.56,1.57Z"/><rect class="cls-7" x="143.11" y="47.88" width="4.47" height="26.33" rx="2.24" ry="2.24" transform="translate(290.7 122.09) rotate(-180)"/><path class="cls-8" d="M158.15,55.63h0a0,0,0,0,1,0,0V67.28a0,0,0,0,1,0,0h0a3,3,0,0,1-3-3V58.59A3,3,0,0,1,158.15,55.63Z" transform="translate(313.33 122.91) rotate(180)"/><path class="cls-9" d="M242.29,33.26,253.2,68.13a4.91,4.91,0,0,1-1.85,5.49l-.1.06a2.65,2.65,0,0,1-1.5.45H228.91a2.72,2.72,0,0,1-1.5-.44l-.11-.08a4.92,4.92,0,0,1-1.86-5.49L236.3,33.26Z"/><line class="cls-10" x1="234.14" y1="61.24" x2="238.82" y2="61.24"/><line class="cls-10" x1="232.42" y1="63.39" x2="238.82" y2="63.39"/><line class="cls-10" x1="234.14" y1="65.55" x2="238.82" y2="65.55"/><line class="cls-10" x1="231.04" y1="67.7" x2="238.82" y2="67.7"/><line class="cls-10" x1="234.14" y1="69.86" x2="238.82" y2="69.86"/><path class="cls-11" d="M254.57,67.74,243.71,33V27.36h.44a1.46,1.46,0,0,0,1.47-1.46h0a1.47,1.47,0,0,0-1.47-1.47h-9.66A1.47,1.47,0,0,0,233,25.9h0a1.46,1.46,0,0,0,1.47,1.46h.38V33L224.08,67.69a6.31,6.31,0,0,0,2.42,7.11l.16.1a4.08,4.08,0,0,0,2.25.66h20.82a4.07,4.07,0,0,0,2.23-.63l.13-.09A6.29,6.29,0,0,0,254.57,67.74Z"/><path class="cls-11" d="M119.55,122.75h17.91a0,0,0,0,1,0,0v21.07a3.61,3.61,0,0,1-3.61,3.61h-10.7a3.61,3.61,0,0,1-3.61-3.61V122.75A0,0,0,0,1,119.55,122.75Z"/><path class="cls-12" d="M118.12,128.09H136.9a2,2,0,0,1,2,2v10.7a2,2,0,0,1-2,2H118.12a0,0,0,0,1,0,0V128.09A0,0,0,0,1,118.12,128.09Z" transform="translate(263.92 6.92) rotate(90)"/><rect class="cls-13" x="117.99" y="119.36" width="21.01" height="3.91"/><line class="cls-11" x1="119.48" y1="119.36" x2="119.48" y2="123.28"/><line class="cls-11" x1="121.87" y1="119.36" x2="121.87" y2="123.28"/><line class="cls-11" x1="125.06" y1="119.36" x2="125.06" y2="123.28"/><line class="cls-11" x1="137.4" y1="119.36" x2="137.4" y2="123.28"/><line class="cls-11" x1="135.41" y1="119.36" x2="135.41" y2="123.28"/><rect class="cls-8" x="241.94" y="135.4" width="3.29" height="18.68" rx="1.64" ry="1.64" transform="translate(313.48 419.31) rotate(-135)"/><rect class="cls-9" x="217.18" y="127.59" width="27.98" height="9.45" transform="translate(161.27 -124.71) rotate(45)"/><rect class="cls-8" x="244.05" y="144.54" width="4.52" height="5.97" transform="translate(316.15 426.01) rotate(-135)"/><path class="cls-8" d="M249.14,144.49h1.91a0,0,0,0,1,0,0v12.06a0,0,0,0,1,0,0h-1.91a1.61,1.61,0,0,1-1.61-1.61v-8.85a1.61,1.61,0,0,1,1.61-1.61Z" transform="translate(319.14 433.23) rotate(-135)"/><polygon class="cls-7" points="210.13 110.33 220.41 120.61 219.46 121.56 209.18 111.28 207.35 107.55 210.13 110.33"/><rect class="cls-8" x="215.26" y="125.67" width="31.82" height="13.3" transform="translate(301.07 389.35) rotate(-135)"/><path class="cls-11" d="M33.71,122.41A15.86,15.86,0,1,0,9.46,135.84v8.8H26.24v-8.8A15.82,15.82,0,0,0,33.71,122.41Z"/><path class="cls-6" d="M11,143.15V135l-.71-.44a14.37,14.37,0,1,1,15.2,0l-.7.44v8.13Z"/><path class="cls-11" d="M26.24,148.14H9.46V151a2.18,2.18,0,0,0,2.18,2.18h3.7a2.85,2.85,0,0,0,0,.29,2.54,2.54,0,1,0,5.08,0,2.83,2.83,0,0,0,0-.29h3.7A2.17,2.17,0,0,0,26.24,151Z"/><rect class="cls-11" x="7.98" y="144.64" width="19.75" height="3.45" rx="1.72" ry="1.72"/><path class="cls-14" d="M19.85,143.42s-.7-16.14,3.93-16.23c2.51,0,2.75,3.07-1,3a7.53,7.53,0,0,1-5.25-2.39c-1.1-1.14-2-2.59-1.08-3.76a1.84,1.84,0,0,1,2.87,0c.89,1.17,0,2.62-1.1,3.76a7.5,7.5,0,0,1-5.14,2.4c-3.88.11-3.67-3-1.14-3,4.64.09,3.94,16.23,3.94,16.23"/></svg>