<svg id="findfido-logo" xmlns="http://www.w3.org/2000/svg" viewBox="0 0 256 256"><defs><style>.cls-1{fill:#f1592b;}.cls-2{fill:#d74527;}.cls-3{fill:#616261;}.cls-4{fill:#fafbfb;}.cls-5{fill:#0dbcd4;}.cls-6{fill:#212121;}.cls-7{fill:#fff;}</style></defs><title>findfido-logo</title><rect class="cls-1" width="256" height="256" rx="20.21" ry="20.21"/><path class="cls-2" d="M256,235.63V76.91L194.62,36.39l-64.73,188L177.48,256h58.31A20.35,20.35,0,0,0,256,235.63Z"/><path class="cls-3" d="M210.35,90.38l-54-54H103.29l-54,54v89.27a17.91,17.91,0,0,0,17.91,17.91H103l26.87,26.86,26.86-26.86h35.81a18,18,0,0,0,17.91-17.91Z"/><path class="cls-4" d="M210.47,177.1c-17.54-12.31-42.52-20.58-70.7-22.24a7.54,7.54,0,0,1-7.14-7.5V140h-6.1v7.32a7.55,7.55,0,0,1-7.17,7.51c-27.77,1.54-52.47,9.51-70.06,21.45v3.37a17.91,17.91,0,0,0,17.91,17.91H103l26.87,26.86,26.86-26.86h35.81a18,18,0,0,0,17.91-17.91Z"/><polygon class="cls-5" points="156.75 197.56 103.02 197.56 129.89 224.42 156.75 197.56"/><path class="cls-6" d="M103.29,36.39H67.21A17.9,17.9,0,0,0,49.3,54.29V90.38Z"/><path class="cls-6" d="M156.35,36.39h36.09a17.9,17.9,0,0,1,17.91,17.9V90.38Z"/><circle class="cls-4" cx="97.74" cy="105.89" r="10.03"/><path class="cls-6" d="M99.19,189.13h60.22a4.66,4.66,0,0,1,4.66,4.66v3.81a0,0,0,0,1,0,0H94.53a0,0,0,0,1,0,0v-3.81A4.66,4.66,0,0,1,99.19,189.13Z"/><rect class="cls-4" x="123.21" y="194.44" width="13.35" height="13.35" rx="6.68" ry="6.68"/><circle cx="97.74" cy="105.89" r="4.15"/><circle class="cls-4" cx="94.84" cy="103.66" r="1.92"/><circle class="cls-7" cx="161.76" cy="105.58" r="10.03"/><circle cx="161.76" cy="105.58" r="4.15"/><circle class="cls-4" cx="158.86" cy="103.35" r="1.92"/><path class="cls-6" d="M139.11,142.4a2.89,2.89,0,0,1,5-2.1,2.11,2.11,0,0,0,3.33-.38,9.31,9.31,0,0,0,1.35-4.77V133.8a9.29,9.29,0,0,0-9.29-9.29H120.3A9.28,9.28,0,0,0,111,133.8v1.35a9.15,9.15,0,0,0,1.87,5.55,2.19,2.19,0,0,0,1.72.84,2.06,2.06,0,0,0,1.69-.89,2.87,2.87,0,0,1,2.52-1.22,3.09,3.09,0,0,1,2.75,3,2.09,2.09,0,0,0,2,2h13.54A2.07,2.07,0,0,0,139.11,142.4Zm5.41-7.25"/></svg>