<svg id="Roboto" xmlns="http://www.w3.org/2000/svg" viewBox="0 0 792 186"><defs><style>.cls-1{isolation:isolate;}.cls-2{fill:#2a121d;}</style></defs><title>findfido-type</title><g class="cls-1"><g class="cls-1"><path class="cls-2" d="M19,47.1a4.32,4.32,0,0,1-.37-1.18c-.1-.48-.18-1-.24-1.49A12.57,12.57,0,0,1,17,45.64a10.3,10.3,0,0,1-1.67,1,10.27,10.27,0,0,1-2,.68,10,10,0,0,1-2.23.24A10.17,10.17,0,0,1,7.59,47a8.59,8.59,0,0,1-2.7-1.6,7.1,7.1,0,0,1-2.33-5.33,7.7,7.7,0,0,1,.8-3.6,7.13,7.13,0,0,1,2.28-2.61,10.76,10.76,0,0,1,3.61-1.6A19,19,0,0,1,14,31.71h4.32v-2a4.87,4.87,0,0,0-1.36-3.63,5.48,5.48,0,0,0-4-1.35,7.1,7.1,0,0,0-2.23.33A5.63,5.63,0,0,0,9,26a4.08,4.08,0,0,0-1.11,1.28,3.06,3.06,0,0,0-.4,1.52H3.08a5.68,5.68,0,0,1,.71-2.7,7.88,7.88,0,0,1,2-2.4A11,11,0,0,1,9,21.91a12.41,12.41,0,0,1,4.17-.67,13.24,13.24,0,0,1,3.81.53,8.19,8.19,0,0,1,3,1.6,7.38,7.38,0,0,1,2,2.66,9.19,9.19,0,0,1,.7,3.73v11.8a18.42,18.42,0,0,0,.22,2.71,10.65,10.65,0,0,0,.67,2.46v.37Zm-7.2-3.31a7.5,7.5,0,0,0,2.2-.32,8.3,8.3,0,0,0,1.88-.86,7.3,7.3,0,0,0,1.47-1.21,5.74,5.74,0,0,0,1-1.41V34.78H14.67A11.56,11.56,0,0,0,8.92,36a3.77,3.77,0,0,0-2,3.5,4.69,4.69,0,0,0,.31,1.72,3.57,3.57,0,0,0,.92,1.37,4.54,4.54,0,0,0,1.53.91A5.85,5.85,0,0,0,11.76,43.79Z"/><path class="cls-2" d="M50.92,34.69a19.05,19.05,0,0,1-.66,5.15,12.62,12.62,0,0,1-1.92,4.08,9.06,9.06,0,0,1-3.1,2.69,8.85,8.85,0,0,1-4.18,1,9.89,9.89,0,0,1-4.34-.88,8.46,8.46,0,0,1-3.09-2.52l-.21,2.93h-4v-36h4.34V24.51a8.51,8.51,0,0,1,3-2.42,9.77,9.77,0,0,1,4.2-.85,9.27,9.27,0,0,1,4.23.94,8.84,8.84,0,0,1,3.1,2.64,12.37,12.37,0,0,1,1.91,4.09,19.74,19.74,0,0,1,.66,5.29Zm-4.34-.49a17.75,17.75,0,0,0-.35-3.58,9.36,9.36,0,0,0-1.14-2.95,5.94,5.94,0,0,0-2.05-2,6,6,0,0,0-3.1-.74,7.23,7.23,0,0,0-2.16.3,6.49,6.49,0,0,0-1.73.85,6.12,6.12,0,0,0-1.32,1.27,7.59,7.59,0,0,0-1,1.57v11a9,9,0,0,0,1,1.57,6.46,6.46,0,0,0,1.34,1.27,6.18,6.18,0,0,0,1.73.84,6.91,6.91,0,0,0,2.16.31,5.8,5.8,0,0,0,3-.73,5.91,5.91,0,0,0,2-2,9,9,0,0,0,1.17-2.92,16.38,16.38,0,0,0,.38-3.58Z"/><path class="cls-2" d="M66.57,44a6.58,6.58,0,0,0,2.21-.38,6.23,6.23,0,0,0,1.86-1A5.48,5.48,0,0,0,72,41.06a4.87,4.87,0,0,0,.59-2h4.11a7.51,7.51,0,0,1-.93,3.23A9.43,9.43,0,0,1,73.54,45a10.87,10.87,0,0,1-3.16,1.85,10.47,10.47,0,0,1-3.81.69,11.43,11.43,0,0,1-5-1,10.15,10.15,0,0,1-3.53-2.76,11.56,11.56,0,0,1-2.1-4,16.79,16.79,0,0,1-.69-4.86v-1A16.79,16.79,0,0,1,56,29.06a11.69,11.69,0,0,1,2.1-4,10.18,10.18,0,0,1,3.52-2.75,11.21,11.21,0,0,1,5-1,11.09,11.09,0,0,1,4,.71,9.75,9.75,0,0,1,3.15,1.93,9.14,9.14,0,0,1,2.08,2.93,10,10,0,0,1,.84,3.63H72.55A6.42,6.42,0,0,0,72,28.25a5.56,5.56,0,0,0-1.23-1.78,5.66,5.66,0,0,0-1.84-1.21,6.08,6.08,0,0,0-2.38-.45,6.44,6.44,0,0,0-3.35.8,6.29,6.29,0,0,0-2.13,2.1,8.87,8.87,0,0,0-1.14,2.93,16.51,16.51,0,0,0-.33,3.28v1a16.69,16.69,0,0,0,.33,3.32,8.63,8.63,0,0,0,1.13,2.92,6.18,6.18,0,0,0,2.13,2.09A6.53,6.53,0,0,0,66.57,44Z"/><path class="cls-2" d="M80.48,34.2a18.19,18.19,0,0,1,.72-5.29,12.53,12.53,0,0,1,2-4.09,9.41,9.41,0,0,1,3.16-2.64,9,9,0,0,1,4.11-.94,9.8,9.8,0,0,1,4.06.79,8.75,8.75,0,0,1,3,2.26V11.06h4.34v36h-4l-.21-2.72a8.57,8.57,0,0,1-3,2.37,9.93,9.93,0,0,1-4.2.82,8.64,8.64,0,0,1-4.07-1,9.45,9.45,0,0,1-3.16-2.69,12.79,12.79,0,0,1-2-4.08,17.56,17.56,0,0,1-.72-5.15Zm4.35.49a16.38,16.38,0,0,0,.38,3.58,8.85,8.85,0,0,0,1.21,2.92,6.15,6.15,0,0,0,2.09,2,5.91,5.91,0,0,0,3,.73,7.29,7.29,0,0,0,2.06-.27,6.45,6.45,0,0,0,1.66-.76,6.12,6.12,0,0,0,1.31-1.18,7.84,7.84,0,0,0,1-1.5V28.52a7.92,7.92,0,0,0-1-1.43A5.92,5.92,0,0,0,95.28,26a6.14,6.14,0,0,0-1.66-.75,7.15,7.15,0,0,0-2-.27,5.93,5.93,0,0,0-3.06.74,6.18,6.18,0,0,0-2.1,2,9.2,9.2,0,0,0-1.21,2.95,16.38,16.38,0,0,0-.38,3.58Z"/><path class="cls-2" d="M119.18,47.57a12.12,12.12,0,0,1-4.8-.91,10.62,10.62,0,0,1-3.67-2.55,11.28,11.28,0,0,1-2.35-3.88,14.25,14.25,0,0,1-.82-4.93v-1a15.41,15.41,0,0,1,.93-5.53,12.31,12.31,0,0,1,2.47-4.11,10.77,10.77,0,0,1,3.55-2.55,10.24,10.24,0,0,1,4.15-.88,10.75,10.75,0,0,1,4.69,1,8.91,8.91,0,0,1,3.25,2.62,11.27,11.27,0,0,1,1.89,3.94,19,19,0,0,1,.61,5v1.95h-17.2a10.61,10.61,0,0,0,.58,3.29,8,8,0,0,0,1.5,2.65,7.21,7.21,0,0,0,2.34,1.78,7.1,7.1,0,0,0,3.11.66,7.54,7.54,0,0,0,3.9-.94,9.82,9.82,0,0,0,2.79-2.49l2.65,2.07a12.18,12.18,0,0,1-1.48,1.82,10.14,10.14,0,0,1-2,1.57,10.52,10.52,0,0,1-2.66,1.1A13,13,0,0,1,119.18,47.57Zm-.54-22.76a6,6,0,0,0-2.42.48,6.08,6.08,0,0,0-2,1.4A7.48,7.48,0,0,0,112.81,29a11.29,11.29,0,0,0-.79,3.13h12.72v-.33a12,12,0,0,0-.41-2.51A6.76,6.76,0,0,0,123.27,27a5.39,5.39,0,0,0-1.84-1.6A5.76,5.76,0,0,0,118.64,24.81Z"/><path class="cls-2" d="M136.24,47.1v-22h-4V21.71h4V19a10.72,10.72,0,0,1,.57-3.63,7.16,7.16,0,0,1,1.66-2.66,7,7,0,0,1,2.62-1.63,10.37,10.37,0,0,1,3.5-.55,11.26,11.26,0,0,1,3,.4l-.23,3.52a10,10,0,0,0-1.12-.16c-.41,0-.82-.05-1.23-.05a4.23,4.23,0,0,0-3.26,1.23A5,5,0,0,0,140.58,19v2.67H146v3.36h-5.42v22Z"/><path class="cls-2" d="M149.19,34.2a18.93,18.93,0,0,1,.69-5.29,12.3,12.3,0,0,1,2-4.09,8.9,8.9,0,0,1,7.33-3.58,9.77,9.77,0,0,1,4.2.85,8.55,8.55,0,0,1,3.05,2.44l.21-2.82h4V46.56a12,12,0,0,1-.79,4.47,9,9,0,0,1-2.22,3.31,9.44,9.44,0,0,1-3.4,2,12.86,12.86,0,0,1-4.36.71,13.87,13.87,0,0,1-4.85-1,11.9,11.9,0,0,1-2.5-1.35,8,8,0,0,1-2-2.09l2.25-2.6a10.2,10.2,0,0,0,1.65,1.64,8.16,8.16,0,0,0,1.7,1,7.66,7.66,0,0,0,1.73.58,8.74,8.74,0,0,0,1.75.18,8.34,8.34,0,0,0,2.77-.44,5.52,5.52,0,0,0,2.12-1.3,5.75,5.75,0,0,0,1.35-2.12,8.45,8.45,0,0,0,.47-2.93v-2.2a8.58,8.58,0,0,1-3,2.23,10.17,10.17,0,0,1-4.1.77,8.78,8.78,0,0,1-4.12-1,9.38,9.38,0,0,1-3.14-2.69,12.75,12.75,0,0,1-2-4.08,17.91,17.91,0,0,1-.7-5.15Zm4.36.49a15.78,15.78,0,0,0,.39,3.58,9.05,9.05,0,0,0,1.2,2.92,5.76,5.76,0,0,0,5.1,2.7,7.42,7.42,0,0,0,2.08-.28,6.19,6.19,0,0,0,1.66-.78,6.1,6.1,0,0,0,1.31-1.17,8.61,8.61,0,0,0,1-1.5V28.57a9,9,0,0,0-1-1.45A6.33,6.33,0,0,0,164,26a5.93,5.93,0,0,0-1.65-.76,7.2,7.2,0,0,0-2-.27,5.87,5.87,0,0,0-3,.74,6.15,6.15,0,0,0-2.09,2,9.2,9.2,0,0,0-1.21,2.95,15.78,15.78,0,0,0-.39,3.58Z"/><path class="cls-2" d="M181.52,24.79a9.84,9.84,0,0,1,3.27-2.61,9.5,9.5,0,0,1,4.24-.94,10.4,10.4,0,0,1,3.36.51A6.3,6.3,0,0,1,195,23.37a7.64,7.64,0,0,1,1.63,2.86,13.81,13.81,0,0,1,.57,4.24V47.1h-4.34V30.42a8.37,8.37,0,0,0-.33-2.52,4.09,4.09,0,0,0-1-1.7,3.87,3.87,0,0,0-1.6-1,7.25,7.25,0,0,0-2.19-.3A6.26,6.26,0,0,0,184,26.05a7.82,7.82,0,0,0-2.49,3V47.1h-4.34v-36h4.34Z"/><path class="cls-2" d="M203.67,15a2.59,2.59,0,0,1,.65-1.78,2.41,2.41,0,0,1,1.91-.73,2.45,2.45,0,0,1,1.93.73,2.59,2.59,0,0,1,.65,1.78,2.33,2.33,0,0,1-2.58,2.46,2.46,2.46,0,0,1-1.91-.7A2.52,2.52,0,0,1,203.67,15Zm4.7,32.12H204V21.71h4.34Z"/><path class="cls-2" d="M219.79,21.71V50.13a7.81,7.81,0,0,1-1.64,5.37,6.32,6.32,0,0,1-5,1.86,8.75,8.75,0,0,1-1.36-.12,7.19,7.19,0,0,1-1.29-.31V53.46a5.21,5.21,0,0,0,1,.15c.37,0,.69,0,.95,0a2.94,2.94,0,0,0,2.22-.79,3.86,3.86,0,0,0,.76-2.73V21.71ZM215,15a2.59,2.59,0,0,1,.64-1.77,2.38,2.38,0,0,1,1.89-.74,2.45,2.45,0,0,1,1.93.73,2.59,2.59,0,0,1,.65,1.78,2.33,2.33,0,0,1-2.58,2.46,2.43,2.43,0,0,1-1.9-.7A2.55,2.55,0,0,1,215,15Z"/><path class="cls-2" d="M233.87,35.35l-2.72,2.84V47.1h-4.34v-36h4.34v21.8l2.32-2.79,7.91-8.36h5.28l-9.88,10.61,11,14.78h-5.09Z"/><path class="cls-2" d="M255.86,47.1h-4.34v-36h4.34Z"/><path class="cls-2" d="M266.89,21.71l.11,2.82a9.35,9.35,0,0,1,3.18-2.42,10.25,10.25,0,0,1,4.36-.87,9.36,9.36,0,0,1,4.35,1,6.48,6.48,0,0,1,2.9,3.11,9.58,9.58,0,0,1,3.29-3,9.79,9.79,0,0,1,4.8-1.13,11.45,11.45,0,0,1,3.62.53,6.6,6.6,0,0,1,2.66,1.66,7.12,7.12,0,0,1,1.65,2.86,13.29,13.29,0,0,1,.57,4.13V47.1H294V30.4a7.78,7.78,0,0,0-.39-2.66,4.23,4.23,0,0,0-1.09-1.69,4,4,0,0,0-1.72-.88,9.56,9.56,0,0,0-2.22-.24,6.19,6.19,0,0,0-2.37.42,5.55,5.55,0,0,0-1.78,1.14,5.44,5.44,0,0,0-1.17,1.69,6.88,6.88,0,0,0-.55,2.07V47.1h-4.37V30.42A7.19,7.19,0,0,0,278,27.9a4.27,4.27,0,0,0-1.09-1.7,4.4,4.4,0,0,0-1.7-1,7.85,7.85,0,0,0-2.25-.3,6.31,6.31,0,0,0-3.73,1,6.2,6.2,0,0,0-2.11,2.63V47.1h-4.34V21.71Z"/><path class="cls-2" d="M309,21.71l.14,3.2a9.71,9.71,0,0,1,3.29-2.69,9.39,9.39,0,0,1,4.31-1,10.4,10.4,0,0,1,3.36.51,6.3,6.3,0,0,1,2.56,1.62,7.64,7.64,0,0,1,1.63,2.86,13.81,13.81,0,0,1,.57,4.24V47.1h-4.34V30.42a8.37,8.37,0,0,0-.33-2.52,4.09,4.09,0,0,0-1-1.7,3.87,3.87,0,0,0-1.6-1,7.25,7.25,0,0,0-2.19-.3,6.26,6.26,0,0,0-3.71,1.12,7.82,7.82,0,0,0-2.49,3V47.1h-4.34V21.71Z"/><path class="cls-2" d="M330.29,34.17a15.66,15.66,0,0,1,.81-5.12,12.25,12.25,0,0,1,2.3-4.1A10.51,10.51,0,0,1,337,22.23a11.27,11.27,0,0,1,4.79-1,11.41,11.41,0,0,1,4.84,1A10.53,10.53,0,0,1,350.3,25a12.08,12.08,0,0,1,2.3,4.1,15.93,15.93,0,0,1,.8,5.12v.52a16,16,0,0,1-.8,5.13,12,12,0,0,1-2.3,4.08,10.59,10.59,0,0,1-3.63,2.7,12.41,12.41,0,0,1-9.62,0,10.53,10.53,0,0,1-3.64-2.7,12.18,12.18,0,0,1-2.31-4.08,15.72,15.72,0,0,1-.81-5.13Zm4.36.52a13.9,13.9,0,0,0,.45,3.59,9.19,9.19,0,0,0,1.35,3,6.73,6.73,0,0,0,2.25,2,7,7,0,0,0,6.3,0,6.54,6.54,0,0,0,2.25-2,9.19,9.19,0,0,0,1.35-3,13.48,13.48,0,0,0,.46-3.59v-.52a13.44,13.44,0,0,0-.46-3.57,9.16,9.16,0,0,0-1.36-3A6.82,6.82,0,0,0,345,25.57a6.49,6.49,0,0,0-3.17-.76,6.27,6.27,0,0,0-3.12.76,6.85,6.85,0,0,0-2.24,2.05,9.14,9.14,0,0,0-1.35,3,13.86,13.86,0,0,0-.45,3.57Z"/><path class="cls-2" d="M380.29,34.69a19.05,19.05,0,0,1-.66,5.15,12.4,12.4,0,0,1-1.91,4.08,8.6,8.6,0,0,1-7.26,3.65,10.81,10.81,0,0,1-4.19-.75,8.52,8.52,0,0,1-3.08-2.18V56.86h-4.35V21.71h4l.21,2.82a8.61,8.61,0,0,1,3.12-2.44,10.1,10.1,0,0,1,4.25-.85,9.25,9.25,0,0,1,4.23.94,8.87,8.87,0,0,1,3.11,2.64,12,12,0,0,1,1.92,4.09,20.18,20.18,0,0,1,.64,5.29ZM376,34.2a15.22,15.22,0,0,0-.4-3.58,9,9,0,0,0-1.24-2.95,6.39,6.39,0,0,0-2.14-2,6,6,0,0,0-3.07-.74,7,7,0,0,0-2,.26,6.17,6.17,0,0,0-1.63.72A6.57,6.57,0,0,0,364.17,27a8.49,8.49,0,0,0-1,1.39V40.56a8.49,8.49,0,0,0,1,1.39,5.88,5.88,0,0,0,1.29,1.1,6.09,6.09,0,0,0,1.64.72,7.61,7.61,0,0,0,2,.26,5.87,5.87,0,0,0,3-.75,6.52,6.52,0,0,0,2.13-2,8.86,8.86,0,0,0,1.24-3,15.45,15.45,0,0,0,.4-3.6Z"/><path class="cls-2" d="M384.75,34.2a19.32,19.32,0,0,1,.68-5.29,12.08,12.08,0,0,1,2-4.09,9.19,9.19,0,0,1,3.18-2.64,9.51,9.51,0,0,1,4.27-.94A10,10,0,0,1,399,22a8.46,8.46,0,0,1,3,2.25l.19-2.56h4V56.86h-4.34V44.76a8.65,8.65,0,0,1-3,2.08,10.09,10.09,0,0,1-4,.73,8.89,8.89,0,0,1-7.4-3.65,12.71,12.71,0,0,1-2-4.08,18.28,18.28,0,0,1-.69-5.15Zm4.34.49a15.45,15.45,0,0,0,.4,3.6,9.07,9.07,0,0,0,1.24,3,6.52,6.52,0,0,0,2.13,2,5.88,5.88,0,0,0,3,.75,6.34,6.34,0,0,0,3.59-1,7.73,7.73,0,0,0,2.32-2.47V28.17a8.45,8.45,0,0,0-1-1.34,6.63,6.63,0,0,0-1.3-1.06,7.07,7.07,0,0,0-1.61-.7,7,7,0,0,0-1.94-.26,6,6,0,0,0-3.07.76,6.54,6.54,0,0,0-2.14,2.05,9.22,9.22,0,0,0-1.24,3,15.45,15.45,0,0,0-.4,3.6Z"/><path class="cls-2" d="M425.39,25.61c-.38-.06-.72-.11-1-.13s-.69,0-1.1,0a6.29,6.29,0,0,0-3.67,1,6,6,0,0,0-2.12,2.65v18h-4.34V21.71h4.22l.07,2.94a7.64,7.64,0,0,1,2.47-2.49,6.67,6.67,0,0,1,3.59-.92,6.36,6.36,0,0,1,1.07.11,3.94,3.94,0,0,1,.85.22Z"/><path class="cls-2" d="M444.16,40.37A4.16,4.16,0,0,0,444,39a2.85,2.85,0,0,0-.83-1.17,6.26,6.26,0,0,0-1.77-1,19.19,19.19,0,0,0-3-.87,28.19,28.19,0,0,1-3.8-1.06,11.41,11.41,0,0,1-2.88-1.46,6.14,6.14,0,0,1-1.82-2,5.73,5.73,0,0,1-.63-2.75,6.28,6.28,0,0,1,.67-2.85,7.39,7.39,0,0,1,1.89-2.37,9.24,9.24,0,0,1,3-1.62,11.73,11.73,0,0,1,3.87-.6,12.29,12.29,0,0,1,4.07.63,9.28,9.28,0,0,1,3.05,1.7,7.27,7.27,0,0,1,2.57,5.61H443.9a3.68,3.68,0,0,0-.35-1.56,4.14,4.14,0,0,0-1-1.41,5.21,5.21,0,0,0-1.67-1,6.1,6.1,0,0,0-2.27-.39,7.36,7.36,0,0,0-2.31.32,4.44,4.44,0,0,0-1.56.84,3.22,3.22,0,0,0-.9,1.2,3.65,3.65,0,0,0-.28,1.37,3.23,3.23,0,0,0,.24,1.27,2.4,2.4,0,0,0,.89,1,7.15,7.15,0,0,0,1.79.84,28.81,28.81,0,0,0,2.95.79,28.75,28.75,0,0,1,4,1.22,10.83,10.83,0,0,1,2.84,1.58A6,6,0,0,1,448,37.34a6.29,6.29,0,0,1,.55,2.72,6.73,6.73,0,0,1-.69,3,6.63,6.63,0,0,1-2,2.37,9.78,9.78,0,0,1-3.1,1.54,13.6,13.6,0,0,1-4,.55,13,13,0,0,1-4.47-.7A9.87,9.87,0,0,1,431,45a7.94,7.94,0,0,1-2-2.65,7.33,7.33,0,0,1-.68-3.06h4.34a4.62,4.62,0,0,0,.65,2.24A4.81,4.81,0,0,0,434.75,43a5.8,5.8,0,0,0,1.9.79,9.14,9.14,0,0,0,2.07.24,8.63,8.63,0,0,0,2.34-.28,5.51,5.51,0,0,0,1.71-.78,3.26,3.26,0,0,0,1-1.16A3.09,3.09,0,0,0,444.16,40.37Z"/><path class="cls-2" d="M460.05,15.57v6.14h4.74v3.36h-4.74V40.81a4.38,4.38,0,0,0,.23,1.59,2.29,2.29,0,0,0,.62.92,2,2,0,0,0,.89.44,5.19,5.19,0,0,0,1,.1,6.6,6.6,0,0,0,1.14-.1l.92-.18V47.1c-.34.1-.79.2-1.33.31a10.44,10.44,0,0,1-2,.16,7.27,7.27,0,0,1-2.26-.34,4.53,4.53,0,0,1-1.87-1.14,5.69,5.69,0,0,1-1.27-2.1,9.54,9.54,0,0,1-.46-3.2V25.07h-4.63V21.71h4.63V15.57Z"/><path class="cls-2" d="M485.53,44.59a8.18,8.18,0,0,1-3,2.2,11.22,11.22,0,0,1-4.41.78,10.15,10.15,0,0,1-3.4-.53,6.59,6.59,0,0,1-2.63-1.66,7.68,7.68,0,0,1-1.7-2.94,13.65,13.65,0,0,1-.6-4.32V21.71h4.34V38.16a8.67,8.67,0,0,0,.4,2.83,4.64,4.64,0,0,0,1.06,1.76,3.51,3.51,0,0,0,1.5.89,5.94,5.94,0,0,0,1.73.25,8,8,0,0,0,4.26-1,6,6,0,0,0,2.36-2.7V21.71h4.34V47.1h-4.13Z"/><path class="cls-2" d="M504.72,41.21,511,21.71h4.44L506.34,47.1H503l-9.19-25.39h4.43Z"/><path class="cls-2" d="M542.1,41.12,547,21.71h4.34L543.93,47.1h-3.52l-6.17-19.24-6,19.24h-3.52l-7.36-25.39h4.31l5,19,5.92-19h3.49Z"/><path class="cls-2" d="M564.25,31l5.63-9.27H575l-8.3,12.56,8.56,12.83h-5l-5.87-9.5-5.86,9.5h-5.05L562,34.27l-8.31-12.56h5Z"/><path class="cls-2" d="M587.86,40.74l5.91-19h4.65L588.21,51a17.43,17.43,0,0,1-.92,2,8.7,8.7,0,0,1-1.46,2.06,8,8,0,0,1-2.17,1.59,6.51,6.51,0,0,1-3,.65,5,5,0,0,1-.61,0l-.71-.11-.65-.11-.47-.11V53.46a1.3,1.3,0,0,0,.26,0l.34,0,.32,0,.25,0a8.12,8.12,0,0,0,2-.22,4.11,4.11,0,0,0,2.64-2,10.49,10.49,0,0,0,.88-2l1-2.58-9.06-25.11h4.74Z"/><path class="cls-2" d="M606.37,43.56h14.85V47.1H601.07V43.91l14-18.61h-13.8V21.71h19.24v3.08Z"/></g><g class="cls-1"><path class="cls-2" d="M22.83,99H8.52L5.3,107.93H.66l13-34.16h3.95l13.07,34.16H26.09ZM9.88,95.31H21.5l-5.82-16Z"/><path class="cls-2" d="M35.32,107.93V73.77H46.48a18.65,18.65,0,0,1,4.7.53,9.5,9.5,0,0,1,3.51,1.64,7.17,7.17,0,0,1,2.2,2.83,10,10,0,0,1,.76,4.1,6.93,6.93,0,0,1-1.36,4.24A8.82,8.82,0,0,1,52.59,90a8.1,8.1,0,0,1,2.54,1.17A8,8,0,0,1,57,93a8.17,8.17,0,0,1,1.16,2.37,9.29,9.29,0,0,1,.4,2.75,10.43,10.43,0,0,1-.81,4.23,8.45,8.45,0,0,1-2.29,3.1,9.68,9.68,0,0,1-3.57,1.89,16,16,0,0,1-4.64.63Zm4.5-19.59h6.81A8.83,8.83,0,0,0,49.28,88a6.07,6.07,0,0,0,2-1.08,4.89,4.89,0,0,0,1.33-1.72,5.51,5.51,0,0,0,.46-2.31,4.87,4.87,0,0,0-1.64-4.1,8.09,8.09,0,0,0-5-1.28H39.82Zm0,3.61v12.3h7.44a8.7,8.7,0,0,0,2.87-.44,6,6,0,0,0,2.13-1.22,5,5,0,0,0,1.32-1.92A6.7,6.7,0,0,0,54,98.12a8.18,8.18,0,0,0-.37-2.55,4.85,4.85,0,0,0-1.19-1.95,5.43,5.43,0,0,0-2-1.23,9,9,0,0,0-3-.44Z"/><path class="cls-2" d="M90.36,97.09a15.54,15.54,0,0,1-1.18,4.49,10.74,10.74,0,0,1-2.5,3.59,11.21,11.21,0,0,1-3.9,2.37,15.13,15.13,0,0,1-5.37.86,12.9,12.9,0,0,1-5.49-1.13,11.8,11.8,0,0,1-4.21-3.2,14.55,14.55,0,0,1-2.7-5,21,21,0,0,1-1-6.5V89.16a20.8,20.8,0,0,1,1-6.51,14.57,14.57,0,0,1,2.75-5,12.11,12.11,0,0,1,4.33-3.21,13.8,13.8,0,0,1,5.71-1.14,14.5,14.5,0,0,1,5.12.84,11,11,0,0,1,3.78,2.36,11.22,11.22,0,0,1,2.48,3.61,15.42,15.42,0,0,1,1.17,4.64H85.83A15.33,15.33,0,0,0,85,81.53a7.41,7.41,0,0,0-1.49-2.44,6.47,6.47,0,0,0-2.36-1.55A9.71,9.71,0,0,0,77.81,77a8.63,8.63,0,0,0-4,.88,8,8,0,0,0-2.89,2.46,11.2,11.2,0,0,0-1.74,3.82,19.12,19.12,0,0,0-.59,4.94v3.48a19.76,19.76,0,0,0,.53,4.71,12.11,12.11,0,0,0,1.6,3.86,8.07,8.07,0,0,0,2.75,2.61,7.84,7.84,0,0,0,3.94,1,11.26,11.26,0,0,0,3.64-.52,6.36,6.36,0,0,0,2.45-1.49A6.73,6.73,0,0,0,85,100.32a15.54,15.54,0,0,0,.82-3.23Z"/><path class="cls-2" d="M96.51,107.93V73.77h9.65a16.14,16.14,0,0,1,6.14,1.12,13.42,13.42,0,0,1,4.75,3.22,14.38,14.38,0,0,1,3.08,5.07,19.22,19.22,0,0,1,1.09,6.68v2a19.32,19.32,0,0,1-1.09,6.69,14.23,14.23,0,0,1-3.1,5.06,13.61,13.61,0,0,1-4.87,3.19,17.58,17.58,0,0,1-6.4,1.11ZM101,77.47v26.78h4.74a12.2,12.2,0,0,0,4.78-.88,9.2,9.2,0,0,0,3.45-2.5,10.58,10.58,0,0,0,2.08-3.9,17.46,17.46,0,0,0,.69-5.09V89.79a17.78,17.78,0,0,0-.7-5.22A10.72,10.72,0,0,0,114,80.7a8.79,8.79,0,0,0-3.33-2.4,11.57,11.57,0,0,0-4.5-.83Z"/><path class="cls-2" d="M147.34,92.14H132.53v12.11h17.2v3.68H128V73.77h21.47v3.7h-17v11h14.81Z"/><path class="cls-2" d="M174.18,92.84H159.84v15.09h-4.5V73.77H176.5v3.7H159.84V89.16h14.34Z"/><path class="cls-2" d="M207.12,103.45a11.57,11.57,0,0,1-1.36,1.56,9.68,9.68,0,0,1-2.29,1.61,15.18,15.18,0,0,1-3.48,1.26,20.37,20.37,0,0,1-5,.52,14.75,14.75,0,0,1-5.74-1.1,12.81,12.81,0,0,1-4.5-3.18,14.8,14.8,0,0,1-3-5.09,20.73,20.73,0,0,1-1-6.84V89.51a23.84,23.84,0,0,1,.9-6.83,14.23,14.23,0,0,1,2.65-5.09,11.52,11.52,0,0,1,4.31-3.19,14.76,14.76,0,0,1,5.86-1.1,15.39,15.39,0,0,1,5.14.78,11.32,11.32,0,0,1,3.76,2.19,10.42,10.42,0,0,1,2.46,3.32,14.54,14.54,0,0,1,1.24,4.2h-4.5a11.25,11.25,0,0,0-.81-2.62A6.82,6.82,0,0,0,200.29,79a7.06,7.06,0,0,0-2.37-1.47,9.61,9.61,0,0,0-3.37-.53,9.09,9.09,0,0,0-4.13.86,7.57,7.57,0,0,0-2.87,2.49,11.39,11.39,0,0,0-1.67,3.92,22.1,22.1,0,0,0-.56,5.18v2.73a18.19,18.19,0,0,0,.71,5.28,11.85,11.85,0,0,0,2,3.94,8.46,8.46,0,0,0,3.07,2.46,9.17,9.17,0,0,0,4,.85,17.07,17.07,0,0,0,3.11-.25,11.33,11.33,0,0,0,2.16-.61,5.65,5.65,0,0,0,1.42-.8,8.3,8.3,0,0,0,.89-.81V94.58h-7.91V90.92h12.39Z"/><path class="cls-2" d="M240.89,107.93h-4.53V92.14H219.14v15.79h-4.51V73.77h4.51V88.46h17.22V73.77h4.53Z"/><path class="cls-2" d="M253.72,107.93h-4.5V73.77h4.5Z"/><path class="cls-2" d="M276.27,73.77h4.53V98a11.64,11.64,0,0,1-.8,4.49,8.79,8.79,0,0,1-2.24,3.28,9.69,9.69,0,0,1-3.42,2,13.37,13.37,0,0,1-4.33.68,14.83,14.83,0,0,1-4.34-.6,9.34,9.34,0,0,1-3.41-1.83,8.34,8.34,0,0,1-2.22-3.09,11,11,0,0,1-.8-4.38h4.5a7.54,7.54,0,0,0,.47,2.79,5.36,5.36,0,0,0,1.29,1.94,5.12,5.12,0,0,0,2,1.12,8.16,8.16,0,0,0,2.54.37,7,7,0,0,0,2.49-.44,5.49,5.49,0,0,0,2-1.28,5.69,5.69,0,0,0,1.31-2.11,8.23,8.23,0,0,0,.47-2.93Z"/><path class="cls-2" d="M297.16,92.05,293,96.39v11.54h-4.51V73.77H293V90.66l3.71-4.13,11.47-12.76h5.45L300.16,88.85l14.5,19.08h-5.4Z"/><path class="cls-2" d="M323.13,104.25h16.19v3.68H318.6V73.77h4.53Z"/><path class="cls-2" d="M350.28,73.77l11.17,27.87,11.17-27.87h5.84v34.16H374V94.63l.42-14.36-11.22,27.66h-3.45L348.52,80.34,349,94.63v13.3h-4.51V73.77Z"/><path class="cls-2" d="M412.67,107.93h-4.53L390.94,81.6v26.33h-4.52V73.77h4.52l17.25,26.44V73.77h4.48Z"/><path class="cls-2" d="M447,92a22.53,22.53,0,0,1-1,6.89,15.12,15.12,0,0,1-2.76,5.17,11.77,11.77,0,0,1-4.31,3.26,13.66,13.66,0,0,1-5.66,1.13,13.38,13.38,0,0,1-5.56-1.13,12,12,0,0,1-4.36-3.26,14.91,14.91,0,0,1-2.84-5.17,21.61,21.61,0,0,1-1-6.89V89.79a21.68,21.68,0,0,1,1-6.88,15.42,15.42,0,0,1,2.81-5.2,12.1,12.1,0,0,1,4.34-3.27,13.42,13.42,0,0,1,5.56-1.14,13.74,13.74,0,0,1,5.67,1.14,11.93,11.93,0,0,1,4.34,3.27,15,15,0,0,1,2.77,5.2,22.6,22.6,0,0,1,1,6.88Zm-4.48-2.2a21.33,21.33,0,0,0-.62-5.4A11.22,11.22,0,0,0,440,80.41,7.8,7.8,0,0,0,437.11,78a8.94,8.94,0,0,0-3.91-.82,8.64,8.64,0,0,0-3.8.82,8,8,0,0,0-2.92,2.42,11.44,11.44,0,0,0-1.86,3.94,20,20,0,0,0-.66,5.4V92a19.65,19.65,0,0,0,.67,5.42,11.66,11.66,0,0,0,1.89,4,7.89,7.89,0,0,0,2.93,2.42,8.64,8.64,0,0,0,3.8.83,8.93,8.93,0,0,0,3.92-.83,7.65,7.65,0,0,0,2.9-2.42,11.38,11.38,0,0,0,1.79-4,21.46,21.46,0,0,0,.61-5.42Z"/><path class="cls-2" d="M458.22,94.56v13.37h-4.51V73.77h12.6a15.83,15.83,0,0,1,5.14.77,10.56,10.56,0,0,1,3.74,2.17,9.19,9.19,0,0,1,2.3,3.31,10.82,10.82,0,0,1,.79,4.19,11.51,11.51,0,0,1-.79,4.4,8.42,8.42,0,0,1-2.3,3.25,10.29,10.29,0,0,1-3.74,2,17.09,17.09,0,0,1-5.14.7Zm0-3.69h8.09a10.28,10.28,0,0,0,3.39-.49A6.34,6.34,0,0,0,472,89a5.32,5.32,0,0,0,1.32-2.09,8.07,8.07,0,0,0,.42-2.66,7.84,7.84,0,0,0-.42-2.55A5.85,5.85,0,0,0,472,79.54,6.42,6.42,0,0,0,469.7,78a9,9,0,0,0-3.39-.57h-8.09Z"/><path class="cls-2" d="M510.12,92a21.06,21.06,0,0,1-1.57,8.53,13.23,13.23,0,0,1-4.41,5.6l6.1,4.78-3.08,2.84L500,108a14.74,14.74,0,0,1-3.57.42,13.42,13.42,0,0,1-5.56-1.13,12.11,12.11,0,0,1-4.36-3.26,15.08,15.08,0,0,1-2.84-5.17,21.9,21.9,0,0,1-1-6.89V89.79a22,22,0,0,1,1-6.88,15.27,15.27,0,0,1,2.82-5.2,12,12,0,0,1,4.34-3.27,13.39,13.39,0,0,1,5.56-1.14A13.66,13.66,0,0,1,502,74.44a12.08,12.08,0,0,1,4.36,3.27,15,15,0,0,1,2.78,5.2,22.6,22.6,0,0,1,1,6.88Zm-4.5-2.2a20.86,20.86,0,0,0-.63-5.4,11.38,11.38,0,0,0-1.8-3.94A7.7,7.7,0,0,0,500.28,78a9,9,0,0,0-3.93-.82,8.53,8.53,0,0,0-3.79.82,7.85,7.85,0,0,0-2.91,2.42,11.63,11.63,0,0,0-1.87,3.94,20,20,0,0,0-.66,5.4V92a20,20,0,0,0,.67,5.42,12.24,12.24,0,0,0,1.88,4,7.86,7.86,0,0,0,2.92,2.42,8.64,8.64,0,0,0,3.8.83,8.93,8.93,0,0,0,3.92-.83,7.65,7.65,0,0,0,2.9-2.42,11.38,11.38,0,0,0,1.79-4,21.43,21.43,0,0,0,.62-5.42Z"/><path class="cls-2" d="M529.6,94.11h-8v13.82H517V73.77h11.31c3.85,0,6.81.87,8.88,2.63s3.11,4.3,3.11,7.64a9.21,9.21,0,0,1-1.72,5.57,10.28,10.28,0,0,1-4.8,3.54l8,14.5v.28H537Zm-8-3.68h6.92a9.24,9.24,0,0,0,3.21-.51A6.59,6.59,0,0,0,534,88.56a5.52,5.52,0,0,0,1.38-2,6.81,6.81,0,0,0,.45-2.5,7.85,7.85,0,0,0-.43-2.68A5.28,5.28,0,0,0,534,79.28a6.19,6.19,0,0,0-2.32-1.34,10.77,10.77,0,0,0-3.36-.47h-6.78Z"/><path class="cls-2" d="M564.86,99.3a5.69,5.69,0,0,0-.36-2.11,4.18,4.18,0,0,0-1.29-1.68,10.06,10.06,0,0,0-2.5-1.43,35.9,35.9,0,0,0-4-1.38,33,33,0,0,1-4.59-1.65,14.89,14.89,0,0,1-3.49-2.14,8.64,8.64,0,0,1-2.22-2.75,7.82,7.82,0,0,1-.77-3.55,8.19,8.19,0,0,1,.83-3.69,8.72,8.72,0,0,1,2.36-3,11,11,0,0,1,3.66-2,15.11,15.11,0,0,1,4.76-.7,14.2,14.2,0,0,1,5.14.87,11.61,11.61,0,0,1,3.79,2.3,9.6,9.6,0,0,1,2.33,3.3,9.74,9.74,0,0,1,.8,3.88h-4.53a7.66,7.66,0,0,0-.45-2.66,5.78,5.78,0,0,0-1.4-2.11,6.56,6.56,0,0,0-2.35-1.38,10.07,10.07,0,0,0-3.33-.49,10.52,10.52,0,0,0-3.14.42,6.25,6.25,0,0,0-2.21,1.16,4.59,4.59,0,0,0-1.29,1.75,5.67,5.67,0,0,0-.42,2.2,4.18,4.18,0,0,0,.46,2,4.83,4.83,0,0,0,1.42,1.65,10.65,10.65,0,0,0,2.47,1.38,31.23,31.23,0,0,0,3.63,1.22,33.37,33.37,0,0,1,5,1.82,13.59,13.59,0,0,1,3.48,2.26,8.23,8.23,0,0,1,2,2.84,9,9,0,0,1,.67,3.57,8.05,8.05,0,0,1-3.25,6.66,11.34,11.34,0,0,1-3.75,1.85,17.39,17.39,0,0,1-4.89.64,17.66,17.66,0,0,1-3.15-.29,15.83,15.83,0,0,1-3-.88,13.06,13.06,0,0,1-2.68-1.46,10.33,10.33,0,0,1-2.15-2,9,9,0,0,1-1.43-2.58,9.27,9.27,0,0,1-.51-3.14h4.53a5.92,5.92,0,0,0,2.54,5.09,8.09,8.09,0,0,0,2.68,1.21,12.65,12.65,0,0,0,3.18.39,8.83,8.83,0,0,0,5.46-1.46A4.71,4.71,0,0,0,564.86,99.3Z"/><path class="cls-2" d="M598.77,77.47h-11v30.46h-4.48V77.47h-11v-3.7h26.42Z"/><path class="cls-2" d="M627.89,73.77V96.9a11.85,11.85,0,0,1-1,5,10.4,10.4,0,0,1-2.71,3.59,11.54,11.54,0,0,1-3.95,2.15,15.86,15.86,0,0,1-4.74.71,16.17,16.17,0,0,1-4.86-.71,11.17,11.17,0,0,1-3.91-2.15,10,10,0,0,1-2.6-3.59,12.33,12.33,0,0,1-1-5V73.77h4.46V96.9a9.5,9.5,0,0,0,.57,3.46,6.47,6.47,0,0,0,1.61,2.44,6.57,6.57,0,0,0,2.47,1.45,11.27,11.27,0,0,0,6.44,0,6.57,6.57,0,0,0,2.49-1.45,6.45,6.45,0,0,0,1.6-2.44,9.73,9.73,0,0,0,.56-3.46V73.77Z"/><path class="cls-2" d="M646.31,102l9.76-28.18H661l-12.67,34.16h-4L631.69,73.77h4.91Z"/><path class="cls-2" d="M672.94,97.16l.66,4.51,1-4.06,6.76-23.84h3.8l6.59,23.84.94,4.13.73-4.6,5.3-23.37h4.53l-8.28,34.16h-4.11l-7-24.89-.54-2.61L682.7,83l-7.29,24.89H671.3L663,73.77h4.5Z"/><path class="cls-2" d="M719.35,86.86l8.19-13.09h5.31l-10.8,16.94,11.05,17.22h-5.35l-8.4-13.33-8.44,13.33h-5.33l11.08-17.22L705.84,73.77h5.28Z"/><path class="cls-2" d="M748.76,90.92l8.91-17.15h5.12L751,95.19v12.74H746.5V95.19L734.72,73.77h5.17Z"/><path class="cls-2" d="M770.58,104.25h19.54v3.68H765.25v-3.38L784,77.47H765.56v-3.7h23.81v3.31Z"/></g><g class="cls-1"><path class="cls-2" d="M17.11,168.76H12.74V139.83L4,143V139.1l12.44-4.67h.68Z"/><path class="cls-2" d="M52.21,168.76H29.83v-3.12L41,153.2c1-1.14,1.89-2.15,2.57-3a18.12,18.12,0,0,0,1.62-2.4,9.22,9.22,0,0,0,.83-2,7.92,7.92,0,0,0,.23-1.94,7.16,7.16,0,0,0-.39-2.38,5.81,5.81,0,0,0-1.15-1.94,5.56,5.56,0,0,0-1.86-1.3,6.27,6.27,0,0,0-2.53-.48,7.92,7.92,0,0,0-3,.52,5.72,5.72,0,0,0-2.12,1.43,6,6,0,0,0-1.27,2.19,9.08,9.08,0,0,0-.42,2.83H29.17a11.75,11.75,0,0,1,.71-4.08A9.44,9.44,0,0,1,32,137.22,10,10,0,0,1,35.5,135a13,13,0,0,1,4.84-.84,13.26,13.26,0,0,1,4.33.66,9.09,9.09,0,0,1,3.23,1.87,7.93,7.93,0,0,1,2,2.9,9.57,9.57,0,0,1,.71,3.73,9.18,9.18,0,0,1-.52,3,16.72,16.72,0,0,1-1.38,3,25.77,25.77,0,0,1-2,3c-.79,1-1.61,2-2.47,2.92l-9.17,9.95H52.21Z"/><path class="cls-2" d="M63.12,149.56h3.1a8.87,8.87,0,0,0,3-.44,6.15,6.15,0,0,0,2.11-1.23A5,5,0,0,0,72.55,146,6.11,6.11,0,0,0,73,143.7a6.21,6.21,0,0,0-1.48-4.47A6,6,0,0,0,67,137.69a7.48,7.48,0,0,0-2.52.41,5.63,5.63,0,0,0-1.95,1.18,5,5,0,0,0-1.25,1.85,6.34,6.34,0,0,0-.45,2.43H56.48a9.12,9.12,0,0,1,.75-3.69,8.89,8.89,0,0,1,2.14-3,10.33,10.33,0,0,1,3.32-2,12,12,0,0,1,4.3-.74,13.42,13.42,0,0,1,4.23.63,8.92,8.92,0,0,1,3.25,1.83,8.16,8.16,0,0,1,2.1,3,10.93,10.93,0,0,1,.75,4.2,7.07,7.07,0,0,1-.32,2,8.38,8.38,0,0,1-1,2.07,8.58,8.58,0,0,1-1.67,1.88,8.84,8.84,0,0,1-2.43,1.47,9,9,0,0,1,2.83,1.42,7.4,7.4,0,0,1,2.78,4.24,10,10,0,0,1,.28,2.34,10.41,10.41,0,0,1-.82,4.26,8.77,8.77,0,0,1-2.27,3.13,10.13,10.13,0,0,1-3.43,1.94,13.44,13.44,0,0,1-4.29.67,14,14,0,0,1-4.2-.62,10.36,10.36,0,0,1-3.45-1.83,8.67,8.67,0,0,1-2.34-3,9.2,9.2,0,0,1-.85-4.05h4.36a6.34,6.34,0,0,0,.45,2.43,5.06,5.06,0,0,0,1.29,1.87,5.62,5.62,0,0,0,2,1.21,8.14,8.14,0,0,0,2.7.42,8.61,8.61,0,0,0,2.69-.38,5.43,5.43,0,0,0,2.05-1.19,5.2,5.2,0,0,0,1.29-2,8.17,8.17,0,0,0,.44-2.79,6.88,6.88,0,0,0-.51-2.77,5.18,5.18,0,0,0-1.47-1.94,6.31,6.31,0,0,0-2.29-1.14,11.1,11.1,0,0,0-3-.37h-3.1Z"/><path class="cls-2" d="M102.12,157.28h4.74v3.55h-4.74v7.93H97.76v-7.93H82.2v-2.56l15.3-23.68h4.62Zm-15,0H97.76V140.53l-.52.94Z"/><path class="cls-2" d="M112.77,151.63l1.74-17H132v4H118.19l-1,9.31a12.52,12.52,0,0,1,2.36-1,10.9,10.9,0,0,1,3.34-.47,10.65,10.65,0,0,1,4.24.81,8.93,8.93,0,0,1,3.2,2.3,10.32,10.32,0,0,1,2,3.61,16,16,0,0,1,0,9.25,9.84,9.84,0,0,1-2,3.59,9.17,9.17,0,0,1-3.37,2.37,12.2,12.2,0,0,1-4.77.86,12.84,12.84,0,0,1-3.91-.58,9.53,9.53,0,0,1-3.27-1.74,9.2,9.2,0,0,1-2.35-3,11.23,11.23,0,0,1-1.13-4.18h4.11a6.87,6.87,0,0,0,2.09,4.43,6.49,6.49,0,0,0,4.46,1.48,6.76,6.76,0,0,0,2.74-.53,5.62,5.62,0,0,0,2-1.55,6.91,6.91,0,0,0,1.27-2.46,11.1,11.1,0,0,0,.43-3.22,9.85,9.85,0,0,0-.44-3,7,7,0,0,0-1.32-2.41,6.06,6.06,0,0,0-2.15-1.6,6.92,6.92,0,0,0-2.92-.59,10.45,10.45,0,0,0-1.9.15,6.32,6.32,0,0,0-1.43.44,5,5,0,0,0-1.16.69q-.52.4-1.11.9Z"/><path class="cls-2" d="M154.77,134.57v3.68h-.39a13.52,13.52,0,0,0-5.31.94,10.27,10.27,0,0,0-3.59,2.5,10.64,10.64,0,0,0-2.13,3.58,16.53,16.53,0,0,0-.92,4.18,8.36,8.36,0,0,1,3.3-2.36,11.15,11.15,0,0,1,4.07-.74,9.31,9.31,0,0,1,4.4,1,9.14,9.14,0,0,1,3,2.56,10.81,10.81,0,0,1,1.77,3.6,15.19,15.19,0,0,1,.57,4.13,14.73,14.73,0,0,1-.68,4.57,10.5,10.5,0,0,1-2,3.68,9.6,9.6,0,0,1-3.31,2.46,10.79,10.79,0,0,1-4.58.91,9.83,9.83,0,0,1-4.83-1.15,10.64,10.64,0,0,1-3.44-3,13.2,13.2,0,0,1-2-4.21,16.63,16.63,0,0,1-.68-4.72v-2a38.17,38.17,0,0,1,.29-4.77,23.74,23.74,0,0,1,1-4.55,17.72,17.72,0,0,1,1.94-4,12.72,12.72,0,0,1,3-3.24,14.08,14.08,0,0,1,4.32-2.14,19.5,19.5,0,0,1,5.79-.78ZM149.07,150a6.52,6.52,0,0,0-2.2.37,7.4,7.4,0,0,0-1.94,1,7.82,7.82,0,0,0-1.55,1.49,7,7,0,0,0-1,1.85v1.59a13.73,13.73,0,0,0,.55,4.05,9.16,9.16,0,0,0,1.48,2.93,6.52,6.52,0,0,0,2.12,1.8,5.51,5.51,0,0,0,2.49.61,6,6,0,0,0,2.68-.58,5.53,5.53,0,0,0,2-1.62,7.34,7.34,0,0,0,1.23-2.47,11.8,11.8,0,0,0,0-6.09,8,8,0,0,0-1.16-2.51,6,6,0,0,0-2-1.75A5.51,5.51,0,0,0,149.07,150Z"/><path class="cls-2" d="M186.78,137l-14.15,31.72h-4.55l14.1-30.6H163.69v-3.57h23.09Z"/><path class="cls-2" d="M212.43,143.51a7.91,7.91,0,0,1-1.35,4.55,9.2,9.2,0,0,1-3.65,3.12,10.6,10.6,0,0,1,2.38,1.41,9.71,9.71,0,0,1,1.83,1.91,8.58,8.58,0,0,1,1.58,5,9.73,9.73,0,0,1-.83,4.15,8.48,8.48,0,0,1-2.3,3,10.07,10.07,0,0,1-3.45,1.86,14.66,14.66,0,0,1-8.57,0,9.88,9.88,0,0,1-3.45-1.86,8.58,8.58,0,0,1-2.29-3,9.73,9.73,0,0,1-.83-4.15,8.77,8.77,0,0,1,.4-2.7,8.65,8.65,0,0,1,1.13-2.35,8.84,8.84,0,0,1,1.8-1.92,10,10,0,0,1,2.37-1.41,8.89,8.89,0,0,1-3.59-3.12,8,8,0,0,1-1.32-4.53,9.88,9.88,0,0,1,.76-4,8.31,8.31,0,0,1,2.08-2.94,9.22,9.22,0,0,1,3.19-1.83,12.53,12.53,0,0,1,4-.64,12.28,12.28,0,0,1,4,.64,9.26,9.26,0,0,1,3.2,1.83,8.24,8.24,0,0,1,2.1,2.94A10.05,10.05,0,0,1,212.43,143.51Zm-3.55,15.93a6.94,6.94,0,0,0-.48-2.62,6,6,0,0,0-1.35-2.06,6,6,0,0,0-2.07-1.32,7.2,7.2,0,0,0-2.67-.47,7.13,7.13,0,0,0-2.67.47,5.66,5.66,0,0,0-3.34,3.38,7.14,7.14,0,0,0-.46,2.62,7.4,7.4,0,0,0,.44,2.63,5.4,5.4,0,0,0,1.29,2,5.6,5.6,0,0,0,2.06,1.23,9,9,0,0,0,5.44,0,5.42,5.42,0,0,0,3.36-3.19A7.18,7.18,0,0,0,208.88,159.44Zm-.79-15.86a6.61,6.61,0,0,0-.41-2.34,5.47,5.47,0,0,0-1.18-1.87,5.37,5.37,0,0,0-1.82-1.23,5.82,5.82,0,0,0-2.32-.45,6.42,6.42,0,0,0-2.32.41,5.25,5.25,0,0,0-1.82,1.18,5,5,0,0,0-1.17,1.85,6.77,6.77,0,0,0-.41,2.45,6.48,6.48,0,0,0,.41,2.39,5.24,5.24,0,0,0,1.16,1.85A5,5,0,0,0,200,149a6.94,6.94,0,0,0,4.7,0,5,5,0,0,0,1.8-1.17,5.41,5.41,0,0,0,1.17-1.85A6.69,6.69,0,0,0,208.09,143.58Z"/><path class="cls-2" d="M223.43,165.12a15.25,15.25,0,0,0,5.8-1,9.18,9.18,0,0,0,3.6-2.53,9.33,9.33,0,0,0,1.86-3.64,19.91,19.91,0,0,0,.64-4.26,10.7,10.7,0,0,1-3.25,2.61,8.9,8.9,0,0,1-4.14,1,8.84,8.84,0,0,1-7.41-3.6,11.34,11.34,0,0,1-1.76-3.65,15.58,15.58,0,0,1,.11-8.73,10.87,10.87,0,0,1,2-3.76,9.25,9.25,0,0,1,3.3-2.54,10.75,10.75,0,0,1,4.59-.93,9.89,9.89,0,0,1,5,1.19,10,10,0,0,1,3.38,3.13,13.72,13.72,0,0,1,1.92,4.43,21,21,0,0,1,.61,5.08v1.57c0,1.48-.07,3-.22,4.52a25,25,0,0,1-.84,4.43,17.58,17.58,0,0,1-1.74,4,11.52,11.52,0,0,1-2.92,3.28,14,14,0,0,1-4.4,2.2,20.72,20.72,0,0,1-6.14.81H223v-3.66Zm5.21-11.38a6.71,6.71,0,0,0,2.14-.35,6.89,6.89,0,0,0,1.9-1,8.35,8.35,0,0,0,1.56-1.47,7.85,7.85,0,0,0,1.11-1.83v-1.74a14.34,14.34,0,0,0-.54-4.12,9.69,9.69,0,0,0-1.44-3,6.21,6.21,0,0,0-2.09-1.86,5.18,5.18,0,0,0-2.47-.63,5.66,5.66,0,0,0-4.69,2.29,7.6,7.6,0,0,0-1.23,2.52,11.41,11.41,0,0,0-.42,3.17,11.72,11.72,0,0,0,.38,3,8.33,8.33,0,0,0,1.13,2.57,5.86,5.86,0,0,0,1.93,1.81A5.32,5.32,0,0,0,228.64,153.74Z"/><path class="cls-2" d="M267.1,154.19a28.4,28.4,0,0,1-.75,7.07,12.55,12.55,0,0,1-2.15,4.65,7.88,7.88,0,0,1-3.38,2.54,13.17,13.17,0,0,1-8.93,0,7.94,7.94,0,0,1-3.4-2.54,12.73,12.73,0,0,1-2.18-4.65,27.4,27.4,0,0,1-.77-7.07V149a27.53,27.53,0,0,1,.76-7,12.28,12.28,0,0,1,2.17-4.58,8,8,0,0,1,3.39-2.48,12.47,12.47,0,0,1,4.45-.76,12.68,12.68,0,0,1,4.48.76,8,8,0,0,1,3.4,2.48,12.12,12.12,0,0,1,2.16,4.58,28,28,0,0,1,.75,7Zm-4.34-5.94a25.27,25.27,0,0,0-.41-4.9,9.7,9.7,0,0,0-1.23-3.28,5,5,0,0,0-2-1.82,6.63,6.63,0,0,0-2.78-.56,6.51,6.51,0,0,0-2.76.56,4.88,4.88,0,0,0-2,1.82,9.7,9.7,0,0,0-1.23,3.28,24.43,24.43,0,0,0-.42,4.9v6.62a24.75,24.75,0,0,0,.42,4.91,10.19,10.19,0,0,0,1.25,3.37,5.23,5.23,0,0,0,2,1.93,6.08,6.08,0,0,0,2.75.6,6.18,6.18,0,0,0,2.8-.6,5.12,5.12,0,0,0,2-1.93,10.2,10.2,0,0,0,1.21-3.37,25.68,25.68,0,0,0,.4-4.91Z"/></g></g></svg>