<svg id="Layer_1" data-name="Layer 1" xmlns="http://www.w3.org/2000/svg" viewBox="0 0 256 100"><defs><style>.cls-1{fill:#fff;}</style></defs><title>findfido-icons</title><g id="Group_70" data-name="Group 70"><path id="Path_79" data-name="Path 79" d="M104.94,30.75H79.28a3.69,3.69,0,0,0-3.67,3.67V60.08a3.69,3.69,0,0,0,3.67,3.67h7.33l5.5,5.5,5.5-5.5h7.33a3.68,3.68,0,0,0,3.67-3.67V34.42A3.69,3.69,0,0,0,104.94,30.75Z"/><g id="ic_pets_black_24px" data-name="ic pets black 24px"><circle id="Ellipse_46" data-name="Ellipse 46" class="cls-1" cx="84.09" cy="44.58" r="2.67"/><circle id="Ellipse_47" data-name="Ellipse 47" class="cls-1" cx="88.9" cy="40.3" r="2.67"/><circle id="Ellipse_48" data-name="Ellipse 48" class="cls-1" cx="95.32" cy="40.3" r="2.67"/><circle id="Ellipse_49" data-name="Ellipse 49" class="cls-1" cx="100.13" cy="44.58" r="2.67"/><path id="Path_80" data-name="Path 80" class="cls-1" d="M97.82,50.31l-2.65-3.12a4.56,4.56,0,0,0-1.87-1.41,2.3,2.3,0,0,0-.35-.1,5.91,5.91,0,0,0-.84,0,4.74,4.74,0,0,0-.84,0l-.36.1A4.65,4.65,0,0,0,89,47.2l-2.65,3.12c-1.4,1.4-3.12,3-2.8,5.12a3.37,3.37,0,0,0,2.49,2.49c.78.16,3.27-.47,5.92-.47h.19c2.65,0,5.14.62,5.92.47a3.4,3.4,0,0,0,2.5-2.49C100.94,53.26,99.22,51.71,97.82,50.31Z"/></g></g><path id="Path_288" data-name="Path 288" d="M255.86,36.4l-.26-1h-6.87a6.08,6.08,0,0,0-.26-1.85H228.14a9,9,0,0,1-.26,1.85h-6.34v1c0,.27-1,9.24,2.64,13.73A8.2,8.2,0,0,0,229.73,53h.79a8.61,8.61,0,0,0,6.07,4.75v4a6.72,6.72,0,0,0-5.81,4.75h16.11a6.94,6.94,0,0,0-6.08-4.75v-4A8.29,8.29,0,0,0,246.36,53h1.32a8.26,8.26,0,0,0,5.54-2.91C256.92,45.64,255.86,36.93,255.86,36.4ZM226.29,48.55c-2.38-2.91-2.38-8.19-2.38-10.56h2.91l1.58,12.14A3.28,3.28,0,0,1,226.29,48.55Zm24.82,0A6.4,6.4,0,0,1,249,50.13L250.58,38h2.9C253.48,40.89,253.22,45.91,251.11,48.55Z"/><path id="Path_76" data-name="Path 76" d="M167.24,37.63A3.67,3.67,0,1,0,163.57,34,3.68,3.68,0,0,0,167.24,37.63Zm-6.78,6.23-5.14,25.85h3.85L162.47,55l3.85,3.67v11H170V56l-3.85-3.67,1.1-5.5a13.39,13.39,0,0,0,10.08,4.58V47.71a9,9,0,0,1-7.88-4.4l-1.83-2.93a3.79,3.79,0,0,0-3.12-1.84c-.55,0-.92.19-1.47.19l-9.53,4v8.61h3.67V45.14l3.3-1.28"/><path id="Path_31" data-name="Path 31" d="M33.28,34.67a3.13,3.13,0,0,0-3-2.22h-23a3.15,3.15,0,0,0-3,2.22L0,47.8V65.35a2.15,2.15,0,0,0,2.09,2.2H4.18a2.15,2.15,0,0,0,2.09-2.2v-2.2H31.36v2.2a2.15,2.15,0,0,0,2.09,2.2h2.09a2.15,2.15,0,0,0,2.09-2.2V47.8Zm-26,21.91a3.3,3.3,0,0,1,0-6.58,3.3,3.3,0,0,1,0,6.58Zm23,0a3.3,3.3,0,1,1,3.13-3.46v.17a3.21,3.21,0,0,1-3.13,3.29Zm-26.14-11,3.14-9.87h23l3.13,9.87Z"/></svg>