<?xml version="1.0" encoding="utf-8"?>
<!-- Generator: Adobe Illustrator 22.0.0, SVG Export Plug-In . SVG Version: 6.00 Build 0)  -->
<svg version="1.1" id="Layer_1" xmlns="http://www.w3.org/2000/svg" xmlns:xlink="http://www.w3.org/1999/xlink" x="0px" y="0px"
	 viewBox="0 0 72 19.2" style="enable-background:new 0 0 72 19.2;" xml:space="preserve">
<style type="text/css">
	.st0{fill:#60269E;}
	.st1{fill:#FF5100;}
</style>
<g>
	<path class="st0" d="M53.6,11.6c-0.6,0-0.9,0.3-0.9,0.6c0,1,2.8,0.5,2.8,2.4c0,0.9-0.7,1.5-1.9,1.5c-0.9,0-1.6-0.4-1.9-0.9
		c0-0.1-0.1-0.1-0.1-0.2c0-0.2,0.2-0.4,0.4-0.4s0.3,0.1,0.3,0.2c0.3,0.3,0.7,0.6,1.3,0.6c0.7,0,1-0.2,1-0.7c0-1.1-2.8-0.6-2.8-2.4
		c0-0.8,0.5-1.4,1.8-1.4c0.8,0,1.4,0.3,1.7,0.7c0,0.1,0.1,0.2,0.1,0.2c0,0.2-0.2,0.4-0.4,0.4c-0.1,0-0.2-0.1-0.3-0.2
		C54.5,11.8,54.1,11.6,53.6,11.6z"/>
	<path class="st0" d="M64.5,15.7c0,0.2-0.2,0.4-0.4,0.4c-0.2,0-0.4-0.2-0.4-0.4v-4.4c0-0.2,0.2-0.4,0.4-0.4c0.2,0,0.4,0.2,0.4,0.4
		V15.7z"/>
	<path class="st0" d="M61.2,11.6c0.1-0.1,0.1-0.2,0.1-0.3c0-0.2-0.2-0.4-0.4-0.4c-0.1,0-0.2,0-0.3,0.1l-1.8,2v-1.7
		c0-0.2-0.2-0.4-0.4-0.4S58,11.1,58,11.3v4.4c0,0.2,0.2,0.4,0.4,0.4s0.4-0.2,0.4-0.4v-1.5L61.2,11.6z"/>
	<path class="st0" d="M61.4,15.4L60,13.5l-0.6,0.6l1.3,1.8c0.1,0.1,0.2,0.2,0.4,0.2s0.4-0.2,0.4-0.4C61.5,15.6,61.5,15.5,61.4,15.4z
		"/>
	<path class="st0" d="M70.9,14.5v-3.2c0-0.2-0.2-0.4-0.4-0.4c-0.2,0-0.4,0.2-0.4,0.4v2.2L70.9,14.5z"/>
	<path class="st0" d="M70,14.3L67.7,11c-0.1-0.1-0.2-0.2-0.4-0.2c-0.2,0-0.4,0.2-0.4,0.4v4.4c0,0.2,0.2,0.4,0.4,0.4
		c0.2,0,0.4-0.2,0.4-0.4v-3l2.3,3.2c0.1,0.1,0.2,0.2,0.4,0.2c0.2,0,0.4-0.2,0.4-0.4v-0.3L70,14.3z"/>
</g>
<g>
	<path class="st0" d="M6.7,14.3v-3.1c0-0.2,0.2-0.4,0.4-0.4c0.2,0,0.4,0.2,0.4,0.4v3.1c0,0.5,0.2,1,1,1c0.9,0,1-0.5,1-1v-3.1
		c0-0.2,0.2-0.4,0.4-0.4s0.4,0.2,0.4,0.4v3.1c0,0.9-0.4,1.8-1.9,1.8C7.1,16.1,6.7,15.2,6.7,14.3z"/>
	<path class="st0" d="M18.9,14.3v-3.1c0-0.2,0.2-0.4,0.4-0.4s0.4,0.2,0.4,0.4v3.1c0,0.5,0.2,1,1,1c0.9,0,1-0.5,1-1v-3.1
		c0-0.2,0.2-0.4,0.4-0.4s0.4,0.2,0.4,0.4v3.1c0,0.9-0.4,1.8-1.9,1.8C19.3,16.1,18.9,15.2,18.9,14.3z"/>
	<path class="st0" d="M3.5,13.1h-1v0.8h1c0.2,0,0.4-0.2,0.4-0.4C3.9,13.3,3.7,13.1,3.5,13.1z"/>
	<path class="st0" d="M4,10.9H1.6c-0.2,0-0.4,0.2-0.4,0.4v4.3c0,0.2,0.2,0.4,0.4,0.4S2,15.9,2,15.6v-3.9h2c0.2,0,0.4-0.2,0.4-0.4
		C4.4,11.1,4.2,10.9,4,10.9z"/>
	<path class="st0" d="M34.1,15.2h-2v-3.5H34c0.2,0,0.4-0.2,0.4-0.4s-0.2-0.4-0.4-0.4h-2.4c-0.2,0-0.4,0.2-0.4,0.4v4.2
		c0,0.2,0.2,0.4,0.4,0.4h2.5c0.2,0,0.4-0.2,0.4-0.4C34.5,15.4,34.3,15.2,34.1,15.2z"/>
	<path class="st0" d="M33.5,13.8c0.2,0,0.4-0.2,0.4-0.4S33.7,13,33.5,13h-1v0.8H33.5z"/>
	<path class="st0" d="M14.3,12.2v3.5c0,0.2,0.2,0.4,0.4,0.4s0.4-0.2,0.4-0.4v-3.5C15.1,12.2,14.3,12.2,14.3,12.2z"/>
	<path class="st0" d="M16.4,10.9h-3.3c-0.2,0-0.4,0.2-0.4,0.4s0.2,0.4,0.4,0.4h3.3c0.2,0,0.4-0.2,0.4-0.4S16.6,10.9,16.4,10.9z"/>
	<path class="st0" d="M27.6,14c0.7-0.1,1.2-0.8,1.2-1.6c0-0.9-0.6-1.6-1.6-1.6h-1.5c-0.2,0-0.4,0.2-0.4,0.4v4.3
		c0,0.2,0.2,0.4,0.4,0.4s0.4-0.2,0.4-0.4V14H27.6z M26.2,11.7h1c0.5,0,0.7,0.4,0.7,0.8c0,0.4-0.2,0.8-0.7,0.8h-1V11.7z"/>
	<path class="st0" d="M28.8,15.4l-0.7-0.8h-1l1,1.4c0.1,0.1,0.2,0.2,0.3,0.2c0.2,0,0.4-0.2,0.4-0.4C28.9,15.5,28.8,15.4,28.8,15.4z"
		/>
</g>
<g>
	<path class="st1" d="M48,11.5l-4.2-9.8c-0.1-0.2-0.3-0.3-0.5-0.3s-0.4,0.1-0.5,0.3l-4.2,9.8c-0.2,0.5-0.2,1-0.2,1.5
		c0,2.7,2.2,4.9,4.9,4.9s4.9-2.2,4.9-4.9C48.2,12.5,48.1,12,48,11.5z M43.3,15.5c-1.4,0-2.5-1.1-2.5-2.5s1.1-2.5,2.5-2.5
		s2.5,1.1,2.5,2.5S44.6,15.5,43.3,15.5z M43.3,17.4V16c1.7,0,3-1.4,3-3s-1.3-3-3-3V1.9l4.2,9.8c0.1,0.4,0.2,0.9,0.2,1.3
		C47.7,15.4,45.7,17.4,43.3,17.4z"/>
	<circle class="st0" cx="43.3" cy="13" r="1.8"/>
</g>
</svg>
