<svg id="Future_Skin_Logo" data-name="Future Skin Logo" xmlns="http://www.w3.org/2000/svg" viewBox="0 0 256 256"><defs><style>.cls-1{fill:#60269e;}.cls-2{fill:#fff;}.cls-3{fill:#ff5100;}</style></defs><title>future-skin-logo</title><path class="cls-1" d="M71.49,222.23c-4.69,0-6.44,2.18-6.44,4.42,0,7.32,20.62,3.91,20.62,17.9,0,6.82-4.86,11.07-14.18,11.07-6.72,0-12.09-3.3-14.29-6.82a2.94,2.94,0,0,1-.46-1.57,3,3,0,0,1,3-3,3.3,3.3,0,0,1,2.48,1.23c2.38,2.35,5.37,4.25,9.27,4.25,5.14,0,7.62-1.68,7.62-5.14,0-8.17-20.61-4.42-20.61-17.9,0-5.54,4-10.24,13-10.24,5.65,0,10.56,2.07,12.82,5.26a3.2,3.2,0,0,1,.57,1.79,3,3,0,0,1-3,3,3.71,3.71,0,0,1-2.43-1.23A11.72,11.72,0,0,0,71.49,222.23Z"/><path class="cls-1" d="M151.43,252a3.28,3.28,0,0,1-6.55,0V220a3.28,3.28,0,0,1,6.55,0Z"/><path class="cls-1" d="M127,222a3.11,3.11,0,0,0,.84-2.13,3.17,3.17,0,0,0-5.53-2.07l-13.56,15V220a3.28,3.28,0,0,0-6.55,0v32a3.28,3.28,0,0,0,6.55,0V241.3Z"/><path class="cls-1" d="M128.83,250.25,118.5,236.32l-4.4,4.59,9.48,13a3.22,3.22,0,0,0,5.87-1.79A3,3,0,0,0,128.83,250.25Z"/><path class="cls-1" d="M198.21,243.71V219.89a3.19,3.19,0,0,0-6.37,0V236Z"/><path class="cls-1" d="M191.77,241.82,175,218.09a3,3,0,0,0-2.59-1.34,3.24,3.24,0,0,0-3.22,3.18V252.1a3.22,3.22,0,0,0,6.44,0v-22l16.66,23.83a3.27,3.27,0,0,0,2.66,1.39,3.24,3.24,0,0,0,3.22-3.18v-2.43Z"/><path class="cls-1" d="M46.48,176V153.56a3.29,3.29,0,0,1,6.58,0V176c0,3.4,1.3,7.35,7.71,7.35s7.72-4,7.72-7.35V153.56a3.29,3.29,0,0,1,6.58,0V176c0,6.35-2.84,13-14.3,13S46.48,182.36,46.48,176Z"/><path class="cls-1" d="M136.4,176V153.56a3.29,3.29,0,0,1,6.58,0V176c0,3.4,1.3,7.35,7.71,7.35s7.72-4,7.72-7.35V153.56a3.29,3.29,0,0,1,6.58,0V176c0,6.35-2.84,13-14.3,13S136.4,182.36,136.4,176Z"/><path class="cls-1" d="M22.76,166.87H15.65v5.68h7.11a2.84,2.84,0,1,0,0-5.68Z"/><path class="cls-1" d="M26.45,150.77H8.75A3.26,3.26,0,0,0,5.46,154v31.48a3.29,3.29,0,0,0,6.58,0V156.57H26.45a2.9,2.9,0,1,0,0-5.8Z"/><path class="cls-1" d="M247.59,182.47h-15l.32-25.74,14.09-.16a2.9,2.9,0,1,0,0-5.8h-17.7A3.26,3.26,0,0,0,226,154v31a3.26,3.26,0,0,0,3.29,3.23h18.32a2.9,2.9,0,1,0,0-5.79Z"/><path class="cls-1" d="M243.28,172.22a2.84,2.84,0,1,0,0-5.68h-7.09v5.68Z"/><path class="cls-1" d="M102.3,160v25.49a3.29,3.29,0,0,0,6.58,0V160Z"/><path class="cls-1" d="M117.56,150.77H93.62a2.85,2.85,0,1,0,0,5.69h23.94a2.85,2.85,0,1,0,0-5.69Z"/><path class="cls-1" d="M200.2,173.86c5.45-.67,8.76-6.15,8.76-11.44,0-6.3-4.31-11.65-12-11.65H186.15a3.27,3.27,0,0,0-3.29,3.23v31.48a3.29,3.29,0,0,0,6.58,0V173.89Zm-10.76-17.29h7.49c3.69,0,5.22,2.84,5.22,5.85s-1.53,5.79-5.05,5.79h-7.66Z"/><path class="cls-1" d="M208.62,183.53l-5.12-6.11h-7.7l7.65,10.12a3.37,3.37,0,0,0,2.56,1.17,3.27,3.27,0,0,0,3.29-3.23A3.13,3.13,0,0,0,208.62,183.53Z"/><path class="cls-2" d="M161.77,74.89,130.91,2.72a3.78,3.78,0,0,0-6.93,0L93.19,74.89a36.05,36.05,0,1,0,68.58,0Z"/><path class="cls-3" d="M161.8,74.9,130.91,2.66a3.78,3.78,0,0,0-6.93,0L93.15,74.9a36.1,36.1,0,1,0,68.65,0Zm-34.32,29.29a18.13,18.13,0,1,1,18.13-18.13A18.16,18.16,0,0,1,127.48,104.19Zm0,14.21V108.17a22.11,22.11,0,0,0,0-44.22V4.23l30.77,72a32.32,32.32,0,0,1-30.77,42.18Z"/><circle class="cls-1" cx="127.48" cy="86.06" r="13.06"/></svg>