<?xml version="1.0" encoding="utf-8"?>
<!-- Generator: Adobe Illustrator 22.0.0, SVG Export Plug-In . SVG Version: 6.00 Build 0)  -->
<svg version="1.1" id="Layer_1" xmlns="http://www.w3.org/2000/svg" xmlns:xlink="http://www.w3.org/1999/xlink" x="0px" y="0px"
	 viewBox="0 0 792 214" style="enable-background:new 0 0 792 214;" xml:space="preserve">
<style type="text/css">
	.st0{fill:#F05323;}
	.st1{clip-path:url(#SVGID_2_);fill:#573393;}
	.st2{clip-path:url(#SVGID_2_);fill:#F05323;}
</style>
<g>
	<path class="st0" d="M189.2,99.5h29.6V69.9h16.4v29.6h29.6v15.7h-29.6v29.6h-16.4v-29.6h-29.6V99.5z"/>
</g>
<g>
	<path class="st0" d="M521.4,85H597v14.6h-75.6V85z M521.4,113.2H597v14.6h-75.6V113.2z"/>
</g>
<g>
	<defs>
		<rect id="SVGID_1_" x="16" y="0.8" width="792" height="214.2"/>
	</defs>
	<clipPath id="SVGID_2_">
		<use xlink:href="#SVGID_1_"  style="overflow:visible;"/>
	</clipPath>
	<path class="st1" d="M410.2,142.9c0,9.1-7.4,16.5-16.5,16.5c-9.1,0-16.5-7.4-16.5-16.5c0-9.1,7.4-16.5,16.5-16.5
		C402.8,126.4,410.2,133.8,410.2,142.9"/>
	<path class="st1" d="M104.7,126.7l-38.9-91c-0.8-1.9-2.6-2.9-4.4-2.9c-1.8,0-3.5,0.9-4.4,2.8l-38.9,91.1c-1.4,4.4-2.2,9.2-2.2,14.1
		c0,25.1,20.4,45.5,45.5,45.5c25.1,0,45.5-20.4,45.5-45.5C107,135.9,106.2,131.2,104.7,126.7"/>
	<path class="st2" d="M725.8,181.5v-12.9c15.3,0,27.8-12.5,27.8-27.9s-12.5-27.8-27.8-27.9V37.7l38.8,90.7c1.3,4,1.9,8.2,1.9,12.4
		C766.5,163.2,748.2,181.5,725.8,181.5 M725.7,163.6c-12.6,0-22.9-10.3-22.9-22.9c0-12.6,10.3-22.9,22.9-22.9
		c12.6,0,22.9,10.3,22.9,22.9C748.6,153.4,738.3,163.6,725.7,163.6 M769,126.7l-38.9-91c-0.8-1.9-2.6-2.9-4.4-2.9
		c-1.8,0-3.5,0.9-4.4,2.8l-38.9,91.1c-1.4,4.4-2.2,9.2-2.2,14.1c0,25.1,20.4,45.5,45.5,45.5s45.5-20.4,45.5-45.5
		C771.2,135.9,770.4,131.2,769,126.7"/>
	<path class="st1" d="M742.2,140.8c0,9.1-7.4,16.5-16.5,16.5c-9.1,0-16.5-7.4-16.5-16.5c0-9.1,7.4-16.5,16.5-16.5
		C734.8,124.3,742.2,131.7,742.2,140.8"/>
</g>
</svg>
