<?xml version="1.0" encoding="utf-8"?>
<!-- Generator: Adobe Illustrator 22.0.0, SVG Export Plug-In . SVG Version: 6.00 Build 0)  -->
<svg version="1.1" id="Layer_1" xmlns="http://www.w3.org/2000/svg" xmlns:xlink="http://www.w3.org/1999/xlink" x="0px" y="0px"
	 viewBox="0 0 64 64" style="enable-background:new 0 0 64 64;" xml:space="preserve">
<style type="text/css">
	.st0{fill:#60269E;}
	.st1{fill:#FF5100;}
</style>
<g>
	<g>
		<path class="st0" d="M48.1,34.5c-0.6,0-0.8,0.3-0.8,0.6c0,0.9,2.6,0.5,2.6,2.2c0,0.8-0.6,1.4-1.7,1.4c-0.8,0-1.5-0.4-1.7-0.8
			c0-0.1-0.1-0.1-0.1-0.2c0-0.2,0.2-0.4,0.4-0.4c0.2,0,0.3,0.1,0.3,0.2c0.3,0.3,0.6,0.6,1.2,0.6c0.6,0,0.9-0.2,0.9-0.6
			c0-1-2.6-0.6-2.6-2.2c0-0.7,0.5-1.3,1.7-1.3c0.7,0,1.3,0.3,1.6,0.6c0,0.1,0.1,0.2,0.1,0.2c0,0.2-0.2,0.4-0.4,0.4
			c-0.1,0-0.2-0.1-0.3-0.2C48.9,34.7,48.6,34.5,48.1,34.5z"/>
		<path class="st0" d="M58.1,38.3c0,0.2-0.2,0.4-0.4,0.4s-0.4-0.2-0.4-0.4v-4c0-0.2,0.2-0.4,0.4-0.4c0.2,0,0.4,0.2,0.4,0.4V38.3z"/>
		<path class="st0" d="M55.1,34.5c0.1-0.1,0.1-0.2,0.1-0.3c0-0.2-0.2-0.4-0.4-0.4c-0.1,0-0.2,0-0.3,0.1l-1.7,1.8v-1.6
			c0-0.2-0.2-0.4-0.4-0.4c-0.2,0-0.4,0.2-0.4,0.4v4c0,0.2,0.2,0.4,0.4,0.4c0.2,0,0.4-0.2,0.4-0.4v-1.4L55.1,34.5z"/>
		<path class="st0" d="M55.3,38L54,36.3l-0.6,0.6l1.2,1.7c0.1,0.1,0.2,0.2,0.4,0.2c0.2,0,0.4-0.2,0.4-0.4
			C55.4,38.2,55.4,38.1,55.3,38z"/>
		<path class="st0" d="M64,37.2v-2.9c0-0.2-0.2-0.4-0.4-0.4c-0.2,0-0.4,0.2-0.4,0.4v2L64,37.2z"/>
		<path class="st0" d="M63.2,37l-2.1-3c-0.1-0.1-0.2-0.2-0.4-0.2c-0.2,0-0.4,0.2-0.4,0.4v4c0,0.2,0.2,0.4,0.4,0.4
			c0.2,0,0.4-0.2,0.4-0.4v-2.8l2.1,2.9c0.1,0.1,0.2,0.2,0.4,0.2c0.2,0,0.4-0.2,0.4-0.4v-0.3L63.2,37z"/>
	</g>
	<g>
		<path class="st0" d="M5.1,37v-2.8c0-0.2,0.2-0.4,0.4-0.4c0.2,0,0.4,0.2,0.4,0.4V37c0,0.5,0.2,0.9,0.9,0.9c0.8,0,0.9-0.5,0.9-0.9
			v-2.8c0-0.2,0.2-0.4,0.4-0.4c0.2,0,0.4,0.2,0.4,0.4V37c0,0.8-0.4,1.7-1.7,1.7C5.4,38.6,5.1,37.8,5.1,37z"/>
		<path class="st0" d="M16.3,37v-2.8c0-0.2,0.2-0.4,0.4-0.4S17,34,17,34.1V37c0,0.5,0.2,0.9,0.9,0.9c0.8,0,0.9-0.5,0.9-0.9v-2.8
			c0-0.2,0.2-0.4,0.4-0.4c0.2,0,0.4,0.2,0.4,0.4V37c0,0.8-0.4,1.7-1.7,1.7C16.6,38.6,16.3,37.8,16.3,37z"/>
		<path class="st0" d="M2.1,35.9H1.2v0.7h0.9c0.2,0,0.4-0.2,0.4-0.4C2.5,36.1,2.3,35.9,2.1,35.9z"/>
		<path class="st0" d="M2.6,33.9H0.4c-0.2,0-0.4,0.2-0.4,0.4v3.9c0,0.2,0.2,0.4,0.4,0.4s0.4-0.1,0.4-0.4v-3.6h1.8
			c0.2,0,0.4-0.2,0.4-0.4S2.8,33.9,2.6,33.9z"/>
		<path class="st0" d="M30.2,37.8h-1.8v-3.2h1.7c0.2,0,0.4-0.2,0.4-0.4s-0.2-0.4-0.4-0.4h-2.2c-0.2,0-0.4,0.2-0.4,0.4v3.9
			c0,0.2,0.2,0.4,0.4,0.4h2.3c0.2,0,0.4-0.2,0.4-0.4C30.6,38,30.4,37.8,30.2,37.8z"/>
		<path class="st0" d="M29.7,36.5c0.2,0,0.4-0.2,0.4-0.4s-0.2-0.4-0.4-0.4h-0.9v0.7H29.7z"/>
		<path class="st0" d="M12,35.1v3.2c0,0.2,0.2,0.4,0.4,0.4c0.2,0,0.4-0.2,0.4-0.4v-3.2C12.8,35.1,12,35.1,12,35.1z"/>
		<path class="st0" d="M14,33.9h-3c-0.2,0-0.4,0.2-0.4,0.4c0,0.2,0.2,0.4,0.4,0.4h3c0.2,0,0.4-0.2,0.4-0.4
			C14.3,34.1,14.1,33.9,14,33.9z"/>
		<path class="st0" d="M24.2,36.7c0.6-0.1,1.1-0.7,1.1-1.5c0-0.8-0.6-1.5-1.5-1.5h-1.4c-0.2,0-0.4,0.2-0.4,0.4v3.9
			c0,0.2,0.2,0.4,0.4,0.4c0.2,0,0.4-0.2,0.4-0.4v-1.4H24.2z M23,34.6h0.9c0.5,0,0.6,0.4,0.6,0.7s-0.2,0.7-0.6,0.7H23V34.6z"/>
		<path class="st0" d="M25.3,38l-0.6-0.7h-0.9l0.9,1.3c0.1,0.1,0.2,0.2,0.3,0.2c0.2,0,0.4-0.2,0.4-0.4C25.4,38.1,25.3,38,25.3,38z"
			/>
	</g>
	<g>
		<path class="st1" d="M43,34.4l-3.9-9c-0.1-0.2-0.3-0.3-0.5-0.3c-0.2,0-0.4,0.1-0.5,0.3l-3.9,9c-0.2,0.5-0.2,0.9-0.2,1.4
			c0,2.5,2,4.5,4.5,4.5s4.5-2,4.5-4.5C43.2,35.3,43.1,34.9,43,34.4z M38.7,38.1c-1.3,0-2.3-1-2.3-2.3c0-1.3,1-2.3,2.3-2.3
			s2.3,1,2.3,2.3C41,37.1,39.9,38.1,38.7,38.1z M38.7,39.8v-1.3c1.6,0,2.8-1.3,2.8-2.8S40.2,33,38.7,33v-7.4l3.9,9
			c0.1,0.4,0.2,0.8,0.2,1.2C42.7,38,40.9,39.8,38.7,39.8z"/>
		<circle class="st0" cx="38.7" cy="35.8" r="1.7"/>
	</g>
</g>
</svg>
