<?xml version="1.0" encoding="utf-8"?>
<!-- Generator: Adobe Illustrator 22.0.1, SVG Export Plug-In . SVG Version: 6.00 Build 0)  -->
<svg version="1.1" id="Layer_1" xmlns="http://www.w3.org/2000/svg" xmlns:xlink="http://www.w3.org/1999/xlink" x="0px" y="0px"
	 viewBox="0 0 2500 1407" style="enable-background:new 0 0 2500 1407;" xml:space="preserve">
<style type="text/css">
	.st0{clip-path:url(#SVGID_2_);}
	.st1{clip-path:url(#SVGID_4_);}
	.st2{fill:none;}
	.st3{fill:#010101;}
</style>
<g>
	<defs>
		<rect id="SVGID_1_" width="2500" height="1407"/>
	</defs>
	<clipPath id="SVGID_2_">
		<use xlink:href="#SVGID_1_"  style="overflow:visible;"/>
	</clipPath>
	<g class="st0">
		<defs>
			<rect id="SVGID_3_" width="2963.2" height="1667.7"/>
		</defs>
		<clipPath id="SVGID_4_">
			<use xlink:href="#SVGID_3_"  style="overflow:visible;"/>
		</clipPath>
		<g class="st1">
			<path class="st2" d="M2844.7,0H4267v1422.3H2844.7V0z"/>
			<path class="st3" d="M3077.5,0l-106.1,70.7L2933,0h-5.4l39.8,73.4l-42,28l1.9-2.5l-72.9-55.5L2896.7,0h-6.6l-39.5,40.5l-5.9-4.5
				V42l79.3,60.3l-78.9,52.6l-0.4-0.3v6.7l0.8-0.5l87.5,58.1l-88.3,132.4v206.8l70.8,130.5l-1.7-1.7l-63.1,64.7l-5.9-4.5v5.9
				l79.3,60.3l-78.9,52.6l-0.4-0.3v6.7l0.8-0.5l87.5,58.1l-88.3,132.4v206.8l70.8,130.5l-1.7-1.7l-23.6,24.2h6.6l19.9-20.4
				l11.1,20.4h5.4l-81.7-150.8l226.1,150.8h8.6l226.1-150.8l-81.7,150.8h5.4l8.1-14.9l19.6,14.9h7.8l-25.2-19.2l72.6-133.9
				l70.8,130.6l-1.7-1.7l-23.6,24.2h6.6l19.9-20.4l11.1,20.4h5.4l-81.7-150.8l226.1,150.8h8.6l226.1-150.8l-81.7,150.8h5.4l8.1-14.9
				l19.6,14.9h7.8l-25.2-19.2l72.6-133.9l70.8,130.6l-1.7-1.7l-23.6,24.2h6.6l19.9-20.4l11.1,20.4h5.4l-81.7-150.8l226.1,150.8h8.6
				l226.1-150.8l-81.7,150.8h5.4l8.1-14.9l19.6,14.9h7.8l-25.2-19.2l72.6-133.9v-206.8l-87.6-131.4l87.7-58.6v-6.7l-122.6-81.4
				l47.7-88.1l74.9,56.9v-5.9l-72.6-55.2l72.6-133.9V351.3l-87.6-131.4l87.6-58.6v-6.7l-122.6-81.4L4184.1,0h-5.4l-38.2,70.5
				L4034.3,0h-8.6l-106.1,70.7L3881.3,0h-5.4l39.8,73.4l-42,28l1.9-2.5l-72.9-55.5L3845,0h-6.6l-39.5,40.5L3745.5,0h-7.8
				l134.5,102.3l-78.9,52.6l-123-81.7L3710,0h-5.4l-38.2,70.5L3560.1,0h-8.6l-106.1,70.7L3407.1,0h-5.4l39.8,73.4l-42,28l1.9-2.5
				l-72.9-55.5L3370.9,0h-6.6l-39.5,40.5L3271.4,0h-7.8l134.5,102.3l-78.9,52.6l-123-81.7L3235.8,0h-5.4l-38.2,70.5L3086,0H3077.5z
				 M2849.7,158L3073.2,8.6L2935.6,215L2849.7,158z M3075.1,204.8l-119.9,221.3L2849,355.6L3075.1,204.8z M2861.4,341.6l218-227
				v81.8L2861.4,341.6z M3549.2,204.8l-119.9,221.3l-106.2-70.5L3549.2,204.8z M3335.5,341.6l218-227v81.8L3335.5,341.6z
				 M4023.3,204.8l-119.9,221.3l-106.2-70.5L4023.3,204.8z M3809.6,341.6l218-227v81.8L3809.6,341.6z M3314.5,1066.8l-106.1,70.7
				l-120-221.5L3314.5,1066.8z M2959.2,1139.9l47.7-88.1l154.2,117.2l-78.9,52.6L2959.2,1139.9z M3077.8,1225l-86.3,57.7
				l-138.3-207.4L3077.8,1225z M3082.5,516.4l87.5,58.1l-88.3,132.4l-87.6-131.4L3082.5,516.4z M2991.5,571.5l-138.3-207.4
				l224.6,149.7L2991.5,571.5z M3086.8,513.5l223.5-149.3l-137.6,206.4L3086.8,513.5z M3098.5,697.2l217.9-227v81.8L3098.5,697.2z
				 M3312.2,560.4l-119.9,221.3L3086,711.2L3312.2,560.4z M3152.5,1044.2l-1.7-1.7l-63.1,64.7l-78.5-59.7l72.6-133.9L3152.5,1044.2z
				 M3091.4,1110.1l62.2-63.8l50.8,93.7l-42,28l1.9-2.5L3091.4,1110.1z M3310.2,1075.3l-137.6,206.4l-85.9-57L3310.2,1075.3z
				 M3084.1,907.5v-81.8l218,227L3084.1,907.5z M3084.1,818.9V719l217.9,326.8L3084.1,818.9z M3090.3,719.7l224.6,149.7l-86.3,57.7
				L3090.3,719.7z M3196.2,784.4l47.7-88.1l154.2,117.2l-78.9,52.6L3196.2,784.4z M3556.6,516.4l87.5,58.1l-88.3,132.4l-87.6-131.4
				L3556.6,516.4z M3465.6,571.5l-138.3-207.4l224.6,149.7L3465.6,571.5z M3560.9,513.5l223.5-149.3l-137.6,206.4L3560.9,513.5z
				 M3572.6,697.2l218-227v81.8L3572.6,697.2z M3786.3,560.4l-119.9,221.3l-106.2-70.5L3786.3,560.4z M3565.6,1110.2l62.2-63.8
				l50.8,93.7l-42,28l1.9-2.5L3565.6,1110.2z M3624.9,1042.6l-63.1,64.7l-78.5-59.7l72.6-133.9l70.7,130.6L3624.9,1042.6z
				 M3551.6,711.2l-106.1,70.7l-120-221.5L3551.6,711.2z M3441.5,784.6l-42,28l1.9-2.5l-72.9-55.5l62.2-63.8L3441.5,784.6z
				 M3547.3,719.8l-137.6,206.4l-85.9-57L3547.3,719.8z M3553.5,719v99.9l-217.9,227L3553.5,719z M3553.5,825.7v81.8l-218,145.3
				L3553.5,825.7z M3549.2,916l-119.9,221.4l-106.2-70.5L3549.2,916z M3327.4,1075.3l224.6,149.7l-86.3,57.7L3327.4,1075.3z
				 M3539.1,1401.4l-217.9-227v-99.9L3539.1,1401.4z M3433.3,1139.9l47.7-88.1l154.2,117.2l-78.9,52.6L3433.3,1139.9z
				 M3784.4,1075.3l-137.6,206.4l-85.9-57L3784.4,1075.3z M3682.5,1137.5l-120-221.5l226.1,150.8L3682.5,1137.5z M3558.2,907.5
				v-81.8l218,227L3558.2,907.5z M3558.2,818.9V719l217.9,326.8L3558.2,818.9z M3564.4,719.7L3789,869.4l-86.3,57.7L3564.4,719.7z
				 M3670.3,784.4l47.7-88.1l154.2,117.2l-78.9,52.6L3670.3,784.4z M3915.6,784.6l-42,28l1.9-2.5l-72.9-55.5l62.2-63.8L3915.6,784.6
				z M3799.6,560.4l226.1,150.8l-106.1,70.7L3799.6,560.4z M4021.4,719.8l-137.6,206.4l-85.9-57L4021.4,719.8z M4027.6,719v99.9
				l-217.9,227L4027.6,719z M4027.6,825.7v81.8l-218,145.3L4027.6,825.7z M4023.3,916l-119.9,221.4l-106.2-70.5L4023.3,916z
				 M3801.5,1075.3L4026,1225l-86.3,57.7L3801.5,1075.3z M4013.2,1401.4l-217.9-227v-99.9L4013.2,1401.4z M3907.4,1139.9l47.7-88.1
				l154.2,117.2l-78.9,52.6L3907.4,1139.9z M4258.5,1075.3l-137.6,206.4l-85.9-57L4258.5,1075.3z M4110.7,1168.1l1.9-2.5l-72.9-55.5
				l62.2-63.8l50.8,93.7L4110.7,1168.1z M4099,1042.6l-63.1,64.7l-78.5-59.7l72.6-133.9l70.7,130.6L4099,1042.6z M4030,706.9
				l-87.6-131.4l88.4-59.1l87.5,58.1L4030,706.9z M3939.7,571.5l-138.3-207.4L4026,513.8L3939.7,571.5z M4035,513.5l223.5-149.3
				l-137.6,206.4L4035,513.5z M4110.7,457l1.9-2.5l-72.9-55.5l62.2-63.8l50.8,93.7L4110.7,457z M4109.3,457.9l-78.9,52.6l-123-81.7
				l47.7-88.1L4109.3,457.9z M4013.2,690.3l-217.9-227v-99.9L4013.2,690.3z M4013.3,697.2l-218-145.3v-81.8L4013.3,697.2z
				 M3863.7,688.7l-1.7-1.7l-63.1,64.7l-78.5-59.7l72.6-133.9L3863.7,688.7z M3790.6,463.3l-217.9,227l217.9-326.8V463.3z
				 M3682.5,426.3l-120-221.5l226.1,150.8L3682.5,426.3z M3678.6,429l-42,28l1.9-2.5l-72.9-55.5l62.2-63.8L3678.6,429z
				 M3635.2,457.9l-78.9,52.6l-123-81.7l47.7-88.1L3635.2,457.9z M3539.1,690.2l-217.9-226.9v-99.9L3539.1,690.2z M3539.1,697.1
				l-218-145.3v-81.8L3539.1,697.1z M3389.6,688.7l-1.7-1.7l-63.1,64.7l-78.5-59.7l72.6-133.9L3389.6,688.7z M3316.4,463.3
				l-217.9,227l217.9-326.8V463.3z M3314.5,355.6l-106.1,70.7l-120-221.5L3314.5,355.6z M3204.5,429l-42,28l1.9-2.5l-72.9-55.5
				l62.2-63.8L3204.5,429z M3161.1,457.9l-78.9,52.6l-123-81.7l47.7-88.1L3161.1,457.9z M2847.1,363.4L3065,690.3l-217.9-227V363.4z
				 M2847.1,470.1l218,227l-218-145.3V470.1z M2851.3,560.4l226.1,150.8l-106.1,70.7L2851.3,560.4z M2854.4,754.5l62.2-63.8
				l50.8,93.7l-42,28l1.9-2.5L2854.4,754.5z M2849.7,869.1l223.5-149.3l-137.6,206.4L2849.7,869.1z M3079.4,719v99.9l-217.9,227
				L3079.4,719z M3079.4,825.7v81.8l-218,145.3L3079.4,825.7z M3075.1,916l-119.9,221.4l-106.2-70.5L3075.1,916z M2847.1,1074.6
				l217.9,326.8l-217.9-227V1074.6z M2847.1,1263.1v-81.8l218,227L2847.1,1263.1z M3081.7,1418.1l-87.6-131.4l88.4-59.1l87.5,58.1
				L3081.7,1418.1z M3316.4,1263.1l-218,145.3l218-227.1V1263.1z M3316.4,1174.5l-217.9,227l217.9-326.8V1174.5z M3231.2,931.1
				l88.4-59.1l87.5,58.1l-88.3,132.4L3231.2,931.1z M3321.2,1263v-81.8l218,227L3321.2,1263z M3555.9,1418.1l-87.6-131.4l88.4-59.1
				l87.5,58.1L3555.9,1418.1z M3790.6,1263l-218,145.3l218-227V1263z M3790.6,1174.5l-217.9,227l217.9-326.8V1174.5z M3792.9,1062.5
				l-87.6-131.4l88.4-59.1l87.5,58.1L3792.9,1062.5z M3795.3,1263v-81.8l218,227L3795.3,1263z M4030,1418.1l-87.6-131.4l88.4-59.1
				l87.5,58.1L4030,1418.1z M4264.7,1263l-218,145.3l218-227V1263z M4264.7,1174.5l-217.9,227l217.9-326.8V1174.5z M4156.7,1137.5
				l-120-221.5l226.1,150.8L4156.7,1137.5z M4032.4,907.5v-81.8l218,227L4032.4,907.5z M4250.2,1045.9l-217.9-227V719L4250.2,1045.9
				z M4263.1,869.4l-86.3,57.7l-138.3-207.4L4263.1,869.4z M4140.5,781.7l-106.2-70.5l226.1-150.8L4140.5,781.7z M4264.7,551.9
				l-218,145.3l218-227V551.9z M4264.7,463.3l-217.9,227l217.9-326.8V463.3z M4156.7,426.3l-120-221.5l226.1,150.8L4156.7,426.3z
				 M4263.1,158.3l-86.3,57.7L4038.5,8.5L4263.1,158.3z M4032.4,7.8l217.9,326.9l-217.9-227V7.8z M4032.4,114.5l218,227l-218-145.3
				V114.5z M4100.7,333.1l-1.7-1.7l-63.1,64.7l-78.5-59.7l72.6-133.9L4100.7,333.1z M4027.6,7.8v99.9l-217.9,227L4027.6,7.8z
				 M4021.4,8.6L3883.8,215l-85.9-57L4021.4,8.6z M3793.7,160.8l87.5,58.1l-88.3,132.4l-87.6-131.4L3793.7,160.8z M3788.9,158.3
				l-86.3,57.7L3564.4,8.5L3788.9,158.3z M3558.2,7.8l217.9,326.8l-217.9-227V7.8z M3558.2,114.5l218,227l-218-145.3V114.5z
				 M3626.6,333.1l-1.7-1.7l-63.1,64.7l-78.5-59.7l72.6-133.9L3626.6,333.1z M3553.5,7.8v99.9l-217.9,227L3553.5,7.8z M3547.3,8.6
				L3409.7,215l-85.9-57L3547.3,8.6z M3319.6,160.8l87.5,58.1l-88.3,132.4l-87.6-131.4L3319.6,160.8z M3314.8,158.3l-86.3,57.7
				L3090.3,8.5L3314.8,158.3z M3084.1,7.8L3302,334.7l-217.9-227V7.8z M3084.1,114.5l218,227l-218-145.3V114.5z M3152.5,333.1
				l-1.7-1.7l-63.1,64.7l-78.5-59.7l72.6-133.9L3152.5,333.1z M3079.4,107.7l-217.9,227L3079.4,7.8V107.7z"/>
			<path class="st2" d="M2844.7,1422.3H4267v1422.3H2844.7V1422.3z"/>
			<path class="st3" d="M3077.5,1422.3l-106.1,70.7l-38.3-70.7h-5.4l39.8,73.4l-42,28l1.9-2.5l-72.9-55.5l42.4-43.4h-6.6l-39.5,40.5
				l-5.9-4.5v5.9l79.3,60.3l-78.9,52.6l-0.4-0.3v6.7l0.8-0.5l87.5,58.1l-88.3,132.4v206.8l70.8,130.5l-1.7-1.7l-63.1,64.7l-5.9-4.5
				v5.9l79.3,60.3l-78.9,52.6l-0.4-0.3v6.7l0.8-0.5l87.5,58.1l-88.3,132.4v206.8l70.8,130.5l-1.7-1.7l-23.6,24.2h6.6l19.9-20.4
				l11.1,20.4h5.4l-81.7-150.8l226.1,150.8h8.6l226.1-150.8l-81.7,150.8h5.4l8.1-14.9l19.6,14.9h7.8l-25.2-19.2l72.6-133.9
				l70.8,130.6l-1.7-1.7l-23.6,24.2h6.6l19.9-20.4l11.1,20.4h5.4l-81.7-150.8l226.1,150.8h8.6l226.1-150.8l-81.7,150.8h5.4l8.1-14.9
				l19.6,14.9h7.8l-25.2-19.2l72.6-133.9l70.8,130.6l-1.7-1.7l-23.6,24.2h6.6l19.9-20.4l11.1,20.4h5.4l-81.7-150.8l226.1,150.8h8.6
				l226.1-150.8l-81.7,150.8h5.4l8.1-14.9l19.6,14.9h7.8l-25.2-19.2l72.6-133.9v-206.8l-87.6-131.4l87.7-58.6v-6.7l-122.6-81.4
				l47.7-88.1l74.9,56.9v-5.9l-72.6-55.2l72.6-133.9v-206.8l-87.6-131.4l87.6-58.6v-6.7l-122.6-81.4l39.6-73.2h-5.4l-38.2,70.5
				l-106.2-70.5h-8.6l-106.1,70.7l-38.3-70.7h-5.4l39.8,73.4l-42,28l1.9-2.5l-72.9-55.5l42.4-43.4h-6.6l-39.5,40.5l-53.3-40.5h-7.8
				l134.5,102.3l-78.9,52.6l-123-81.8l39.7-73.1h-5.4l-38.2,70.5l-106.2-70.5h-8.6l-106.1,70.7l-38.3-70.7h-5.4l39.8,73.4l-42,28
				l1.9-2.5l-72.9-55.5l42.4-43.4h-6.6l-39.5,40.5l-53.3-40.5h-7.8l134.5,102.3l-78.9,52.6l-123-81.8l39.7-73.1h-5.4l-38.2,70.5
				l-106.2-70.5H3077.5z M2849.7,1580.3l223.5-149.3l-137.6,206.4L2849.7,1580.3z M3075.1,1627.2l-119.9,221.3l-106.2-70.5
				L3075.1,1627.2z M2861.4,1763.9l218-227v81.8L2861.4,1763.9z M3549.2,1627.2l-119.9,221.3l-106.2-70.5L3549.2,1627.2z
				 M3335.5,1763.9l218-227v81.8L3335.5,1763.9z M4023.3,1627.2l-119.9,221.3l-106.2-70.5L4023.3,1627.2z M3809.6,1763.9l218-227
				v81.8L3809.6,1763.9z M3314.5,2489.1l-106.1,70.7l-120-221.5L3314.5,2489.1z M2959.2,2562.3l47.7-88.1l154.2,117.2l-78.9,52.6
				L2959.2,2562.3z M3077.8,2647.4l-86.3,57.7l-138.3-207.4L3077.8,2647.4z M3082.5,1938.8l87.5,58.1l-88.3,132.4l-87.6-131.4
				L3082.5,1938.8z M2991.5,1993.9l-138.3-207.4l224.6,149.7L2991.5,1993.9z M3086.8,1935.9l223.5-149.3L3172.7,1993L3086.8,1935.9z
				 M3098.5,2119.5l217.9-227v81.8L3098.5,2119.5z M3312.2,1982.8l-119.9,221.3l-106.2-70.5L3312.2,1982.8z M3152.5,2466.6l-1.7-1.7
				l-63.1,64.7l-78.5-59.7l72.6-133.9L3152.5,2466.6z M3091.4,2532.5l62.2-63.8l50.8,93.7l-42,28l1.9-2.5L3091.4,2532.5z
				 M3310.2,2497.7l-137.6,206.4l-85.9-57L3310.2,2497.7z M3084.1,2329.8V2248l218,227L3084.1,2329.8z M3084.1,2241.2v-99.9
				l217.9,326.8L3084.1,2241.2z M3090.3,2142.1l224.6,149.7l-86.3,57.7L3090.3,2142.1z M3196.2,2206.7l47.7-88.1l154.2,117.2
				l-78.9,52.6L3196.2,2206.7z M3556.6,1938.8l87.5,58.1l-88.3,132.4l-87.6-131.4L3556.6,1938.8z M3465.6,1993.9l-138.3-207.4
				l224.6,149.7L3465.6,1993.9z M3560.9,1935.9l223.5-149.3L3646.8,1993L3560.9,1935.9z M3572.6,2119.5l218-227v81.8L3572.6,2119.5z
				 M3786.3,1982.8l-119.9,221.3l-106.2-70.5L3786.3,1982.8z M3565.6,2532.5l62.2-63.8l50.8,93.7l-42,28l1.9-2.5L3565.6,2532.5z
				 M3624.9,2464.9l-63.1,64.7l-78.5-59.7l72.6-133.9l70.7,130.6L3624.9,2464.9z M3551.6,2133.5l-106.1,70.7l-120-221.5
				L3551.6,2133.5z M3441.5,2206.9l-42,28l1.9-2.5l-72.9-55.5l62.2-63.8L3441.5,2206.9z M3547.3,2142.1l-137.6,206.4l-85.9-57
				L3547.3,2142.1z M3553.5,2141.4v99.9l-217.9,227L3553.5,2141.4z M3553.5,2248v81.8l-218,145.3L3553.5,2248z M3549.2,2338.3
				l-119.9,221.3l-106.2-70.5L3549.2,2338.3z M3327.4,2497.6l224.6,149.7l-86.3,57.7L3327.4,2497.6z M3539.1,2823.7l-217.9-226.9
				v-99.9L3539.1,2823.7z M3433.3,2562.2l47.7-88.1l154.2,117.2l-78.9,52.6L3433.3,2562.2z M3784.4,2497.7l-137.6,206.4l-85.9-57
				L3784.4,2497.7z M3682.5,2559.8l-120-221.5l226.1,150.8L3682.5,2559.8z M3558.2,2329.8V2248l218,227L3558.2,2329.8z
				 M3558.2,2241.2v-99.9l217.9,326.8L3558.2,2241.2z M3564.4,2142.1l224.6,149.7l-86.3,57.7L3564.4,2142.1z M3670.3,2206.7
				l47.7-88.1l154.2,117.2l-78.9,52.6L3670.3,2206.7z M3915.6,2206.9l-42,28l1.9-2.5l-72.9-55.5l62.2-63.8L3915.6,2206.9z
				 M3799.6,1982.8l226.1,150.8l-106.1,70.7L3799.6,1982.8z M4021.4,2142.1l-137.6,206.4l-85.9-57L4021.4,2142.1z M4027.6,2141.4
				v99.9l-217.9,227L4027.6,2141.4z M4027.6,2248v81.8l-218,145.3L4027.6,2248z M4023.3,2338.3l-119.9,221.3l-106.2-70.5
				L4023.3,2338.3z M3801.5,2497.6l224.6,149.7l-86.3,57.7L3801.5,2497.6z M4013.2,2823.7l-217.9-226.9v-99.9L4013.2,2823.7z
				 M3907.4,2562.2l47.7-88.1l154.2,117.2l-78.9,52.6L3907.4,2562.2z M4258.5,2497.7l-137.6,206.4l-85.9-57L4258.5,2497.7z
				 M4110.7,2590.4l1.9-2.5l-72.9-55.5l62.2-63.8l50.8,93.7L4110.7,2590.4z M4099,2464.9l-63.1,64.7l-78.5-59.7L4030,2336
				l70.7,130.6L4099,2464.9z M4030,2129.2l-87.6-131.4l88.4-59.1l87.5,58.1L4030,2129.2z M3939.7,1993.9l-138.3-207.4l224.6,149.7
				L3939.7,1993.9z M4035,1935.9l223.5-149.3L4120.9,1993L4035,1935.9z M4110.7,1879.3l1.9-2.5l-72.9-55.5l62.2-63.8l50.8,93.7
				L4110.7,1879.3z M4109.3,1880.2l-78.9,52.6l-123-81.8l47.7-88.1L4109.3,1880.2z M4013.2,2112.6l-217.9-226.9v-99.9L4013.2,2112.6
				z M4013.3,2119.5l-218-145.2v-81.8L4013.3,2119.5z M3863.7,2111l-1.7-1.7l-63.1,64.8l-78.5-59.7l72.6-133.9L3863.7,2111z
				 M3790.6,1885.6l-217.9,227l217.9-326.8V1885.6z M3682.5,1848.7l-120-221.5l226.1,150.8L3682.5,1848.7z M3678.6,1851.3l-42,28
				l1.9-2.5l-72.9-55.5l62.2-63.8L3678.6,1851.3z M3635.2,1880.2l-78.9,52.6l-123-81.8l47.7-88.1L3635.2,1880.2z M3539.1,2112.6
				l-217.9-226.9v-99.9L3539.1,2112.6z M3539.1,2119.5l-218-145.3v-81.8L3539.1,2119.5z M3389.6,2111l-1.7-1.7l-63.1,64.7
				l-78.5-59.7l72.6-133.9L3389.6,2111z M3316.4,1885.6l-217.9,227l217.9-326.8V1885.6z M3314.5,1777.9l-106.1,70.7l-120-221.5
				L3314.5,1777.9z M3204.5,1851.3l-42,28l1.9-2.5l-72.9-55.5l62.2-63.8L3204.5,1851.3z M3161.1,1880.2l-78.9,52.6l-123-81.8
				l47.7-88.1L3161.1,1880.2z M2847.1,1785.8l217.9,326.8l-217.9-227L2847.1,1785.8z M2847.1,1892.4l218,227l-218-145.3
				L2847.1,1892.4z M2851.3,1982.7l226.1,150.8l-106.1,70.7L2851.3,1982.7z M2854.4,2176.9l62.2-63.8l50.8,93.7l-42,28l1.9-2.5
				L2854.4,2176.9z M2849.7,2291.4l223.5-149.3l-137.6,206.4L2849.7,2291.4z M3079.4,2141.4v99.9l-217.9,227L3079.4,2141.4z
				 M3079.4,2248v81.8l-218,145.3L3079.4,2248z M3075.1,2338.3l-119.9,221.3l-106.2-70.5L3075.1,2338.3z M2847.1,2496.9l217.9,326.8
				l-217.9-227V2496.9z M2847.1,2685.4v-81.8l218,227L2847.1,2685.4z M3081.7,2840.4l-87.6-131.4l88.4-59.1l87.5,58.1L3081.7,2840.4
				z M3316.4,2685.4l-218,145.3l218-227.1V2685.4z M3316.4,2596.8l-217.9,227l217.9-326.8V2596.8z M3231.2,2353.4l88.4-59.1
				l87.5,58.1l-88.3,132.4L3231.2,2353.4z M3321.2,2685.4v-81.8l218,227L3321.2,2685.4z M3555.9,2840.4l-87.6-131.4l88.4-59.1
				l87.5,58.1L3555.9,2840.4z M3790.6,2685.4l-218,145.3l218-227V2685.4z M3790.6,2596.8l-217.9,227l217.9-326.8V2596.8z
				 M3792.9,2484.8l-87.6-131.4l88.4-59.1l87.5,58.1L3792.9,2484.8z M3795.3,2685.4v-81.8l218,227L3795.3,2685.4z M4030,2840.4
				l-87.6-131.4l88.4-59.1l87.5,58.1L4030,2840.4z M4264.7,2685.4l-218,145.3l218-227V2685.4z M4264.7,2596.8l-217.9,227
				l217.9-326.8V2596.8z M4156.7,2559.8l-120-221.5l226.1,150.8L4156.7,2559.8z M4032.4,2329.8V2248l218,227L4032.4,2329.8z
				 M4250.2,2468.2l-217.9-227v-99.9L4250.2,2468.2z M4263.1,2291.8l-86.3,57.7L4038.5,2142L4263.1,2291.8z M4140.5,2204.1
				l-106.2-70.5l226.1-150.8L4140.5,2204.1z M4264.7,1974.2l-218,145.3l218-227V1974.2z M4264.7,1885.6l-217.9,227l217.9-326.8
				V1885.6z M4156.7,1848.7l-120-221.5l226.1,150.8L4156.7,1848.7z M4263.1,1580.6l-86.3,57.7l-138.3-207.4L4263.1,1580.6z
				 M4032.4,1430.2l217.9,326.9l-217.9-227V1430.2z M4032.4,1536.8l218,227l-218-145.3V1536.8z M4100.7,1755.4l-1.7-1.7l-63.1,64.7
				l-78.5-59.7l72.6-133.9L4100.7,1755.4z M4027.6,1430.2v99.9l-217.9,227L4027.6,1430.2z M4021.4,1430.9l-137.6,206.4l-85.9-57
				L4021.4,1430.9z M3793.7,1583.2l87.5,58.1l-88.3,132.4l-87.6-131.4L3793.7,1583.2z M3788.9,1580.6l-86.3,57.7l-138.3-207.4
				L3788.9,1580.6z M3558.2,1430.2l217.9,326.8l-217.9-227V1430.2z M3558.2,1536.9l218,227l-218-145.3V1536.9z M3626.6,1755.4
				l-1.7-1.7l-63.1,64.7l-78.5-59.7l72.6-133.9L3626.6,1755.4z M3553.5,1430.2v99.9l-217.9,227L3553.5,1430.2z M3547.3,1430.9
				l-137.6,206.4l-85.9-57L3547.3,1430.9z M3319.6,1583.2l87.5,58.1l-88.3,132.4l-87.6-131.4L3319.6,1583.2z M3314.8,1580.6
				l-86.3,57.7l-138.3-207.4L3314.8,1580.6z M3084.1,1430.2L3302,1757l-217.9-227V1430.2z M3084.1,1536.9l218,227l-218-145.3V1536.9
				z M3152.5,1755.4l-1.7-1.7l-63.1,64.7l-78.5-59.7l72.6-133.9L3152.5,1755.4z M3079.4,1530l-217.9,227l217.9-326.8V1530z"/>
			<path class="st2" d="M1422.3,0h1422.3v1422.3H1422.3V0z"/>
			<path class="st3" d="M1655.1,0L1549,70.7L1510.7,0h-5.4l39.8,73.4l-42,28l1.9-2.5l-72.9-55.5L1474.4,0h-6.6l-39.5,40.5l-5.9-4.5
				V42l79.3,60.3l-78.9,52.6l-0.4-0.3v6.7l0.8-0.5l87.5,58.1l-88.3,132.4v206.8l70.8,130.5l-1.7-1.7l-63.1,64.7l-5.9-4.5v5.9
				l79.3,60.3l-78.9,52.6l-0.4-0.3v6.7l0.8-0.5l87.5,58.1l-88.3,132.4v206.8l70.8,130.5l-1.7-1.7l-23.6,24.2h6.6l19.9-20.4
				l11.1,20.4h5.4l-81.7-150.8l226.1,150.8h8.6l226.1-150.8l-81.7,150.8h5.4l8.1-14.9l19.6,14.9h7.8l-25.2-19.2l72.6-133.9
				l70.8,130.6l-1.7-1.7l-23.6,24.2h6.6l19.9-20.4l11.1,20.4h5.4l-81.7-150.8l226.1,150.8h8.6l226.1-150.8l-81.7,150.8h5.4l8.1-14.9
				l19.6,14.9h7.8l-25.2-19.2l72.6-133.9l70.8,130.6l-1.7-1.7l-23.6,24.2h6.6l19.9-20.4l11.1,20.4h5.4l-81.7-150.8l226.1,150.8h8.6
				l226.1-150.8l-81.7,150.8h5.4l8.1-14.9l19.6,14.9h7.8l-25.2-19.2l72.6-133.9v-206.8L2757,931.1l87.7-58.6v-6.7l-122.6-81.4
				l47.7-88.1l74.9,56.9v-5.9l-72.6-55.2l72.6-133.9V351.3l-87.6-131.4l87.6-58.6v-6.7l-122.6-81.4L2761.7,0h-5.4l-38.2,70.5
				L2611.9,0h-8.6l-106.1,70.7L2458.9,0h-5.4l39.8,73.4l-42,28l1.9-2.5l-72.9-55.5L2422.6,0h-6.6l-39.5,40.5L2323.2,0h-7.8
				l134.5,102.3l-78.9,52.6l-123-81.7L2287.6,0h-5.4L2244,70.5L2137.8,0h-8.6l-106.1,70.7L1984.8,0h-5.4l39.8,73.4l-42,28l1.9-2.5
				l-72.9-55.5L1948.5,0h-6.6l-39.5,40.5L1849,0h-7.8l134.5,102.3l-78.9,52.6l-123-81.7L1813.5,0h-5.4l-38.2,70.5L1663.7,0H1655.1z
				 M1427.4,158L1650.8,8.6L1513.2,215L1427.4,158z M1652.8,204.8l-119.9,221.3l-106.2-70.5L1652.8,204.8z M1439.1,341.6l218-227
				v81.8L1439.1,341.6z M2126.9,204.8L2007,426.1l-106.2-70.5L2126.9,204.8z M1913.2,341.6l218-227v81.8L1913.2,341.6z M2601,204.8
				l-119.9,221.3l-106.2-70.5L2601,204.8z M2387.3,341.6l218-227v81.8L2387.3,341.6z M1892.2,1066.8l-106.1,70.7L1666,916
				L1892.2,1066.8z M1536.8,1139.9l47.7-88.1l154.2,117.2l-78.9,52.6L1536.8,1139.9z M1655.5,1225l-86.3,57.7l-138.3-207.4
				L1655.5,1225z M1660.2,516.4l87.5,58.1l-88.3,132.4l-87.6-131.4L1660.2,516.4z M1569.2,571.5l-138.3-207.4l224.6,149.7
				L1569.2,571.5z M1664.5,513.5l223.5-149.3l-137.6,206.4L1664.5,513.5z M1676.2,697.2l217.9-227v81.8L1676.2,697.2z M1889.8,560.4
				l-119.9,221.3l-106.2-70.5L1889.8,560.4z M1730.2,1044.2l-1.7-1.7l-63.1,64.7l-78.5-59.7l72.6-133.9L1730.2,1044.2z
				 M1669.1,1110.1l62.2-63.8l50.8,93.7l-42,28l1.9-2.5L1669.1,1110.1z M1887.9,1075.3l-137.6,206.4l-85.9-57L1887.9,1075.3z
				 M1661.8,907.5v-81.8l218,227L1661.8,907.5z M1661.8,818.9V719l217.9,326.8L1661.8,818.9z M1667.9,719.7l224.6,149.7l-86.3,57.7
				L1667.9,719.7z M1773.9,784.4l47.7-88.1l154.2,117.2l-78.9,52.6L1773.9,784.4z M2134.3,516.4l87.5,58.1l-88.3,132.4l-87.6-131.4
				L2134.3,516.4z M2043.3,571.5L1905,364.1l224.6,149.7L2043.3,571.5z M2138.5,513.5L2362,364.2l-137.6,206.4L2138.5,513.5z
				 M2150.2,697.2l218-227v81.8L2150.2,697.2z M2363.9,560.4L2244,781.7l-106.2-70.5L2363.9,560.4z M2143.2,1110.2l62.2-63.8
				l50.8,93.7l-42,28l1.9-2.5L2143.2,1110.2z M2202.6,1042.6l-63.1,64.7l-78.5-59.7l72.6-133.9l70.7,130.6L2202.6,1042.6z
				 M2129.2,711.2l-106.1,70.7l-120-221.5L2129.2,711.2z M2019.2,784.6l-42,28l1.9-2.5l-72.9-55.5l62.2-63.8L2019.2,784.6z
				 M2124.9,719.8l-137.6,206.4l-85.9-57L2124.9,719.8z M2131.1,719v99.9l-217.9,227L2131.1,719z M2131.1,825.7v81.8l-218,145.3
				L2131.1,825.7z M2126.9,916L2007,1137.3l-106.2-70.5L2126.9,916z M1905,1075.3l224.6,149.7l-86.3,57.7L1905,1075.3z
				 M2116.7,1401.4l-217.9-227v-99.9L2116.7,1401.4z M2010.9,1139.9l47.7-88.1l154.2,117.2l-78.9,52.6L2010.9,1139.9z M2362,1075.3
				l-137.6,206.4l-85.9-57L2362,1075.3z M2260.2,1137.5l-120-221.5l226.1,150.8L2260.2,1137.5z M2135.9,907.5v-81.8l218,227
				L2135.9,907.5z M2135.9,818.9V719l217.9,326.8L2135.9,818.9z M2142.1,719.7l224.6,149.7l-86.3,57.7L2142.1,719.7z M2248,784.4
				l47.7-88.1l154.2,117.2l-78.9,52.6L2248,784.4z M2493.3,784.6l-42,28l1.9-2.5l-72.9-55.5l62.2-63.8L2493.3,784.6z M2377.2,560.4
				l226.1,150.8l-106.1,70.7L2377.2,560.4z M2599.1,719.8l-137.6,206.4l-85.9-57L2599.1,719.8z M2605.3,719v99.9l-217.9,227
				L2605.3,719z M2605.3,825.7v81.8l-218,145.3L2605.3,825.7z M2601,916l-119.9,221.4l-106.2-70.5L2601,916z M2379.1,1075.3
				l224.6,149.7l-86.3,57.7L2379.1,1075.3z M2590.8,1401.4l-217.9-227v-99.9L2590.8,1401.4z M2485,1139.9l47.7-88.1l154.2,117.2
				l-78.9,52.6L2485,1139.9z M2836.1,1075.3l-137.6,206.4l-85.9-57L2836.1,1075.3z M2688.3,1168.1l1.9-2.5l-72.9-55.5l62.2-63.8
				l50.8,93.7L2688.3,1168.1z M2676.7,1042.6l-63.1,64.7l-78.5-59.7l72.6-133.9l70.7,130.6L2676.7,1042.6z M2607.6,706.9L2520,575.5
				l88.4-59.1l87.5,58.1L2607.6,706.9z M2517.4,571.5l-138.3-207.4l224.6,149.7L2517.4,571.5z M2612.7,513.5l223.5-149.3
				l-137.6,206.4L2612.7,513.5z M2688.3,457l1.9-2.5l-72.9-55.5l62.2-63.8l50.8,93.7L2688.3,457z M2687,457.9l-78.9,52.6l-123-81.7
				l47.7-88.1L2687,457.9z M2590.8,690.3l-217.9-227v-99.9L2590.8,690.3z M2590.9,697.2l-218-145.3v-81.8L2590.9,697.2z
				 M2441.3,688.7l-1.7-1.7l-63.1,64.7L2298,692l72.6-133.9L2441.3,688.7z M2368.2,463.3l-217.9,227l217.9-326.8V463.3z
				 M2260.2,426.3l-120-221.5l226.1,150.8L2260.2,426.3z M2256.2,429l-42,28l1.9-2.5l-72.9-55.5l62.2-63.8L2256.2,429z
				 M2212.8,457.9l-78.9,52.6l-123-81.7l47.7-88.1L2212.8,457.9z M2116.7,690.2l-217.9-226.9v-99.9L2116.7,690.2z M2116.8,697.1
				l-218-145.3v-81.8L2116.8,697.1z M1967.2,688.7l-1.7-1.7l-63.1,64.7l-78.5-59.7l72.6-133.9L1967.2,688.7z M1894.1,463.3
				l-217.9,227l217.9-326.8V463.3z M1892.2,355.6l-106.1,70.7l-120-221.5L1892.2,355.6z M1782.1,429l-42,28l1.9-2.5l-72.9-55.5
				l62.2-63.8L1782.1,429z M1738.7,457.9l-78.9,52.6l-123-81.7l47.7-88.1L1738.7,457.9z M1424.7,363.4l217.9,326.8l-217.9-227V363.4
				z M1424.7,470.1l218,227l-218-145.3V470.1z M1429,560.4l226.1,150.8L1549,781.9L1429,560.4z M1432,754.5l62.2-63.8l50.8,93.7
				l-42,28l1.9-2.5L1432,754.5z M1427.4,869.1l223.5-149.3l-137.6,206.4L1427.4,869.1z M1657,719v99.9l-217.9,227L1657,719z
				 M1657,825.7v81.8l-218,145.3L1657,825.7z M1652.8,916l-119.9,221.4l-106.2-70.5L1652.8,916z M1424.7,1074.6l217.9,326.8
				l-217.9-227V1074.6z M1424.7,1263.1v-81.8l218,227L1424.7,1263.1z M1659.4,1418.1l-87.6-131.4l88.4-59.1l87.5,58.1L1659.4,1418.1
				z M1894.1,1263.1l-218,145.3l218-227.1V1263.1z M1894.1,1174.5l-217.9,227l217.9-326.8V1174.5z M1808.8,931.1l88.4-59.1
				l87.5,58.1l-88.3,132.4L1808.8,931.1z M1898.8,1263v-81.8l218,227L1898.8,1263z M2133.5,1418.1l-87.6-131.4l88.4-59.1l87.5,58.1
				L2133.5,1418.1z M2368.2,1263l-218,145.3l218-227V1263z M2368.2,1174.5l-217.9,227l217.9-326.8V1174.5z M2370.6,1062.5
				L2283,931.1l88.4-59.1l87.5,58.1L2370.6,1062.5z M2372.9,1263v-81.8l218,227L2372.9,1263z M2607.6,1418.1l-87.6-131.4l88.4-59.1
				l87.5,58.1L2607.6,1418.1z M2842.3,1263l-218,145.3l218-227V1263z M2842.3,1174.5l-217.9,227l217.9-326.8V1174.5z M2734.3,1137.5
				l-120-221.5l226.1,150.8L2734.3,1137.5z M2610,907.5v-81.8l218,227L2610,907.5z M2827.9,1045.9l-217.9-227V719L2827.9,1045.9z
				 M2840.7,869.4l-86.3,57.7l-138.3-207.4L2840.7,869.4z M2718.1,781.7l-106.2-70.5l226.1-150.8L2718.1,781.7z M2842.3,551.9
				l-218,145.3l218-227V551.9z M2842.3,463.3l-217.9,227l217.9-326.8V463.3z M2734.3,426.3l-120-221.5l226.1,150.8L2734.3,426.3z
				 M2840.7,158.3l-86.3,57.7L2616.2,8.5L2840.7,158.3z M2610,7.8l217.9,326.9l-217.9-227V7.8z M2610,114.5l218,227l-218-145.3
				V114.5z M2678.4,333.1l-1.7-1.7l-63.1,64.7l-78.5-59.7l72.6-133.9L2678.4,333.1z M2605.3,7.8v99.9l-217.9,227L2605.3,7.8z
				 M2599.1,8.6L2461.5,215l-85.9-57L2599.1,8.6z M2371.3,160.8l87.5,58.1l-88.3,132.4L2283,219.9L2371.3,160.8z M2366.6,158.3
				l-86.3,57.7L2142,8.5L2366.6,158.3z M2135.9,7.8l217.9,326.8l-217.9-227V7.8z M2135.9,114.5l218,227l-218-145.3V114.5z
				 M2204.3,333.1l-1.7-1.7l-63.1,64.7l-78.5-59.7l72.6-133.9L2204.3,333.1z M2131.1,7.8v99.9l-217.9,227L2131.1,7.8z M2124.9,8.6
				L1987.3,215l-85.9-57L2124.9,8.6z M1897.2,160.8l87.5,58.1l-88.3,132.4l-87.6-131.4L1897.2,160.8z M1892.5,158.3l-86.3,57.7
				L1667.9,8.5L1892.5,158.3z M1661.8,7.8l217.9,326.8l-217.9-227V7.8z M1661.8,114.5l218,227l-218-145.3V114.5z M1730.2,333.1
				l-1.7-1.7l-63.1,64.7l-78.5-59.7l72.6-133.9L1730.2,333.1z M1657,107.7l-217.9,227L1657,7.8V107.7z M2844.7,36l-47.4-36h-7.8
				l55.2,42V36z"/>
			<path class="st2" d="M1422.3,1422.3h1422.3v1422.3H1422.3V1422.3z"/>
			<path class="st3" d="M1655.1,1422.3l-106.1,70.7l-38.3-70.7h-5.4l39.8,73.4l-42,28l1.9-2.5l-72.9-55.5l42.4-43.4h-6.6l-39.5,40.5
				l-5.9-4.5v5.9l79.3,60.3l-78.9,52.6l-0.4-0.3v6.7l0.8-0.5l87.5,58.1l-88.3,132.4v206.8l70.8,130.5l-1.7-1.7l-63.1,64.7l-5.9-4.5
				v5.9l79.3,60.3l-78.9,52.6l-0.4-0.3v6.7l0.8-0.5l87.5,58.1l-88.3,132.4v206.8l70.8,130.5l-1.7-1.7l-23.6,24.2h6.6l19.9-20.4
				l11.1,20.4h5.4l-81.7-150.8l226.1,150.8h8.6l226.1-150.8l-81.7,150.8h5.4l8.1-14.9l19.6,14.9h7.8l-25.2-19.2l72.6-133.9
				l70.8,130.6l-1.7-1.7l-23.6,24.2h6.6l19.9-20.4l11.1,20.4h5.4l-81.7-150.8l226.1,150.8h8.6l226.1-150.8l-81.7,150.8h5.4l8.1-14.9
				l19.6,14.9h7.8l-25.2-19.2l72.6-133.9l70.8,130.6l-1.7-1.7l-23.6,24.2h6.6l19.9-20.4l11.1,20.4h5.4l-81.7-150.8l226.1,150.8h8.6
				l226.1-150.8l-81.7,150.8h5.4l8.1-14.9l19.6,14.9h7.8l-25.2-19.2l72.6-133.9v-206.8l-87.6-131.4l87.7-58.6v-6.7l-122.6-81.4
				l47.7-88.1l74.9,56.9v-5.9l-72.6-55.2l72.6-133.9v-206.8l-87.6-131.4l87.6-58.6v-6.7l-122.6-81.4l39.6-73.2h-5.4l-38.2,70.5
				l-106.2-70.5h-8.6l-106.1,70.7l-38.3-70.7h-5.4l39.8,73.4l-42,28l1.9-2.5l-72.9-55.5l42.4-43.4h-6.6l-39.5,40.5l-53.3-40.5h-7.8
				l134.5,102.3l-78.9,52.6l-123-81.8l39.7-73.1h-5.4l-38.2,70.5l-106.2-70.5h-8.6l-106.1,70.7l-38.3-70.7h-5.4l39.8,73.4l-42,28
				l1.9-2.5l-72.9-55.5l42.4-43.4h-6.6l-39.5,40.5l-53.3-40.5h-7.8l134.5,102.3l-78.9,52.6l-123-81.8l39.7-73.1h-5.4l-38.2,70.5
				l-106.2-70.5H1655.1z M1427.4,1580.3l223.5-149.3l-137.6,206.4L1427.4,1580.3z M1652.8,1627.2l-119.9,221.3l-106.2-70.5
				L1652.8,1627.2z M1439.1,1763.9l218-227v81.8L1439.1,1763.9z M2126.9,1627.2L2007,1848.5l-106.2-70.5L2126.9,1627.2z
				 M1913.2,1763.9l218-227v81.8L1913.2,1763.9z M2601,1627.2l-119.9,221.3l-106.2-70.5L2601,1627.2z M2387.3,1763.9l218-227v81.8
				L2387.3,1763.9z M1892.2,2489.1l-106.1,70.7l-120-221.5L1892.2,2489.1z M1536.8,2562.3l47.7-88.1l154.2,117.2l-78.9,52.6
				L1536.8,2562.3z M1655.5,2647.4l-86.3,57.7l-138.3-207.4L1655.5,2647.4z M1660.2,1938.8l87.5,58.1l-88.3,132.4l-87.6-131.4
				L1660.2,1938.8z M1569.2,1993.9l-138.3-207.4l224.6,149.7L1569.2,1993.9z M1664.5,1935.9l223.5-149.3L1750.3,1993L1664.5,1935.9z
				 M1676.2,2119.5l217.9-227v81.8L1676.2,2119.5z M1889.8,1982.8l-119.9,221.3l-106.2-70.5L1889.8,1982.8z M1730.2,2466.6l-1.7-1.7
				l-63.1,64.7l-78.5-59.7l72.6-133.9L1730.2,2466.6z M1669.1,2532.5l62.2-63.8l50.8,93.7l-42,28l1.9-2.5L1669.1,2532.5z
				 M1887.9,2497.7l-137.6,206.4l-85.9-57L1887.9,2497.7z M1661.8,2329.8V2248l218,227L1661.8,2329.8z M1661.8,2241.2v-99.9
				l217.9,326.8L1661.8,2241.2z M1667.9,2142.1l224.6,149.7l-86.3,57.7L1667.9,2142.1z M1773.9,2206.7l47.7-88.1l154.2,117.2
				l-78.9,52.6L1773.9,2206.7z M2134.3,1938.8l87.5,58.1l-88.3,132.4l-87.6-131.4L2134.3,1938.8z M2043.3,1993.9L1905,1786.5
				l224.6,149.7L2043.3,1993.9z M2138.5,1935.9l223.5-149.3L2224.4,1993L2138.5,1935.9z M2150.2,2119.5l218-227v81.8L2150.2,2119.5z
				 M2363.9,1982.8L2244,2204.1l-106.2-70.5L2363.9,1982.8z M2143.2,2532.5l62.2-63.8l50.8,93.7l-42,28l1.9-2.5L2143.2,2532.5z
				 M2202.5,2464.9l-63.1,64.7L2061,2470l72.6-133.9l70.7,130.6L2202.5,2464.9z M2129.2,2133.5l-106.1,70.7l-120-221.5
				L2129.2,2133.5z M2019.2,2206.9l-42,28l1.9-2.5l-72.9-55.5l62.2-63.8L2019.2,2206.9z M2124.9,2142.1l-137.6,206.4l-85.9-57
				L2124.9,2142.1z M2131.1,2141.4v99.9l-217.9,227L2131.1,2141.4z M2131.1,2248v81.8l-218,145.3L2131.1,2248z M2126.9,2338.3
				L2007,2559.6l-106.2-70.5L2126.9,2338.3z M1905,2497.6l224.6,149.7l-86.3,57.7L1905,2497.6z M2116.7,2823.7l-217.9-226.9v-99.9
				L2116.7,2823.7z M2010.9,2562.2l47.7-88.1l154.2,117.2l-78.9,52.6L2010.9,2562.2z M2362,2497.7l-137.6,206.4l-85.9-57
				L2362,2497.7z M2260.2,2559.8l-120-221.5l226.1,150.8L2260.2,2559.8z M2135.9,2329.8V2248l218,227L2135.9,2329.8z M2135.9,2241.2
				v-99.9l217.9,326.8L2135.9,2241.2z M2142.1,2142.1l224.6,149.7l-86.3,57.7L2142.1,2142.1z M2248,2206.7l47.7-88.1l154.2,117.2
				l-78.9,52.6L2248,2206.7z M2493.3,2206.9l-42,28l1.9-2.5l-72.9-55.5l62.2-63.8L2493.3,2206.9z M2377.2,1982.8l226.1,150.8
				l-106.1,70.7L2377.2,1982.8z M2599.1,2142.1l-137.6,206.4l-85.9-57L2599.1,2142.1z M2605.3,2141.4v99.9l-217.9,227L2605.3,2141.4
				z M2605.3,2248v81.8l-218,145.3L2605.3,2248z M2601,2338.3l-119.9,221.3l-106.2-70.5L2601,2338.3z M2379.1,2497.6l224.6,149.7
				l-86.3,57.7L2379.1,2497.6z M2590.8,2823.7l-217.9-226.9v-99.9L2590.8,2823.7z M2485,2562.2l47.7-88.1l154.2,117.2l-78.9,52.6
				L2485,2562.2z M2836.1,2497.7l-137.6,206.4l-85.9-57L2836.1,2497.7z M2688.3,2590.4l1.9-2.5l-72.9-55.5l62.2-63.8l50.8,93.7
				L2688.3,2590.4z M2676.7,2464.9l-63.1,64.7l-78.5-59.7l72.6-133.9l70.7,130.6L2676.7,2464.9z M2607.6,2129.2l-87.6-131.4
				l88.4-59.1l87.5,58.1L2607.6,2129.2z M2517.4,1993.9l-138.3-207.4l224.6,149.7L2517.4,1993.9z M2612.7,1935.9l223.5-149.3
				L2698.5,1993L2612.7,1935.9z M2688.3,1879.3l1.9-2.5l-72.9-55.5l62.2-63.8l50.8,93.7L2688.3,1879.3z M2687,1880.2l-78.9,52.6
				l-123-81.8l47.7-88.1L2687,1880.2z M2590.8,2112.6l-217.9-226.9v-99.9L2590.8,2112.6z M2590.9,2119.5l-218-145.2v-81.8
				L2590.9,2119.5z M2441.3,2111l-1.7-1.7l-63.1,64.8l-78.5-59.7l72.6-133.9L2441.3,2111z M2368.2,1885.6l-217.9,227l217.9-326.8
				V1885.6z M2260.2,1848.7l-120-221.5l226.1,150.8L2260.2,1848.7z M2256.2,1851.3l-42,28l1.9-2.5l-72.9-55.5l62.2-63.8
				L2256.2,1851.3z M2212.8,1880.2l-78.9,52.6l-123-81.8l47.7-88.1L2212.8,1880.2z M2116.7,2112.6l-217.9-226.9v-99.9L2116.7,2112.6
				z M2116.8,2119.5l-218-145.3v-81.8L2116.8,2119.5z M1967.2,2111l-1.7-1.7l-63.1,64.7l-78.5-59.7l72.6-133.9L1967.2,2111z
				 M1894.1,1885.6l-217.9,227l217.9-326.8V1885.6z M1892.2,1777.9l-106.1,70.7l-120-221.5L1892.2,1777.9z M1782.1,1851.3l-42,28
				l1.9-2.5l-72.9-55.5l62.2-63.8L1782.1,1851.3z M1738.7,1880.2l-78.9,52.6l-123-81.8l47.7-88.1L1738.7,1880.2z M1424.7,1785.8
				l217.9,326.8l-217.9-227V1785.8z M1424.7,1892.4l218,227l-218-145.3V1892.4z M1429,1982.7l226.1,150.8l-106.1,70.7L1429,1982.7z
				 M1432,2176.9l62.2-63.8l50.8,93.7l-42,28l1.9-2.5L1432,2176.9z M1427.4,2291.4l223.5-149.3l-137.6,206.4L1427.4,2291.4z
				 M1657,2141.4v99.9l-217.9,227L1657,2141.4z M1657,2248v81.8l-218,145.3L1657,2248z M1652.8,2338.3l-119.9,221.3l-106.2-70.5
				L1652.8,2338.3z M1424.7,2496.9l217.9,326.8l-217.9-227V2496.9z M1424.7,2685.4v-81.8l218,227L1424.7,2685.4z M1659.4,2840.4
				l-87.6-131.4l88.4-59.1l87.5,58.1L1659.4,2840.4z M1894.1,2685.4l-218,145.3l218-227.1V2685.4z M1894.1,2596.8l-217.9,227
				l217.9-326.8V2596.8z M1808.8,2353.4l88.4-59.1l87.5,58.1l-88.3,132.4L1808.8,2353.4z M1898.8,2685.4v-81.8l218,227
				L1898.8,2685.4z M2133.5,2840.4l-87.6-131.4l88.4-59.1l87.5,58.1L2133.5,2840.4z M2368.2,2685.4l-218,145.3l218-227V2685.4z
				 M2368.2,2596.8l-217.9,227l217.9-326.8V2596.8z M2370.6,2484.8l-87.6-131.4l88.4-59.1l87.5,58.1L2370.6,2484.8z M2372.9,2685.4
				v-81.8l218,227L2372.9,2685.4z M2607.6,2840.4L2520,2709l88.4-59.1l87.5,58.1L2607.6,2840.4z M2842.3,2685.4l-218,145.3l218-227
				V2685.4z M2842.3,2596.8l-217.9,227l217.9-326.8V2596.8z M2734.3,2559.8l-120-221.5l226.1,150.8L2734.3,2559.8z M2610,2329.8
				V2248l218,227L2610,2329.8z M2827.9,2468.2l-217.9-227v-99.9L2827.9,2468.2z M2840.7,2291.8l-86.3,57.7L2616.2,2142
				L2840.7,2291.8z M2718.1,2204.1l-106.2-70.5l226.1-150.8L2718.1,2204.1z M2842.3,1974.2l-218,145.3l218-227V1974.2z
				 M2842.3,1885.6l-217.9,227l217.9-326.8V1885.6z M2734.3,1848.7l-120-221.5l226.1,150.8L2734.3,1848.7z M2840.7,1580.6
				l-86.3,57.7l-138.3-207.4L2840.7,1580.6z M2610,1430.2l217.9,326.9L2610,1530V1430.2z M2610,1536.8l218,227l-218-145.3V1536.8z
				 M2678.4,1755.4l-1.7-1.7l-63.1,64.7l-78.5-59.7l72.6-133.9L2678.4,1755.4z M2605.3,1430.2v99.9l-217.9,227L2605.3,1430.2z
				 M2599.1,1430.9l-137.6,206.4l-85.9-57L2599.1,1430.9z M2371.3,1583.2l87.5,58.1l-88.3,132.4l-87.6-131.4L2371.3,1583.2z
				 M2366.6,1580.6l-86.3,57.7L2142,1430.9L2366.6,1580.6z M2135.9,1430.2l217.9,326.8l-217.9-227V1430.2z M2135.9,1536.9l218,227
				l-218-145.3V1536.9z M2204.3,1755.4l-1.7-1.7l-63.1,64.7l-78.5-59.7l72.6-133.9L2204.3,1755.4z M2131.1,1430.2v99.9l-217.9,227
				L2131.1,1430.2z M2124.9,1430.9l-137.6,206.4l-85.9-57L2124.9,1430.9z M1897.2,1583.2l87.5,58.1l-88.3,132.4l-87.6-131.4
				L1897.2,1583.2z M1892.5,1580.6l-86.3,57.7l-138.3-207.4L1892.5,1580.6z M1661.8,1430.2l217.9,326.8l-217.9-227V1430.2z
				 M1661.8,1536.9l218,227l-218-145.3V1536.9z M1730.2,1755.4l-1.7-1.7l-63.1,64.7l-78.5-59.7l72.6-133.9L1730.2,1755.4z
				 M1657,1530l-217.9,227l217.9-326.8V1530z M2844.7,1458.4l-47.4-36h-7.8l55.2,42V1458.4z"/>
			<path class="st2" d="M0,0h1422.3v1422.3H0V0z"/>
			<path class="st3" d="M232.8,0L126.7,70.7L88.3,0H83l39.8,73.4l-42,28l1.9-2.5L9.7,43.4L52.1,0h-6.6L5.9,40.5L0,36V42l79.3,60.3
				L0.4,154.9L0,154.6v6.7l0.8-0.5l87.5,58.1L0,351.3v206.8l70.8,130.5L69,687L5.9,751.7L0,747.2v5.9l79.3,60.3L0.4,866.1L0,865.8
				v6.7l0.8-0.5l87.5,58.1L0,1062.5v206.8l70.8,130.5l-1.7-1.7l-23.6,24.2h6.6l19.9-20.4l11.1,20.4h5.4L6.6,1271.6l226.1,150.8h8.6
				l226.1-150.8l-81.7,150.8h5.4l8.1-14.9l19.6,14.9h7.8l-25.2-19.2l72.6-133.9l70.8,130.6l-1.7-1.7l-23.6,24.2h6.6L546,1402
				l11.1,20.4h5.4l-81.7-150.8l226.1,150.8h8.6l226.1-150.8l-81.7,150.8h5.4l8.1-14.9l19.6,14.9h7.8l-25.2-19.2l72.6-133.9
				l70.8,130.6l-1.7-1.7l-23.6,24.2h6.6l19.9-20.4l11.1,20.4h5.4l-81.7-150.8l226.1,150.8h8.6l226.1-150.8l-81.7,150.8h5.4l8.1-14.9
				l19.6,14.9h7.8l-25.2-19.2l72.6-133.9v-206.8l-87.6-131.4l87.7-58.6v-6.7l-122.6-81.4l47.7-88.1l74.9,56.9v-5.9l-72.6-55.2
				l72.6-133.9V351.3l-87.6-131.4l87.6-58.6v-6.7l-122.6-81.4L1339.4,0h-5.4l-38.2,70.5L1189.6,0h-8.6l-106.1,70.7L1036.6,0h-5.4
				l39.8,73.4l-42,28l1.9-2.5l-72.9-55.5L1000.3,0h-6.6l-39.5,40.5L900.8,0H893l134.5,102.3l-78.9,52.6l-123-81.7L865.3,0h-5.4
				l-38.2,70.5L715.5,0h-8.6L600.8,70.7L562.5,0h-5.4l39.8,73.4l-42,28l1.9-2.5l-72.9-55.5L526.2,0h-6.6L480,40.5L426.7,0h-7.8
				l134.5,102.3l-78.9,52.6l-123-81.7L391.1,0h-5.4l-38.2,70.5L241.3,0H232.8z M5,158L228.5,8.6L90.9,215L5,158z M230.4,204.8
				L110.5,426.1L4.3,355.6L230.4,204.8z M16.7,341.6l218-227v81.8L16.7,341.6z M704.5,204.8L584.6,426.1l-106.2-70.5L704.5,204.8z
				 M490.8,341.6l218-227v81.8L490.8,341.6z M1178.7,204.8l-119.9,221.3l-106.2-70.5L1178.7,204.8z M965,341.6l218-227v81.8
				L965,341.6z M469.8,1066.8l-106.1,70.7L243.7,916L469.8,1066.8z M114.5,1139.9l47.7-88.1l154.2,117.2l-78.9,52.6L114.5,1139.9z
				 M233.1,1225l-86.3,57.7L8.5,1075.3L233.1,1225z M237.9,516.4l87.5,58.1l-88.3,132.4l-87.6-131.4L237.9,516.4z M146.8,571.5
				L8.5,364.1l224.6,149.7L146.8,571.5z M242.1,513.5l223.5-149.3L327.9,570.6L242.1,513.5z M253.8,697.2l217.9-227v81.8
				L253.8,697.2z M467.5,560.4L347.6,781.7l-106.2-70.5L467.5,560.4z M307.8,1044.2l-1.7-1.7l-63.1,64.7l-78.5-59.7l72.6-133.9
				L307.8,1044.2z M246.8,1110.1l62.2-63.8l50.8,93.7l-42,28l1.9-2.5L246.8,1110.1z M465.5,1075.3l-137.6,206.4l-85.9-57
				L465.5,1075.3z M239.4,907.5v-81.8l218,227.1L239.4,907.5z M239.4,818.9V719l217.9,326.8L239.4,818.9z M245.6,719.7l224.6,149.7
				l-86.3,57.7L245.6,719.7z M351.5,784.4l47.7-88.1l154.2,117.2l-78.9,52.6L351.5,784.4z M711.9,516.4l87.5,58.1l-88.3,132.4
				l-87.6-131.4L711.9,516.4z M620.9,571.5L482.7,364.1l224.6,149.7L620.9,571.5z M716.2,513.5l223.5-149.3L802.1,570.6L716.2,513.5
				z M727.9,697.2l218-227v81.8L727.9,697.2z M941.6,560.4L821.7,781.7l-106.2-70.5L941.6,560.4z M720.9,1110.2l62.2-63.8l50.8,93.7
				l-42,28l1.9-2.5L720.9,1110.2z M780.2,1042.6l-63.1,64.7l-78.5-59.7l72.6-133.9l70.7,130.6L780.2,1042.6z M706.9,711.2
				l-106.1,70.7l-120-221.5L706.9,711.2z M596.8,784.6l-42,28l1.9-2.5l-72.9-55.5l62.2-63.8L596.8,784.6z M702.6,719.8L565,926.2
				l-85.9-57L702.6,719.8z M708.8,719v99.9l-217.9,227L708.8,719z M708.8,825.7v81.8l-218,145.3L708.8,825.7z M704.5,916
				l-119.9,221.4l-106.2-70.5L704.5,916z M482.7,1075.3L707.2,1225l-86.3,57.7L482.7,1075.3z M694.4,1401.4l-217.9-227v-99.9
				L694.4,1401.4z M588.6,1139.9l47.7-88.1l154.2,117.2l-78.9,52.6L588.6,1139.9z M939.7,1075.3l-137.6,206.4l-85.9-57L939.7,1075.3
				z M837.8,1137.5L717.8,916L944,1066.8L837.8,1137.5z M713.5,907.5v-81.8l218,227.1L713.5,907.5z M713.5,818.9V719l217.9,326.8
				L713.5,818.9z M719.7,719.7l224.6,149.7L858,927.1L719.7,719.7z M825.6,784.4l47.7-88.1l154.2,117.2l-78.9,52.6L825.6,784.4z
				 M1070.9,784.6l-42,28l1.9-2.5l-72.9-55.5l62.2-63.8L1070.9,784.6z M954.9,560.4L1181,711.2l-106.1,70.7L954.9,560.4z
				 M1176.7,719.8l-137.6,206.4l-85.9-57L1176.7,719.8z M1182.9,719v99.9l-217.9,227L1182.9,719z M1182.9,825.7v81.8l-218,145.3
				L1182.9,825.7z M1178.7,916l-119.9,221.4l-106.2-70.5L1178.7,916z M956.8,1075.3l224.6,149.7l-86.3,57.7L956.8,1075.3z
				 M1168.5,1401.4l-217.9-227v-99.9L1168.5,1401.4z M1062.7,1139.9l47.7-88.1l154.2,117.2l-78.9,52.6L1062.7,1139.9z
				 M1413.8,1075.3l-137.6,206.4l-85.9-57L1413.8,1075.3z M1266,1168.1l1.9-2.5l-72.9-55.5l62.2-63.8l50.8,93.7L1266,1168.1z
				 M1254.3,1042.6l-63.1,64.7l-78.5-59.7l72.6-133.9l70.7,130.6L1254.3,1042.6z M1185.3,706.9l-87.6-131.4l88.4-59.1l87.5,58.1
				L1185.3,706.9z M1095,571.5L956.8,364.1l224.6,149.7L1095,571.5z M1190.3,513.5l223.5-149.3l-137.6,206.4L1190.3,513.5z
				 M1266,457l1.9-2.5L1195,399l62.2-63.8L1308,429L1266,457z M1264.6,457.9l-78.9,52.6l-123-81.7l47.7-88.1L1264.6,457.9z
				 M1168.5,690.3l-217.9-227v-99.9L1168.5,690.3z M1168.6,697.2l-218-145.3v-81.8L1168.6,697.2z M1019,688.7l-1.7-1.7l-63.1,64.7
				L875.7,692l72.6-133.9L1019,688.7z M945.9,463.3L728,690.3l217.9-326.8V463.3z M837.8,426.3l-120-221.5L944,355.6L837.8,426.3z
				 M833.9,429l-42,28l1.9-2.5L720.9,399l62.2-63.8L833.9,429z M790.5,457.9l-78.9,52.6l-123-81.7l47.7-88.1L790.5,457.9z
				 M694.4,690.2L476.5,463.3v-99.9L694.4,690.2z M694.4,697.1l-218-145.3v-81.8L694.4,697.1z M544.9,688.7l-1.7-1.7L480,751.7
				L401.6,692l72.6-133.9L544.9,688.7z M471.7,463.3l-217.9,227l217.9-326.8V463.3z M469.8,355.6l-106.1,70.7l-120-221.5
				L469.8,355.6z M359.8,429l-42,28l1.9-2.5L246.8,399l62.2-63.8L359.8,429z M316.4,457.9l-78.9,52.6l-123-81.7l47.7-88.1
				L316.4,457.9z M2.4,363.4l217.9,326.8L2.4,463.3V363.4z M2.4,470.1l218,227.1L2.4,551.9V470.1z M6.6,560.4l226.1,150.8
				l-106.1,70.7L6.6,560.4z M9.7,754.6l62.2-63.8l50.8,93.7l-42,28l1.9-2.5L9.7,754.6z M5,869.1l223.5-149.3L90.9,926.2L5,869.1z
				 M234.7,719v99.9l-217.9,227L234.7,719z M234.7,825.7v81.8l-218,145.3L234.7,825.7z M230.4,916l-119.9,221.4L4.3,1066.8
				L230.4,916z M2.4,1074.6l217.9,326.8l-217.9-227V1074.6z M2.4,1263.1v-81.8l218,227L2.4,1263.1z M237.1,1418.1l-87.6-131.4
				l88.4-59.1l87.5,58.1L237.1,1418.1z M471.7,1263l-218,145.3l218-227V1263z M471.7,1174.5l-217.9,227l217.9-326.8V1174.5z
				 M386.5,931.1l88.4-59.1l87.5,58.1l-88.3,132.4L386.5,931.1z M476.5,1263v-81.8l218,227L476.5,1263z M711.2,1418.1l-87.6-131.4
				l88.4-59.1l87.5,58.1L711.2,1418.1z M945.9,1263l-218,145.3l218-227V1263z M945.9,1174.5l-217.9,227l217.9-326.8V1174.5z
				 M948.2,1062.5l-87.6-131.4L949,872l87.5,58.1L948.2,1062.5z M950.6,1263v-81.8l218,227L950.6,1263z M1185.3,1418.1l-87.6-131.4
				l88.4-59.1l87.5,58.1L1185.3,1418.1z M1420,1263l-218,145.3l218-227V1263z M1420,1174.5l-217.9,227l217.9-326.8V1174.5z
				 M1312,1137.5l-120-221.5l226.1,150.8L1312,1137.5z M1187.7,907.5v-81.8l218,227L1187.7,907.5z M1405.6,1045.9l-217.9-227V719
				L1405.6,1045.9z M1418.4,869.4l-86.3,57.7l-138.3-207.4L1418.4,869.4z M1295.8,781.7l-106.2-70.5l226.1-150.8L1295.8,781.7z
				 M1420,551.9l-218,145.3l218-227V551.9z M1420,463.3l-217.9,227L1420,363.4V463.3z M1312,426.3l-120-221.5l226.1,150.8
				L1312,426.3z M1418.4,158.3l-86.3,57.7L1193.8,8.5L1418.4,158.3z M1187.7,7.8l217.9,326.9l-217.9-227V7.8z M1187.7,114.5l218,227
				l-218-145.3V114.5z M1256,333.1l-1.7-1.7l-63.1,64.7l-78.5-59.7l72.6-133.9L1256,333.1z M1182.9,7.8v99.9L965,334.7L1182.9,7.8z
				 M1176.7,8.6L1039.1,215l-85.9-57L1176.7,8.6z M949,160.8l87.5,58.1l-88.3,132.4l-87.6-131.4L949,160.8z M944.2,158.3l-86.3,57.7
				L719.7,8.5L944.2,158.3z M713.5,7.8l217.9,326.8l-217.9-227V7.8z M713.5,114.5l218,227.1l-218-145.3V114.5z M781.9,333.1
				l-1.7-1.7l-63.1,64.7l-78.5-59.7l72.6-133.9L781.9,333.1z M708.8,7.8v99.9l-217.9,227L708.8,7.8z M702.6,8.6L565,215l-85.9-57
				L702.6,8.6z M474.9,160.8l87.5,58.1l-88.3,132.4l-87.6-131.4L474.9,160.8z M470.1,158.3l-86.3,57.7L245.6,8.5L470.1,158.3z
				 M239.4,7.8l217.9,326.8l-217.9-227V7.8z M239.4,114.5l218,227.1l-218-145.3V114.5z M307.8,333.1l-1.7-1.7L243,396.1l-78.5-59.7
				l72.6-133.9L307.8,333.1z M234.7,107.7l-217.9,227L234.7,7.8V107.7z M1422.3,36L1375,0h-7.8l55.2,42V36z"/>
			<path class="st2" d="M0,1422.3h1422.3v1422.3H0V1422.3z"/>
			<path class="st3" d="M232.8,1422.3l-106.1,70.7l-38.3-70.7H83l39.8,73.4l-42,28l1.9-2.5l-73-55.5l42.4-43.4h-6.6l-39.5,40.5
				l-5.9-4.5v5.9l79.3,60.3l-78.9,52.6L0,1577v6.7l0.8-0.5l87.5,58.1L0,1773.7v206.8L70.8,2111l-1.7-1.7L5.9,2174l-5.9-4.5v5.9
				l79.3,60.3l-78.9,52.6l-0.4-0.3v6.7l0.8-0.5l87.5,58.1L0,2484.8v206.8l70.8,130.5l-1.7-1.7l-23.6,24.2h6.6l19.9-20.4l11.1,20.4
				h5.4L6.6,2693.9l226.1,150.8h8.6l226.1-150.8l-81.7,150.8h5.4l8.1-14.9l19.6,14.9h7.8l-25.2-19.2l72.6-133.9l70.8,130.6l-1.7-1.7
				l-23.6,24.2h6.6l19.9-20.4l11.1,20.4h5.4l-81.7-150.8l226.1,150.8h8.6l226.1-150.8l-81.7,150.8h5.4l8.1-14.9l19.6,14.9h7.8
				l-25.2-19.2l72.6-133.9l70.8,130.6l-1.7-1.7l-23.6,24.2h6.6l19.9-20.4l11.1,20.4h5.4l-81.7-150.8l226.1,150.8h8.6l226.1-150.8
				l-81.7,150.8h5.4l8.1-14.9l19.6,14.9h7.8l-25.2-19.2l72.6-133.9v-206.8l-87.6-131.4l87.7-58.6v-6.7l-122.6-81.4l47.7-88.1
				l74.9,56.9v-5.9l-72.6-55.2l72.6-133.9v-206.8l-87.6-131.4l87.6-58.6v-6.7l-122.6-81.4l39.6-73.2h-5.4l-38.2,70.5l-106.2-70.5
				h-8.6l-106.1,70.7l-38.3-70.7h-5.4l39.8,73.4l-42,28l1.9-2.5l-72.9-55.5l42.3-43.4h-6.6l-39.5,40.5l-53.3-40.5H893l134.5,102.3
				l-78.9,52.6l-123-81.8l39.7-73.1h-5.4l-38.2,70.5l-106.2-70.5h-8.6l-106.1,70.7l-38.3-70.7h-5.4l39.8,73.4l-42,28l1.9-2.5
				l-72.9-55.5l42.3-43.4h-6.6l-39.5,40.5l-53.3-40.5h-7.8l134.5,102.3l-78.9,52.6l-123-81.8l39.7-73.1h-5.4l-38.2,70.5l-106.2-70.5
				H232.8z M5,1580.3L228.5,1431L90.9,1637.3L5,1580.3z M230.4,1627.2l-119.9,221.3L4.3,1777.9L230.4,1627.2z M16.7,1763.9l218-227
				v81.8L16.7,1763.9z M704.5,1627.2l-119.9,221.3l-106.2-70.5L704.5,1627.2z M490.8,1763.9l218-227v81.8L490.8,1763.9z
				 M1178.7,1627.2l-119.9,221.3l-106.2-70.5L1178.7,1627.2z M965,1763.9l218-227v81.8L965,1763.9z M469.8,2489.1l-106.1,70.7
				l-120-221.5L469.8,2489.1z M114.5,2562.3l47.7-88.1l154.2,117.2l-78.9,52.6L114.5,2562.3z M233.1,2647.4l-86.3,57.7L8.5,2497.6
				L233.1,2647.4z M237.9,1938.8l87.5,58.1l-88.3,132.4l-87.6-131.4L237.9,1938.8z M146.8,1993.9L8.6,1786.5l224.6,149.7
				L146.8,1993.9z M242.1,1935.9l223.5-149.3l-137.6,206.4L242.1,1935.9z M253.8,2119.5l217.9-227v81.8L253.8,2119.5z M467.5,1982.8
				l-119.9,221.3l-106.2-70.5L467.5,1982.8z M307.8,2466.6l-1.7-1.7l-63.1,64.7l-78.5-59.7l72.6-133.9L307.8,2466.6z M246.8,2532.5
				l62.2-63.8l50.8,93.7l-42,28l1.9-2.5L246.8,2532.5z M465.5,2497.7l-137.6,206.4l-85.9-57L465.5,2497.7z M239.4,2329.8V2248
				l218,227L239.4,2329.8z M239.4,2241.2v-99.9l217.9,326.8L239.4,2241.2z M245.6,2142.1l224.6,149.7l-86.3,57.7L245.6,2142.1z
				 M351.5,2206.7l47.7-88.1l154.2,117.2l-78.9,52.6L351.5,2206.7z M711.9,1938.8l87.5,58.1l-88.3,132.4l-87.6-131.4L711.9,1938.8z
				 M620.9,1993.9l-138.3-207.4l224.6,149.7L620.9,1993.9z M716.2,1935.9l223.5-149.3l-137.6,206.4L716.2,1935.9z M727.9,2119.5
				l218-227v81.8L727.9,2119.5z M941.6,1982.8l-119.9,221.3l-106.2-70.5L941.6,1982.8z M720.9,2532.5l62.2-63.8l50.8,93.7l-42,28
				l1.9-2.5L720.9,2532.5z M780.2,2464.9l-63.1,64.7l-78.5-59.7l72.6-133.9l70.7,130.6L780.2,2464.9z M706.9,2133.5l-106.1,70.7
				l-120-221.5L706.9,2133.5z M596.8,2206.9l-42,28l1.9-2.5l-72.9-55.5l62.2-63.8L596.8,2206.9z M702.6,2142.1L565,2348.5l-85.9-57
				L702.6,2142.1z M708.8,2141.4v99.9l-217.9,227L708.8,2141.4z M708.8,2248v81.8l-218,145.3L708.8,2248z M704.5,2338.3
				l-119.9,221.4l-106.2-70.5L704.5,2338.3z M482.7,2497.7l224.6,149.7l-86.3,57.7L482.7,2497.7z M694.4,2823.8l-217.9-227v-99.9
				L694.4,2823.8z M588.6,2562.3l47.7-88.1l154.2,117.2l-78.9,52.6L588.6,2562.3z M939.7,2497.7l-137.6,206.4l-85.9-57L939.7,2497.7
				z M837.8,2559.8l-120-221.5L944,2489.1L837.8,2559.8z M713.5,2329.8V2248l218,227L713.5,2329.8z M713.5,2241.2v-99.9l217.9,326.8
				L713.5,2241.2z M719.7,2142.1l224.6,149.7l-86.3,57.7L719.7,2142.1z M825.6,2206.7l47.7-88.1l154.2,117.2l-78.9,52.6
				L825.6,2206.7z M1070.9,2206.9l-42,28l1.9-2.5l-72.9-55.5l62.2-63.8L1070.9,2206.9z M954.9,1982.8l226.1,150.8l-106.1,70.7
				L954.9,1982.8z M1176.7,2142.1l-137.6,206.4l-85.9-57L1176.7,2142.1z M1182.9,2141.4v99.9l-217.9,227L1182.9,2141.4z
				 M1182.9,2248v81.8l-218,145.3L1182.9,2248z M1178.7,2338.3l-119.9,221.4l-106.2-70.5L1178.7,2338.3z M956.8,2497.7l224.6,149.7
				l-86.3,57.7L956.8,2497.7z M1168.5,2823.8l-217.9-227v-99.9L1168.5,2823.8z M1062.7,2562.3l47.7-88.1l154.2,117.2l-78.9,52.6
				L1062.7,2562.3z M1413.8,2497.7l-137.6,206.4l-85.9-57L1413.8,2497.7z M1266,2590.5l1.9-2.5l-72.9-55.5l62.2-63.8l50.8,93.7
				L1266,2590.5z M1254.3,2464.9l-63.1,64.7l-78.5-59.7l72.6-133.9l70.7,130.6L1254.3,2464.9z M1185.3,2129.2l-87.6-131.4l88.4-59.1
				l87.5,58.1L1185.3,2129.2z M1095,1993.9l-138.3-207.4l224.6,149.7L1095,1993.9z M1190.3,1935.9l223.5-149.3L1276.2,1993
				L1190.3,1935.9z M1266,1879.3l1.9-2.5l-72.9-55.5l62.2-63.8l50.8,93.7L1266,1879.3z M1264.6,1880.2l-78.9,52.6l-123-81.8
				l47.7-88.1L1264.6,1880.2z M1168.5,2112.6l-217.9-226.9v-99.9L1168.5,2112.6z M1168.6,2119.5l-218-145.2v-81.8L1168.6,2119.5z
				 M1019,2111l-1.7-1.7l-63.1,64.7l-78.5-59.7l72.6-133.9L1019,2111z M945.9,1885.6l-217.9,227l217.9-326.8V1885.6z M837.8,1848.7
				l-120-221.5L944,1777.9L837.8,1848.7z M833.9,1851.3l-42,28l1.9-2.5l-72.9-55.5l62.2-63.8L833.9,1851.3z M790.5,1880.2
				l-78.9,52.6l-123-81.8l47.7-88.1L790.5,1880.2z M694.4,2112.6l-217.9-226.9v-99.9L694.4,2112.6z M694.4,2119.5l-218-145.3v-81.8
				L694.4,2119.5z M544.9,2111l-1.7-1.7L480,2174l-78.5-59.7l72.6-133.9L544.9,2111z M471.7,1885.6l-217.9,227l217.9-326.8V1885.6z
				 M469.8,1777.9l-106.1,70.7l-120-221.5L469.8,1777.9z M359.8,1851.3l-42,28l1.9-2.5l-72.9-55.5l62.2-63.8L359.8,1851.3z
				 M316.4,1880.2l-78.9,52.6l-123-81.8l47.7-88.1L316.4,1880.2z M2.4,1785.8l217.9,326.8l-217.9-227V1785.8z M2.4,1892.4l218,227
				l-218-145.3V1892.4z M6.6,1982.7l226.1,150.8l-106.1,70.7L6.6,1982.7z M9.7,2176.9l62.2-63.8l50.8,93.7l-42,28l1.9-2.5
				L9.7,2176.9z M5,2291.4l223.5-149.3L90.9,2348.5L5,2291.4z M234.7,2141.4v99.9l-217.9,227L234.7,2141.4z M234.7,2248v81.8
				l-218,145.3L234.7,2248z M230.4,2338.3l-119.9,221.4L4.3,2489.1L230.4,2338.3z M2.4,2496.9l217.9,326.8l-217.9-227V2496.9z
				 M2.4,2685.4v-81.8l218,227L2.4,2685.4z M237.1,2840.4L149.4,2709l88.4-59.1l87.5,58.1L237.1,2840.4z M471.7,2685.4l-218,145.3
				l218-227V2685.4z M471.7,2596.8l-217.9,227l217.9-326.8V2596.8z M386.5,2353.4l88.4-59.1l87.5,58.1l-88.3,132.4L386.5,2353.4z
				 M476.5,2685.4v-81.8l218,227L476.5,2685.4z M711.2,2840.4L623.6,2709l88.4-59.1l87.5,58.1L711.2,2840.4z M945.9,2685.4
				l-218,145.3l218-227V2685.4z M945.9,2596.8l-217.9,227l217.9-326.8V2596.8z M948.2,2484.8l-87.6-131.4l88.4-59.1l87.5,58.1
				L948.2,2484.8z M950.6,2685.4v-81.8l218,227L950.6,2685.4z M1185.3,2840.4l-87.6-131.4l88.4-59.1l87.5,58.1L1185.3,2840.4z
				 M1420,2685.4l-218,145.3l218-227V2685.4z M1420,2596.8l-217.9,227l217.9-326.8V2596.8z M1312,2559.8l-120-221.5l226.1,150.8
				L1312,2559.8z M1187.7,2329.8V2248l218,227L1187.7,2329.8z M1405.6,2468.2l-217.9-227v-99.9L1405.6,2468.2z M1418.4,2291.8
				l-86.3,57.7L1193.8,2142L1418.4,2291.8z M1295.8,2204.1l-106.2-70.5l226.1-150.8L1295.8,2204.1z M1420,1974.2l-218,145.3l218-227
				V1974.2z M1420,1885.6l-217.9,227l217.9-326.8V1885.6z M1312,1848.7l-120-221.5l226.1,150.8L1312,1848.7z M1418.4,1580.6
				l-86.3,57.7l-138.3-207.4L1418.4,1580.6z M1187.7,1430.2l217.9,326.9l-217.9-227V1430.2z M1187.7,1536.8l218,227l-218-145.3
				V1536.8z M1256,1755.4l-1.7-1.7l-63.1,64.7l-78.5-59.7l72.6-133.9L1256,1755.4z M1182.9,1430.2v99.9L965,1757L1182.9,1430.2z
				 M1176.7,1430.9l-137.6,206.4l-85.9-57L1176.7,1430.9z M949,1583.2l87.5,58.1l-88.3,132.4l-87.6-131.4L949,1583.2z M944.2,1580.6
				l-86.3,57.7l-138.3-207.4L944.2,1580.6z M713.5,1430.2L931.4,1757l-217.9-227V1430.2z M713.5,1536.9l218,227l-218-145.3V1536.9z
				 M781.9,1755.4l-1.7-1.7l-63.1,64.7l-78.5-59.7l72.6-133.9L781.9,1755.4z M708.8,1430.2v99.9l-217.9,227L708.8,1430.2z
				 M702.6,1430.9L565,1637.3l-85.9-57L702.6,1430.9z M474.9,1583.2l87.5,58.1l-88.3,132.4l-87.6-131.4L474.9,1583.2z M470.1,1580.6
				l-86.3,57.7l-138.3-207.4L470.1,1580.6z M239.4,1430.2L457.3,1757l-217.9-227V1430.2z M239.4,1536.9l218,227l-218-145.3V1536.9z
				 M307.8,1755.4l-1.7-1.7l-63.1,64.7l-78.5-59.7l72.6-133.9L307.8,1755.4z M234.7,1530L16.8,1757l217.9-326.8V1530z
				 M1422.3,1458.4l-47.4-36h-7.8l55.2,42V1458.4z"/>
		</g>
	</g>
</g>
</svg>
