<svg xmlns="http://www.w3.org/2000/svg" id="Layer_1" viewBox="0 0 2500 1407" width="2500" height="1407"><defs><style>.cls-1{fill:none}.cls-2{clip-path:url(#clip-path)}.cls-3{fill:#010101}</style><clipPath id="clip-path"><path d="M0 0h2500v1407H0z" class="cls-1"/></clipPath></defs><g class="cls-2"><path d="M2400 0h1200v1200H2400z" class="cls-1"/><path d="M2596.39 0l-89.52 59.69L2474.53 0H2470l33.55 61.91-35.44 23.62 1.62-2.12-61.53-46.79L2443.92 0h-5.59L2405 34.18l-5-3.78v5l66.92 50.89-66.56 44.38-.36-.24v5.65l.64-.42 73.82 49L2400 296.39v174.47L2459.7 581l-1.46-1.43-53.24 54.61-5-3.78v5l66.92 50.89-66.56 44.38-.36-.24v5.65l.64-.42 73.82 49L2400 896.39v174.47l59.7 110.14-1.46-1.43-19.91 20.4h5.59l16.75-17.17 9.33 17.2h4.55l-68.93-127.2 190.77 127.2h7.22l190.79-127.2-68.93 127.2h4.53l6.83-12.6 16.57 12.6h6.6l-21.25-16.16 61.22-113L2859.7 1181l-1.46-1.43-19.91 20.4h5.59l16.75-17.17 9.33 17.2h4.55l-68.93-127.2 190.77 127.2h7.22l190.79-127.2-68.93 127.2h4.53l6.83-12.6 16.57 12.6h6.6l-21.25-16.16 61.22-113 59.72 110.16-1.45-1.43-19.91 20.4h5.59l16.75-17.17 9.33 17.2h4.55l-68.93-127.2 190.77 127.2h7.22l190.79-127.2-68.93 127.2h4.53l6.83-12.6 16.57 12.6h6.6l-21.25-16.16 61.22-113V896.39l-73.92-110.87L3600 736.1v-5.65l-103.43-68.71 40.28-74.34 63.15 48v-5l-61.22-46.56 61.22-113V296.39l-73.92-110.87L3600 136.1v-5.65l-103.43-68.71L3530 0h-4.55l-32.25 59.52L3403.61 0h-7.22l-89.52 59.68L3274.53 0H3270l33.55 61.91-35.44 23.62 1.62-2.12-61.53-46.79L3243.92 0h-5.59L3205 34.18 3160 0h-6.61l113.5 86.31-66.56 44.38-103.76-68.95L3130 0h-4.55l-32.25 59.52L3003.61 0h-7.22l-89.52 59.69L2874.53 0H2870l33.55 61.91-35.44 23.62 1.62-2.12-61.53-46.79L2843.92 0h-5.59L2805 34.18 2760 0h-6.61l113.5 86.31-66.56 44.38-103.76-68.95L2730 0h-4.55l-32.25 59.52L2603.61 0zm-192.15 133.27l188.53-126-116.09 174.11zm190.16 39.53l-101.18 186.72-89.61-59.52zm-180.29 115.39L2598 96.64v69zM2994.4 172.8l-101.18 186.72-89.61-59.52zm-180.29 115.39L2998 96.64v69zM3394.4 172.8l-101.18 186.72-89.61-59.52zm-180.29 115.39L3398 96.64v69zM2796.39 900l-89.52 59.68L2605.6 772.8 2796.39 900zm-299.82 61.74l40.28-74.34 130.07 98.91-66.56 44.38zm100.1 71.78l-72.81 48.67-116.65-175zm4-597.84l73.82 49L2600 596.39l-73.92-110.88zm-76.78 46.51l-116.65-175L2596.7 433.5zm80.38-48.92l188.53-126-116.12 174.11zm9.87 154.92L2798 396.64v69zM2794.4 472.8l-101.18 186.72-89.61-59.52zM2659.7 881l-1.46-1.43-53.24 54.61-66.19-50.34 61.22-113zm-51.52 55.59l52.49-53.79 42.85 79.08-35.43 23.62 1.62-2.12zm184.59-29.38l-116.09 174.14-72.44-48.11zM2602 765.6v-69l183.89 191.55zm0-74.74v-84.25l183.83 275.74zm5.21-83.65l189.46 126.31-72.81 48.67zm89.36 54.53l40.28-74.34 130.07 98.91-66.56 44.38zm304.07-226.06l73.82 49L3000 596.39l-73.92-110.87zm-76.78 46.51l-116.65-175 189.46 126.31zm80.38-48.92l188.53-126-116.09 174.11zm9.87 154.92L3198 396.64v69zM3194.4 472.8l-101.18 186.72-89.61-59.52zm-186.22 463.82l52.49-53.79 42.85 79.08-35.43 23.62 1.62-2.12zm50.06-57L3005 934.18l-66.19-50.34 61.22-113L3059.69 881zM2996.39 600l-89.52 59.68L2805.6 472.8 2996.39 600zm-92.86 61.91l-35.44 23.62 1.62-2.12-61.53-46.79 52.49-53.79zm89.24-54.67l-116.09 174.14-72.44-48.11zm5.23-.63v84.25l-183.83 191.49zm0 90v69l-183.89 122.58zm-3.6 76.16l-101.18 186.75-89.61-59.52zm-187.19 134.44l189.46 126.31-72.81 48.67zm178.62 275.14L2802 990.86v-84.25zm-89.26-220.61l40.28-74.34 130.07 98.91-66.56 44.38zm296.2-54.5l-116.09 174.14-72.44-48.11zm-85.9 52.44L3005.6 772.8 3196.39 900zM3002 765.6v-69l183.89 191.55zm0-74.74v-84.25l183.83 275.75zm5.21-83.65l189.46 126.31-72.81 48.67zm89.36 54.53l40.28-74.34 130.07 98.91-66.56 44.38zm206.95.17l-35.43 23.62 1.62-2.12-61.53-46.79 52.49-53.79zM3205.6 472.8L3396.39 600l-89.52 59.68zm187.17 134.44l-116.09 174.14-72.44-48.11zm5.23-.63v84.25l-183.83 191.5zm0 90v69l-183.89 122.58zm-3.6 76.16l-101.18 186.75-89.61-59.52zm-187.19 134.44l189.46 126.31-72.81 48.67zm178.62 275.15L3202 990.86v-84.25zm-89.26-220.62l40.28-74.34 130.07 98.91-66.56 44.38zm296.2-54.5l-116.09 174.14-72.44-48.11zm-124.68 78.29l1.62-2.12-61.53-46.79 52.49-53.79 42.85 79.08zm-9.85-105.93L3405 934.18l-66.19-50.34 61.22-113L3459.69 881zM3400 596.39l-73.92-110.87 74.56-49.84 73.82 49zm-76.14-114.2l-116.65-175 189.46 126.31zm80.38-48.92l188.53-126-116.09 174.11zm63.85-47.74l1.62-2.12-61.53-46.79 52.49-53.79 42.86 79.08zm-1.17.78l-66.56 44.38-103.79-68.95 40.28-74.34zm-81.09 196.05L3202 390.86v-84.25zm.06 5.83L3202 465.6v-69zm-126.2-7.19l-1.45-1.43-53.24 54.61-66.19-50.34 61.22-113zM3198 390.86l-183.83 191.49L3198 306.61zm-91.13-31.18L3005.6 172.8 3196.39 300zm-3.34 2.23l-35.44 23.62 1.62-2.12-61.53-46.79 52.49-53.79zm-36.61 24.4l-66.56 44.38-103.79-68.95 40.28-74.34zm-81.09 196L2802 390.86v-84.25zm.06 5.84L2802 465.6v-69zM2859.7 581l-1.46-1.43-53.24 54.61-66.19-50.34 61.22-113zM2798 390.86l-183.83 191.49L2798 306.61zm-1.61-90.86l-89.52 59.68L2605.6 172.8 2796.39 300zm-92.86 61.91l-35.44 23.62 1.62-2.12-61.53-46.79 52.49-53.79zm-36.61 24.4l-66.56 44.38-103.79-68.95 40.28-74.34zM2402 306.61l183.83 275.74L2402 390.86zm0 90l183.89 191.55L2402 465.6zm3.6 76.16L2596.39 600l-89.52 59.68zm2.58 163.82l52.49-53.79 42.86 79.08-35.44 23.62 1.62-2.12zm-3.94 96.65l188.53-126-116.09 174.14zM2598 606.61v84.25l-183.83 191.49zm0 90v69l-183.89 122.58zm-3.6 76.16l-101.18 186.75-89.61-59.52zM2402 906.61l183.83 275.74L2402 990.86zm0 159v-69l183.89 191.55zm198 130.79l-73.92-110.87 74.56-49.84 73.82 49zm198-130.79l-183.89 122.59L2798 996.64zm0-74.74l-183.83 191.49L2798 906.61zm-71.92-205.34l74.56-49.84 73.82 49-74.46 111.7zM2802 1065.6v-69l183.89 191.55zm198 130.79l-73.92-110.87 74.56-49.84 73.82 49zm198-130.79l-183.89 122.59L3198 996.64zm0-74.74l-183.83 191.49L3198 906.61zm2-94.47l-73.92-110.87 74.56-49.84 73.82 49zm2 169.21v-69l183.89 191.55zm198 130.79l-73.92-110.87 74.56-49.84 73.82 49zm198-130.79l-183.89 122.59L3598 996.64zm0-74.74l-183.83 191.5L3598 906.61zm-91.13-31.18L3405.6 772.8 3596.39 900zM3402 765.6v-69l183.89 191.55zm183.83 116.76L3402 690.86V606.6zm10.84-148.84l-72.81 48.67-116.65-175zm-103.45-74L3403.61 600l190.79-127.2zM3598 465.6l-183.89 122.59L3598 396.64zm0-74.74l-183.83 191.5L3598 306.61zm-91.13-31.18L3405.6 172.8 3596.39 300zm89.8-226.16l-72.81 48.67-116.65-175zM3402 6.6l183.83 275.76L3402 90.86zm0 90l183.89 191.55L3402 165.6zm57.7 184.4l-1.46-1.43-53.24 54.61-66.19-50.34 61.22-113zM3398 6.61v84.25l-183.83 191.5zm-5.23.63l-116.09 174.14-72.44-48.11zm-192.13 128.44l73.82 49L3200 296.39l-73.92-110.87zm-4-2.16l-72.81 48.67-116.65-175zM3002 6.61l183.83 275.75L3002 90.86zm0 90l183.89 191.55L3002 165.6zM3059.7 281l-1.46-1.43-53.24 54.61-66.19-50.34 61.22-113zM2998 6.61v84.25l-183.83 191.49zm-5.23.63l-116.09 174.14-72.44-48.11zm-192.13 128.44l73.82 49L2800 296.39l-73.92-110.88zm-4-2.16l-72.81 48.67-116.65-175zM2602 6.61l183.83 275.74L2602 90.86zm0 90l183.89 191.55L2602 165.6zM2659.7 281l-1.46-1.43-53.24 54.61-66.19-50.34 61.22-113zM2598 90.86l-183.83 191.49L2598 6.61z" class="cls-3"/><path d="M2400 1200h1200v1200H2400z" class="cls-1"/><path d="M2596.39 1200l-89.52 59.69-32.34-59.69H2470l33.55 61.91-35.44 23.62 1.62-2.12-61.53-46.79 35.74-36.62h-5.59l-33.35 34.18-5-3.78v5l66.92 50.89-66.56 44.38-.36-.24v5.65l.64-.42 73.82 49-74.46 111.73v174.47l59.7 110.14-1.46-1.43-53.24 54.61-5-3.78v5l66.92 50.89-66.56 44.38-.36-.24v5.65l.64-.42 73.82 49-74.46 111.73v174.47l59.7 110.14-1.46-1.43-19.91 20.4h5.59l16.75-17.17 9.33 17.2h4.55l-68.93-127.2 190.77 127.2h7.22l190.79-127.2-68.93 127.2h4.53l6.83-12.6 16.57 12.6h6.6l-21.25-16.16 61.22-113L2859.7 2381l-1.46-1.43-19.91 20.4h5.59l16.75-17.17 9.33 17.2h4.55l-68.93-127.2 190.77 127.2h7.22l190.79-127.2-68.93 127.2h4.53l6.83-12.6 16.57 12.6h6.6l-21.25-16.16 61.22-113 59.72 110.16-1.45-1.43-19.91 20.4h5.59l16.75-17.17 9.33 17.2h4.55l-68.93-127.2 190.77 127.2h7.22l190.79-127.2-68.93 127.2h4.53l6.83-12.6 16.57 12.6h6.6l-21.25-16.16 61.22-113v-174.45l-73.92-110.87 73.95-49.42v-5.65l-103.43-68.71 40.28-74.34 63.15 48v-5l-61.22-46.56 61.22-113v-174.45l-73.92-110.88 73.92-49.41v-5.65l-103.43-68.71L3530 1200h-4.55l-32.25 59.52-89.59-59.52h-7.22l-89.52 59.68-32.34-59.68H3270l33.55 61.91-35.44 23.62 1.62-2.12-61.53-46.79 35.74-36.62h-5.59l-33.35 34.18-45-34.18h-6.61l113.5 86.31-66.56 44.38-103.79-69L3130 1200h-4.55l-32.25 59.52-89.59-59.52h-7.22l-89.52 59.69-32.34-59.69H2870l33.55 61.91-35.44 23.62 1.62-2.12-61.53-46.79 35.74-36.62h-5.59l-33.35 34.18-45-34.18h-6.61l113.5 86.31-66.56 44.38-103.79-69L2730 1200h-4.55l-32.25 59.52-89.59-59.52zm-192.15 133.27l188.53-126-116.09 174.14zm190.16 39.53l-101.18 186.72-89.61-59.52zm-180.29 115.39L2598 1296.64v69zm580.29-115.39l-101.18 186.72-89.61-59.52zm-180.29 115.39L2998 1296.64v69zm580.29-115.39l-101.18 186.72-89.61-59.52zm-180.29 115.39L3398 1296.64v69zM2796.39 2100l-89.52 59.68-101.27-186.88 190.79 127.2zm-299.82 61.74l40.28-74.34 130.07 98.91-66.56 44.38zm100.1 71.78l-72.81 48.67-116.65-175zm4-597.84l73.82 49-74.49 111.71-73.92-110.88zm-76.78 46.51l-116.65-175 189.46 126.31zm80.38-48.92l188.53-126-116.09 174.14zm9.87 154.92L2798 1596.64v69zm180.26-115.39l-101.18 186.72-89.61-59.52zM2659.7 2081l-1.46-1.43-53.24 54.61-66.19-50.34 61.22-113zm-51.52 55.59l52.49-53.79 42.85 79.08-35.43 23.62 1.62-2.12zm184.59-29.38l-116.09 174.14-72.44-48.11zM2602 1965.6v-69l183.89 191.55zm0-74.74v-84.25l183.83 275.74zm5.21-83.65l189.46 126.31-72.81 48.67zm89.36 54.53l40.28-74.34 130.07 98.91-66.56 44.38zm304.07-226.06l73.82 49-74.46 111.71-73.92-110.88zm-76.78 46.51l-116.65-175 189.46 126.31zm80.38-48.92l188.53-126-116.09 174.14zm9.87 154.92L3198 1596.64v69zm180.29-115.39l-101.18 186.72-89.61-59.52zm-186.22 463.82l52.49-53.79 42.85 79.08-35.43 23.62 1.62-2.12zm50.06-57l-53.24 54.56-66.19-50.34 61.22-113 59.66 110.16zM2996.39 1800l-89.52 59.68-101.27-186.88 190.79 127.2zm-92.86 61.91l-35.44 23.62 1.62-2.12-61.53-46.79 52.49-53.79zm89.24-54.67l-116.09 174.14-72.44-48.11zm5.23-.63v84.25l-183.83 191.49zm0 90v69l-183.89 122.59zm-3.6 76.16l-101.18 186.72-89.61-59.49zm-187.19 134.41l189.46 126.31-72.81 48.67zm178.62 275.14L2802 2190.86v-84.25zm-89.26-220.61l40.28-74.34 130.07 98.91-66.56 44.38zm296.2-54.5l-116.09 174.14-72.44-48.11zm-85.9 52.44L3005.6 1972.8l190.79 127.2zM3002 1965.6v-69l183.89 191.55zm0-74.74v-84.25l183.83 275.75zm5.21-83.65l189.46 126.31-72.81 48.67zm89.36 54.53l40.28-74.34 130.07 98.91-66.56 44.38zm206.95.17l-35.43 23.62 1.62-2.12-61.53-46.79 52.49-53.79zm-97.92-189.11l190.79 127.2-89.52 59.68zm187.17 134.44l-116.09 174.14-72.44-48.11zm5.23-.63v84.25l-183.83 191.5zm0 90v69l-183.89 122.59zm-3.6 76.16l-101.18 186.72-89.61-59.49zm-187.19 134.41l189.46 126.31-72.81 48.67zm178.62 275.15L3202 2190.86v-84.25zm-89.26-220.62l40.28-74.34 130.07 98.91-66.56 44.38zm296.2-54.5l-116.09 174.14-72.44-48.11zm-124.68 78.29l1.62-2.12-61.53-46.79 52.49-53.79 42.85 79.08zm-9.85-105.93l-53.24 54.61-66.19-50.34 61.22-113 59.66 110.16zM3400 1796.39l-73.92-110.88 74.56-49.84 73.82 49zm-76.14-114.2l-116.65-175 189.46 126.31zm80.38-48.92l188.53-126-116.09 174.14zm63.85-47.74l1.62-2.12-61.53-46.79 52.49-53.79 42.86 79.08zm-1.17.78l-66.56 44.38-103.79-69 40.28-74.34zm-81.09 196L3202 1590.86v-84.25zm.06 5.83L3202 1665.6v-69zm-126.2-7.16l-1.45-1.43-53.24 54.63-66.19-50.34 61.22-113zM3198 1590.86l-183.83 191.49L3198 1506.61zm-91.13-31.18L3005.6 1372.8l190.79 127.2zm-3.34 2.23l-35.44 23.62 1.62-2.12-61.53-46.79 52.49-53.79zm-36.61 24.4l-66.56 44.38-103.79-69 40.28-74.34zm-81.09 196L2802 1590.86v-84.25zm.06 5.84L2802 1665.6v-69zM2859.7 1781l-1.46-1.43-53.24 54.61-66.19-50.34 61.22-113zm-61.7-190.14l-183.83 191.49L2798 1506.61zm-1.61-90.86l-89.52 59.68-101.27-186.88 190.79 127.2zm-92.86 61.91l-35.44 23.62 1.62-2.12-61.53-46.79 52.49-53.79zm-36.61 24.4l-66.56 44.38-103.79-69 40.28-74.34zm-264.92-79.7l183.83 275.74L2402 1590.86zm0 90l183.89 191.55L2402 1665.6zm3.6 76.16L2596.39 1800l-89.52 59.68zm2.58 163.82l52.49-53.79 42.86 79.08-35.44 23.62 1.62-2.12zm-3.94 96.65l188.53-126-116.09 174.14zM2598 1806.61v84.25l-183.83 191.49zm0 90v69l-183.89 122.59zm-3.6 76.16l-101.18 186.72-89.61-59.49zM2402 2106.61l183.83 275.74L2402 2190.86zm0 159v-69l183.89 191.55zm198 130.79l-73.92-110.87 74.56-49.84 73.82 49zm198-130.79l-183.89 122.59L2798 2196.64zm0-74.74l-183.83 191.49L2798 2106.61zm-71.92-205.34l74.56-49.84 73.82 49-74.46 111.7zM2802 2265.6v-69l183.89 191.55zm198 130.79l-73.92-110.87 74.56-49.84 73.82 49zm198-130.79l-183.89 122.59L3198 2196.64zm0-74.74l-183.83 191.49L3198 2106.61zm2-94.47l-73.92-110.87 74.56-49.84 73.82 49zm2 169.21v-69l183.89 191.55zm198 130.79l-73.92-110.87 74.56-49.84 73.82 49zm198-130.79l-183.89 122.59L3598 2196.64zm0-74.74l-183.83 191.5L3598 2106.61zm-91.13-31.18L3405.6 1972.8l190.79 127.2zM3402 1965.6v-69l183.89 191.55zm183.83 116.76L3402 1890.86v-84.26zm10.84-148.84l-72.81 48.67-116.65-175zm-103.45-74l-89.61-59.52 190.79-127.2zM3598 1665.6l-183.89 122.59L3598 1596.64zm0-74.74l-183.83 191.5L3598 1506.61zm-91.13-31.18L3405.6 1372.8l190.79 127.2zm89.8-226.16l-72.81 48.67-116.65-175zM3402 1206.6l183.83 275.76-183.83-191.5zm0 90l183.89 191.55L3402 1365.6zm57.7 184.4l-1.46-1.43-53.24 54.61-66.19-50.34 61.22-113zm-61.7-274.39v84.25l-183.83 191.5zm-5.23.63l-116.09 174.14-72.44-48.11zm-192.13 128.44l73.82 49-74.46 111.71-73.92-110.88zm-4-2.16l-72.81 48.67-116.65-175zM3002 1206.61l183.83 275.75-183.83-191.5zm0 90l183.89 191.55L3002 1365.6zm57.7 184.39l-1.46-1.43-53.24 54.61-66.19-50.34 61.22-113zm-61.7-274.39v84.25l-183.83 191.49zm-5.23.63l-116.09 174.14-72.44-48.11zm-192.13 128.44l73.82 49-74.46 111.71-73.92-110.88zm-4-2.16l-72.81 48.67-116.65-175zM2602 1206.61l183.83 275.74L2602 1290.86zm0 90l183.89 191.55L2602 1365.6zm57.7 184.39l-1.46-1.43-53.24 54.61-66.19-50.34 61.22-113zm-61.7-190.14l-183.83 191.49L2598 1206.61z" class="cls-3"/><path d="M1200 0h1200v1200H1200z" class="cls-1"/><path d="M1396.39 0l-89.52 59.69L1274.53 0H1270l33.55 61.91-35.44 23.62 1.62-2.12-61.53-46.79L1243.92 0h-5.59L1205 34.18l-5-3.78v5l66.92 50.89-66.56 44.38-.36-.24v5.65l.64-.42 73.82 49L1200 296.39v174.47L1259.7 581l-1.46-1.43-53.24 54.61-5-3.78v5l66.92 50.89-66.56 44.38-.36-.24v5.65l.64-.42 73.82 49L1200 896.39v174.47l59.7 110.14-1.46-1.43-19.91 20.4h5.59l16.75-17.17 9.33 17.2h4.55l-68.93-127.2 190.77 127.2h7.22l190.79-127.2-68.93 127.2h4.53l6.83-12.6 16.57 12.6h6.6l-21.25-16.16 61.22-113L1659.7 1181l-1.46-1.43-19.91 20.4h5.59l16.75-17.17 9.33 17.2h4.55l-68.93-127.2 190.77 127.2h7.22l190.79-127.2-68.93 127.2h4.53l6.83-12.6 16.57 12.6h6.6l-21.25-16.16 61.22-113 59.72 110.16-1.45-1.43-19.91 20.4h5.59l16.75-17.17 9.33 17.2h4.55l-68.93-127.2 190.77 127.2h7.22l190.79-127.2-68.93 127.2h4.53l6.83-12.6 16.57 12.6h6.6l-21.25-16.16 61.22-113V896.39l-73.92-110.87L2400 736.1v-5.65l-103.43-68.71 40.28-74.34 63.15 48v-5l-61.22-46.56 61.22-113V296.39l-73.92-110.87L2400 136.1v-5.65l-103.43-68.71L2330 0h-4.55l-32.25 59.52L2203.61 0h-7.22l-89.52 59.68L2074.53 0H2070l33.55 61.91-35.44 23.62 1.62-2.12-61.53-46.79L2043.92 0h-5.59L2005 34.18 1960 0h-6.61l113.5 86.31-66.56 44.38-103.76-68.95L1930 0h-4.55l-32.25 59.52L1803.61 0h-7.22l-89.52 59.69L1674.53 0H1670l33.55 61.91-35.44 23.62 1.62-2.12-61.53-46.79L1643.92 0h-5.59L1605 34.18 1560 0h-6.61l113.5 86.31-66.56 44.38-103.76-68.95L1530 0h-4.55l-32.25 59.52L1403.61 0zm-192.15 133.27l188.53-126-116.09 174.11zm190.16 39.53l-101.18 186.72-89.61-59.52zm-180.29 115.39L1398 96.64v69zM1794.4 172.8l-101.18 186.72-89.61-59.52zm-180.29 115.39L1798 96.64v69zM2194.4 172.8l-101.18 186.72-89.61-59.52zm-180.29 115.39L2198 96.64v69zM1596.39 900l-89.52 59.68L1405.6 772.8 1596.39 900zm-299.82 61.74l40.28-74.34 130.07 98.91-66.56 44.38zm100.1 71.78l-72.81 48.67-116.65-175zm4-597.84l73.82 49L1400 596.39l-73.92-110.88zm-76.78 46.51l-116.65-175L1396.7 433.5zm80.38-48.92l188.53-126-116.12 174.11zm9.87 154.92L1598 396.64v69zM1594.4 472.8l-101.18 186.72-89.61-59.52zM1459.7 881l-1.46-1.43-53.24 54.61-66.19-50.34 61.22-113zm-51.52 55.59l52.49-53.79 42.85 79.08-35.43 23.62 1.62-2.12zm184.59-29.38l-116.09 174.14-72.44-48.11zM1402 765.6v-69l183.89 191.55zm0-74.74v-84.25l183.83 275.74zm5.21-83.65l189.46 126.31-72.81 48.67zm89.36 54.53l40.28-74.34 130.07 98.91-66.56 44.38zm304.07-226.06l73.82 49L1800 596.39l-73.92-110.87zm-76.78 46.51l-116.65-175 189.46 126.31zm80.38-48.92l188.53-126-116.09 174.11zm9.87 154.92L1998 396.64v69zM1994.4 472.8l-101.18 186.72-89.61-59.52zm-186.22 463.82l52.49-53.79 42.85 79.08-35.43 23.62 1.62-2.12zm50.06-57L1805 934.18l-66.19-50.34 61.22-113L1859.69 881zM1796.39 600l-89.52 59.68L1605.6 472.8 1796.39 600zm-92.86 61.91l-35.44 23.62 1.62-2.12-61.53-46.79 52.49-53.79zm89.24-54.67l-116.09 174.14-72.44-48.11zm5.23-.63v84.25l-183.83 191.49zm0 90v69l-183.89 122.58zm-3.6 76.16l-101.18 186.75-89.61-59.52zm-187.19 134.44l189.46 126.31-72.81 48.67zm178.62 275.14L1602 990.86v-84.25zm-89.26-220.61l40.28-74.34 130.07 98.91-66.56 44.38zm296.2-54.5l-116.09 174.14-72.44-48.11zm-85.9 52.44L1805.6 772.8 1996.39 900zM1802 765.6v-69l183.89 191.55zm0-74.74v-84.25l183.83 275.75zm5.21-83.65l189.46 126.31-72.81 48.67zm89.36 54.53l40.28-74.34 130.07 98.91-66.56 44.38zm207 .17l-35.43 23.62 1.62-2.12-61.53-46.79 52.49-53.79zM2005.6 472.8L2196.39 600l-89.52 59.68zm187.17 134.44l-116.09 174.14-72.44-48.11zm5.23-.63v84.25l-183.83 191.5zm0 90v69l-183.89 122.58zm-3.6 76.16l-101.18 186.75-89.61-59.52zm-187.19 134.44l189.46 126.31-72.81 48.67zm178.62 275.15L2002 990.86v-84.25zm-89.26-220.62l40.28-74.34 130.07 98.91-66.56 44.38zm296.2-54.5l-116.09 174.14-72.44-48.11zm-124.68 78.29l1.62-2.12-61.53-46.79 52.49-53.79 42.85 79.08zm-9.85-105.93L2205 934.18l-66.19-50.34 61.22-113L2259.69 881zM2200 596.39l-73.92-110.87 74.56-49.84 73.82 49zm-76.14-114.2l-116.65-175 189.46 126.31zm80.38-48.92l188.53-126-116.09 174.11zm63.85-47.74l1.62-2.12-61.53-46.79 52.49-53.79 42.86 79.08zm-1.17.78l-66.56 44.38-103.79-68.95 40.28-74.34zm-81.09 196.05L2002 390.86v-84.25zm.06 5.83L2002 465.6v-69zm-126.2-7.19l-1.45-1.43-53.24 54.61-66.19-50.34 61.22-113zM1998 390.86l-183.83 191.49L1998 306.61zm-91.13-31.18L1805.6 172.8 1996.39 300zm-3.34 2.23l-35.44 23.62 1.62-2.12-61.53-46.79 52.49-53.79zm-36.61 24.4l-66.56 44.38-103.79-68.95 40.28-74.34zm-81.09 196L1602 390.86v-84.25zm.06 5.84L1602 465.6v-69zM1659.7 581l-1.46-1.43-53.24 54.61-66.19-50.34 61.22-113zM1598 390.86l-183.83 191.49L1598 306.61zm-1.61-90.86l-89.52 59.68L1405.6 172.8 1596.39 300zm-92.86 61.91l-35.44 23.62 1.62-2.12-61.53-46.79 52.49-53.79zm-36.61 24.4l-66.56 44.38-103.79-68.95 40.28-74.34zM1202 306.61l183.83 275.74L1202 390.86zm0 90l183.89 191.55L1202 465.6zm3.6 76.16L1396.39 600l-89.52 59.68zm2.58 163.82l52.49-53.79 42.86 79.08-35.44 23.62 1.62-2.12zm-3.94 96.65l188.53-126-116.09 174.14zM1398 606.61v84.25l-183.83 191.49zm0 90v69l-183.89 122.58zm-3.6 76.16l-101.18 186.75-89.61-59.52zM1202 906.61l183.83 275.74L1202 990.86zm0 159v-69l183.89 191.55zm198 130.79l-73.92-110.87 74.56-49.84 73.82 49zm198-130.79l-183.89 122.59L1598 996.64zm0-74.74l-183.83 191.49L1598 906.61zm-71.92-205.34l74.56-49.84 73.82 49-74.46 111.7zM1602 1065.6v-69l183.89 191.55zm198 130.79l-73.92-110.87 74.56-49.84 73.82 49zm198-130.79l-183.89 122.59L1998 996.64zm0-74.74l-183.83 191.49L1998 906.61zm2-94.47l-73.92-110.87 74.56-49.84 73.82 49zm2 169.21v-69l183.89 191.55zm198 130.79l-73.92-110.87 74.56-49.84 73.82 49zm198-130.79l-183.89 122.59L2398 996.64zm0-74.74l-183.83 191.5L2398 906.61zm-91.13-31.18L2205.6 772.8 2396.39 900zM2202 765.6v-69l183.89 191.55zm183.83 116.76L2202 690.86V606.6zm10.84-148.84l-72.81 48.67-116.65-175zm-103.45-74L2203.61 600l190.79-127.2zM2398 465.6l-183.89 122.59L2398 396.64zm0-74.74l-183.83 191.5L2398 306.61zm-91.13-31.18L2205.6 172.8 2396.39 300zm89.8-226.16l-72.81 48.67-116.65-175zM2202 6.6l183.83 275.76L2202 90.86zm0 90l183.89 191.55L2202 165.6zm57.7 184.4l-1.46-1.43-53.24 54.61-66.19-50.34 61.22-113zM2198 6.61v84.25l-183.83 191.5zm-5.23.63l-116.09 174.14-72.44-48.11zm-192.13 128.44l73.82 49L2000 296.39l-73.92-110.87zm-4-2.16l-72.81 48.67-116.65-175zM1802 6.61l183.83 275.75L1802 90.86zm0 90l183.89 191.55L1802 165.6zM1859.7 281l-1.46-1.43-53.24 54.61-66.19-50.34 61.22-113zM1798 6.61v84.25l-183.83 191.49zm-5.23.63l-116.09 174.14-72.44-48.11zm-192.13 128.44l73.82 49L1600 296.39l-73.92-110.88zm-4-2.16l-72.81 48.67-116.65-175zM1402 6.61l183.83 275.74L1402 90.86zm0 90l183.89 191.55L1402 165.6zM1459.7 281l-1.46-1.43-53.24 54.61-66.19-50.34 61.22-113zM1398 90.86l-183.83 191.49L1398 6.61zM2400 30.4L2360.03 0h-6.61L2400 35.42V30.4z" class="cls-3"/><path d="M1200 1200h1200v1200H1200z" class="cls-1"/><path d="M1396.39 1200l-89.52 59.69-32.34-59.69H1270l33.55 61.91-35.44 23.62 1.62-2.12-61.53-46.79 35.74-36.62h-5.59l-33.35 34.18-5-3.78v5l66.92 50.89-66.56 44.38-.36-.24v5.65l.64-.42 73.82 49-74.46 111.73v174.47l59.7 110.14-1.46-1.43-53.24 54.61-5-3.78v5l66.92 50.89-66.56 44.38-.36-.24v5.65l.64-.42 73.82 49-74.46 111.73v174.47l59.7 110.14-1.46-1.43-19.91 20.4h5.59l16.75-17.17 9.33 17.2h4.55l-68.93-127.2 190.77 127.2h7.22l190.79-127.2-68.93 127.2h4.53l6.83-12.6 16.57 12.6h6.6l-21.25-16.16 61.22-113L1659.7 2381l-1.46-1.43-19.91 20.4h5.59l16.75-17.17 9.33 17.2h4.55l-68.93-127.2 190.77 127.2h7.22l190.79-127.2-68.93 127.2h4.53l6.83-12.6 16.57 12.6h6.6l-21.25-16.16 61.22-113 59.72 110.16-1.45-1.43-19.91 20.4h5.59l16.75-17.17 9.33 17.2h4.55l-68.93-127.2 190.77 127.2h7.22l190.79-127.2-68.93 127.2h4.53l6.83-12.6 16.57 12.6h6.6l-21.25-16.16 61.22-113v-174.45l-73.92-110.87 73.95-49.42v-5.65l-103.43-68.71 40.28-74.34 63.15 48v-5l-61.22-46.56 61.22-113v-174.45l-73.92-110.88 73.92-49.41v-5.65l-103.43-68.71L2330 1200h-4.55l-32.25 59.52-89.59-59.52h-7.22l-89.52 59.68-32.34-59.68H2070l33.55 61.91-35.44 23.62 1.62-2.12-61.53-46.79 35.74-36.62h-5.59l-33.35 34.18-45-34.18h-6.61l113.5 86.31-66.56 44.38-103.79-69L1930 1200h-4.55l-32.25 59.52-89.59-59.52h-7.22l-89.52 59.69-32.34-59.69H1670l33.55 61.91-35.44 23.62 1.62-2.12-61.53-46.79 35.74-36.62h-5.59l-33.35 34.18-45-34.18h-6.61l113.5 86.31-66.56 44.38-103.79-69L1530 1200h-4.55l-32.25 59.52-89.59-59.52zm-192.15 133.27l188.53-126-116.09 174.14zm190.16 39.53l-101.18 186.72-89.61-59.52zm-180.29 115.39L1398 1296.64v69zm580.29-115.39l-101.18 186.72-89.61-59.52zm-180.29 115.39L1798 1296.64v69zm580.29-115.39l-101.18 186.72-89.61-59.52zm-180.29 115.39L2198 1296.64v69zM1596.39 2100l-89.52 59.68-101.27-186.88 190.79 127.2zm-299.82 61.74l40.28-74.34 130.07 98.91-66.56 44.38zm100.1 71.78l-72.81 48.67-116.65-175zm4-597.84l73.82 49-74.49 111.71-73.92-110.88zm-76.78 46.51l-116.65-175 189.46 126.31zm80.38-48.92l188.53-126-116.09 174.14zm9.87 154.92L1598 1596.64v69zm180.26-115.39l-101.18 186.72-89.61-59.52zM1459.7 2081l-1.46-1.43-53.24 54.61-66.19-50.34 61.22-113zm-51.52 55.59l52.49-53.79 42.85 79.08-35.43 23.62 1.62-2.12zm184.59-29.38l-116.09 174.14-72.44-48.11zM1402 1965.6v-69l183.89 191.55zm0-74.74v-84.25l183.83 275.74zm5.21-83.65l189.46 126.31-72.81 48.67zm89.36 54.53l40.28-74.34 130.07 98.91-66.56 44.38zm304.07-226.06l73.82 49-74.46 111.71-73.92-110.88zm-76.78 46.51l-116.65-175 189.46 126.31zm80.38-48.92l188.53-126-116.09 174.14zm9.87 154.92L1998 1596.64v69zm180.29-115.39l-101.18 186.72-89.61-59.52zm-186.22 463.82l52.49-53.79 42.85 79.08-35.43 23.62 1.62-2.12zm50.06-57l-53.24 54.56-66.19-50.34 61.22-113 59.66 110.16zM1796.39 1800l-89.52 59.68-101.27-186.88 190.79 127.2zm-92.86 61.91l-35.44 23.62 1.62-2.12-61.53-46.79 52.49-53.79zm89.24-54.67l-116.09 174.14-72.44-48.11zm5.23-.63v84.25l-183.83 191.49zm0 90v69l-183.89 122.59zm-3.6 76.16l-101.18 186.72-89.61-59.49zm-187.19 134.41l189.46 126.31-72.81 48.67zm178.62 275.14L1602 2190.86v-84.25zm-89.26-220.61l40.28-74.34 130.07 98.91-66.56 44.38zm296.2-54.5l-116.09 174.14-72.44-48.11zm-85.9 52.44L1805.6 1972.8l190.79 127.2zM1802 1965.6v-69l183.89 191.55zm0-74.74v-84.25l183.83 275.75zm5.21-83.65l189.46 126.31-72.81 48.67zm89.36 54.53l40.28-74.34 130.07 98.91-66.56 44.38zm207 .17l-35.43 23.62 1.62-2.12-61.53-46.79 52.49-53.79zm-97.97-189.11l190.79 127.2-89.52 59.68zm187.17 134.44l-116.09 174.14-72.44-48.11zm5.23-.63v84.25l-183.83 191.5zm0 90v69l-183.89 122.59zm-3.6 76.16l-101.18 186.72-89.61-59.49zm-187.19 134.41l189.46 126.31-72.81 48.67zm178.62 275.15L2002 2190.86v-84.25zm-89.26-220.62l40.28-74.34 130.07 98.91-66.56 44.38zm296.2-54.5l-116.09 174.14-72.44-48.11zm-124.68 78.29l1.62-2.12-61.53-46.79 52.49-53.79 42.85 79.08zm-9.85-105.93l-53.24 54.61-66.19-50.34 61.22-113 59.66 110.16zM2200 1796.39l-73.92-110.88 74.56-49.84 73.82 49zm-76.14-114.2l-116.65-175 189.46 126.31zm80.38-48.92l188.53-126-116.09 174.14zm63.85-47.74l1.62-2.12-61.53-46.79 52.49-53.79 42.86 79.08zm-1.17.78l-66.56 44.38-103.79-69 40.28-74.34zm-81.09 196L2002 1590.86v-84.25zm.06 5.83L2002 1665.6v-69zm-126.2-7.16l-1.45-1.43-53.24 54.63-66.19-50.34 61.22-113zM1998 1590.86l-183.83 191.49L1998 1506.61zm-91.13-31.18L1805.6 1372.8l190.79 127.2zm-3.34 2.23l-35.44 23.62 1.62-2.12-61.53-46.79 52.49-53.79zm-36.61 24.4l-66.56 44.38-103.79-69 40.28-74.34zm-81.09 196L1602 1590.86v-84.25zm.06 5.84L1602 1665.6v-69zM1659.7 1781l-1.46-1.43-53.24 54.61-66.19-50.34 61.22-113zm-61.7-190.14l-183.83 191.49L1598 1506.61zm-1.61-90.86l-89.52 59.68-101.27-186.88 190.79 127.2zm-92.86 61.91l-35.44 23.62 1.62-2.12-61.53-46.79 52.49-53.79zm-36.61 24.4l-66.56 44.38-103.79-69 40.28-74.34zm-264.92-79.7l183.83 275.74L1202 1590.86zm0 90l183.89 191.55L1202 1665.6zm3.6 76.16L1396.39 1800l-89.52 59.68zm2.58 163.82l52.49-53.79 42.86 79.08-35.44 23.62 1.62-2.12zm-3.94 96.65l188.53-126-116.09 174.14zM1398 1806.61v84.25l-183.83 191.49zm0 90v69l-183.89 122.59zm-3.6 76.16l-101.18 186.72-89.61-59.49zM1202 2106.61l183.83 275.74L1202 2190.86zm0 159v-69l183.89 191.55zm198 130.79l-73.92-110.87 74.56-49.84 73.82 49zm198-130.79l-183.89 122.59L1598 2196.64zm0-74.74l-183.83 191.49L1598 2106.61zm-71.92-205.34l74.56-49.84 73.82 49-74.46 111.7zM1602 2265.6v-69l183.89 191.55zm198 130.79l-73.92-110.87 74.56-49.84 73.82 49zm198-130.79l-183.89 122.59L1998 2196.64zm0-74.74l-183.83 191.49L1998 2106.61zm2-94.47l-73.92-110.87 74.56-49.84 73.82 49zm2 169.21v-69l183.89 191.55zm198 130.79l-73.92-110.87 74.56-49.84 73.82 49zm198-130.79l-183.89 122.59L2398 2196.64zm0-74.74l-183.83 191.5L2398 2106.61zm-91.13-31.18L2205.6 1972.8l190.79 127.2zM2202 1965.6v-69l183.89 191.55zm183.83 116.76L2202 1890.86v-84.26zm10.84-148.84l-72.81 48.67-116.65-175zm-103.45-74l-89.61-59.52 190.79-127.2zM2398 1665.6l-183.89 122.59L2398 1596.64zm0-74.74l-183.83 191.5L2398 1506.61zm-91.13-31.18L2205.6 1372.8l190.79 127.2zm89.8-226.16l-72.81 48.67-116.65-175zM2202 1206.6l183.83 275.76-183.83-191.5zm0 90l183.89 191.55L2202 1365.6zm57.7 184.4l-1.46-1.43-53.24 54.61-66.19-50.34 61.22-113zm-61.7-274.39v84.25l-183.83 191.5zm-5.23.63l-116.09 174.14-72.44-48.11zm-192.13 128.44l73.82 49-74.46 111.71-73.92-110.88zm-4-2.16l-72.81 48.67-116.65-175zM1802 1206.61l183.83 275.75-183.83-191.5zm0 90l183.89 191.55L1802 1365.6zm57.7 184.39l-1.46-1.43-53.24 54.61-66.19-50.34 61.22-113zm-61.7-274.39v84.25l-183.83 191.49zm-5.23.63l-116.09 174.14-72.44-48.11zm-192.13 128.44l73.82 49-74.46 111.71-73.92-110.88zm-4-2.16l-72.81 48.67-116.65-175zM1402 1206.61l183.83 275.74L1402 1290.86zm0 90l183.89 191.55L1402 1365.6zm57.7 184.39l-1.46-1.43-53.24 54.61-66.19-50.34 61.22-113zm-61.7-190.14l-183.83 191.49L1398 1206.61zm1002-60.46l-39.97-30.4h-6.61l46.58 35.42v-5.02z" class="cls-3"/><path d="M0 0h1200v1200H0z" class="cls-1"/><path d="M196.39 0l-89.52 59.69L74.53 0H70l33.55 61.91-35.46 23.62 1.62-2.12L8.18 36.62 43.92 0h-5.59L5 34.18 0 30.4v5l66.92 50.91L.36 130.69l-.36-.24v5.65l.64-.42 73.82 49L0 296.39v174.47L59.7 581l-1.46-1.43L5 634.18l-5-3.78v5l66.92 50.89-66.56 44.4-.36-.24v5.65l.64-.42 73.82 49L0 896.39v174.47L59.7 1181l-1.46-1.43L38.33 1200h5.59l16.75-17.17L70 1200h4.55L5.6 1072.8 196.39 1200h7.22l190.79-127.2-68.93 127.2H330l6.83-12.6 16.57 12.6h6.6l-21.25-16.16 61.22-113L459.7 1181l-1.46-1.43-19.91 20.43h5.59l16.75-17.17L470 1200h4.55l-68.95-127.2L596.39 1200h7.22l190.79-127.2-68.93 127.2H730l6.83-12.6 16.57 12.6h6.6l-21.25-16.16 61.22-113L859.69 1181l-1.45-1.43-19.91 20.43h5.59l16.75-17.17L870 1200h4.55l-68.95-127.2L996.39 1200h7.22l190.79-127.2-68.93 127.2h4.53l6.83-12.6 16.57 12.6h6.6l-21.25-16.16 61.22-113V896.39l-73.92-110.87L1200 736.1v-5.65l-103.43-68.71 40.28-74.34 63.15 48v-5l-61.22-46.56 61.22-113V296.39l-73.92-110.87L1200 136.1v-5.65l-103.43-68.71L1130 0h-4.55l-32.25 59.52L1003.61 0h-7.22l-89.52 59.68L874.53 0H870l33.55 61.91-35.46 23.62 1.62-2.12-61.53-46.79L843.92 0h-5.59L805 34.18 760 0h-6.61l113.5 86.31-66.56 44.38-103.76-68.95L730 0h-4.55l-32.23 59.52L603.61 0h-7.22l-89.52 59.69L474.53 0H470l33.55 61.91-35.46 23.62 1.62-2.12-61.53-46.79L443.92 0h-5.59L405 34.18 360 0h-6.61l113.5 86.31-66.56 44.38-103.76-68.95L330 0h-4.55l-32.23 59.52L203.61 0zM4.24 133.27l188.53-126L76.68 181.38zM194.4 172.8L93.22 359.52 3.61 300zM14.11 288.19L198 96.64v69zM594.4 172.8L493.22 359.52 403.61 300zM414.11 288.19L598 96.64v69zM994.4 172.8L893.22 359.52 803.61 300zM814.11 288.19L998 96.64v69zM396.39 900l-89.52 59.68L205.6 772.8 396.39 900zM96.57 961.74l40.28-74.34 130.07 98.91-66.56 44.38zm100.1 71.78l-72.81 48.67L7.21 907.21zm4-597.84l73.82 49L200 596.39l-73.92-110.88zm-76.78 46.51L7.21 307.21l189.46 126.31zm80.38-48.92l188.53-126-116.12 174.11zm9.87 154.92L398 396.64v69zM394.4 472.8L293.22 659.52 203.61 600zM259.7 881l-1.46-1.43L205 934.18l-66.19-50.34 61.22-113zm-51.52 55.59l52.49-53.79 42.85 79.08-35.43 23.62 1.62-2.12zm184.59-29.38l-116.09 174.17-72.44-48.11zM202 765.6v-69l183.89 191.59zm0-74.74v-84.25l183.83 275.74zm5.21-83.65l189.46 126.31-72.81 48.67zm89.36 54.53l40.28-74.34 130.07 98.91-66.56 44.38zm304.07-226.06l73.82 49L600 596.39l-73.92-110.87zm-76.78 46.51l-116.65-175 189.46 126.33zm80.38-48.92l188.53-126-116.09 174.11zm9.87 154.92L798 396.64v69zM794.4 472.8L693.22 659.52 603.61 600zM608.18 936.62l52.49-53.79 42.85 79.08-35.43 23.62 1.62-2.12zm50.06-57L605 934.18l-66.19-50.34 61.22-113L659.69 881zM596.39 600l-89.52 59.68L405.6 472.8 596.39 600zm-92.86 61.91l-35.44 23.62 1.62-2.12-61.53-46.79 52.49-53.79zm89.24-54.67L476.68 781.38l-72.44-48.11zm5.23-.63v84.25L414.17 882.35zm0 90v69L414.11 888.19zm-3.6 76.16L493.22 959.52 403.61 900zM407.21 907.21l189.46 126.31-72.81 48.67zm178.62 275.14L402 990.86v-84.25zm-89.26-220.61l40.28-74.34 130.07 98.91-66.56 44.38zm296.2-54.5l-116.09 174.14-72.44-48.11zm-85.9 52.44L605.6 772.8 796.39 900zM602 765.6v-69l183.89 191.59zm0-74.74v-84.25l183.83 275.75zm5.21-83.65l189.46 126.31-72.81 48.67zm89.36 54.53l40.28-74.34 130.07 98.91-66.56 44.38zm206.95.17l-35.43 23.62 1.62-2.12-61.53-46.79 52.49-53.79zM805.6 472.8L996.39 600l-89.52 59.68zm187.17 134.44L876.68 781.38l-72.44-48.11zm5.23-.63v84.25l-183.83 191.5zm0 90v69L814.11 888.19zm-3.6 76.16L893.22 959.52 803.61 900zM807.21 907.21l189.46 126.31-72.81 48.67zm178.62 275.15L802 990.86v-84.25zm-89.26-220.62l40.28-74.34 130.07 98.91-66.56 44.38zm296.2-54.5l-116.09 174.14-72.44-48.11zm-124.68 78.29l1.62-2.12-61.53-46.79 52.49-53.79 42.85 79.08zm-9.85-105.93L1005 934.18l-66.19-50.34 61.22-113L1059.69 881zM1000 596.39l-73.92-110.87 74.56-49.84 73.82 49zm-76.14-114.2l-116.65-175 189.46 126.33zm80.38-48.92l188.53-126-116.09 174.11zm63.85-47.74l1.62-2.12-61.53-46.79 52.49-53.79 42.86 79.08zm-1.17.78l-66.56 44.38-103.79-68.95 40.28-74.34zm-81.09 196.05L802 390.86v-84.25zm.06 5.83L802 465.6v-69zM859.69 581l-1.45-1.43L805 634.18l-66.19-50.34 61.22-113zM798 390.86L614.17 582.35 798 306.61zm-91.13-31.18L605.6 172.8 796.39 300zm-3.34 2.23l-35.44 23.62 1.62-2.12-61.53-46.79 52.49-53.79zm-36.61 24.4l-66.56 44.38-103.79-68.95 40.28-74.34zm-81.09 196L402 390.86v-84.25zm.06 5.84L402 465.6v-69zM459.7 581l-1.46-1.43L405 634.18l-66.19-50.34 61.22-113zM398 390.86L214.17 582.35 398 306.61zM396.39 300l-89.52 59.68L205.6 172.8 396.39 300zm-92.86 61.91l-35.44 23.62 1.62-2.12-61.53-46.79 52.49-53.79zm-36.61 24.4l-66.56 44.38-103.79-68.95 40.28-74.34zM2 306.61l183.83 275.74L2 390.86zm0 90l183.89 191.58L2 465.6zm3.6 76.19L196.39 600l-89.52 59.68zm2.58 163.82l52.49-53.79 42.86 79.08-35.44 23.62 1.62-2.12zm-3.94 96.65l188.53-126L76.68 781.38zM198 606.61v84.25L14.17 882.35zm0 90v69L14.11 888.19zm-3.6 76.16L93.22 959.52 3.61 900zM2 906.61l183.83 275.74L2 990.86zm0 159v-69l183.89 191.55zm198 130.79l-73.92-110.87 74.56-49.84 73.82 49zm198-130.8l-183.89 122.59L398 996.64zm0-74.74l-183.83 191.49L398 906.61zm-71.92-205.34l74.56-49.84 73.82 49L400 896.39zM402 1065.6v-69l183.89 191.55zm198 130.79l-73.92-110.87 74.56-49.84 73.82 49zm198-130.79l-183.89 122.59L798 996.64zm0-74.74l-183.83 191.49L798 906.61zm2-94.47l-73.92-110.87 74.56-49.84 73.82 49zm2 169.21v-69l183.89 191.55zm198 130.79l-73.92-110.87 74.56-49.84 73.82 49zm198-130.79l-183.89 122.59L1198 996.64zm0-74.74l-183.83 191.5L1198 906.61zm-91.13-31.18L1005.6 772.8 1196.39 900zM1002 765.6v-69l183.89 191.55zm183.83 116.76L1002 690.86V606.6zm10.84-148.84l-72.81 48.67-116.65-175zm-103.45-74L1003.61 600l190.79-127.2zM1198 465.6l-183.89 122.59L1198 396.64zm0-74.74l-183.83 191.5L1198 306.61zm-91.13-31.18L1005.6 172.8 1196.39 300zm89.8-226.16l-72.81 48.67-116.65-175zM1002 6.6l183.83 275.76L1002 90.86zm0 90l183.89 191.55L1002 165.6zm57.7 184.4l-1.46-1.43-53.24 54.61-66.19-50.34 61.22-113zM998 6.61v84.25l-183.83 191.5zm-5.23.63L876.68 181.38l-72.44-48.11zM800.64 135.68l73.82 49L800 296.39l-73.92-110.87zm-4-2.16l-72.81 48.67L607.21 7.21zM602 6.61l183.83 275.75L602 90.86zm0 90l183.89 191.58L602 165.6zM659.7 281l-1.46-1.43L605 334.18l-66.19-50.34 61.22-113zM598 6.61v84.25L414.17 282.35zm-5.23.63L476.68 181.38l-72.44-48.11zM400.64 135.68l73.82 49L400 296.39l-73.92-110.88zm-4-2.16l-72.81 48.67L207.21 7.21zM202 6.61l183.83 275.74L202 90.86zm0 90l183.89 191.58L202 165.6zM259.7 281l-1.46-1.43L205 334.18l-66.19-50.34 61.22-113zM198 90.86L14.17 282.35 198 6.61zM1200 30.4L1160.03 0h-6.61L1200 35.42V30.4z" class="cls-3"/><path d="M0 1200h1200v1200H0z" class="cls-1"/><path d="M196.39 1200l-89.52 59.69L74.53 1200H70l33.55 61.91-35.44 23.62 1.62-2.12-61.55-46.79L43.92 1200h-5.59L5 1234.18l-5-3.78v5l66.92 50.89-66.56 44.4-.36-.24v5.65l.64-.42 73.82 49L0 1496.39v174.47L59.7 1781l-1.46-1.43L5 1834.18l-5-3.78v5l66.92 50.89-66.56 44.4-.36-.24v5.65l.64-.42 73.82 49L0 2096.39v174.47L59.7 2381l-1.46-1.43L38.33 2400h5.59l16.75-17.17L70 2400h4.55L5.6 2272.8 196.39 2400h7.22l190.79-127.2-68.93 127.2H330l6.83-12.6 16.57 12.6h6.6l-21.25-16.16 61.22-113L459.7 2381l-1.46-1.43-19.91 20.43h5.59l16.75-17.17L470 2400h4.55l-68.95-127.2L596.39 2400h7.22l190.79-127.2-68.93 127.2H730l6.83-12.6 16.57 12.6h6.6l-21.25-16.16 61.22-113L859.69 2381l-1.45-1.43-19.91 20.43h5.59l16.75-17.17L870 2400h4.55l-68.95-127.2L996.39 2400h7.22l190.79-127.2-68.93 127.2h4.53l6.83-12.6 16.57 12.6h6.6l-21.25-16.16 61.22-113v-174.45l-73.92-110.87 73.95-49.42v-5.65l-103.43-68.71 40.28-74.34 63.15 48v-5l-61.22-46.56 61.22-113v-174.45l-73.92-110.88 73.92-49.41v-5.65l-103.43-68.71L1130 1200h-4.55l-32.25 59.52-89.59-59.52h-7.22l-89.52 59.68-32.34-59.68H870l33.55 61.91-35.44 23.62 1.62-2.12-61.53-46.79 35.72-36.62h-5.59L805 1234.18 760 1200h-6.61l113.5 86.31-66.56 44.38-103.79-69L730 1200h-4.55l-32.25 59.52-89.59-59.52h-7.22l-89.52 59.69-32.34-59.69H470l33.55 61.91-35.44 23.62 1.62-2.12-61.53-46.79 35.72-36.62h-5.59L405 1234.18 360 1200h-6.61l113.5 86.31-66.56 44.38-103.79-69L330 1200h-4.55l-32.25 59.52-89.59-59.52zM4.24 1333.27l188.53-126-116.09 174.11zm190.16 39.53L93.22 1559.52 3.61 1500zM14.11 1488.19L198 1296.64v69zM594.4 1372.8l-101.18 186.72-89.61-59.52zm-180.29 115.39L598 1296.64v69zM994.4 1372.8l-101.18 186.72-89.61-59.52zm-180.29 115.39L998 1296.64v69zM396.39 2100l-89.52 59.68L205.6 1972.8 396.39 2100zm-299.82 61.74l40.28-74.34 130.07 98.91-66.56 44.38zm100.1 71.78l-72.81 48.67-116.65-175zm4-597.84l73.82 49L200 1796.39l-73.92-110.88zm-76.78 46.51l-116.65-175L196.7 1633.5zm80.38-48.92l188.53-126-116.12 174.11zm9.87 154.92L398 1596.64v69zM394.4 1672.8l-101.18 186.72-89.61-59.52zM259.7 2081l-1.46-1.43-53.24 54.61-66.19-50.34 61.22-113zm-51.52 55.59l52.49-53.79 42.85 79.08-35.43 23.62 1.62-2.12zm184.59-29.38l-116.09 174.17-72.44-48.11zM202 1965.6v-69l183.89 191.55zm0-74.74v-84.25l183.83 275.74zm5.21-83.65l189.46 126.31-72.81 48.67zm89.36 54.53l40.28-74.34 130.07 98.91-66.56 44.38zm304.07-226.06l73.82 49L600 1796.39l-73.92-110.88zm-76.78 46.51l-116.65-175 189.46 126.31zm80.38-48.92l188.53-126-116.09 174.11zm9.87 154.92L798 1596.64v69zM794.4 1672.8l-101.18 186.72-89.61-59.52zm-186.22 463.82l52.49-53.79 42.85 79.08-35.43 23.62 1.62-2.12zm50.06-57L605 2134.18l-66.19-50.34 61.22-113L659.69 2081zM596.39 1800l-89.52 59.68L405.6 1672.8 596.39 1800zm-92.86 61.91l-35.44 23.62 1.62-2.12-61.53-46.79 52.49-53.79zm89.24-54.67l-116.09 174.14-72.44-48.11zm5.23-.63v84.25l-183.83 191.49zm0 90v69l-183.89 122.58zm-3.6 76.16l-101.18 186.75-89.61-59.52zm-187.19 134.44l189.46 126.31-72.81 48.67zm178.62 275.14L402 2190.86v-84.25zm-89.26-220.61l40.28-74.34 130.07 98.91-66.56 44.38zm296.2-54.5l-116.09 174.14-72.44-48.11zm-85.9 52.44L605.6 1972.8 796.39 2100zM602 1965.6v-69l183.89 191.55zm0-74.74v-84.25l183.83 275.75zm5.21-83.65l189.46 126.31-72.81 48.67zm89.36 54.53l40.28-74.34 130.07 98.91-66.56 44.38zm206.95.17l-35.43 23.62 1.62-2.12-61.53-46.79 52.49-53.79zM805.6 1672.8L996.39 1800l-89.52 59.68zm187.17 134.44l-116.09 174.14-72.44-48.11zm5.23-.63v84.25l-183.83 191.5zm0 90v69l-183.89 122.58zm-3.6 76.16l-101.18 186.75-89.61-59.52zm-187.19 134.44l189.46 126.31-72.81 48.67zm178.62 275.15L802 2190.86v-84.25zm-89.26-220.62l40.28-74.34 130.07 98.91-66.56 44.38zm296.2-54.5l-116.09 174.14-72.44-48.11zm-124.68 78.29l1.62-2.12-61.53-46.79 52.49-53.79 42.85 79.08zm-9.85-105.93l-53.24 54.58-66.19-50.34 61.22-113 59.66 110.16zM1000 1796.39l-73.92-110.88 74.56-49.84 73.82 49zm-76.14-114.2l-116.65-175 189.46 126.31zm80.38-48.92l188.53-126-116.09 174.14zm63.85-47.74l1.62-2.12-61.53-46.79 52.49-53.79 42.86 79.08zm-1.17.78l-66.56 44.38-103.79-69 40.28-74.34zm-81.09 196L802 1590.86v-84.25zm.06 5.83L802 1665.6v-69zm-126.2-7.14l-1.45-1.43-53.24 54.61-66.19-50.34 61.22-113zM798 1590.86l-183.83 191.49L798 1506.61zm-91.13-31.18L605.6 1372.8 796.39 1500zm-3.34 2.23l-35.44 23.62 1.62-2.12-61.53-46.79 52.49-53.79zm-36.61 24.4l-66.56 44.38-103.79-69 40.28-74.34zm-81.09 196L402 1590.86v-84.25zm.06 5.84L402 1665.6v-69zM459.7 1781l-1.46-1.43-53.24 54.61-66.19-50.34 61.22-113zM398 1590.86l-183.83 191.49L398 1506.61zm-1.61-90.86l-89.52 59.68L205.6 1372.8 396.39 1500zm-92.86 61.91l-35.44 23.62 1.62-2.12-61.53-46.79 52.49-53.79zm-36.61 24.4l-66.56 44.38-103.79-69 40.28-74.34zM2 1506.61l183.83 275.74L2 1590.86zm0 90l183.89 191.55L2 1665.6zm3.6 76.16L196.39 1800l-89.52 59.68zm2.58 163.82l52.49-53.79 42.86 79.08-35.44 23.62 1.62-2.12zm-3.94 96.65l188.53-126-116.09 174.14zM198 1806.61v84.25L14.17 2082.35zm0 90v69L14.11 2088.19zm-3.6 76.16L93.22 2159.52 3.61 2100zM2 2106.61l183.83 275.74L2 2190.86zm0 159v-69l183.89 191.55zm198 130.79l-73.92-110.87 74.56-49.84 73.82 49zm198-130.8l-183.89 122.59L398 2196.64zm0-74.74l-183.83 191.49L398 2106.61zm-71.92-205.34l74.56-49.84 73.82 49L400 2096.39zM402 2265.6v-69l183.89 191.55zm198 130.79l-73.92-110.87 74.56-49.84 73.82 49zm198-130.79l-183.89 122.59L798 2196.64zm0-74.74l-183.83 191.49L798 2106.61zm2-94.47l-73.92-110.87 74.56-49.84 73.82 49zm2 169.21v-69l183.89 191.55zm198 130.79l-73.92-110.87 74.56-49.84 73.82 49zm198-130.79l-183.89 122.59L1198 2196.64zm0-74.74l-183.83 191.5L1198 2106.61zm-91.13-31.18L1005.6 1972.8l190.79 127.2zM1002 1965.6v-69l183.89 191.55zm183.83 116.76L1002 1890.86v-84.26zm10.84-148.84l-72.81 48.67-116.65-175zm-103.45-74l-89.61-59.52 190.79-127.2zM1198 1665.6l-183.89 122.59L1198 1596.64zm0-74.74l-183.83 191.5L1198 1506.61zm-91.13-31.18L1005.6 1372.8l190.79 127.2zm89.8-226.16l-72.81 48.67-116.65-175zM1002 1206.6l183.83 275.76-183.83-191.5zm0 90l183.89 191.55L1002 1365.6zm57.7 184.4l-1.46-1.43-53.24 54.61-66.19-50.34 61.22-113zM998 1206.61v84.25l-183.83 191.5zm-5.23.63l-116.09 174.14-72.44-48.11zm-192.13 128.44l73.82 49L800 1496.39l-73.92-110.88zm-4-2.16l-72.81 48.67-116.65-175zM602 1206.61l183.83 275.75L602 1290.86zm0 90l183.89 191.55L602 1365.6zM659.7 1481l-1.46-1.43-53.24 54.61-66.19-50.34 61.22-113zM598 1206.61v84.25l-183.83 191.49zm-5.23.63l-116.09 174.14-72.44-48.11zm-192.13 128.44l73.82 49L400 1496.39l-73.92-110.88zm-4-2.16l-72.81 48.67-116.65-175zM202 1206.61l183.83 275.74L202 1290.86zm0 90l183.89 191.55L202 1365.6zM259.7 1481l-1.46-1.43-53.24 54.61-66.19-50.34 61.22-113zM198 1290.86L14.17 1482.35 198 1206.61zm1002-60.46l-39.97-30.4h-6.61l46.58 35.42v-5.02z" class="cls-3"/></g></svg>