<svg xmlns="http://www.w3.org/2000/svg"><symbol id="kayla-obritsch-2" viewBox="0 0 248.3 133"><path d="M43.6 36.5H27v16.6l16.6-16.6zm51.1 11.4c0-4.1-.1-10.8-5.9-10.8-4.4 0-6.5 3.5-6.5 6.7-.1 2 1 3.9 2.8 4.8-.2 4.5-3.5 6.7-7.1 6.7-3.8 0-7.4-2.3-7.4-7.4 0-9.7 13.4-11 20-11 9.9 0 19 2.9 19 12.1v21c0 7 3.2 6.9 7.3 3.4l.1.2c-3.7 3.1-8.2 6-13.9 6-5.2 0-7.9-4.5-8.2-10-.5 4.8-6.8 10-15 10C73 79.6 68 76 68 69.2c0-12.5 17.5-9.3 26.8-17.3v-4h-.1zm0 4.3c-5.1 4.6-9.8 3.5-9.8 14.7 0 3.5.6 8.5 4.6 8.5 3.7 0 5.3-4.8 5.3-7l-.1-16.2zM186.1 0v78.7h7.8v.3h-32.2v-.3h7.8V16.6L186.1 0z"/><path d="M24.4 0v78.7h4.8v.3H0v-.3h7.8V16.6L24.4 0zM226 47.9c0-4.1-.1-10.8-5.9-10.8-4.4 0-6.5 3.5-6.5 6.7-.1 2 1 3.9 2.8 4.8-.2 4.5-3.5 6.7-7.1 6.7-3.8 0-7.4-2.3-7.4-7.4 0-9.7 13.4-11 20-11 9.9 0 19 2.9 19 12.1v21c0 7 3.2 6.9 7.3 3.4l.1.2c-3.7 3.1-8.2 6-13.9 6-5.2 0-7.9-4.5-8.2-10-.5 4.8-6.8 10-15 10-6.9 0-11.9-3.6-11.9-10.4 0-12.5 17.5-9.3 26.8-17.3v-4h-.1zm0 4.3c-5.1 4.6-9.8 3.5-9.8 14.7 0 3.5.6 8.5 4.6 8.5 3.7 0 5.3-4.8 5.3-7V52.2h-.1z"/><path d="M57.3 66.3c-3.5-8.8-9.1-25-30.3-14.2v1c8.3-3.9 9.7 8.6 11.4 14.2 3.2 10.6 4.7 12.4 16 12.4 4.6 0 8.3-.4 12.8-.6v-.3c-4.5.1-5.4-1-9.9-12.5zm-36.5 37.2c8.9 0 15.8 6.2 15.8 14.7s-6.9 14.7-15.8 14.7S5 126.7 5 118.2s6.9-14.7 15.8-14.7zm0 29.3c4.9 0 5-5.9 5-14.5s-.1-14.5-5-14.5-5 5.9-5 14.5.1 14.5 5 14.5zm30.7-43.3l-.2 20.5c.9-3.9 4.4-6.6 8.4-6.5 6.6 0 11.1 5.1 11.1 13 0 8.7-6.2 16.4-15.7 16.4-3.6 0-6.4-2.6-9.9-2.6-2.3 0-3.2 1.4-4 2.6V99.6l10.3-10.1zm-.1 37.4c0 3.5.6 5.8 3.8 5.8 3.8 0 5-4.5 5-14.6 0-6.8-.1-13.1-4.2-13.1-2.5 0-4.1 3.5-4.5 5.4l-.1 16.5zm36.3-23.4l-.2 7.4c1.1-3.6 3.4-7.4 8.5-7.4 4 0 7.9 2.3 7.9 6.8 0 3.2-2.4 6.4-5.9 6.4-2.5.2-4.6-1.7-4.8-4.2v-.4c1.9-.4 2.7-2.3 2.7-4 0-1.3-.8-3.4-2.7-3.4-2.8 0-4.6 3.5-5.6 6.6v21h5.8v.2H72.7v-.2h4.7v-18.7l10.3-10.1zm32.6 0v28.8h4.7v.2h-19.6v-.2h4.7v-18.8l10.2-10zm5.3.4h1.1c4.5 0 8-.7 10.3-2.6 1.7-2.4 2.7-5.3 2.6-8.3h.2v10.9h6v.2h-6v19.8c0 2.1.2 5.9 3.2 5.9 1.5 0 2.8-1.1 4-2l.1.1c-3 2.6-6.8 5-11.4 5-3.8 0-5.9-3.4-5.9-7.7v-21.1h-4.1v-.2h-.1zm22.6 17.3h.1c1.2 8.9 8.3 11.5 13.3 11.5 3.8 0 6.5-1.5 6.5-3.8 0-6.4-19.9-5.3-19.9-16.3 0-6.7 7.7-9.1 13.3-9.1 4 0 6.7 1.2 8.1 1.2.9 0 1.7-.4 2.2-1.1l.5 9.6h-.1c-.7-6.7-6.3-9.5-10.8-9.5-3.8 0-6 2-6 4 0 6.2 19.6 4.5 19.6 15.3 0 5.8-5.7 9.8-13.7 9.8-5.1 0-8.8-1.6-10.4-1.6-.9.1-1.7.6-2.1 1.5l-.6-11.5zm45.6-17.7c4.8 0 12 1.6 12 7.6.1 2.7-2 5-4.8 5.1h-.3c-2.5.2-4.6-1.7-4.8-4.2v-.4c1.2-.6 2-1.9 1.9-3.3 0-2.3-1.5-4.6-4.1-4.6-4.4 0-5.1 6.2-5.1 10.9 0 10 4.2 14.2 8.8 14.2 3.5 0 6.8-2 9-6.5l.2.1c-2.7 5.8-7.4 10.6-14.8 10.6-7.8 0-14-5.6-14-14.2-.1-9.1 6.5-15.3 16-15.3zm29-14l-.2 21.7c1-4.6 5.1-7.8 9.8-7.6 4.8 0 8.6 2.7 8.6 8v20.8h4.7v.2h-17.8v-.2h2.9v-21.5c0-2.1-.1-5.4-2.9-5.4-3 0-5.3 4.1-5.3 7.3v19.6h3v.2h-17.8v-.2h4.7V99.7l10.3-10.2zM147 38v.3h8.9l-11.7 24.1-9.8-21.4-12.6 12.5 13.5 27.6c-4.6 10.6-9.4 16.2-13.1 16.2-1.4.1-2.6-.7-3.2-1.9.5-.9.8-1.9.8-3 0-3.2-2.5-5.8-5.7-5.8h-.2c-3.2 0-5.9 2.6-5.9 5.8v.7c.2 2.1 1.6 6.3 8.8 6.3 10.5 0 15-10.1 18.6-17.7L156 38.4h7.3v-.3H147V38z"/></symbol><symbol id="behance-logo" viewBox="0 0 55.2 34.5"><path d="M49.8 4.9H36V1.5h13.8v3.4zM26.8 19c.9 1.5 1.4 3.3 1.3 5.1 0 1.9-.5 3.8-1.5 5.5-.6 1-1.5 2-2.4 2.7-1.1.9-2.5 1.5-3.9 1.7-1.6.3-3.2.5-4.9.5H0V0h16.6c4.2.1 7.2 1.3 8.9 3.7 1.1 1.5 1.6 3.4 1.6 5.2.1 1.8-.5 3.6-1.6 5.1-.7.8-1.6 1.5-2.6 2 1.5.5 2.9 1.5 3.9 3zM7.9 13.6h7.3c1.3.1 2.5-.2 3.6-.9 1-.7 1.5-1.8 1.4-3 .2-1.3-.6-2.6-1.8-3.2-1.3-.4-2.7-.6-4.1-.5H7.9v7.6zm13 9.9c.1-1.6-.7-3-2.2-3.7-1.1-.4-2.2-.6-3.4-.6H7.9v9.2h7.3c1.2.1 2.4-.1 3.5-.6 1.5-.8 2.4-2.5 2.2-4.3zM55 17.9c.2 1.6.3 3.3.2 4.9h-18c.1 2.5 1 4.2 2.6 5.2 1.1.6 2.3 1 3.5.9 2.1.2 4-1 4.9-2.8h6.6c-.3 1.7-1.1 3.3-2.4 4.4-2.2 2.4-5.3 3.6-9.3 3.6-3.2 0-6.2-1-8.7-3s-3.7-5.3-3.8-9.9c0-4.3 1.1-7.5 3.4-9.8s5.5-3.5 8.8-3.4c2 0 4 .4 5.8 1.1 1.7.8 3.2 2 4.3 3.6 1.2 1.6 1.8 3.4 2.1 5.2zm-6.5.7c0-1.5-.6-2.9-1.7-3.9-1.1-.9-2.4-1.4-3.8-1.3-1.4-.1-2.8.4-3.8 1.4-1 1.1-1.6 2.4-1.7 3.8h11z"/></symbol><symbol id="github-icon" viewBox="0 0 120.78 117.79"><defs><style>.cls-1{fill-rule:evenodd}</style></defs><path d="M60.39 0A60.39 60.39 0 0 0 41.3 117.69c3 .56 4.12-1.31 4.12-2.91 0-1.44-.05-6.19-.08-11.24C28.54 107.19 25 96.42 25 96.42c-2.75-7-6.71-8.84-6.71-8.84-5.48-3.75.41-3.67.41-3.67 6.07.43 9.26 6.22 9.26 6.22 5.39 9.23 14.13 6.57 17.57 5 .55-3.9 2.11-6.56 3.84-8.07C36 85.55 21.85 80.37 21.85 57.23A23.35 23.35 0 0 1 28.08 41c-.63-1.52-2.7-7.66.58-16 0 0 5.07-1.62 16.61 6.19a57.36 57.36 0 0 1 30.25 0C87 23.42 92.11 25 92.11 25c3.28 8.32 1.22 14.46.59 16a23.34 23.34 0 0 1 6.21 16.21c0 23.2-14.12 28.3-27.57 29.8 2.16 1.87 4.09 5.55 4.09 11.18 0 8.08-.06 14.59-.06 16.57 0 1.61 1.08 3.49 4.14 2.9A60.39 60.39 0 0 0 60.39 0z" class="cls-1"/><path d="M22.87 86.7c-.13.3-.6.39-1 .19s-.69-.61-.55-.91.61-.39 1-.19.69.61.54.91zm2.45 2.73c-.29.27-.85.14-1.24-.28a.92.92 0 0 1-.17-1.25c.3-.27.84-.14 1.24.28s.47 1 .17 1.25zm2.38 3.48c-.37.26-1 0-1.35-.52s-.37-1.18 0-1.44 1 0 1.35.51.37 1.19 0 1.45zm3.3 3.36a1.13 1.13 0 0 1-1.59-.27c-.53-.49-.68-1.18-.34-1.54s1-.27 1.56.23.68 1.18.33 1.54zm4.46 1.95c-.15.47-.82.69-1.51.49s-1.13-.76-1-1.24.82-.7 1.51-.49 1.13.76 1 1.24zm4.94.36c0 .5-.56.91-1.28.92s-1.3-.38-1.31-.88.56-.91 1.29-.92 1.3.39 1.3.88zm4.6-.78c.09.49-.41 1-1.12 1.12s-1.35-.17-1.44-.66.42-1 1.12-1.12 1.35.17 1.44.66zm0 0"/></symbol><symbol id="vimeo-icon" viewBox="0 0 100 86.67"><path d="M100 20.05q-.66 14.62-20.39 40.06-20.45 26.55-34.56 26.56-8.74 0-14.79-16.18l-8.07-29.65q-4.5-16.17-9.64-16.18-1.12 0-7.84 4.72L0 23.31q7.41-6.51 14.59-13 9.89-8.55 14.82-9 11.67-1.12 14.37 16 2.91 18.46 4 23 3.38 15.32 7.41 15.31 3.15 0 9.43-9.94t6.73-15.13c.6-5.71-1.64-8.58-6.73-8.58a18.73 18.73 0 0 0-7.4 1.64Q64.63-.67 85.42 0 100.84.47 100 20.05z"/></symbol></svg>