<svg xmlns="http://www.w3.org/2000/svg"><symbol id="kayla-obritsch-logo" viewBox="0 0 247.75 131.04"><path d="M68.21 68c0 6.71 4.87 10.22 11.66 10.22C88 78.21 94.09 74.89 95 70h.48c.27 5.34 2.22 8.23 7.33 8.23 5.62 0 10.06-2.89 13.65-5.93l-.71-1.39c-4 3.43-6.62 4.74-6.62-2.12V48.1c0-9.05-8.93-11.93-18.68-11.93-6.45 0-19.67 1.24-19.67 10.83 0 5 3.59 7.29 7.29 7.29s6.75-2.1 7-6.55A5.07 5.07 0 0 1 82.32 43c0-3.16 2.15-5.26 6.44-5.26 5.73 0 5.81 5.26 5.81 9.28v2.68c-9.13 7.8-26.36 5.97-26.36 18.3zm26.36-2c0 2.1-1.52 8-5.19 8-3.94 0-4.48-4.88-4.48-8.31 0-11 4.68-9.95 9.67-14.43zm101.18 2c0 6.71 4.88 10.22 11.66 10.22 8.11 0 14.23-3.32 15.08-8.23h.51c.28 5.34 2.23 8.23 7.34 8.23 5.61 0 10.06-2.89 13.65-5.93l-.71-1.39c-4.06 3.43-6.63 4.74-6.63-2.12V48.1c0-9.05-8.93-11.93-18.68-11.93-6.43 0-19.62 1.24-19.62 10.8 0 5 3.59 7.29 7.3 7.29 3.55 0 6.74-2.1 7-6.55a5 5 0 0 1-2.78-4.71c0-3.16 2.14-5.26 6.43-5.26 5.74 0 5.82 5.26 5.82 9.28v2.68c-9.12 7.8-26.37 5.97-26.37 18.3zm26.37-2c0 2.1-1.53 8-5.19 8-3.94 0-4.49-4.88-4.49-8.31 0-11 4.68-9.95 9.68-14.43zM53.5 78.21c4.5 0 8.11-.36 12.61-.62V76c-4.5.18-5.38.33-9.79-11-3.23-8.1-8.32-23.43-26.16-16.44l12.7-12.65H26.63v14.24h-.05v1.94c8.2-3.79 9.52 8.46 11.21 13.91C41 76.44 42.38 78.21 53.5 78.21zm-32.09 23.61c-8.82 0-15.69 6.17-15.69 14.61S12.59 131 21.41 131s15.69-6.17 15.69-14.61-6.87-14.57-15.69-14.57zm0 27.51c-4.87 0-4.92-4.35-4.92-12.9s.05-12.9 4.92-12.9 4.93 4.35 4.93 12.9-.06 12.9-4.93 12.9zm38.74-27.56a8.29 8.29 0 0 0-8.38 6.44l.16-20.35-10.12 10.08v33c.76-1.13 1.68-2.54 3.95-2.54 3.41 0 6.22 2.54 9.8 2.54 9.41 0 15.58-7.68 15.58-16.28 0-7.81-4.44-12.89-10.99-12.89zm-4.59 27.65c-2.78 0-3.74-2.17-3.74-4.36V111.8c.38-1.89 2-5.35 4.49-5.35 4.17 0 4.22 3.16 4.22 9.87 0 10.01-1.73 13.1-4.97 13.1zm39.76-27.6c-4.47 0-7.29 3.12-8.42 6.72l.15-6.72-10.12 10.08v17.15h-4.71v1.55h20.51v-1.55h-5.79v-17.6c.94-3 2.73-6.54 5.52-6.54 1.51 0 2.43.53 2.7 1.51a3.45 3.45 0 0 1-2.7 4 4.54 4.54 0 0 0 4.81 4.54c3.52 0 5.9-3.19 5.9-6.38 0-4.49-3.9-6.76-7.85-6.76zm21.86 0l-10.01 9.97v17.25h-4.7v1.56h19.42v-1.56h-4.71v-27.22zm39.4 4.18c0-1.58 2.13-2.63 5.92-2.63 4.46 0 9.64 1.39 10.29 8h.56l-.54-9.52a2.38 2.38 0 0 1-2.17 1.13c-1.4 0-4.08-1.19-8-1.19-5.6 0-13.23 2.38-13.23 9 0 10.87 19 9.79 19.14 16.18 0 1.76-2 2.41-5.78 2.41-5 0-11.61-1.29-12.8-10.17l-.56.1.6 11.52a2.53 2.53 0 0 1 2.11-1.46c1.57 0 5.3 1.57 10.33 1.57 8 0 13.58-3.95 13.58-9.74-.03-10.72-19.45-9.04-19.45-15.2zm43.18 20.87c-4.55 0-8.72-4.11-8.72-14.07 0-4.65 1.48-9.42 5-9.42 2.54 0 4 1.07 4 3.15a3.88 3.88 0 0 1-1.89 3.3 4.55 4.55 0 0 0 4.82 4.54 4.86 4.86 0 0 0 5.08-5c0-5.9-7.14-7.52-12-7.52-9.36 0-16 6.17-16 15 0 8.6 6.17 14.12 13.91 14.12 7.41 0 12.06-4.7 14.71-10.49l-1.3-.86c-1.96 4.5-4.1 7.25-7.61 7.25z"/><path d="M111.3 84.87a5.78 5.78 0 0 0-5.78 5.72c0 2.88 1.6 6.85 8.73 6.85 10.88 0 14.73-10 18.26-17.38l19.67-41.22h7.76v-1.56h-16.23v1.56h6.65l-10 21-9-19.69L119 52.46l12.62 25.81c-4.5 10.36-7.82 15.21-12 16.08a2.54 2.54 0 0 1-3-1.48 5.37 5.37 0 0 0 .46-2.28 5.71 5.71 0 0 0-5.78-5.72zm28.37 41.97c-3 0-2.36-2.73-2.36-4.84v-18.24h5.95v-1.56h-5.95V91.72l-.21.37c-2.9 5.18-6.87 9.75-13.86 10.09v1.56h4.11v19.59c0 4.22 2.11 7.63 5.84 7.63 4.66 0 8.39-2.43 11.37-5l-.89-1.29a6.07 6.07 0 0 1-4 2.17zM28.71 77.33v-1.3H24V0L7.67 16.27v59.76H0v1.56h28.71v-.26zM243 129.05v-19.28c0-5.3-3.73-8-8.49-8-4.44 0-8.66 2.06-9.74 6.09l.16-20-10.08 10.08v31.11h-4.71v1.55h17.7v-1.55h-3v-16.64c0-3.19 2.27-7.25 5.25-7.25 2.81 0 2.92 2.8 2.92 3.94v20h-2.92v1.55h17.64v-1.55zm-84.09-53.02v1.56h31.68v-1.56h-7.68V0l-16.33 16.27.01 59.76h-7.68z"/></symbol><symbol id="behance-logo" viewBox="0 0 55.2 34.5"><path d="M49.8 4.9H36V1.5h13.8v3.4zM26.8 19c.9 1.5 1.4 3.3 1.3 5.1 0 1.9-.5 3.8-1.5 5.5-.6 1-1.5 2-2.4 2.7-1.1.9-2.5 1.5-3.9 1.7-1.6.3-3.2.5-4.9.5H0V0h16.6c4.2.1 7.2 1.3 8.9 3.7 1.1 1.5 1.6 3.4 1.6 5.2.1 1.8-.5 3.6-1.6 5.1-.7.8-1.6 1.5-2.6 2 1.5.5 2.9 1.5 3.9 3zM7.9 13.6h7.3c1.3.1 2.5-.2 3.6-.9 1-.7 1.5-1.8 1.4-3 .2-1.3-.6-2.6-1.8-3.2-1.3-.4-2.7-.6-4.1-.5H7.9v7.6zm13 9.9c.1-1.6-.7-3-2.2-3.7-1.1-.4-2.2-.6-3.4-.6H7.9v9.2h7.3c1.2.1 2.4-.1 3.5-.6 1.5-.8 2.4-2.5 2.2-4.3zM55 17.9c.2 1.6.3 3.3.2 4.9h-18c.1 2.5 1 4.2 2.6 5.2 1.1.6 2.3 1 3.5.9 2.1.2 4-1 4.9-2.8h6.6c-.3 1.7-1.1 3.3-2.4 4.4-2.2 2.4-5.3 3.6-9.3 3.6-3.2 0-6.2-1-8.7-3s-3.7-5.3-3.8-9.9c0-4.3 1.1-7.5 3.4-9.8s5.5-3.5 8.8-3.4c2 0 4 .4 5.8 1.1 1.7.8 3.2 2 4.3 3.6 1.2 1.6 1.8 3.4 2.1 5.2zm-6.5.7c0-1.5-.6-2.9-1.7-3.9-1.1-.9-2.4-1.4-3.8-1.3-1.4-.1-2.8.4-3.8 1.4-1 1.1-1.6 2.4-1.7 3.8h11z"/></symbol><symbol id="github-logo" viewBox="0 0 256 69.3"><path d="M49.3 29.7H27.8c-.6 0-1 .4-1 1v10.5c0 .6.4 1 1 1h8.4v13.1s-1.9.6-7.1.6c-6.1 0-14.7-2.2-14.7-21.1s8.9-21.4 17.3-21.4c4.2-.1 8.4.5 12.4 1.9.5.1 1.1-.2 1.2-.8v-.2l2.4-10.2c0-.3-.1-.6-.4-.8-.8-.5-5.7-3.3-18.2-3.3C14.7 0 0 6.2 0 35.5s16.9 33.8 31.1 33.8c11.8 0 18.9-5 18.9-5 .2-.2.3-.5.3-.8V30.7c0-.6-.4-1-1-1zM160.2 3.6c0-.6-.4-1-1-1h-12.1c-.6 0-1 .4-1 1V27h-18.9V3.6c0-.6-.4-1-1-1h-12.1c-.6 0-1 .4-1 1V67c0 .6.4 1 1 1h12.1c.6 0 1-.4 1-1V39.8h18.9V67c0 .6.4 1 1 1h12.1c.6 0 1-.4 1-1V3.6zm-88 8.3c0-4.3-3.6-7.8-7.9-7.7s-7.8 3.6-7.7 7.9c0 4.3 3.5 7.7 7.8 7.7s7.8-3.6 7.8-7.9zm-.9 41.7V24.3c0-.6-.4-1-1-1H58.2c-.6.1-1 .6-1 1.1v41.9c0 1.2.8 1.6 1.8 1.6h10.8c1.2 0 1.5-.6 1.5-1.6V53.6zm134.9-30.2h-12c-.6 0-1 .4-1 1v31.1c-2.2 1.4-4.8 2.2-7.4 2.2-4.3 0-5.5-2-5.5-6.2V24.4c0-.6-.4-1-1-1h-12.2c-.6 0-1 .4-1 1v29.2c0 12.6 7 15.7 16.7 15.7 5.1-.1 10-1.7 14.3-4.4.1.9.3 1.7.4 2.6.2.3.5.5.9.6h7.8c.6 0 1-.4 1-1V24.4c0-.5-.4-1-1-1zm32.9-1.4c-4 0-8 1-11.5 3.1V3.6c0-.6-.4-1-1-1h-12.1c-.6 0-1 .4-1 1V67c0 .6.4 1 1 1h8.4c.4 0 .7-.2.9-.5.2-1 .4-1.9.5-2.9 0 0 5 4.7 14.4 4.7 11 0 17.4-5.6 17.4-25.1S245.9 22 239.1 22zm-4.8 35.7c-2.5-.1-4.9-.7-7-2V35.6c1.9-1.1 4-1.8 6.2-2 4.3-.4 8.5.9 8.5 11.2 0 10.9-1.8 13.1-7.7 12.9zM106.1 23.3H97v-12c0-.4-.2-.7-.8-.7H83.9c-.5 0-.7.2-.7.7v12.4s-6.2 1.5-6.6 1.6c-.4.1-.7.5-.7 1v7.8c0 .6.4 1 1 1h6.3v18.8c0 13.9 9.8 15.3 16.4 15.3 2.4-.1 4.9-.5 7.2-1.2.4-.2.6-.5.6-.9v-8.6c0-.6-.4-1-1-1-.5 0-1.9.2-3.3.2-4.5 0-6-2.1-6-4.8V35.1h9.1c.6 0 1-.4 1-1v-9.8c-.1-.5-.5-1-1.1-1z"/></symbol><symbol id="vimeo-logo" viewBox="0 0 825.98 233.52"><path d="M184.65 109.88q-1.25 27-37.68 73.88-37.68 49-63.75 49-16.14 0-27.32-29.83L41 148.22q-8.3-29.82-17.8-29.83-2.07 0-14.5 8.7L0 115.89q13.68-12 27-24 18.2-15.82 27.33-16.65 21.57-2.07 26.55 29.5 5.39 34.05 7.47 42.35 6.21 28.26 13.68 28.25 5.81 0 17.42-18.33t12.44-27.91q1.65-15.81-12.44-15.83a34.63 34.63 0 0 0-13.67 3q13.62-44.62 52-43.37 28.5.87 26.87 36.98z"/><path d="M298.67 168.15a139.9 139.9 0 0 1-31.94 39.78q-27.81 24-55.58 24-12.89 0-19.71-8.29T185 202.13q.41-13.68 8.5-42.29t8.1-30.68q0-10.75-7.47-10.77-2.49 0-14.11 8.7l-9.54-11.2 26.55-24q17.84-15.77 26.56-16.6 13.67-1.23 20.11 8.07t4.77 24.17q-5.4 25.21-11.62 64.05-.42 17.79 12.86 17.77 5.81 0 20.74-12.28a172.43 172.43 0 0 0 20.33-19.24zM262.58 20.63q-.42 10.37-10.37 19.82a37.11 37.11 0 0 1-26.55 10.73q-23.64 0-22.82-20.63.41-10.73 12.65-20.65A42.21 42.21 0 0 1 242.66 0a18.36 18.36 0 0 1 14.53 6.81q5.81 6.82 5.39 13.82z"/><path d="M557.72 168.15a139.9 139.9 0 0 1-31.94 39.78Q498 232 470.2 232q-27 0-26.14-29.84.4-13.27 5.17-31.92t5.19-29q.42-15.75-9.57-15.76-10.83 0-25.8 25.72-15.82 27-17.07 52.26-.83 17.86 3.49 27.39-28.94.84-40.52-9.54-10.36-9.13-9.52-30.28a112.51 112.51 0 0 1 4.07-26.55 106.44 106.44 0 0 0 4.08-23.65q.84-15.34-11.22-15.35-10.39 0-22.43 23.65a120.34 120.34 0 0 0-13.29 49.36q-.84 23.25 3 32.36-28.47.84-40.44-12-9.93-10.76-9.08-32.67.41-10.75 3.81-30t3.82-30q.81-7.44-3.74-7.45-2.49 0-14.11 8.39l-10-11.2q2.07-1.64 26.13-24 17.43-16.17 23.64-16.58 10.79-.84 17.42 8.91a39.13 39.13 0 0 1 6.65 22.6 36.34 36.34 0 0 1-.83 7.88 76.36 76.36 0 0 1 14.52-16.59q19.08-16.59 42.72-18.67 20.34-1.65 29.05 9.54 7 9.12 6.63 26.14c1.94-1.65 4-3.46 6.23-5.4a109.51 109.51 0 0 1 18.66-17.83q15.35-11.2 31.94-12.45 19.9-1.65 28.62 9.5 7.45 9.09 6.64 26-.42 11.58-5.6 33.69T497.15 174q-.4 8.68 1.67 12t9.95 3.29q5.81 0 20.74-12.28a172.43 172.43 0 0 0 20.33-19.24z"/><path d="M713.27 167.72q-12 19.91-47.29 39.77-44 25.27-89.18 25.26-33.6 0-48.13-22.39-10.36-15.35-9.95-36.5.4-33.59 29.87-63.87 32.35-33.17 76.32-33.18 40.67 0 43.15 33.1 1.65 21.09-23.23 43.45-26.57 24.42-66.79 31 7.46 10.35 22.4 10.34 29.85 0 65.13-15.19 25.29-10.66 39.82-22.17zm-94.16-43.31q.39-11.13-9.12-11.14-12.43 0-25.26 17.13t-13.25 32.8c-.16 0-.16 1.8 0 5.37a93.34 93.34 0 0 0 35.2-22.69q12-13.2 12.43-21.47z"/><path d="M825.88 139.92q-1.68 38.1-28.21 65.86t-66 27.74q-32.76 0-49.77-21.12-12.44-15.74-13.69-39.34-2.09-35.62 25.73-65.45 29.85-33.14 75.07-33.13 29 0 44 19.47 14.11 17.82 12.87 45.97zM779 138.35a52.23 52.23 0 0 0-3.11-20.57q-3.54-9.34-10.16-9.36-21.16 0-34.84 22.87a80.21 80.21 0 0 0-12.45 39.89 35.63 35.63 0 0 0 3.73 18.29q4.55 9.15 12.86 9.14 18.66 0 32-22A78.65 78.65 0 0 0 779 138.35z"/></symbol></svg>