<svg xmlns="http://www.w3.org/2000/svg"><symbol id="behance-logo" viewBox="0 0 56 56"><path id="behance" d="M50.2 15.7H36.4v-3.4h13.8v3.4zm-23 14.1c.9 1.5 1.4 3.3 1.3 5.1 0 1.9-.5 3.8-1.5 5.5-.6 1-1.5 2-2.4 2.7-1.1.9-2.5 1.5-3.9 1.7-1.6.3-3.2.5-4.9.5H.4V10.8H17c4.2.1 7.2 1.3 8.9 3.7 1.1 1.5 1.6 3.4 1.6 5.2.1 1.8-.5 3.6-1.6 5.1-.7.8-1.6 1.5-2.6 2 1.5.5 2.9 1.5 3.9 3zM8.3 24.4h7.3c1.3.1 2.5-.2 3.6-.9 1-.7 1.5-1.8 1.4-3 .2-1.3-.6-2.6-1.8-3.2-1.3-.4-2.7-.6-4.1-.5H8.3v7.6zm13 9.9c.1-1.6-.7-3-2.2-3.7-1.1-.4-2.2-.6-3.4-.6H8.3v9.2h7.3c1.2.1 2.4-.1 3.5-.6 1.5-.8 2.4-2.5 2.2-4.3zm34.1-5.6c.2 1.6.3 3.3.2 4.9h-18c.1 2.5 1 4.2 2.6 5.2 1.1.6 2.3 1 3.5.9 2.1.2 4-1 4.9-2.8h6.6c-.3 1.7-1.1 3.3-2.4 4.4-2.2 2.4-5.3 3.6-9.3 3.6-3.2 0-6.2-1-8.7-3-2.5-2-3.7-5.3-3.8-9.9 0-4.3 1.1-7.5 3.4-9.8 2.3-2.3 5.5-3.5 8.8-3.4 2 0 4 .4 5.8 1.1 1.7.8 3.2 2 4.3 3.6 1.2 1.6 1.8 3.4 2.1 5.2zm-6.5.7c0-1.5-.6-2.9-1.7-3.9-1.1-.9-2.4-1.4-3.8-1.3-1.4-.1-2.8.4-3.8 1.4-1 1.1-1.6 2.4-1.7 3.8h11z" class="st0"/></symbol><symbol id="github-logo" viewBox="0 0 256 256"><path id="github" d="M49.31 123H27.79a1 1 0 0 0-1 1v10.52a1 1 0 0 0 1 1h8.4v13.06s-1.89.65-7.1.65c-6.14 0-14.73-2.25-14.73-21.13s8.94-21.37 17.33-21.37a33.9 33.9 0 0 1 12.39 1.9 1 1 0 0 0 1.21-1l2.4-10.16a.94.94 0 0 0-.39-.79c-.81-.57-5.74-3.34-18.21-3.34C14.73 93.38 0 99.49 0 128.87s16.87 33.75 31.08 33.75c11.77 0 18.91-5 18.91-5a.89.89 0 0 0 .32-.77V124a1 1 0 0 0-1-1zm110.86-26.1a1 1 0 0 0-1-1h-12.11a1 1 0 0 0-1 1v23.41h-18.88V96.9a1 1 0 0 0-1-1h-12.11a1 1 0 0 0-1 1v63.39a1 1 0 0 0 1 1h12.11a1 1 0 0 0 1-1v-27.11h18.88v27.11a1 1 0 0 0 1 1h12.14a1 1 0 0 0 1-1zm-88.01 8.32a7.81 7.81 0 1 0-7.81 7.89 7.84 7.84 0 0 0 7.81-7.89zm-.86 41.7v-29.26a1 1 0 0 0-1-1H58.22a1.16 1.16 0 0 0-1 1.13v41.91c0 1.23.77 1.6 1.76 1.6h10.83c1.2 0 1.49-.58 1.49-1.62zm134.91-30.18h-12a1 1 0 0 0-1 1v31.08a13.63 13.63 0 0 1-7.39 2.23c-4.34 0-5.49-2-5.49-6.21v-27.1a1 1 0 0 0-1-1h-12.2a1 1 0 0 0-1 1v29.15c0 12.61 7 15.69 16.69 15.69a28.16 28.16 0 0 0 14.32-4.38 24.83 24.83 0 0 0 .45 2.58 1 1 0 0 0 .88.55h7.76a1 1 0 0 0 1-1v-42.57a1 1 0 0 0-1.02-1.02zm32.85-1.42a22.56 22.56 0 0 0-11.47 3.05V96.9a1 1 0 0 0-1-1h-12.15a1 1 0 0 0-1 1v63.39a1 1 0 0 0 1 1h8.43a1 1 0 0 0 .88-.54 19.59 19.59 0 0 0 .51-2.92s5 4.71 14.37 4.71c11 0 17.37-5.6 17.37-25.14s-10.11-22.08-16.94-22.08zM234.32 151a14.46 14.46 0 0 1-7-2v-20.06a16 16 0 0 1 6.21-2c4.33-.39 8.5.92 8.5 11.24-.03 10.88-1.88 13.03-7.71 12.82zm-128.21-34.36H97v-12c0-.45-.23-.68-.76-.68H83.87c-.48 0-.74.21-.74.67V117s-6.21 1.49-6.63 1.62a1 1 0 0 0-.72 1v7.8a1 1 0 0 0 1 1h6.35v18.75c0 13.93 9.77 15.3 16.36 15.3a27.56 27.56 0 0 0 7.21-1.19.93.93 0 0 0 .57-.91v-8.57a1 1 0 0 0-1-1c-.53 0-1.89.21-3.28.21-4.46 0-6-2.07-6-4.76v-17.82h9.09a1 1 0 0 0 1-1v-9.77a1 1 0 0 0-.97-1.02z" class="cls-1"/></symbol><symbol id="kayla-obritsch-2" viewBox="0 0 248.3 133"><path id="obritsch-logo" d="M43.6 36.5H27v16.6l16.6-16.6zm51.1 11.4c0-4.1-.1-10.8-5.9-10.8-4.4 0-6.5 3.5-6.5 6.7a5.13 5.13 0 0 0 2.8 4.8c-.2 4.5-3.5 6.7-7.1 6.7-3.8 0-7.4-2.3-7.4-7.4 0-9.7 13.4-11 20-11 9.9 0 19 2.9 19 12.1v21c0 7 3.2 6.9 7.3 3.4l.1.2c-3.7 3.1-8.2 6-13.9 6-5.2 0-7.9-4.5-8.2-10-.5 4.8-6.8 10-15 10C73 79.6 68 76 68 69.2c0-12.5 17.5-9.3 26.8-17.3v-4zm0 4.3c-5.1 4.6-9.8 3.5-9.8 14.7 0 3.5.6 8.5 4.6 8.5 3.7 0 5.3-4.8 5.3-7V52.2zM186.1 0v78.7h7.8v.3h-32.2v-.3h7.8V16.6z" class="cls-1"/><path d="M24.4 0v78.7h4.8v.3H0v-.3h7.8V16.6zM226 47.9c0-4.1-.1-10.8-5.9-10.8-4.4 0-6.5 3.5-6.5 6.7a5.13 5.13 0 0 0 2.8 4.8c-.2 4.5-3.5 6.7-7.1 6.7-3.8 0-7.4-2.3-7.4-7.4 0-9.7 13.4-11 20-11 9.9 0 19 2.9 19 12.1v21c0 7 3.2 6.9 7.3 3.4l.1.2c-3.7 3.1-8.2 6-13.9 6-5.2 0-7.9-4.5-8.2-10-.5 4.8-6.8 10-15 10-6.9 0-11.9-3.6-11.9-10.4 0-12.5 17.5-9.3 26.8-17.3v-4zm0 4.3c-5.1 4.6-9.8 3.5-9.8 14.7 0 3.5.6 8.5 4.6 8.5 3.7 0 5.3-4.8 5.3-7V52.2z" class="cls-1"/><path d="M57.3 66.3c-3.5-8.8-9.1-25-30.3-14.2v1c8.3-3.9 9.7 8.6 11.4 14.2 3.2 10.6 4.7 12.4 16 12.4 4.6 0 8.3-.4 12.8-.6v-.3c-4.5.1-5.4-1-9.9-12.5zm-36.5 37.2c8.9 0 15.8 6.2 15.8 14.7s-6.9 14.7-15.8 14.7S5 126.7 5 118.2s6.9-14.7 15.8-14.7zm0 29.3c4.9 0 5-5.9 5-14.5s-.1-14.5-5-14.5-5 5.9-5 14.5.1 14.5 5 14.5zm30.7-43.3l-.2 20.5a8.3 8.3 0 0 1 8.4-6.5c6.6 0 11.1 5.1 11.1 13 0 8.7-6.2 16.4-15.7 16.4-3.6 0-6.4-2.6-9.9-2.6-2.3 0-3.2 1.4-4 2.6V99.6zm-.1 37.4c0 3.5.6 5.8 3.8 5.8 3.8 0 5-4.5 5-14.6 0-6.8-.1-13.1-4.2-13.1-2.5 0-4.1 3.5-4.5 5.4v16.5zm36.3-23.4l-.2 7.4c1.1-3.6 3.4-7.4 8.5-7.4 4 0 7.9 2.3 7.9 6.8 0 3.2-2.4 6.4-5.9 6.4a4.5 4.5 0 0 1-4.8-4.6c1.9-.4 2.7-2.3 2.7-4 0-1.3-.8-3.4-2.7-3.4-2.8 0-4.6 3.5-5.6 6.6v21h5.8v.2H72.7v-.2h4.7v-18.7zm32.6 0v28.8h4.7v.2h-19.6v-.2h4.7v-18.8zm5.3.4h1.1c4.5 0 8-.7 10.3-2.6a13.69 13.69 0 0 0 2.6-8.3h.2v10.9h6v.2h-6v19.8c0 2.1.2 5.9 3.2 5.9 1.5 0 2.8-1.1 4-2l.1.1c-3 2.6-6.8 5-11.4 5-3.8 0-5.9-3.4-5.9-7.7v-21.1h-4.1v-.2zm22.6 17.3h.1c1.2 8.9 8.3 11.5 13.3 11.5 3.8 0 6.5-1.5 6.5-3.8 0-6.4-19.9-5.3-19.9-16.3 0-6.7 7.7-9.1 13.3-9.1 4 0 6.7 1.2 8.1 1.2a2.64 2.64 0 0 0 2.2-1.1l.5 9.6h-.1c-.7-6.7-6.3-9.5-10.8-9.5-3.8 0-6 2-6 4 0 6.2 19.6 4.5 19.6 15.3 0 5.8-5.7 9.8-13.7 9.8-5.1 0-8.8-1.6-10.4-1.6a2.45 2.45 0 0 0-2.1 1.5zm45.6-17.7c4.8 0 12 1.6 12 7.6a4.93 4.93 0 0 1-5.1 5.1 4.5 4.5 0 0 1-4.8-4.6 3.52 3.52 0 0 0 1.9-3.3c0-2.3-1.5-4.6-4.1-4.6-4.4 0-5.1 6.2-5.1 10.9 0 10 4.2 14.2 8.8 14.2 3.5 0 6.8-2 9-6.5l.2.1c-2.7 5.8-7.4 10.6-14.8 10.6-7.8 0-14-5.6-14-14.2-.1-9.1 6.5-15.3 16-15.3zm29-14l-.2 21.7a9.62 9.62 0 0 1 9.8-7.6c4.8 0 8.6 2.7 8.6 8v20.8h4.7v.2h-17.8v-.2h2.9v-21.5c0-2.1-.1-5.4-2.9-5.4-3 0-5.3 4.1-5.3 7.3v19.6h3v.2h-17.8v-.2h4.7V99.7zM147 38v.3h8.9l-11.7 24.1-9.8-21.4-12.6 12.5 13.5 27.6c-4.6 10.6-9.4 16.2-13.1 16.2a3.31 3.31 0 0 1-3.2-1.9 6.11 6.11 0 0 0 .8-3 5.76 5.76 0 0 0-5.9-5.8 5.89 5.89 0 0 0-5.9 5.8v.7c.2 2.1 1.6 6.3 8.8 6.3 10.5 0 15-10.1 18.6-17.7L156 38.4h7.3v-.3H147z" class="cls-1"/></symbol></svg>
