<svg xmlns="http://www.w3.org/2000/svg"><symbol id="behance-logo" viewBox="0 0 55.2 34.5"><path d="M49.8 4.9H36V1.5h13.8v3.4zM26.8 19c.9 1.5 1.4 3.3 1.3 5.1 0 1.9-.5 3.8-1.5 5.5-.6 1-1.5 2-2.4 2.7-1.1.9-2.5 1.5-3.9 1.7-1.6.3-3.2.5-4.9.5H0V0h16.6c4.2.1 7.2 1.3 8.9 3.7 1.1 1.5 1.6 3.4 1.6 5.2.1 1.8-.5 3.6-1.6 5.1-.7.8-1.6 1.5-2.6 2 1.5.5 2.9 1.5 3.9 3zM7.9 13.6h7.3c1.3.1 2.5-.2 3.6-.9 1-.7 1.5-1.8 1.4-3 .2-1.3-.6-2.6-1.8-3.2-1.3-.4-2.7-.6-4.1-.5H7.9v7.6zm13 9.9c.1-1.6-.7-3-2.2-3.7-1.1-.4-2.2-.6-3.4-.6H7.9v9.2h7.3c1.2.1 2.4-.1 3.5-.6 1.5-.8 2.4-2.5 2.2-4.3zM55 17.9c.2 1.6.3 3.3.2 4.9h-18c.1 2.5 1 4.2 2.6 5.2 1.1.6 2.3 1 3.5.9 2.1.2 4-1 4.9-2.8h6.6c-.3 1.7-1.1 3.3-2.4 4.4-2.2 2.4-5.3 3.6-9.3 3.6-3.2 0-6.2-1-8.7-3s-3.7-5.3-3.8-9.9c0-4.3 1.1-7.5 3.4-9.8s5.5-3.5 8.8-3.4c2 0 4 .4 5.8 1.1 1.7.8 3.2 2 4.3 3.6 1.2 1.6 1.8 3.4 2.1 5.2zm-6.5.7c0-1.5-.6-2.9-1.7-3.9-1.1-.9-2.4-1.4-3.8-1.3-1.4-.1-2.8.4-3.8 1.4-1 1.1-1.6 2.4-1.7 3.8h11z"/></symbol><symbol id="github-logo" viewBox="0 0 256 69.3"><path d="M49.3 29.7H27.8c-.6 0-1 .4-1 1v10.5c0 .6.4 1 1 1h8.4v13.1s-1.9.6-7.1.6c-6.1 0-14.7-2.2-14.7-21.1s8.9-21.4 17.3-21.4c4.2-.1 8.4.5 12.4 1.9.5.1 1.1-.2 1.2-.8v-.2l2.4-10.2c0-.3-.1-.6-.4-.8-.8-.5-5.7-3.3-18.2-3.3C14.7 0 0 6.2 0 35.5s16.9 33.8 31.1 33.8c11.8 0 18.9-5 18.9-5 .2-.2.3-.5.3-.8V30.7c0-.6-.4-1-1-1zM160.2 3.6c0-.6-.4-1-1-1h-12.1c-.6 0-1 .4-1 1V27h-18.9V3.6c0-.6-.4-1-1-1h-12.1c-.6 0-1 .4-1 1V67c0 .6.4 1 1 1h12.1c.6 0 1-.4 1-1V39.8h18.9V67c0 .6.4 1 1 1h12.1c.6 0 1-.4 1-1V3.6zm-88 8.3c0-4.3-3.6-7.8-7.9-7.7s-7.8 3.6-7.7 7.9c0 4.3 3.5 7.7 7.8 7.7s7.8-3.6 7.8-7.9zm-.9 41.7V24.3c0-.6-.4-1-1-1H58.2c-.6.1-1 .6-1 1.1v41.9c0 1.2.8 1.6 1.8 1.6h10.8c1.2 0 1.5-.6 1.5-1.6V53.6zm134.9-30.2h-12c-.6 0-1 .4-1 1v31.1c-2.2 1.4-4.8 2.2-7.4 2.2-4.3 0-5.5-2-5.5-6.2V24.4c0-.6-.4-1-1-1h-12.2c-.6 0-1 .4-1 1v29.2c0 12.6 7 15.7 16.7 15.7 5.1-.1 10-1.7 14.3-4.4.1.9.3 1.7.4 2.6.2.3.5.5.9.6h7.8c.6 0 1-.4 1-1V24.4c0-.5-.4-1-1-1zm32.9-1.4c-4 0-8 1-11.5 3.1V3.6c0-.6-.4-1-1-1h-12.1c-.6 0-1 .4-1 1V67c0 .6.4 1 1 1h8.4c.4 0 .7-.2.9-.5.2-1 .4-1.9.5-2.9 0 0 5 4.7 14.4 4.7 11 0 17.4-5.6 17.4-25.1S245.9 22 239.1 22zm-4.8 35.7c-2.5-.1-4.9-.7-7-2V35.6c1.9-1.1 4-1.8 6.2-2 4.3-.4 8.5.9 8.5 11.2 0 10.9-1.8 13.1-7.7 12.9zM106.1 23.3H97v-12c0-.4-.2-.7-.8-.7H83.9c-.5 0-.7.2-.7.7v12.4s-6.2 1.5-6.6 1.6c-.4.1-.7.5-.7 1v7.8c0 .6.4 1 1 1h6.3v18.8c0 13.9 9.8 15.3 16.4 15.3 2.4-.1 4.9-.5 7.2-1.2.4-.2.6-.5.6-.9v-8.6c0-.6-.4-1-1-1-.5 0-1.9.2-3.3.2-4.5 0-6-2.1-6-4.8V35.1h9.1c.6 0 1-.4 1-1v-9.8c-.1-.5-.5-1-1.1-1z"/></symbol><symbol id="vimeo-logo" viewBox="0 0 825.98 233.52"><path d="M184.65 109.88q-1.25 27-37.68 73.88-37.68 49-63.75 49-16.14 0-27.32-29.83L41 148.22q-8.3-29.82-17.8-29.83-2.07 0-14.5 8.7L0 115.89q13.68-12 27-24 18.2-15.82 27.33-16.65 21.57-2.07 26.55 29.5 5.39 34.05 7.47 42.35 6.21 28.26 13.68 28.25 5.81 0 17.42-18.33t12.44-27.91q1.65-15.81-12.44-15.83a34.63 34.63 0 0 0-13.67 3q13.62-44.62 52-43.37 28.5.87 26.87 36.98z"/><path d="M298.67 168.15a139.9 139.9 0 0 1-31.94 39.78q-27.81 24-55.58 24-12.89 0-19.71-8.29T185 202.13q.41-13.68 8.5-42.29t8.1-30.68q0-10.75-7.47-10.77-2.49 0-14.11 8.7l-9.54-11.2 26.55-24q17.84-15.77 26.56-16.6 13.67-1.23 20.11 8.07t4.77 24.17q-5.4 25.21-11.62 64.05-.42 17.79 12.86 17.77 5.81 0 20.74-12.28a172.43 172.43 0 0 0 20.33-19.24zM262.58 20.63q-.42 10.37-10.37 19.82a37.11 37.11 0 0 1-26.55 10.73q-23.64 0-22.82-20.63.41-10.73 12.65-20.65A42.21 42.21 0 0 1 242.66 0a18.36 18.36 0 0 1 14.53 6.81q5.81 6.82 5.39 13.82z"/><path d="M557.72 168.15a139.9 139.9 0 0 1-31.94 39.78Q498 232 470.2 232q-27 0-26.14-29.84.4-13.27 5.17-31.92t5.19-29q.42-15.75-9.57-15.76-10.83 0-25.8 25.72-15.82 27-17.07 52.26-.83 17.86 3.49 27.39-28.94.84-40.52-9.54-10.36-9.13-9.52-30.28a112.51 112.51 0 0 1 4.07-26.55 106.44 106.44 0 0 0 4.08-23.65q.84-15.34-11.22-15.35-10.39 0-22.43 23.65a120.34 120.34 0 0 0-13.29 49.36q-.84 23.25 3 32.36-28.47.84-40.44-12-9.93-10.76-9.08-32.67.41-10.75 3.81-30t3.82-30q.81-7.44-3.74-7.45-2.49 0-14.11 8.39l-10-11.2q2.07-1.64 26.13-24 17.43-16.17 23.64-16.58 10.79-.84 17.42 8.91a39.13 39.13 0 0 1 6.65 22.6 36.34 36.34 0 0 1-.83 7.88 76.36 76.36 0 0 1 14.52-16.59q19.08-16.59 42.72-18.67 20.34-1.65 29.05 9.54 7 9.12 6.63 26.14c1.94-1.65 4-3.46 6.23-5.4a109.51 109.51 0 0 1 18.66-17.83q15.35-11.2 31.94-12.45 19.9-1.65 28.62 9.5 7.45 9.09 6.64 26-.42 11.58-5.6 33.69T497.15 174q-.4 8.68 1.67 12t9.95 3.29q5.81 0 20.74-12.28a172.43 172.43 0 0 0 20.33-19.24z"/><path d="M713.27 167.72q-12 19.91-47.29 39.77-44 25.27-89.18 25.26-33.6 0-48.13-22.39-10.36-15.35-9.95-36.5.4-33.59 29.87-63.87 32.35-33.17 76.32-33.18 40.67 0 43.15 33.1 1.65 21.09-23.23 43.45-26.57 24.42-66.79 31 7.46 10.35 22.4 10.34 29.85 0 65.13-15.19 25.29-10.66 39.82-22.17zm-94.16-43.31q.39-11.13-9.12-11.14-12.43 0-25.26 17.13t-13.25 32.8c-.16 0-.16 1.8 0 5.37a93.34 93.34 0 0 0 35.2-22.69q12-13.2 12.43-21.47z"/><path d="M825.88 139.92q-1.68 38.1-28.21 65.86t-66 27.74q-32.76 0-49.77-21.12-12.44-15.74-13.69-39.34-2.09-35.62 25.73-65.45 29.85-33.14 75.07-33.13 29 0 44 19.47 14.11 17.82 12.87 45.97zM779 138.35a52.23 52.23 0 0 0-3.11-20.57q-3.54-9.34-10.16-9.36-21.16 0-34.84 22.87a80.21 80.21 0 0 0-12.45 39.89 35.63 35.63 0 0 0 3.73 18.29q4.55 9.15 12.86 9.14 18.66 0 32-22A78.65 78.65 0 0 0 779 138.35z"/></symbol><symbol id="kayla-obritsch-2" viewBox="0 0 248.3 133"><path d="M43.6 36.5H27v16.6l16.6-16.6zm51.1 11.4c0-4.1-.1-10.8-5.9-10.8-4.4 0-6.5 3.5-6.5 6.7-.1 2 1 3.9 2.8 4.8-.2 4.5-3.5 6.7-7.1 6.7-3.8 0-7.4-2.3-7.4-7.4 0-9.7 13.4-11 20-11 9.9 0 19 2.9 19 12.1v21c0 7 3.2 6.9 7.3 3.4l.1.2c-3.7 3.1-8.2 6-13.9 6-5.2 0-7.9-4.5-8.2-10-.5 4.8-6.8 10-15 10C73 79.6 68 76 68 69.2c0-12.5 17.5-9.3 26.8-17.3v-4h-.1zm0 4.3c-5.1 4.6-9.8 3.5-9.8 14.7 0 3.5.6 8.5 4.6 8.5 3.7 0 5.3-4.8 5.3-7l-.1-16.2zM186.1 0v78.7h7.8v.3h-32.2v-.3h7.8V16.6L186.1 0z"/><path d="M24.4 0v78.7h4.8v.3H0v-.3h7.8V16.6L24.4 0zM226 47.9c0-4.1-.1-10.8-5.9-10.8-4.4 0-6.5 3.5-6.5 6.7-.1 2 1 3.9 2.8 4.8-.2 4.5-3.5 6.7-7.1 6.7-3.8 0-7.4-2.3-7.4-7.4 0-9.7 13.4-11 20-11 9.9 0 19 2.9 19 12.1v21c0 7 3.2 6.9 7.3 3.4l.1.2c-3.7 3.1-8.2 6-13.9 6-5.2 0-7.9-4.5-8.2-10-.5 4.8-6.8 10-15 10-6.9 0-11.9-3.6-11.9-10.4 0-12.5 17.5-9.3 26.8-17.3v-4h-.1zm0 4.3c-5.1 4.6-9.8 3.5-9.8 14.7 0 3.5.6 8.5 4.6 8.5 3.7 0 5.3-4.8 5.3-7V52.2h-.1z"/><path d="M57.3 66.3c-3.5-8.8-9.1-25-30.3-14.2v1c8.3-3.9 9.7 8.6 11.4 14.2 3.2 10.6 4.7 12.4 16 12.4 4.6 0 8.3-.4 12.8-.6v-.3c-4.5.1-5.4-1-9.9-12.5zm-36.5 37.2c8.9 0 15.8 6.2 15.8 14.7s-6.9 14.7-15.8 14.7S5 126.7 5 118.2s6.9-14.7 15.8-14.7zm0 29.3c4.9 0 5-5.9 5-14.5s-.1-14.5-5-14.5-5 5.9-5 14.5.1 14.5 5 14.5zm30.7-43.3l-.2 20.5c.9-3.9 4.4-6.6 8.4-6.5 6.6 0 11.1 5.1 11.1 13 0 8.7-6.2 16.4-15.7 16.4-3.6 0-6.4-2.6-9.9-2.6-2.3 0-3.2 1.4-4 2.6V99.6l10.3-10.1zm-.1 37.4c0 3.5.6 5.8 3.8 5.8 3.8 0 5-4.5 5-14.6 0-6.8-.1-13.1-4.2-13.1-2.5 0-4.1 3.5-4.5 5.4l-.1 16.5zm36.3-23.4l-.2 7.4c1.1-3.6 3.4-7.4 8.5-7.4 4 0 7.9 2.3 7.9 6.8 0 3.2-2.4 6.4-5.9 6.4-2.5.2-4.6-1.7-4.8-4.2v-.4c1.9-.4 2.7-2.3 2.7-4 0-1.3-.8-3.4-2.7-3.4-2.8 0-4.6 3.5-5.6 6.6v21h5.8v.2H72.7v-.2h4.7v-18.7l10.3-10.1zm32.6 0v28.8h4.7v.2h-19.6v-.2h4.7v-18.8l10.2-10zm5.3.4h1.1c4.5 0 8-.7 10.3-2.6 1.7-2.4 2.7-5.3 2.6-8.3h.2v10.9h6v.2h-6v19.8c0 2.1.2 5.9 3.2 5.9 1.5 0 2.8-1.1 4-2l.1.1c-3 2.6-6.8 5-11.4 5-3.8 0-5.9-3.4-5.9-7.7v-21.1h-4.1v-.2h-.1zm22.6 17.3h.1c1.2 8.9 8.3 11.5 13.3 11.5 3.8 0 6.5-1.5 6.5-3.8 0-6.4-19.9-5.3-19.9-16.3 0-6.7 7.7-9.1 13.3-9.1 4 0 6.7 1.2 8.1 1.2.9 0 1.7-.4 2.2-1.1l.5 9.6h-.1c-.7-6.7-6.3-9.5-10.8-9.5-3.8 0-6 2-6 4 0 6.2 19.6 4.5 19.6 15.3 0 5.8-5.7 9.8-13.7 9.8-5.1 0-8.8-1.6-10.4-1.6-.9.1-1.7.6-2.1 1.5l-.6-11.5zm45.6-17.7c4.8 0 12 1.6 12 7.6.1 2.7-2 5-4.8 5.1h-.3c-2.5.2-4.6-1.7-4.8-4.2v-.4c1.2-.6 2-1.9 1.9-3.3 0-2.3-1.5-4.6-4.1-4.6-4.4 0-5.1 6.2-5.1 10.9 0 10 4.2 14.2 8.8 14.2 3.5 0 6.8-2 9-6.5l.2.1c-2.7 5.8-7.4 10.6-14.8 10.6-7.8 0-14-5.6-14-14.2-.1-9.1 6.5-15.3 16-15.3zm29-14l-.2 21.7c1-4.6 5.1-7.8 9.8-7.6 4.8 0 8.6 2.7 8.6 8v20.8h4.7v.2h-17.8v-.2h2.9v-21.5c0-2.1-.1-5.4-2.9-5.4-3 0-5.3 4.1-5.3 7.3v19.6h3v.2h-17.8v-.2h4.7V99.7l10.3-10.2zM147 38v.3h8.9l-11.7 24.1-9.8-21.4-12.6 12.5 13.5 27.6c-4.6 10.6-9.4 16.2-13.1 16.2-1.4.1-2.6-.7-3.2-1.9.5-.9.8-1.9.8-3 0-3.2-2.5-5.8-5.7-5.8h-.2c-3.2 0-5.9 2.6-5.9 5.8v.7c.2 2.1 1.6 6.3 8.8 6.3 10.5 0 15-10.1 18.6-17.7L156 38.4h7.3v-.3H147V38z"/></symbol></svg>