<svg xmlns="http://www.w3.org/2000/svg"><symbol id="triangle-pattern" viewBox="0 0 2500 1407"><defs><style>.cls-1{fill:none}.cls-2{fill:#010101}.cls-3{fill:url(#New_Pattern)}</style><pattern id="New_Pattern" width="1200" height="1200" patternUnits="userSpaceOnUse" viewBox="0 0 1200 1200"><path d="M0 0h1200v1200H0z" class="cls-1"/><path d="M196.39 0h7.22l89.61 59.52L325.47 0H330l-33.43 61.74 103.79 68.95 66.56-44.38L353.42 0H360l45 34.18L438.33 0h5.59l-35.74 36.62 61.53 46.79-1.62 2.12 35.44-23.62L470 0h4.55l32.34 59.69L596.39 0h7.22l89.61 59.52L725.47 0H730l-33.43 61.74 103.79 68.95 66.56-44.38L753.42 0H760l45 34.18L838.33 0h5.59l-35.74 36.62 61.53 46.79-1.62 2.12 35.44-23.62L870 0h4.55l32.34 59.68L996.39 0h7.22l89.61 59.52L1125.47 0h4.53l-33.45 61.74L1200 130.45v5.65l-73.92 49.42L1200 296.39v174.47l-61.22 113L1200 630.4v5l-63.15-48-40.28 74.34L1200 730.45v5.65l-73.92 49.42L1200 896.39v174.48l-61.22 113L1160 1200h-6.61l-16.57-12.6-6.82 12.6h-4.55l68.93-127.2-190.77 127.2h-7.22L805.6 1072.8l68.93 127.2H870l-9.31-17.17-16.77 17.17h-5.59l19.91-20.4 1.45 1.43L800 1070.87l-61.22 113L760 1200h-6.61l-16.57-12.6L730 1200h-4.55l68.93-127.2L603.61 1200h-7.22L405.6 1072.8l68.93 127.2H470l-9.31-17.17-16.77 17.17h-5.59l19.91-20.4 1.46 1.43-59.7-110.17-61.22 113L360 1200h-6.61l-16.57-12.6L330 1200h-4.55l68.93-127.2L203.61 1200h-7.22L5.6 1072.8 74.53 1200H70l-9.31-17.17L43.92 1200h-5.59l19.91-20.4 1.46 1.4L0 1070.86V896.39l74.46-111.68-73.82-49-.64.39v-5.65l.36.24 66.56-44.38L0 635.42v-5l5 3.78 53.24-54.6 1.46 1.4L0 470.86V296.39l74.46-111.68-73.82-49-.64.39v-5.65l.36.24 66.56-44.38L0 35.42v-5l5 3.78L38.33 0h5.59L8.18 36.62l61.53 46.79-1.62 2.12 35.44-23.62L70 0h4.55l32.34 59.69L196.39 0zM76.68 181.38L192.77 7.24 4.24 133.27zM3.61 300l89.61 59.52L194.4 172.8zM198 165.6v-69L14.11 288.19zM403.61 300l89.61 59.52L594.4 172.8zM598 165.6v-69L414.11 288.19zM803.61 300l89.61 59.52L994.4 172.8zM998 165.6v-69L814.11 288.19zM396.39 900L205.6 772.8l101.27 186.88L396.39 900zm-196 130.69l66.56-44.38-130.1-98.91-40.28 74.34zM7.21 907.21l116.65 175 72.81-48.67zm118.87-421.7L200 596.39l74.46-111.68-73.82-49zm70.59-52L7.21 307.21l116.65 175zm80 47.86l116.1-174.13-188.53 126zM398 465.6v-69L214.11 588.19zM203.61 600l89.61 59.52L394.4 472.8zM200 770.86l-61.22 113L205 934.18l53.27-54.58 1.43 1.4zm69.71 212.55l-1.62 2.12 35.43-23.62-42.85-79.08-52.49 53.79zm-65.47 49.86l72.44 48.11 116.09-174.14zm181.65-145.08L202 696.64v69zm-.06-5.84L202 606.61v84.25zm-62-100.16l72.81-48.67-189.43-126.31zm76.5-51.5l66.56-44.38-130.04-98.91-40.28 74.34zm125.75-245.17L600 596.39l74.46-111.68-73.82-49zm70.59-52L407.21 307.21l116.65 175zm80 47.86l116.1-174.14-188.53 126zM798 465.6v-69L614.11 588.19zM603.61 600l89.61 59.52L794.4 472.8zm66.1 383.41l-1.62 2.12 35.43-23.62-42.85-79.08-52.49 53.79zM659.69 881L600 770.87l-61.22 113L605 934.18l53.27-54.58zm-63.3-281L405.6 472.8l101.27 186.88L596.39 600zm-135.72-17.17l-52.49 53.79 61.53 46.79-1.62 2.12 35.44-23.62zm-56.43 150.44l72.44 48.11 116.09-174.14zm9.93 149.08L598 690.86v-84.25zm-.06 5.84L598 765.6v-69zM403.61 900l89.61 59.52L594.4 772.8zm120.25 182.19l72.81-48.67-189.46-126.31zM402 906.61v84.25l183.83 191.49zm198.36 124.08l66.56-44.38-130.07-98.91-40.28 74.34zm3.88 2.58l72.44 48.11 116.09-174.14zM796.39 900L605.6 772.8l101.27 186.88zm-10.5-11.81L602 696.64v69zm-.06-5.83L602 606.61v84.25zm-62-100.17l72.81-48.67-189.43-126.31zm76.5-51.5l66.56-44.38-130.04-98.91-40.28 74.34zm60.31-147.86l-52.49 53.79 61.53 46.79-1.62 2.12 35.43-23.62zm46.2 76.85L996.39 600 805.6 472.8zm-102.6 73.59l72.44 48.11 116.09-174.14zm9.93 149.09L998 690.86v-84.25zm-.06 5.83L998 765.6v-69zM803.61 900l89.61 59.52L994.4 772.8zm120.25 182.19l72.81-48.67-189.46-126.31zM802 906.61v84.25l183.83 191.5zm198.36 124.08l66.56-44.38-130.07-98.91-40.28 74.34zm3.88 2.58l72.44 48.11 116.09-174.14zm99.28-71.36l-42.85-79.08-52.49 53.79 61.53 46.79-1.62 2.12zM1059.69 881L1000 770.87l-61.22 113 66.22 50.31 53.27-54.58zm14.77-396.32l-73.82-49-74.56 49.84L1000 596.39zm-77.79-51.19L807.21 307.21l116.65 175zm80 47.86l116.09-174.14-188.53 126zm26.85-119.47l-42.86-79.08-52.49 53.79 61.53 46.79-1.62 2.12zM936.85 287.4l-40.28 74.34 103.79 68.95 66.56-44.38zM802 306.61v84.25l183.83 191.5zm0 90v69l183.89 122.58zm-2 74.22l-61.22 113L805 634.18l53.27-54.58 1.45 1.43zm-2-164.25L614.17 582.35 798 390.86zm-1.61-6.58L605.6 172.8l101.27 186.88zm-135.72-17.17l-52.49 53.79 61.53 46.79-1.62 2.12 35.44-23.62zm-123.82 4.57l-40.28 74.34 103.79 68.95 66.56-44.38zM402 306.61v84.25l183.83 191.49zm0 90v69l183.89 122.58zm-2 74.22l-61.22 113L405 634.18l53.27-54.58 1.43 1.4zm-2-164.25L214.17 582.35 398 390.86zm-1.61-6.58L205.6 172.8l101.27 186.88L396.39 300zm-135.72-17.17l-52.49 53.79 61.53 46.79-1.62 2.12 35.44-23.62zm-123.82 4.57l-40.28 74.34 103.79 68.95 66.56-44.38zM2 390.86l183.83 191.49L2 306.61zm0 74.74l183.89 122.59L2 396.64zm104.87 194.08L196.39 600 5.6 472.8zm-37.16 23.73l-1.62 2.12 35.44-23.62-42.86-79.08-52.49 53.79zm7 98l116.06-174.17L4.24 733.27zm-62.51 101L198 690.86v-84.25zm-.06 5.84L198 765.6v-69zM3.61 900l89.61 59.52L194.4 772.8zM2 990.86l183.83 191.49L2 906.61zm183.89 197.33L2 996.64v69zm88.57-103.48l-73.82-49-74.56 49.84L200 1196.39zM398 996.64l-183.89 191.55L398 1065.6zm0-90l-183.83 275.71L398 990.86zm2-10.22l74.46-111.68-73.82-49-74.56 49.84zm185.89 291.8L402 996.64v69zm88.57-103.48l-73.82-49-74.56 49.84L600 1196.39zM798 996.64l-183.89 191.55L798 1065.6zm0-90l-183.83 275.71L798 990.86zm76.46-121.9l-73.82-49-74.56 49.84L800 896.39zm111.43 403.48L802 996.64v69zm88.57-103.48l-73.82-49-74.56 49.84 73.92 110.81zm123.54-88.1l-183.89 191.55L1198 1065.6zm0-90l-183.83 275.75L1198 990.86zm-1.61-6.61L1005.6 772.8l101.27 186.88zm-10.5-11.81L1002 696.64v69zM1002 606.6v84.26l183.83 191.5zm5.21.61l116.65 175 72.81-48.67zM1194.4 472.8L1003.61 600l89.61 59.52zm3.6-76.16l-183.89 191.55L1198 465.6zm0-90l-183.83 275.72L1198 390.86zm-1.61-6.61L1005.6 172.8l101.27 186.88zM1007.21 7.21l116.65 175 72.81-48.67zM1002 90.86l183.83 191.5L1002 6.6zm0 74.74l183.89 122.59L1002 96.64zm-2 5.26l-61.22 113 66.22 50.32 53.27-54.58 1.46 1.43zm-185.83 111.5L998 90.86V6.61zm-9.93-149.09l72.44 48.11L992.77 7.24zm-78.16 52.25L800 296.39l74.46-111.68-73.82-49zM607.21 7.21l116.65 175 72.81-48.67zM602 90.86l183.83 191.5L602 6.61zm0 74.74l183.89 122.59L602 96.64zm-2 5.26l-61.22 113L605 334.18l53.27-54.58 1.43 1.4zM414.17 282.35L598 90.86V6.61zm-9.93-149.08l72.44 48.11L592.77 7.24zm-78.16 52.24L400 296.39l74.46-111.68-73.82-49zM207.21 7.21l116.65 175 72.81-48.67zM202 90.86l183.83 191.49L202 6.61zm0 74.74l183.89 122.59L202 96.64zm-2 5.26l-61.22 113L205 334.18l53.27-54.58 1.43 1.4zM198 6.61L14.17 282.35 198 90.86zM1200 30.4L1160.03 0h-6.61L1200 35.42V30.4z" class="cls-2"/></pattern></defs><path d="M0 0h2500v1407H0z" class="cls-3"/></symbol><symbol id="behance-logo" viewBox="0 0 56 56"><style>.st0{fill:#010101}</style><path id="Behance" d="M50.2 15.7H36.4v-3.4h13.8v3.4zm-23 14.1c.9 1.5 1.4 3.3 1.3 5.1 0 1.9-.5 3.8-1.5 5.5-.6 1-1.5 2-2.4 2.7-1.1.9-2.5 1.5-3.9 1.7-1.6.3-3.2.5-4.9.5H.4V10.8H17c4.2.1 7.2 1.3 8.9 3.7 1.1 1.5 1.6 3.4 1.6 5.2.1 1.8-.5 3.6-1.6 5.1-.7.8-1.6 1.5-2.6 2 1.5.5 2.9 1.5 3.9 3zM8.3 24.4h7.3c1.3.1 2.5-.2 3.6-.9 1-.7 1.5-1.8 1.4-3 .2-1.3-.6-2.6-1.8-3.2-1.3-.4-2.7-.6-4.1-.5H8.3v7.6zm13 9.9c.1-1.6-.7-3-2.2-3.7-1.1-.4-2.2-.6-3.4-.6H8.3v9.2h7.3c1.2.1 2.4-.1 3.5-.6 1.5-.8 2.4-2.5 2.2-4.3zm34.1-5.6c.2 1.6.3 3.3.2 4.9h-18c.1 2.5 1 4.2 2.6 5.2 1.1.6 2.3 1 3.5.9 2.1.2 4-1 4.9-2.8h6.6c-.3 1.7-1.1 3.3-2.4 4.4-2.2 2.4-5.3 3.6-9.3 3.6-3.2 0-6.2-1-8.7-3-2.5-2-3.7-5.3-3.8-9.9 0-4.3 1.1-7.5 3.4-9.8 2.3-2.3 5.5-3.5 8.8-3.4 2 0 4 .4 5.8 1.1 1.7.8 3.2 2 4.3 3.6 1.2 1.6 1.8 3.4 2.1 5.2zm-6.5.7c0-1.5-.6-2.9-1.7-3.9-1.1-.9-2.4-1.4-3.8-1.3-1.4-.1-2.8.4-3.8 1.4-1 1.1-1.6 2.4-1.7 3.8h11z" class="st0"/></symbol><symbol id="github-logo" viewBox="0 0 256 256"><defs><style>.cls-1{fill:#0f0d0e}</style></defs><path d="M49.31 123H27.79a1 1 0 0 0-1 1v10.52a1 1 0 0 0 1 1h8.4v13.06s-1.89.65-7.1.65c-6.14 0-14.73-2.25-14.73-21.13s8.94-21.37 17.33-21.37a33.9 33.9 0 0 1 12.39 1.9 1 1 0 0 0 1.21-1l2.4-10.16a.94.94 0 0 0-.39-.79c-.81-.57-5.74-3.34-18.21-3.34C14.73 93.38 0 99.49 0 128.87s16.87 33.75 31.08 33.75c11.77 0 18.91-5 18.91-5a.89.89 0 0 0 .32-.77V124a1 1 0 0 0-1-1zm110.86-26.1a1 1 0 0 0-1-1h-12.11a1 1 0 0 0-1 1v23.41h-18.88V96.9a1 1 0 0 0-1-1h-12.11a1 1 0 0 0-1 1v63.39a1 1 0 0 0 1 1h12.11a1 1 0 0 0 1-1v-27.11h18.88v27.11a1 1 0 0 0 1 1h12.14a1 1 0 0 0 1-1zm-88.01 8.32a7.81 7.81 0 1 0-7.81 7.89 7.84 7.84 0 0 0 7.81-7.89zm-.86 41.7v-29.26a1 1 0 0 0-1-1H58.22a1.16 1.16 0 0 0-1 1.13v41.91c0 1.23.77 1.6 1.76 1.6h10.83c1.2 0 1.49-.58 1.49-1.62zm134.91-30.18h-12a1 1 0 0 0-1 1v31.08a13.63 13.63 0 0 1-7.39 2.23c-4.34 0-5.49-2-5.49-6.21v-27.1a1 1 0 0 0-1-1h-12.2a1 1 0 0 0-1 1v29.15c0 12.61 7 15.69 16.69 15.69a28.16 28.16 0 0 0 14.32-4.38 24.83 24.83 0 0 0 .45 2.58 1 1 0 0 0 .88.55h7.76a1 1 0 0 0 1-1v-42.57a1 1 0 0 0-1.02-1.02zm32.85-1.42a22.56 22.56 0 0 0-11.47 3.05V96.9a1 1 0 0 0-1-1h-12.15a1 1 0 0 0-1 1v63.39a1 1 0 0 0 1 1h8.43a1 1 0 0 0 .88-.54 19.59 19.59 0 0 0 .51-2.92s5 4.71 14.37 4.71c11 0 17.37-5.6 17.37-25.14s-10.11-22.08-16.94-22.08zM234.32 151a14.46 14.46 0 0 1-7-2v-20.06a16 16 0 0 1 6.21-2c4.33-.39 8.5.92 8.5 11.24-.03 10.88-1.88 13.03-7.71 12.82zm-128.21-34.36H97v-12c0-.45-.23-.68-.76-.68H83.87c-.48 0-.74.21-.74.67V117s-6.21 1.49-6.63 1.62a1 1 0 0 0-.72 1v7.8a1 1 0 0 0 1 1h6.35v18.75c0 13.93 9.77 15.3 16.36 15.3a27.56 27.56 0 0 0 7.21-1.19.93.93 0 0 0 .57-.91v-8.57a1 1 0 0 0-1-1c-.53 0-1.89.21-3.28.21-4.46 0-6-2.07-6-4.76v-17.82h9.09a1 1 0 0 0 1-1v-9.77a1 1 0 0 0-.97-1.02z" class="cls-1"/></symbol><symbol id="instagram-logo" viewBox="0 0 56 56"><path d="M27.9 5c7.4 0 8.3 0 11.3.2 1.8 0 3.5.3 5.2 1 2.4 1 4.3 2.9 5.2 5.3.6 1.7.9 3.4 1 5.2.1 2.9.2 3.8.2 11.3s0 8.3-.2 11.3c0 1.8-.3 3.5-1 5.2-.9 2.4-2.8 4.3-5.2 5.2-1.7.6-3.4.9-5.2 1-2.9.1-3.8.2-11.3.2s-8.3 0-11.3-.2c-1.8 0-3.5-.3-5.2-1-2.4-.9-4.3-2.8-5.2-5.2-.6-1.7-.9-3.4-1-5.2C5.1 36.4 5 35.5 5 28s0-8.3.2-11.3c0-1.8.3-3.5 1-5.2.9-2.4 2.8-4.3 5.2-5.2 1.7-.6 3.4-.9 5.2-1 2.9-.2 3.9-.2 11.3-.3m0-5c-7.6 0-8.5 0-11.6.2-2.3 0-4.6.5-6.8 1.3-3.7 1.4-6.7 4.4-8.1 8.2C.6 11.8.2 14.1.2 16.4 0 19.3 0 20.3 0 27.9s0 8.5.2 11.6c0 2.3.5 4.6 1.3 6.8C2.9 50 5.9 53 9.6 54.5c2.2.8 4.5 1.3 6.8 1.3 3 .1 3.9.2 11.6.2s8.5 0 11.6-.2c2.3 0 4.6-.5 6.8-1.3 3.8-1.5 6.7-4.4 8.2-8.2.8-2.2 1.3-4.5 1.3-6.8.1-3 .2-3.9.2-11.6s0-8.5-.2-11.6c0-2.3-.5-4.6-1.3-6.8-1.5-3.8-4.4-6.7-8.2-8.2C44.2.5 41.9.1 39.5.1c-3-.1-3.9-.1-11.6-.1z"/><path d="M27.9 13.6c-7.9 0-14.3 6.4-14.3 14.3S20 42.3 27.9 42.3 42.2 35.9 42.2 28c.1-8-6.4-14.4-14.3-14.4zm0 23.6c-5.1 0-9.3-4.2-9.3-9.3 0-5.1 4.2-9.3 9.3-9.3 5.1 0 9.3 4.2 9.3 9.3 0 5.2-4.1 9.3-9.3 9.3z"/><circle cx="42.8" cy="13" r="3.4"/></symbol><symbol id="kayla-obritsch-logo" viewBox="0 0 256 256"><style>.st0{fill:#ca838f}</style><path d="M167.5 184.5h74.2V204h-74.2zm-42-118.9H82.8v50.5zM3.8 11.4H42v242.7H3.8z" class="st0"/><path d="M82.8 115.9L55 143.3l42.6 110.8h39.3zm121.8-114c-29.3 0-47.6 18.9-47.6 49.2v71.1c0 30.4 18.2 49.2 47.6 49.2s47.6-18.9 47.6-49.2V51.1c0-30.4-18.3-49.2-47.6-49.2zm17.9 122c0 9.8-8 17.8-17.9 17.8-9.9 0-17.9-8-17.9-17.8V49.4c0-9.8 8-17.8 17.9-17.8 9.9 0 17.9 8 17.9 17.8v74.5z" class="st0"/></symbol></svg>