<svg xmlns="http://www.w3.org/2000/svg"><symbol id="behance-logo" viewBox="0 0 56 56"><style>.st0{fill:#010101}</style><path id="Behance" d="M50.2 15.7H36.4v-3.4h13.8v3.4zm-23 14.1c.9 1.5 1.4 3.3 1.3 5.1 0 1.9-.5 3.8-1.5 5.5-.6 1-1.5 2-2.4 2.7-1.1.9-2.5 1.5-3.9 1.7-1.6.3-3.2.5-4.9.5H.4V10.8H17c4.2.1 7.2 1.3 8.9 3.7 1.1 1.5 1.6 3.4 1.6 5.2.1 1.8-.5 3.6-1.6 5.1-.7.8-1.6 1.5-2.6 2 1.5.5 2.9 1.5 3.9 3zM8.3 24.4h7.3c1.3.1 2.5-.2 3.6-.9 1-.7 1.5-1.8 1.4-3 .2-1.3-.6-2.6-1.8-3.2-1.3-.4-2.7-.6-4.1-.5H8.3v7.6zm13 9.9c.1-1.6-.7-3-2.2-3.7-1.1-.4-2.2-.6-3.4-.6H8.3v9.2h7.3c1.2.1 2.4-.1 3.5-.6 1.5-.8 2.4-2.5 2.2-4.3zm34.1-5.6c.2 1.6.3 3.3.2 4.9h-18c.1 2.5 1 4.2 2.6 5.2 1.1.6 2.3 1 3.5.9 2.1.2 4-1 4.9-2.8h6.6c-.3 1.7-1.1 3.3-2.4 4.4-2.2 2.4-5.3 3.6-9.3 3.6-3.2 0-6.2-1-8.7-3-2.5-2-3.7-5.3-3.8-9.9 0-4.3 1.1-7.5 3.4-9.8 2.3-2.3 5.5-3.5 8.8-3.4 2 0 4 .4 5.8 1.1 1.7.8 3.2 2 4.3 3.6 1.2 1.6 1.8 3.4 2.1 5.2zm-6.5.7c0-1.5-.6-2.9-1.7-3.9-1.1-.9-2.4-1.4-3.8-1.3-1.4-.1-2.8.4-3.8 1.4-1 1.1-1.6 2.4-1.7 3.8h11z" class="st0"/></symbol><symbol id="instagram-logo" viewBox="0 0 56 56"><path d="M27.9 5c7.4 0 8.3 0 11.3.2 1.8 0 3.5.3 5.2 1 2.4 1 4.3 2.9 5.2 5.3.6 1.7.9 3.4 1 5.2.1 2.9.2 3.8.2 11.3s0 8.3-.2 11.3c0 1.8-.3 3.5-1 5.2-.9 2.4-2.8 4.3-5.2 5.2-1.7.6-3.4.9-5.2 1-2.9.1-3.8.2-11.3.2s-8.3 0-11.3-.2c-1.8 0-3.5-.3-5.2-1-2.4-.9-4.3-2.8-5.2-5.2-.6-1.7-.9-3.4-1-5.2C5.1 36.4 5 35.5 5 28s0-8.3.2-11.3c0-1.8.3-3.5 1-5.2.9-2.4 2.8-4.3 5.2-5.2 1.7-.6 3.4-.9 5.2-1 2.9-.2 3.9-.2 11.3-.3m0-5c-7.6 0-8.5 0-11.6.2-2.3 0-4.6.5-6.8 1.3-3.7 1.4-6.7 4.4-8.1 8.2C.6 11.8.2 14.1.2 16.4 0 19.3 0 20.3 0 27.9s0 8.5.2 11.6c0 2.3.5 4.6 1.3 6.8C2.9 50 5.9 53 9.6 54.5c2.2.8 4.5 1.3 6.8 1.3 3 .1 3.9.2 11.6.2s8.5 0 11.6-.2c2.3 0 4.6-.5 6.8-1.3 3.8-1.5 6.7-4.4 8.2-8.2.8-2.2 1.3-4.5 1.3-6.8.1-3 .2-3.9.2-11.6s0-8.5-.2-11.6c0-2.3-.5-4.6-1.3-6.8-1.5-3.8-4.4-6.7-8.2-8.2C44.2.5 41.9.1 39.5.1c-3-.1-3.9-.1-11.6-.1z"/><path d="M27.9 13.6c-7.9 0-14.3 6.4-14.3 14.3S20 42.3 27.9 42.3 42.2 35.9 42.2 28c.1-8-6.4-14.4-14.3-14.4zm0 23.6c-5.1 0-9.3-4.2-9.3-9.3 0-5.1 4.2-9.3 9.3-9.3 5.1 0 9.3 4.2 9.3 9.3 0 5.2-4.1 9.3-9.3 9.3z"/><circle cx="42.8" cy="13" r="3.4"/></symbol><symbol id="github-logo" viewBox="0 0 256 256"><defs><style>.cls-1{fill:#0f0d0e}</style></defs><path d="M49.31 123H27.79a1 1 0 0 0-1 1v10.52a1 1 0 0 0 1 1h8.4v13.06s-1.89.65-7.1.65c-6.14 0-14.73-2.25-14.73-21.13s8.94-21.37 17.33-21.37a33.9 33.9 0 0 1 12.39 1.9 1 1 0 0 0 1.21-1l2.4-10.16a.94.94 0 0 0-.39-.79c-.81-.57-5.74-3.34-18.21-3.34C14.73 93.38 0 99.49 0 128.87s16.87 33.75 31.08 33.75c11.77 0 18.91-5 18.91-5a.89.89 0 0 0 .32-.77V124a1 1 0 0 0-1-1zm110.86-26.1a1 1 0 0 0-1-1h-12.11a1 1 0 0 0-1 1v23.41h-18.88V96.9a1 1 0 0 0-1-1h-12.11a1 1 0 0 0-1 1v63.39a1 1 0 0 0 1 1h12.11a1 1 0 0 0 1-1v-27.11h18.88v27.11a1 1 0 0 0 1 1h12.14a1 1 0 0 0 1-1zm-88.01 8.32a7.81 7.81 0 1 0-7.81 7.89 7.84 7.84 0 0 0 7.81-7.89zm-.86 41.7v-29.26a1 1 0 0 0-1-1H58.22a1.16 1.16 0 0 0-1 1.13v41.91c0 1.23.77 1.6 1.76 1.6h10.83c1.2 0 1.49-.58 1.49-1.62zm134.91-30.18h-12a1 1 0 0 0-1 1v31.08a13.63 13.63 0 0 1-7.39 2.23c-4.34 0-5.49-2-5.49-6.21v-27.1a1 1 0 0 0-1-1h-12.2a1 1 0 0 0-1 1v29.15c0 12.61 7 15.69 16.69 15.69a28.16 28.16 0 0 0 14.32-4.38 24.83 24.83 0 0 0 .45 2.58 1 1 0 0 0 .88.55h7.76a1 1 0 0 0 1-1v-42.57a1 1 0 0 0-1.02-1.02zm32.85-1.42a22.56 22.56 0 0 0-11.47 3.05V96.9a1 1 0 0 0-1-1h-12.15a1 1 0 0 0-1 1v63.39a1 1 0 0 0 1 1h8.43a1 1 0 0 0 .88-.54 19.59 19.59 0 0 0 .51-2.92s5 4.71 14.37 4.71c11 0 17.37-5.6 17.37-25.14s-10.11-22.08-16.94-22.08zM234.32 151a14.46 14.46 0 0 1-7-2v-20.06a16 16 0 0 1 6.21-2c4.33-.39 8.5.92 8.5 11.24-.03 10.88-1.88 13.03-7.71 12.82zm-128.21-34.36H97v-12c0-.45-.23-.68-.76-.68H83.87c-.48 0-.74.21-.74.67V117s-6.21 1.49-6.63 1.62a1 1 0 0 0-.72 1v7.8a1 1 0 0 0 1 1h6.35v18.75c0 13.93 9.77 15.3 16.36 15.3a27.56 27.56 0 0 0 7.21-1.19.93.93 0 0 0 .57-.91v-8.57a1 1 0 0 0-1-1c-.53 0-1.89.21-3.28.21-4.46 0-6-2.07-6-4.76v-17.82h9.09a1 1 0 0 0 1-1v-9.77a1 1 0 0 0-.97-1.02z" class="cls-1"/></symbol><symbol id="kayla-obritsch-logo" viewBox="0 0 256 256"><path d="M167.5 184.5h74.2V204h-74.2zm-42-118.9H82.8v50.5zM3.8 11.4H42v242.7H3.8z"/><path d="M82.8 115.9L55 143.3l42.6 110.8h39.3zm121.8-114c-29.3 0-47.6 18.9-47.6 49.2v71.1c0 30.4 18.2 49.2 47.6 49.2s47.6-18.9 47.6-49.2V51.1c0-30.4-18.3-49.2-47.6-49.2zm17.9 122c-.2 9.9-8.4 17.7-18.3 17.4-9.5-.2-17.2-7.9-17.4-17.4V49.3c.2-9.9 8.4-17.7 18.3-17.4 9.5.2 17.2 7.9 17.4 17.4v74.6z"/></symbol></svg>