<svg xmlns="http://www.w3.org/2000/svg"><symbol id="kayla-obritsch-logo" viewBox="0 0 256 256"><path d="M130.3 254.9H90.9L53.4 157l-11.7 11.6v86.3H3.3V10.7h38.4v139L76 115.8m128.9 55.9c-29.5 0-47.8-19-47.8-49.5V50.6c0-30.5 18.3-49.5 47.8-49.5s47.8 19 47.8 49.5v71.5c0 30.6-18.3 49.6-47.8 49.6zm0-140.7c-9.3 0-17.9 2.4-17.9 19.6v71.5c0 17.3 8.6 19.7 17.9 19.7s17.9-2.4 17.9-19.7V50.6c0-17.2-8.6-19.6-17.9-19.6zm-37.2 153.9h74.4v19.6h-74.4z"/><path d="M127.7 64.8l-51.7.3v50.7z"/></symbol><symbol id="behance" viewBox="0 0 56 56"><style>.st0{fill:#010101}</style><path id="Behance" d="M50.2 15.7H36.4v-3.4h13.8v3.4zm-23 14.1c.9 1.5 1.4 3.3 1.3 5.1 0 1.9-.5 3.8-1.5 5.5-.6 1-1.5 2-2.4 2.7-1.1.9-2.5 1.5-3.9 1.7-1.6.3-3.2.5-4.9.5H.4V10.8H17c4.2.1 7.2 1.3 8.9 3.7 1.1 1.5 1.6 3.4 1.6 5.2.1 1.8-.5 3.6-1.6 5.1-.7.8-1.6 1.5-2.6 2 1.5.5 2.9 1.5 3.9 3zM8.3 24.4h7.3c1.3.1 2.5-.2 3.6-.9 1-.7 1.5-1.8 1.4-3 .2-1.3-.6-2.6-1.8-3.2-1.3-.4-2.7-.6-4.1-.5H8.3v7.6zm13 9.9c.1-1.6-.7-3-2.2-3.7-1.1-.4-2.2-.6-3.4-.6H8.3v9.2h7.3c1.2.1 2.4-.1 3.5-.6 1.5-.8 2.4-2.5 2.2-4.3zm34.1-5.6c.2 1.6.3 3.3.2 4.9h-18c.1 2.5 1 4.2 2.6 5.2 1.1.6 2.3 1 3.5.9 2.1.2 4-1 4.9-2.8h6.6c-.3 1.7-1.1 3.3-2.4 4.4-2.2 2.4-5.3 3.6-9.3 3.6-3.2 0-6.2-1-8.7-3-2.5-2-3.7-5.3-3.8-9.9 0-4.3 1.1-7.5 3.4-9.8 2.3-2.3 5.5-3.5 8.8-3.4 2 0 4 .4 5.8 1.1 1.7.8 3.2 2 4.3 3.6 1.2 1.6 1.8 3.4 2.1 5.2zm-6.5.7c0-1.5-.6-2.9-1.7-3.9-1.1-.9-2.4-1.4-3.8-1.3-1.4-.1-2.8.4-3.8 1.4-1 1.1-1.6 2.4-1.7 3.8h11z" class="st0"/></symbol><symbol id="instagram" viewBox="0 0 56 56"><path d="M27.9 5c7.4 0 8.3 0 11.3.2 1.8 0 3.5.3 5.2 1 2.4 1 4.3 2.9 5.2 5.3.6 1.7.9 3.4 1 5.2.1 2.9.2 3.8.2 11.3s0 8.3-.2 11.3c0 1.8-.3 3.5-1 5.2-.9 2.4-2.8 4.3-5.2 5.2-1.7.6-3.4.9-5.2 1-2.9.1-3.8.2-11.3.2s-8.3 0-11.3-.2c-1.8 0-3.5-.3-5.2-1-2.4-.9-4.3-2.8-5.2-5.2-.6-1.7-.9-3.4-1-5.2C5.1 36.4 5 35.5 5 28s0-8.3.2-11.3c0-1.8.3-3.5 1-5.2.9-2.4 2.8-4.3 5.2-5.2 1.7-.6 3.4-.9 5.2-1 2.9-.2 3.9-.2 11.3-.3m0-5c-7.6 0-8.5 0-11.6.2-2.3 0-4.6.5-6.8 1.3-3.7 1.4-6.7 4.4-8.1 8.2C.6 11.8.2 14.1.2 16.4 0 19.3 0 20.3 0 27.9s0 8.5.2 11.6c0 2.3.5 4.6 1.3 6.8C2.9 50 5.9 53 9.6 54.5c2.2.8 4.5 1.3 6.8 1.3 3 .1 3.9.2 11.6.2s8.5 0 11.6-.2c2.3 0 4.6-.5 6.8-1.3 3.8-1.5 6.7-4.4 8.2-8.2.8-2.2 1.3-4.5 1.3-6.8.1-3 .2-3.9.2-11.6s0-8.5-.2-11.6c0-2.3-.5-4.6-1.3-6.8-1.5-3.8-4.4-6.7-8.2-8.2C44.2.5 41.9.1 39.5.1c-3-.1-3.9-.1-11.6-.1z"/><path d="M27.9 13.6c-7.9 0-14.3 6.4-14.3 14.3S20 42.3 27.9 42.3 42.2 35.9 42.2 28c.1-8-6.4-14.4-14.3-14.4zm0 23.6c-5.1 0-9.3-4.2-9.3-9.3 0-5.1 4.2-9.3 9.3-9.3 5.1 0 9.3 4.2 9.3 9.3 0 5.2-4.1 9.3-9.3 9.3z"/><circle cx="42.8" cy="13" r="3.4"/></symbol></svg>