<svg id="Layer_1" data-name="Layer 1" xmlns="http://www.w3.org/2000/svg" viewBox="0 0 256 100"><defs><style>.cls-1{fill:#f0aa79;}.cls-2{fill:#1d3b6d;}.cls-3{fill:#cbcaca;}.cls-4{fill:#595959;}.cls-5{fill:#fff;}.cls-6,.cls-7,.cls-8{fill:none;stroke-linecap:round;stroke-miterlimit:10;}.cls-6,.cls-8{stroke:#1d3b6d;}.cls-6{stroke-width:0.78px;}.cls-7{stroke:#fff;stroke-width:0.59px;}.cls-8{stroke-width:1.56px;}.cls-9{fill:#f1729c;}</style></defs><title>loyal-rescue-icon</title><path id="roof" class="cls-1" d="M255.43,45,239,33.44a1.44,1.44,0,0,0-1.48-.11l-12.84,6.24V37.08a.52.52,0,0,0-.53-.52h-3.22a.52.52,0,0,0-.53.52v4.55l-6.65,3.22a1.43,1.43,0,0,0,.63,2.75l.64-.16,23-11.15,15.74,11A1.44,1.44,0,1,0,255.38,45h0Z"/><circle id="smoke-3" class="cls-2" cx="220.78" cy="33.18" r="1.69"/><circle id="smoke-2" class="cls-2" cx="223.79" cy="30.75" r="1.37"/><circle id="smoke-1" class="cls-2" cx="221.3" cy="27.26" r="1.11"/><path id="house-2" class="cls-2" d="M238,39.46l-20.39,9.88v21A3.43,3.43,0,0,0,221,73.8h3.06V62.55a5.89,5.89,0,1,1,11.78,0v11.3h12a3.44,3.44,0,0,0,3.44-3.43V48.81Zm7.34,11.46c-.42,2.22-2.69,3.75-4.49,5.18-1.8-1.43-4.07-3-4.39-5.28s.59-2.7,2.06-2.91h.32a2.72,2.72,0,0,1,2,1.27.16.16,0,0,0,.16.16.16.16,0,0,0,.15-.16,2.71,2.71,0,0,1,2-1.27h.32C244.81,48.23,245.6,49,245.34,50.92Z"/><g id="airplane"><g id="plane"><path id="body" class="cls-2" d="M116.41,50.15,128,61.77a1.16,1.16,0,0,0,1.64,0,1.33,1.33,0,0,0,.21-.26l19.8-33.65a1.16,1.16,0,0,0-.37-1.6,1.12,1.12,0,0,0-.89-.14l-43.27,11a1.17,1.17,0,0,0-.84,1.41,1.15,1.15,0,0,0,.32.54l6.49,6.5,27.31-12.41Z"/><polygon id="wing" class="cls-3" points="111.12 58.76 116.41 50.15 138.43 33.25 111.12 45.66 111.12 58.76"/><polygon id="shadow" class="cls-4" points="121.64 55.38 111.12 58.76 116.41 50.15 121.64 55.38"/><ellipse id="ground" class="cls-3" cx="118.94" cy="71.01" rx="12.94" ry="2.85"/></g></g><g id="pug"><g id="face"><rect class="cls-3" x="5.19" y="38.17" width="34.28" height="31" rx="3.49" ry="3.49"/><rect class="cls-2" x="13.01" y="66.22" width="18.65" height="4.15" rx="1.21" ry="1.21"/><circle class="cls-1" cx="22.31" cy="71.82" r="2.27"/><path class="cls-2" d="M8.63,38.17A3.43,3.43,0,0,0,5.19,41.6h0v8.24L15.87,38.17Z"/><path class="cls-2" d="M36,38.17a3.42,3.42,0,0,1,3.43,3.43h0v8.24L28.75,38.17Z"/><circle class="cls-2" cx="13.96" cy="49.79" r="2.85"/><circle class="cls-2" cx="30.71" cy="49.79" r="2.85"/><path class="cls-5" d="M15.65,49.47c-.26.48-.42-.21-.89-.47s-1.17,0-.9-.48a1,1,0,0,1,1.37-.42,1,1,0,0,1,.42,1.37Z"/><path class="cls-5" d="M32.56,49.47c-.27.48-.43-.21-.9-.47s-1.16,0-.9-.48a1,1,0,0,1,1.8.95Z"/><path class="cls-2" d="M22.73,56.92c.32,2.22,2.43,2.75,3.7,2.8a.74.74,0,0,1,.68.79.5.5,0,0,1-.05.21,4.93,4.93,0,0,1-9.5,0,.73.73,0,0,1,.42-.95.54.54,0,0,1,.21-.05c1.27-.11,3.43-.58,3.7-2.8"/><line class="cls-6" x1="22.31" y1="41.6" x2="22.31" y2="50"/><circle class="cls-2" cx="22.31" cy="54.65" r="2.75"/><path class="cls-6" d="M25.37,40.6a3,3,0,0,1-6.07,0"/><path class="cls-7" d="M23.84,55.28a1.43,1.43,0,0,0-1.53-1.21,1.39,1.39,0,0,0-1.53,1.21"/><path class="cls-8" d="M33.35,57.45c0-4.12-4.91-7.45-11-7.45s-11,3.33-11,7.45"/><line class="cls-7" x1="22.36" y1="54.07" x2="22.36" y2="57.4"/><circle class="cls-5" cx="14.86" cy="68.22" r="0.9"/><circle class="cls-5" cx="29.65" cy="68.22" r="0.9"/><circle class="cls-5" cx="18.56" cy="68.22" r="0.9"/><circle class="cls-5" cx="22.26" cy="68.22" r="0.9"/><circle class="cls-5" cx="25.95" cy="68.22" r="0.9"/><path class="cls-9" d="M24.32,60.46v3a2,2,0,0,1-2,2h0a2,2,0,0,1-2-2h0v-3"/></g><path id="heart-2" class="cls-1" d="M4.19,29.66,4,29.77a2.13,2.13,0,0,0-.9,1.58.15.15,0,0,1-.19.11h0a2.11,2.11,0,0,0-1.8-.16l-.21.11a1.75,1.75,0,0,0-.37,2.74c.85,1.27,3.17,1.69,4.92,2,.74-1.58,1.74-3.49,1.21-5.12S5.25,29.29,4.19,29.66Z"/><path id="heart-1" class="cls-1" d="M15.87,25.91h-.22A2.12,2.12,0,0,0,14.17,27,.17.17,0,0,1,14,27a2.12,2.12,0,0,0-1.58-.9h-.21a1.74,1.74,0,0,0-1.48,2.33c.26,1.47,2.16,2.85,3.64,3.85,1.32-1.16,3.07-2.43,3.23-4.17S17,26.07,15.87,25.91Z"/></g></svg>