<?xml version="1.0" encoding="utf-8"?>
<!-- Generator: Adobe Illustrator 22.0.0, SVG Export Plug-In . SVG Version: 6.00 Build 0)  -->
<svg version="1.1" id="Layer_1" xmlns="http://www.w3.org/2000/svg" xmlns:xlink="http://www.w3.org/1999/xlink" x="0px" y="0px"
	 viewBox="0 0 792 186" style="enable-background:new 0 0 792 186;" xml:space="preserve">
<style type="text/css">
	.st0{enable-background:new    ;}
	.st1{fill:#2A121D;}
</style>
<g class="st0">
	<path class="st1" d="M24.3,41c0.4,0.5,1,1,1.7,1.2l-1.1,3.4c-1.4-0.2-2.6-0.6-3.5-1.2c-0.9-0.6-1.5-1.6-1.9-2.9
		c-1.9,2.8-4.6,4.2-8.3,4.2c-2.7,0-4.9-0.8-6.5-2.3s-2.4-3.6-2.4-6.1c0-2.9,1.1-5.2,3.2-6.8c2.1-1.6,5.1-2.4,9-2.4h4.3V26
		c0-2-0.5-3.4-1.4-4.2c-0.9-0.8-2.4-1.3-4.4-1.3c-2,0-4.5,0.5-7.5,1.5l-1.2-3.5c3.4-1.3,6.6-1.9,9.6-1.9c3.3,0,5.7,0.8,7.3,2.4
		c1.6,1.6,2.4,3.9,2.4,6.8v12.7C23.7,39.6,23.9,40.4,24.3,41z M18.8,37.6v-6.4h-3.6c-5.1,0-7.7,1.9-7.7,5.7c0,1.7,0.4,2.9,1.2,3.7
		c0.8,0.8,2,1.3,3.6,1.3C15.1,41.9,17.3,40.5,18.8,37.6z"/>
	<path class="st1" d="M53.9,20.4c1.9,2.5,2.8,6.1,2.8,10.7c0,2.9-0.4,5.4-1.3,7.6c-0.9,2.2-2.1,3.9-3.8,5.1
		c-1.7,1.2-3.6,1.8-5.8,1.8c-2.9,0-5.4-1.2-7.4-3.7l-0.5,3.1h-4.3V6l4.8-0.6v15.2c2-2.7,4.6-4.1,7.8-4.1
		C49.5,16.5,52,17.8,53.9,20.4z M49.6,39.1c1.2-1.7,1.8-4.4,1.8-8.1c0-3.8-0.6-6.5-1.7-8.1c-1.1-1.7-2.7-2.5-4.8-2.5
		c-2.5,0-4.6,1.4-6.5,4.3V38c0.7,1.2,1.6,2.1,2.7,2.7c1.1,0.7,2.2,1,3.4,1C46.7,41.7,48.4,40.8,49.6,39.1z"/>
	<path class="st1" d="M79.6,17.3c1.4,0.5,2.7,1.2,3.9,2.3l-2.3,3.1c-1-0.7-1.9-1.2-2.9-1.6c-0.9-0.3-2-0.5-3.1-0.5
		c-2.2,0-4,0.9-5.2,2.7c-1.2,1.8-1.9,4.4-1.9,8c0,3.5,0.6,6.1,1.8,7.8c1.2,1.7,3,2.5,5.3,2.5c1.1,0,2.1-0.2,3-0.5
		c0.9-0.3,1.9-0.9,3.1-1.6l2.2,3.2c-2.5,2-5.4,3.1-8.5,3.1c-3.8,0-6.7-1.3-8.9-3.8c-2.2-2.5-3.2-6-3.2-10.5c0-2.9,0.5-5.5,1.5-7.7
		c1-2.2,2.4-3.9,4.2-5.2c1.8-1.2,4-1.8,6.5-1.8C76.7,16.5,78.2,16.8,79.6,17.3z"/>
	<path class="st1" d="M110.5,6v38.9h-4.3l-0.5-3.8c-0.9,1.4-2.1,2.5-3.4,3.3c-1.4,0.8-2.9,1.2-4.6,1.2c-3.3,0-5.9-1.3-7.7-3.9
		c-1.8-2.6-2.8-6.1-2.8-10.5c0-2.8,0.4-5.4,1.3-7.6c0.9-2.2,2.1-3.9,3.8-5.2c1.6-1.2,3.6-1.9,5.8-1.9c2.8,0,5.3,1.1,7.5,3.4V5.4
		L110.5,6z M102.6,40.7c1.1-0.7,2.1-1.7,3.1-3.1V24c-0.9-1.2-1.9-2.1-2.9-2.7c-1-0.6-2.2-0.9-3.5-0.9c-2.1,0-3.8,0.9-5,2.7
		c-1.2,1.8-1.8,4.5-1.8,8c0,3.6,0.5,6.2,1.6,8c1.1,1.8,2.7,2.6,4.7,2.6C100.3,41.7,101.6,41.4,102.6,40.7z"/>
	<path class="st1" d="M141.4,32.7h-17.7c0.2,3.1,1,5.3,2.3,6.7c1.3,1.4,3.1,2.2,5.2,2.2c1.3,0,2.6-0.2,3.7-0.6
		c1.1-0.4,2.3-1,3.5-1.8l2.1,2.9c-2.9,2.3-6.2,3.5-9.7,3.5c-3.9,0-6.9-1.3-9-3.8c-2.2-2.5-3.2-6-3.2-10.4c0-2.9,0.5-5.4,1.4-7.7
		c0.9-2.2,2.3-4,4-5.2c1.7-1.3,3.8-1.9,6.1-1.9c3.7,0,6.5,1.2,8.5,3.6c2,2.4,2.9,5.8,2.9,10.1C141.5,31,141.4,31.9,141.4,32.7z
		 M136.7,28.8c0-2.7-0.5-4.8-1.6-6.3c-1.1-1.4-2.7-2.2-4.9-2.2c-4,0-6.1,2.9-6.5,8.7h13V28.8z"/>
	<path class="st1" d="M155.5,10.3c-0.6,0.6-0.9,1.7-0.9,3v3.8h6.7l-0.5,3.7h-6.2v24h-4.8v-24h-5v-3.7h5v-3.8c0-2.4,0.8-4.3,2.3-5.8
		c1.5-1.5,3.7-2.2,6.4-2.2c1.3,0,2.4,0.1,3.4,0.3c1,0.2,2.1,0.6,3.2,1.1l-1.5,3.5c-1.6-0.7-3.2-1.1-4.8-1.1
		C157.2,9.3,156.1,9.7,155.5,10.3z"/>
	<path class="st1" d="M189.2,18.4c-1.1,0.4-2.2,0.6-3.5,0.7c-1.3,0.1-2.8,0.2-4.6,0.2c3.3,1.5,4.9,3.8,4.9,7c0,2.8-0.9,5-2.8,6.8
		c-1.9,1.8-4.5,2.6-7.7,2.6c-1.3,0-2.4-0.2-3.5-0.5c-0.4,0.3-0.8,0.7-1,1.1c-0.2,0.5-0.4,1-0.4,1.4c0,1.5,1.2,2.3,3.6,2.3h4.4
		c1.9,0,3.5,0.3,5,1c1.4,0.7,2.6,1.6,3.3,2.7c0.8,1.2,1.2,2.5,1.2,3.9c0,2.7-1.1,4.8-3.3,6.2c-2.2,1.5-5.4,2.2-9.7,2.2
		c-3,0-5.3-0.3-7.1-0.9c-1.7-0.6-3-1.5-3.7-2.8s-1.1-2.8-1.1-4.7h4.4c0,1.1,0.2,2,0.6,2.7c0.4,0.6,1.2,1.1,2.3,1.5
		c1.1,0.3,2.6,0.5,4.6,0.5c2.9,0,5-0.4,6.2-1.1c1.2-0.7,1.9-1.8,1.9-3.2c0-1.3-0.5-2.3-1.5-2.9c-1-0.7-2.4-1-4.1-1h-4.4
		c-2.4,0-4.1-0.5-5.3-1.5c-1.2-1-1.8-2.3-1.8-3.8c0-0.9,0.3-1.8,0.8-2.6c0.5-0.8,1.3-1.6,2.3-2.3c-1.6-0.8-2.8-1.9-3.6-3.1
		c-0.8-1.2-1.1-2.8-1.1-4.6c0-1.9,0.5-3.5,1.4-5c0.9-1.5,2.2-2.6,3.8-3.4c1.6-0.8,3.4-1.2,5.5-1.2c2.2,0,4,0,5.5-0.2
		c1.5-0.2,2.7-0.5,3.7-0.8c1-0.3,2.1-0.8,3.6-1.4L189.2,18.4z M170.9,21.7c-1,1.1-1.5,2.6-1.5,4.5c0,1.9,0.5,3.4,1.5,4.6
		c1,1.1,2.5,1.7,4.3,1.7c1.9,0,3.3-0.6,4.3-1.7s1.5-2.7,1.5-4.7c0-4.1-2-6.2-6-6.2C173.3,20,171.9,20.6,170.9,21.7z"/>
	<path class="st1" d="M213.2,18.8c1.4,1.5,2.1,3.6,2.1,6.2v19.9h-4.8V25.7c0-2-0.4-3.4-1.1-4.2c-0.8-0.8-1.9-1.2-3.3-1.2
		c-1.4,0-2.7,0.4-3.8,1.3c-1.1,0.8-2.2,2-3.2,3.6v19.7h-4.8V6.1l4.8-0.5V21c2.2-3,4.9-4.5,8.2-4.5C209.8,16.5,211.8,17.3,213.2,18.8
		z"/>
	<path class="st1" d="M229.9,4.8c0.6,0.6,0.9,1.4,0.9,2.4c0,0.9-0.3,1.7-0.9,2.3c-0.6,0.6-1.5,0.9-2.5,0.9c-1,0-1.8-0.3-2.4-0.9
		c-0.6-0.6-0.9-1.4-0.9-2.3c0-0.9,0.3-1.7,0.9-2.4c0.6-0.6,1.4-0.9,2.4-0.9C228.5,3.9,229.3,4.2,229.9,4.8z M229.9,17.2v27.7h-4.8
		V17.2H229.9z"/>
	<path class="st1" d="M244.7,43.2c0,2.6-0.3,4.6-0.9,6.2c-0.6,1.5-1.6,2.8-2.8,3.8c-1.2,1-2.9,1.9-5.1,2.9l-1.4-3.5
		c1.4-0.6,2.4-1.3,3.2-1.9c0.7-0.6,1.3-1.5,1.7-2.6c0.4-1.1,0.6-2.6,0.6-4.6V17.2h4.8V43.2z M244.7,4.8c0.6,0.6,0.9,1.4,0.9,2.4
		c0,0.9-0.3,1.7-0.9,2.3c-0.6,0.6-1.5,0.9-2.5,0.9c-1,0-1.8-0.3-2.4-0.9c-0.6-0.6-0.9-1.4-0.9-2.3c0-0.9,0.3-1.7,0.9-2.4
		c0.6-0.6,1.4-0.9,2.4-0.9C243.3,3.9,244.1,4.2,244.7,4.8z"/>
	<path class="st1" d="M259.5,5.4v39.5h-4.8V6L259.5,5.4z M275.5,17.2l-10.2,12.3l11.4,15.5h-5.8l-11-15.2l10.2-12.6H275.5z"/>
	<path class="st1" d="M282.9,44c-1-1.1-1.6-2.6-1.6-4.5V6l4.8-0.6v33.9c0,0.8,0.1,1.3,0.4,1.7c0.3,0.4,0.7,0.5,1.3,0.5
		c0.7,0,1.3-0.1,1.8-0.3l1.3,3.4c-1.2,0.6-2.4,0.9-3.8,0.9C285.4,45.6,284,45,282.9,44z"/>
	<path class="st1" d="M330.4,18.8c1.4,1.5,2.1,3.6,2.1,6.2v19.9h-4.8V25.7c0-3.6-1.3-5.4-3.9-5.4c-1.4,0-2.5,0.4-3.5,1.2
		c-0.9,0.8-2,2-3.1,3.7v19.7h-4.8V25.7c0-3.6-1.3-5.4-3.9-5.4c-1.4,0-2.6,0.4-3.5,1.2c-0.9,0.8-1.9,2-3,3.7v19.7h-4.8V17.2h4.2
		l0.4,4.1c2.1-3.1,4.7-4.7,8-4.7c1.7,0,3.2,0.4,4.4,1.3c1.2,0.9,2.1,2.1,2.6,3.7c1.1-1.6,2.3-2.9,3.6-3.7c1.3-0.9,2.9-1.3,4.7-1.3
		C327.2,16.5,329,17.3,330.4,18.8z"/>
	<path class="st1" d="M361.2,18.8c1.4,1.5,2.1,3.6,2.1,6.2v19.9h-4.8V25.7c0-2-0.4-3.4-1.1-4.2c-0.7-0.8-1.8-1.2-3.3-1.2
		c-1.5,0-2.8,0.4-3.9,1.3c-1.1,0.8-2.2,2.1-3.2,3.6v19.7h-4.8V17.2h4.2l0.4,4.1c1-1.5,2.2-2.6,3.7-3.5c1.5-0.8,3.1-1.3,4.8-1.3
		C357.8,16.5,359.8,17.3,361.2,18.8z"/>
	<path class="st1" d="M392.6,20.4c2.2,2.6,3.2,6.1,3.2,10.6c0,2.9-0.5,5.4-1.5,7.6s-2.4,3.9-4.3,5.1c-1.9,1.2-4.1,1.8-6.6,1.8
		c-3.9,0-6.9-1.3-9.1-3.9c-2.2-2.6-3.3-6.1-3.3-10.6c0-2.9,0.5-5.4,1.5-7.6c1-2.2,2.4-3.9,4.3-5.1c1.9-1.2,4.1-1.8,6.7-1.8
		C387.4,16.5,390.4,17.8,392.6,20.4z M376.3,31.1c0,7.1,2.4,10.6,7.2,10.6c4.8,0,7.2-3.5,7.2-10.6c0-7.1-2.4-10.6-7.1-10.6
		C378.7,20.4,376.3,24,376.3,31.1z"/>
	<path class="st1" d="M424.4,20.3c1.6,2.5,2.5,6.1,2.5,10.7c0,4.4-0.9,7.9-2.8,10.5c-1.9,2.7-4.6,4-8.1,4c-3.1,0-5.5-1.1-7.3-3.2
		v13.2l-4.8,0.6v-39h4.2l0.4,3.7c1-1.4,2.2-2.5,3.7-3.2c1.4-0.8,2.9-1.1,4.5-1.1C420.1,16.5,422.7,17.8,424.4,20.3z M421.6,31
		c0-7.1-2.1-10.6-6.3-10.6c-1.4,0-2.6,0.4-3.7,1.2c-1.1,0.8-2.1,1.8-2.9,3.1v13.5c0.7,1.1,1.6,1.9,2.6,2.5c1.1,0.6,2.2,0.9,3.5,0.9
		C419.3,41.6,421.6,38.1,421.6,31z"/>
	<path class="st1" d="M456.6,17.2v39l-4.8-0.6V41.2c-0.9,1.4-2,2.4-3.4,3.2c-1.4,0.8-2.9,1.1-4.5,1.1c-3.3,0-5.9-1.3-7.7-3.9
		c-1.8-2.6-2.8-6.1-2.8-10.5c0-2.8,0.4-5.4,1.3-7.6c0.9-2.2,2.1-3.9,3.8-5.2c1.6-1.2,3.6-1.9,5.8-1.9c2.9,0,5.5,1.2,7.8,3.7l0.4-3.1
		H456.6z M448.7,40.7c1.1-0.7,2.1-1.7,3.1-3.1V24c-0.9-1.2-1.9-2.1-2.9-2.7c-1-0.6-2.2-0.9-3.5-0.9c-2.1,0-3.8,0.9-5,2.7
		c-1.2,1.8-1.8,4.5-1.8,8c0,3.6,0.5,6.2,1.6,8c1.1,1.8,2.6,2.6,4.7,2.6C446.4,41.7,447.6,41.4,448.7,40.7z"/>
	<path class="st1" d="M481.4,16.9l-0.9,4.7c-0.8-0.2-1.7-0.3-2.4-0.3c-1.7,0-3.1,0.6-4.2,1.9c-1.1,1.3-1.9,3.2-2.5,5.9v15.8h-4.8
		V17.2h4.2l0.5,5.6c0.7-2.1,1.7-3.6,3-4.7c1.3-1.1,2.7-1.6,4.4-1.6C479.6,16.5,480.5,16.7,481.4,16.9z"/>
	<path class="st1" d="M498.8,17.3c1.5,0.5,2.9,1.3,4.3,2.4l-2.1,3.1c-1.3-0.8-2.5-1.4-3.6-1.8c-1.1-0.4-2.3-0.6-3.6-0.6
		c-1.6,0-2.8,0.3-3.7,1c-0.9,0.6-1.4,1.5-1.4,2.7c0,1.1,0.4,2,1.3,2.6c0.9,0.6,2.4,1.2,4.7,1.8c3.1,0.8,5.4,1.8,6.9,3.2
		c1.5,1.3,2.3,3.2,2.3,5.5c0,2.7-1.1,4.8-3.2,6.3c-2.1,1.4-4.7,2.2-7.8,2.2c-4.2,0-7.7-1.2-10.5-3.6L485,39c2.4,1.8,5,2.7,7.8,2.7
		c1.8,0,3.3-0.4,4.3-1.1c1.1-0.8,1.6-1.8,1.6-3.1c0-0.9-0.2-1.7-0.6-2.3c-0.4-0.6-1.1-1.1-2-1.5c-0.9-0.4-2.3-0.9-4.2-1.4
		c-2.9-0.8-5.1-1.8-6.4-3.1c-1.3-1.3-2-2.9-2-4.9c0-1.4,0.4-2.7,1.3-3.9c0.9-1.2,2.1-2.1,3.6-2.7c1.5-0.6,3.2-1,5.1-1
		C495.5,16.5,497.2,16.8,498.8,17.3z"/>
	<path class="st1" d="M524.7,43.7c-1.8,1.3-3.9,1.9-6.2,1.9c-2.4,0-4.2-0.7-5.5-2c-1.3-1.4-2-3.3-2-5.9V20.9h-4.8v-3.7h4.8v-6.3
		l4.8-0.6v6.8h6.6l-0.5,3.7h-6.1v16.5c0,1.4,0.3,2.5,0.8,3.1c0.5,0.6,1.4,1,2.6,1c1.1,0,2.3-0.4,3.7-1.1L524.7,43.7z"/>
	<path class="st1" d="M550.4,44.9h-4.2l-0.4-4.3c-1.1,1.7-2.3,3-3.6,3.8c-1.4,0.8-3,1.2-5,1.2c-2.4,0-4.3-0.7-5.7-2.2
		c-1.4-1.5-2.1-3.6-2.1-6.3V17.2h4.8v19.4c0,1.9,0.3,3.2,1,4c0.7,0.8,1.8,1.2,3.3,1.2c2.7,0,5-1.6,7-4.8V17.2h4.8V44.9z"/>
	<path class="st1" d="M580.7,17.2l-9.4,27.7h-5.8l-9.6-27.7h5.3l7.3,23.4l7.2-23.4H580.7z"/>
	<path class="st1" d="M618,17.2l-6.3,27.7h-6.6l-4.8-23.4l-5,23.4h-6.4l-6.5-27.7h4.8l5,24.4l5.5-24.4h5.4l5.2,24.4l5.1-24.4H618z"
		/>
	<path class="st1" d="M634.7,30.1l9.6,14.8h-5.8l-6.8-11.7l-6.9,11.7h-5.5l9.7-14.6l-8.6-13.1h5.7l5.8,10.2l5.8-10.2h5.5L634.7,30.1
		z"/>
	<path class="st1" d="M660.7,45.1c-1.1,3.2-2.6,5.8-4.6,7.7c-1.9,1.9-4.7,3-8.3,3.4l-0.5-3.8c1.8-0.3,3.3-0.8,4.4-1.4
		c1.1-0.6,2-1.4,2.6-2.3c0.6-0.9,1.3-2.2,1.8-3.8h-1.6l-9.3-27.7h5.2l7.4,24.2l7.3-24.2h5L660.7,45.1z"/>
	<path class="st1" d="M691.7,17.2v3.7l-14.5,20h14.6l-0.6,4.1h-19.5v-3.6l14.4-20H673v-4.1H691.7z"/>
</g>
<g class="st0">
	<path class="st1" d="M24.6,111.6l-2.7-9.1H8.1l-2.7,9.1H0.3l11.6-36.3h6.3l11.6,36.3H24.6z M9.3,98.4h11.3l-5.6-19L9.3,98.4z"/>
	<path class="st1" d="M57.5,95c1.5,1.3,2.3,3.4,2.3,6.2c0,6.9-4.8,10.3-14.4,10.3h-10V75.3H44c4.6,0,8.1,0.8,10.6,2.3
		c2.4,1.5,3.7,3.8,3.7,6.9c0,2.1-0.7,3.9-2,5.3c-1.3,1.4-2.9,2.3-4.8,2.7C53.9,92.8,55.9,93.7,57.5,95z M40.4,79.2v11.4h5.5
		c2.1,0,3.8-0.5,5.2-1.5c1.4-1,2-2.5,2-4.3c0-2.1-0.7-3.6-2.1-4.4c-1.4-0.8-3.6-1.2-6.5-1.2H40.4z M52.2,106.3
		c1.6-0.9,2.3-2.5,2.3-5c0-2.4-0.8-4.1-2.3-5.2c-1.5-1.1-3.5-1.6-5.9-1.6h-6v13.1h5C48.4,107.6,50.6,107.1,52.2,106.3z"/>
	<path class="st1" d="M85.6,75.5c1.5,0.6,3,1.5,4.6,2.7l-2.7,3.2c-2.2-1.8-4.5-2.7-7-2.7c-3,0-5.5,1.2-7.3,3.5
		c-1.8,2.3-2.8,6-2.8,11.2c0,5,0.9,8.7,2.7,11c1.8,2.4,4.2,3.6,7.3,3.6c1.5,0,2.9-0.3,4.1-0.8c1.2-0.5,2.4-1.3,3.7-2.2l2.5,3.2
		c-1.1,1.2-2.6,2.1-4.3,2.9c-1.8,0.8-3.8,1.2-6.1,1.2c-2.9,0-5.6-0.7-7.9-2.2c-2.3-1.5-4.1-3.6-5.4-6.4c-1.3-2.8-1.9-6.2-1.9-10.2
		c0-4,0.7-7.4,2-10.2c1.3-2.8,3.1-5,5.4-6.4c2.3-1.4,4.8-2.2,7.6-2.2C82.3,74.7,84.1,74.9,85.6,75.5z"/>
	<path class="st1" d="M117.7,79.1c3.3,2.5,5,7.3,5,14.1c0,6.7-1.7,11.4-5,14.2c-3.3,2.8-7.3,4.1-12.1,4.1h-8.7V75.3h7.6
		C110,75.3,114.4,76.6,117.7,79.1z M101.9,79.3v28.3h4.1c3.4,0,6.1-1,8.2-3.1c2.1-2.1,3.2-5.8,3.2-11.3c0-3.8-0.5-6.8-1.6-8.8
		c-1.1-2.1-2.5-3.4-4.2-4.1c-1.7-0.7-3.7-1-6-1H101.9z"/>
	<path class="st1" d="M150.5,75.3l-0.6,4h-14.1v11.8h12.2v4h-12.2v12.4h15.1v4h-20.1V75.3H150.5z"/>
	<path class="st1" d="M159,111.6V75.3h19.3l-0.6,4H164v12.4h11.8v3.9H164v16H159z"/>
	<path class="st1" d="M203.3,75.6c1.7,0.6,3.3,1.7,5,3l-2.9,3.1c-1.3-1.1-2.5-1.8-3.7-2.3c-1.2-0.5-2.6-0.7-4.2-0.7
		c-1.9,0-3.6,0.5-5.1,1.5c-1.6,1-2.8,2.6-3.8,4.8c-1,2.2-1.5,5-1.5,8.3c0,5.1,0.8,8.8,2.5,11.2c1.7,2.4,4.1,3.5,7.4,3.5
		c2.7,0,5-0.5,6.9-1.6v-11h-6.4l-0.6-4.1h12V109c-3.8,2.1-7.7,3.2-11.8,3.2c-4.8,0-8.5-1.6-11.2-4.8c-2.7-3.2-4-7.9-4-14
		c0-3.9,0.7-7.3,2.1-10.1c1.4-2.8,3.3-5,5.7-6.4c2.4-1.5,5-2.2,7.9-2.2C199.6,74.7,201.6,75,203.3,75.6z"/>
	<path class="st1" d="M237.5,111.6v-17h-15.3v17h-5V75.3h5v15.2h15.3V75.3h5v36.3H237.5z"/>
	<path class="st1" d="M258,75.3v36.3h-5V75.3H258z"/>
	<path class="st1" d="M274.3,106.5c0,3.6-0.8,6.3-2.3,8.1c-1.6,1.8-3.9,3.2-7.1,4.2l-1.3-3.6c1.6-0.6,2.8-1.3,3.6-2.1
		c0.8-0.7,1.4-1.6,1.7-2.7c0.3-1.1,0.5-2.4,0.5-4.1v-31h5V106.5z"/>
	<path class="st1" d="M289.6,75.3v36.3h-5V75.3H289.6z M309.3,75.3l-13.7,16.6l14.7,19.7h-6.2l-14.3-19.4l13.8-16.9H309.3z"/>
	<path class="st1" d="M320.6,75.3v31.9h14.9l-0.6,4.4h-19.3V75.3H320.6z"/>
	<path class="st1" d="M373.7,111.6h-4.8l-1.3-16.4c-0.5-6.4-0.8-11.4-0.9-14.8l-7.8,27.1h-4.7l-8.3-27.1c0,4.4-0.2,9.5-0.7,15.2
		l-1.2,16h-4.7l3-36.3h6.7l7.6,26.4l7.3-26.4h6.8L373.7,111.6z"/>
	<path class="st1" d="M407.7,111.6H401l-14.7-30.8c0.2,2.4,0.4,4.7,0.5,6.7c0.1,2.1,0.2,4.5,0.2,7.5v16.6h-4.7V75.3h6.5l14.9,30.9
		c-0.1-0.9-0.2-2.5-0.4-4.8c-0.2-2.3-0.3-4.4-0.3-6.3V75.3h4.7V111.6z"/>
	<path class="st1" d="M439.2,76.9c2.3,1.5,4.1,3.6,5.4,6.4c1.3,2.8,1.9,6.2,1.9,10.2c0,3.9-0.6,7.3-1.9,10.1s-3.1,5-5.4,6.4
		c-2.3,1.5-5,2.2-8,2.2c-3.1,0-5.7-0.7-8-2.2c-2.3-1.4-4.1-3.6-5.4-6.4c-1.3-2.8-1.9-6.2-1.9-10.2c0-3.9,0.6-7.3,1.9-10.1
		c1.3-2.8,3.1-5,5.4-6.5c2.3-1.5,5-2.2,8-2.2C434.3,74.7,436.9,75.4,439.2,76.9z M423.8,82.4c-1.8,2.4-2.6,6.1-2.6,11.2
		c0,5,0.9,8.7,2.7,11.1c1.8,2.4,4.2,3.5,7.3,3.5c6.7,0,10-4.9,10-14.6c0-9.8-3.3-14.7-10-14.7C428,78.8,425.6,80,423.8,82.4z"/>
	<path class="st1" d="M474.6,78.1c2.5,1.9,3.7,4.7,3.7,8.4c0,4-1.3,6.9-3.8,8.8c-2.6,1.9-6,2.9-10.2,2.9h-4.6v13.3h-5V75.3h9.5
		C468.7,75.3,472.2,76.2,474.6,78.1z M470.7,92.6c1.5-1.1,2.3-3.1,2.3-6.1c0-2.6-0.8-4.5-2.3-5.6c-1.5-1.2-3.7-1.7-6.6-1.7h-4.5
		v15.1h4.4C467,94.3,469.2,93.7,470.7,92.6z"/>
	<path class="st1" d="M510.5,110.4c1.6,0.6,3.1,1.4,4.6,2.4l-3.3,4.2c-2.1-1.9-4.1-3.1-6-3.8c-1.9-0.7-4.5-1.1-7.7-1.1
		c-3,0-5.7-0.7-8-2.1c-2.3-1.4-4.1-3.5-5.3-6.3c-1.3-2.8-1.9-6.2-1.9-10.1c0-3.9,0.6-7.3,1.9-10.1c1.3-2.8,3.1-5,5.4-6.5
		c2.3-1.5,5-2.2,8-2.2c3.1,0,5.7,0.7,8,2.2c2.3,1.5,4.1,3.6,5.4,6.4c1.3,2.8,1.9,6.2,1.9,10.2c0,4.2-0.7,7.6-2.1,10.1
		c-1.4,2.5-3.5,4.5-6.2,5.9C507.2,109.5,508.9,109.8,510.5,110.4z M490.9,104.6c1.8,2.4,4.2,3.5,7.3,3.5c6.7,0,10-4.9,10-14.6
		c0-9.8-3.3-14.7-10-14.7c-3.2,0-5.6,1.2-7.4,3.6c-1.8,2.4-2.6,6.1-2.6,11.2C488.2,98.5,489.1,102.2,490.9,104.6z"/>
	<path class="st1" d="M532.3,96.2h-5.6v15.4h-5V75.3h9.5c4.5,0,8,0.9,10.3,2.6c2.3,1.7,3.5,4.3,3.5,7.7c0,2.5-0.7,4.6-1.9,6.2
		c-1.3,1.6-3.3,2.8-5.9,3.6l9.8,16.3h-6L532.3,96.2z M531.7,92.4c2.6,0,4.6-0.5,5.9-1.6c1.3-1.1,2-2.8,2-5.2c0-2.2-0.7-3.9-2-4.9
		c-1.4-1-3.5-1.5-6.5-1.5h-4.5v13.2H531.7z"/>
	<path class="st1" d="M568.3,75.7c1.7,0.7,3.4,1.7,5,3.2l-2.7,3.1c-1.4-1.1-2.7-1.9-4-2.4c-1.3-0.5-2.7-0.8-4.2-0.8
		c-1.9,0-3.5,0.4-4.7,1.3c-1.2,0.9-1.8,2.2-1.8,3.8c0,1.1,0.2,1.9,0.6,2.7c0.4,0.7,1.2,1.4,2.3,2c1.1,0.6,2.8,1.2,5,1.9
		c2.3,0.7,4.2,1.5,5.7,2.3c1.5,0.8,2.7,1.9,3.7,3.3c0.9,1.4,1.4,3.2,1.4,5.4c0,2.1-0.5,4-1.6,5.6c-1,1.6-2.5,2.9-4.5,3.8
		c-1.9,0.9-4.3,1.4-6.9,1.4c-5,0-9.1-1.6-12.3-4.7l2.7-3.1c1.5,1.2,3,2.1,4.5,2.7c1.5,0.6,3.2,0.9,5.1,0.9c2.2,0,4.1-0.6,5.6-1.7
		c1.5-1.1,2.2-2.7,2.2-4.8c0-1.2-0.2-2.2-0.7-3c-0.5-0.8-1.2-1.5-2.3-2.1c-1.1-0.6-2.7-1.3-4.8-1.9c-3.7-1.1-6.4-2.5-8.2-4.1
		c-1.7-1.6-2.6-3.7-2.6-6.4c0-1.8,0.5-3.5,1.4-4.9c1-1.4,2.3-2.6,4.1-3.4c1.7-0.8,3.7-1.2,5.9-1.2C564.5,74.7,566.6,75,568.3,75.7z"
		/>
	<path class="st1" d="M602.1,75.3l-0.5,4.3h-10.1v32h-5v-32h-10.3v-4.3H602.1z"/>
	<path class="st1" d="M632.8,99.9c0,2.4-0.5,4.6-1.5,6.4c-1,1.8-2.5,3.3-4.4,4.3c-1.9,1-4.2,1.6-6.9,1.6c-4,0-7.2-1.1-9.3-3.3
		c-2.2-2.2-3.3-5.2-3.3-8.9V75.3h5v24.3c0,2.8,0.6,4.9,1.9,6.3c1.3,1.4,3.2,2.1,5.7,2.1c2.6,0,4.5-0.7,5.8-2.1
		c1.3-1.4,1.9-3.5,1.9-6.3V75.3h5.1V99.9z"/>
	<path class="st1" d="M666.5,75.3l-11.6,36.3h-5.4l-11.7-36.3h5.4l9.1,30.9l9.1-30.9H666.5z"/>
	<path class="st1" d="M709,75.3l-7.4,36.3h-6.4l-6.7-30.4l-6.7,30.4h-6.3l-7.4-36.3h4.9l5.8,31.9l7-31.9h5.3l7.2,31.9l6.1-31.9H709z
		"/>
	<path class="st1" d="M727.4,92l11.1,19.6h-5.7l-8.4-16.1l-8.5,16.1h-5.4l10.9-19.3l-10-17h5.7l7.3,13.6l7.4-13.6h5.4L727.4,92z"/>
	<path class="st1" d="M767.4,75.3l-11.7,22.3v14h-5.1V97.7L739,75.3h5.5l8.8,18l8.8-18H767.4z"/>
	<path class="st1" d="M792,75.3v4.1l-18,28h18l-0.6,4.3h-23v-4l18.1-28.1h-16.2v-4.2H792z"/>
</g>
<g class="st0">
	<path class="st1" d="M17,143v35.2h-4.8v-30.1l-8.2,5l-2.1-3.4l10.9-6.7H17z"/>
	<path class="st1" d="M40.4,143.7c1.6,0.8,2.8,2,3.7,3.4c0.9,1.5,1.3,3.1,1.3,4.9c0,2.1-0.5,4.2-1.4,6.2c-1,2-2.4,4.1-4.4,6.4
		c-2,2.3-5,5.5-9.1,9.5h15.8l-0.6,4.1H24.8v-3.8c4.7-4.9,8-8.5,10-10.7c2-2.3,3.4-4.2,4.2-5.9c0.8-1.7,1.3-3.5,1.3-5.4
		c0-1.8-0.5-3.3-1.6-4.3c-1.1-1-2.5-1.6-4.2-1.6c-1.4,0-2.7,0.3-3.8,0.9c-1.1,0.6-2.2,1.6-3.5,2.9l-3.2-2.5c1.4-1.8,3-3.1,4.8-4
		c1.8-0.9,3.7-1.3,5.9-1.3C36.9,142.5,38.8,142.9,40.4,143.7z"/>
	<path class="st1" d="M66.1,143.7c1.6,0.8,2.8,1.9,3.6,3.3c0.8,1.4,1.2,2.9,1.2,4.5c0,2.1-0.6,3.9-1.9,5.3c-1.2,1.4-2.9,2.3-5,2.8
		c2.4,0.2,4.3,1.1,5.7,2.5c1.5,1.5,2.2,3.5,2.2,6c0,2-0.5,3.9-1.5,5.5c-1,1.7-2.4,2.9-4.2,3.9c-1.8,0.9-3.9,1.4-6.3,1.4
		c-2.1,0-4.1-0.4-5.9-1.2c-1.8-0.8-3.4-2-4.7-3.6l2.9-2.7c1.2,1.2,2.3,2.1,3.6,2.6s2.5,0.8,4,0.8c2.2,0,3.9-0.6,5.2-1.9
		c1.3-1.2,1.9-2.9,1.9-5c0-2.3-0.6-3.9-1.8-4.9c-1.2-0.9-2.9-1.4-5.2-1.4h-2.6l0.6-3.7h1.8c1.8,0,3.3-0.5,4.6-1.6
		c1.2-1.1,1.8-2.6,1.8-4.6c0-1.6-0.5-3-1.6-3.9c-1.1-1-2.5-1.4-4.3-1.4c-1.4,0-2.6,0.2-3.8,0.7c-1.1,0.5-2.3,1.3-3.5,2.4l-2.5-2.9
		c3-2.8,6.3-4.2,10.1-4.2C62.6,142.5,64.5,142.9,66.1,143.7z"/>
	<path class="st1" d="M101,165.7v3.8h-4.6v8.7h-4.7v-8.7H76.7v-3.5l10.6-23.6l4.1,1.7l-9.5,21.5h10l0.4-9.5h4.2v9.5H101z"/>
	<path class="st1" d="M124.2,146.8h-13.7v10.4c1.8-0.9,3.7-1.4,5.6-1.4c3,0,5.4,1,7.3,3c1.8,2,2.7,4.7,2.7,8.2
		c0,2.3-0.5,4.4-1.5,6.2c-1,1.8-2.4,3.2-4.3,4.2c-1.8,1-4,1.5-6.4,1.5c-2.1,0-4.1-0.4-5.7-1.1c-1.7-0.8-3.2-1.9-4.7-3.3l2.8-2.8
		c1.1,1.1,2.3,2,3.5,2.5c1.2,0.5,2.5,0.8,4.1,0.8c2.2,0,4-0.7,5.3-2.1c1.3-1.4,1.9-3.4,1.9-6c0-2.6-0.6-4.4-1.7-5.6
		c-1.2-1.2-2.7-1.7-4.7-1.7c-0.9,0-1.8,0.1-2.5,0.3c-0.8,0.2-1.6,0.5-2.5,0.9h-3.8V143h19.1L124.2,146.8z"/>
	<path class="st1" d="M149.6,156.3c1.5,0.8,2.7,2.1,3.5,3.8c0.9,1.7,1.3,3.7,1.3,6.2c0,2.5-0.5,4.7-1.5,6.6c-1,1.9-2.4,3.4-4.1,4.4
		c-1.7,1-3.6,1.6-5.7,1.6c-4.1,0-7.1-1.5-9-4.6c-1.9-3-2.8-7.2-2.8-12.6c0-3.8,0.5-7.2,1.6-10.1c1.1-2.9,2.6-5.1,4.6-6.7
		c2-1.6,4.4-2.4,7.1-2.4c2.7,0,5.1,0.7,7.3,2.2l-1.9,3.2c-1.7-1-3.5-1.5-5.4-1.5c-2.5,0-4.5,1.2-6,3.6c-1.5,2.4-2.3,5.7-2.4,9.7
		c2.2-3.1,5-4.6,8.5-4.6C146.5,155.1,148.1,155.5,149.6,156.3z M147.9,172.7c1.1-1.5,1.6-3.6,1.6-6.3c0-5-1.9-7.5-5.7-7.5
		c-1.5,0-3,0.4-4.3,1.3c-1.3,0.9-2.4,2-3.3,3.6c0.1,3.9,0.7,6.7,1.8,8.5c1.1,1.8,2.8,2.7,5.1,2.7C145.3,175,146.8,174.3,147.9,172.7
		z"/>
	<path class="st1" d="M177,143v3.6l-13.2,32.1l-4.4-1.5l12.7-30.3h-15.6V143H177z"/>
	<path class="st1" d="M204.2,168.8c0,1.9-0.5,3.7-1.6,5.2c-1,1.5-2.5,2.7-4.3,3.6c-1.9,0.9-4,1.3-6.3,1.3c-2.4,0-4.5-0.4-6.3-1.3
		c-1.8-0.8-3.2-2-4.2-3.5c-1-1.5-1.5-3.2-1.5-5.2c0-2.2,0.6-4,1.8-5.5c1.2-1.5,2.9-2.7,5.2-3.7c-1.9-0.9-3.2-2.1-4.1-3.4
		c-0.9-1.4-1.3-2.9-1.3-4.8c0-1.9,0.5-3.5,1.5-4.9c1-1.4,2.3-2.4,3.9-3.1c1.6-0.7,3.4-1.1,5.2-1.1c1.8,0,3.6,0.3,5.2,1s3,1.7,4,3
		c1,1.4,1.5,3,1.5,4.9c0,1.8-0.5,3.3-1.5,4.5c-1,1.3-2.5,2.4-4.5,3.4C201.7,161.3,204.2,164.5,204.2,168.8z M197.2,173.3
		c1.3-1.1,1.9-2.6,1.9-4.5c0-1.3-0.2-2.3-0.7-3.2c-0.5-0.9-1.3-1.6-2.4-2.3c-1.1-0.6-2.6-1.3-4.6-2l-1.3-0.5
		c-1.8,0.8-3.1,1.9-3.9,3.2c-0.8,1.3-1.3,2.9-1.3,4.8c0,1.9,0.6,3.4,1.9,4.5c1.3,1.1,3,1.6,5.2,1.6
		C194.2,175,195.9,174.5,197.2,173.3z M187.7,147.5c-1.1,0.9-1.6,2.3-1.6,4.1c0,1.7,0.5,3,1.6,3.8c1,0.9,2.7,1.7,5,2.4l0.9,0.3
		c1.6-0.9,2.7-1.9,3.4-2.9c0.7-1,1.1-2.3,1.1-3.7c0-1.6-0.5-3-1.6-3.9c-1-1-2.5-1.5-4.4-1.5C190.3,146.1,188.8,146.6,187.7,147.5z"
		/>
	<path class="st1" d="M227.8,146.1c1.9,2.4,2.9,5.8,2.9,10c0,4.8-0.7,8.7-1.9,11.6c-1.3,2.9-3.3,5.3-6,7c-2.7,1.7-6.3,3.3-10.8,4.6
		l-1.1-3.6c4.7-1.3,8.3-3.1,10.8-5.4c2.5-2.3,3.9-5.3,4-9.1c-0.8,1.3-1.9,2.3-3.3,3.1c-1.4,0.8-2.9,1.2-4.6,1.2
		c-1.8,0-3.5-0.5-4.9-1.4c-1.5-0.9-2.6-2.2-3.5-3.9c-0.9-1.7-1.3-3.7-1.3-6c0-2.4,0.5-4.5,1.5-6.2c1-1.8,2.4-3.1,4.1-4
		c1.7-0.9,3.6-1.4,5.7-1.4C223,142.5,225.9,143.7,227.8,146.1z M225.8,157.3c0.1-3.9-0.4-6.7-1.4-8.4c-1-1.7-2.7-2.6-4.9-2.6
		c-2.1,0-3.7,0.7-4.8,2.1c-1.1,1.4-1.7,3.3-1.7,5.8c0,2.5,0.5,4.3,1.6,5.6c1.1,1.2,2.5,1.9,4.3,1.9
		C221.6,161.6,223.9,160.2,225.8,157.3z"/>
	<path class="st1" d="M256.8,147.1c2,3.1,3,7.6,3,13.5c0,5.9-1,10.4-3,13.5c-2,3.1-4.9,4.7-8.8,4.7c-3.9,0-6.8-1.6-8.8-4.7
		c-2-3.1-3-7.6-3-13.5c0-5.9,1-10.4,3-13.5c2-3.1,4.9-4.7,8.8-4.7C251.9,142.5,254.8,144,256.8,147.1z M242.9,149.7
		c-1.1,2.2-1.7,5.9-1.7,11c0,5.1,0.6,8.7,1.7,11s2.8,3.4,5.1,3.4c2.2,0,3.9-1.1,5.1-3.4c1.1-2.3,1.7-5.9,1.7-11
		c0-5-0.6-8.7-1.7-10.9c-1.1-2.3-2.8-3.4-5.1-3.4C245.7,146.3,244,147.4,242.9,149.7z"/>
</g>
</svg>
