<?xml version="1.0" encoding="utf-8"?>
<!-- Generator: Adobe Illustrator 22.0.0, SVG Export Plug-In . SVG Version: 6.00 Build 0)  -->
<svg version="1.1" id="Layer_1" xmlns="http://www.w3.org/2000/svg" xmlns:xlink="http://www.w3.org/1999/xlink" x="0px" y="0px"
	 viewBox="0 0 64 64" style="enable-background:new 0 0 64 64;" xml:space="preserve">
<style type="text/css">
	.st0{fill:#14396A;}
	.st1{fill:#5CDB94;}
</style>
<title>logo-64</title>
<path class="st0" d="M12.8,4.4c19.4,13.2,39,26.7,50.9,32.7V4.4H12.8z"/>
<polygon class="st1" points="52.6,30 52.6,24.7 59.9,24.7 59.9,16 52.6,16 52.6,8.7 43.9,8.7 43.9,16 36.5,16 36.5,19.6 12.8,4.4 
	12.8,37.1 59.8,40.5 63.7,37.1 "/>
<path class="st0" d="M30.8,53l7.4,6.6l21.6-19.1c-3.9-2.5-8.1-3.8-12-5.1s-10.2-4.5-13.6-8.1s-5.7-7.1-7.1-8.3
	c-0.4-0.3-1-0.2-1.3,0.2c-0.1,0.1-0.1,0.2-0.1,0.2l-1.4,4.4c-1.4-1.6-2.9-3-4.5-4.4c-0.2-0.1-0.4,0-0.5,0.1c0,0.1-0.1,0.2-0.1,0.3
	c0.5,2.9,0.6,5.9,0.2,8.8c-8.1,6.1-7.8,9.6-7.8,9.6L0.3,45.8c-0.4,1.9,2.8,2.7,2.8,2.7C4,49.8,5.4,50.8,7,51.1c0.4,1.1,2,1.2,2.7,1
	c6.4-2.4,10.2-2.3,12.5-1.7c1.9,0.5,3.2,2.1,3.4,4c0,0.2,0,0.5,0,0.7l0.4-1c0.3-0.5,0.7-0.4,1.1,0.1s1.9,1.6,1.9,1.6
	C27.4,49.4,30.8,53,30.8,53z"/>
</svg>
